<mxfile host="app.diagrams.net" modified="2023-01-18T05:37:05.735Z" agent="5.0 (Windows NT 10.0; Win64; x64) AppleWebKit/537.36 (KHTML, like Gecko) Chrome/108.0.0.0 Safari/537.36" etag="PzS2r83UpRnNWPeFILXT" version="20.8.5" type="github">
  <diagram id="qIQ0ecdT5cpDteRDtv97" name="Page-1">
    <mxGraphModel dx="1434" dy="764" grid="1" gridSize="10" guides="1" tooltips="1" connect="1" arrows="1" fold="1" page="1" pageScale="1" pageWidth="827" pageHeight="1169" math="0" shadow="0">
      <root>
        <mxCell id="0" />
        <mxCell id="1" parent="0" />
        <mxCell id="Ya52i8-AY6qaeCq4us4A-1" value="" style="rounded=0;whiteSpace=wrap;html=1;fontSize=11;" parent="1" vertex="1">
          <mxGeometry x="40" y="40" width="810" height="700" as="geometry" />
        </mxCell>
        <mxCell id="Ya52i8-AY6qaeCq4us4A-2" value="&lt;b&gt;random-api&lt;/b&gt;" style="shape=image;html=1;verticalAlign=top;verticalLabelPosition=bottom;labelBackgroundColor=#ffffff;imageAspect=0;aspect=fixed;image=https://cdn1.iconfinder.com/data/icons/bootstrap-vol-3/16/hexagon-128.png" parent="1" vertex="1">
          <mxGeometry x="60" y="281" width="128" height="128" as="geometry" />
        </mxCell>
        <mxCell id="Ya52i8-AY6qaeCq4us4A-3" value="&lt;b&gt;wiki-api&lt;/b&gt;" style="shape=image;html=1;verticalAlign=top;verticalLabelPosition=bottom;labelBackgroundColor=#ffffff;imageAspect=0;aspect=fixed;image=https://cdn1.iconfinder.com/data/icons/bootstrap-vol-3/16/hexagon-128.png;imageBorder=none;" parent="1" vertex="1">
          <mxGeometry x="196" y="102" width="128" height="128" as="geometry" />
        </mxCell>
        <mxCell id="Ya52i8-AY6qaeCq4us4A-4" value="&lt;b&gt;movie-api&lt;/b&gt;" style="shape=image;html=1;verticalAlign=top;verticalLabelPosition=bottom;labelBackgroundColor=#ffffff;imageAspect=0;aspect=fixed;image=https://cdn1.iconfinder.com/data/icons/bootstrap-vol-3/16/hexagon-128.png" parent="1" vertex="1">
          <mxGeometry x="433" y="102" width="128" height="128" as="geometry" />
        </mxCell>
        <mxCell id="Ya52i8-AY6qaeCq4us4A-5" value="" style="edgeStyle=orthogonalEdgeStyle;rounded=0;orthogonalLoop=1;jettySize=auto;html=1;" parent="1" source="Ya52i8-AY6qaeCq4us4A-6" target="Ya52i8-AY6qaeCq4us4A-11" edge="1">
          <mxGeometry relative="1" as="geometry" />
        </mxCell>
        <mxCell id="Ya52i8-AY6qaeCq4us4A-6" value="&lt;b&gt;blogger-api&lt;/b&gt;" style="shape=image;html=1;verticalAlign=top;verticalLabelPosition=bottom;labelBackgroundColor=#ffffff;imageAspect=0;aspect=fixed;image=https://cdn1.iconfinder.com/data/icons/bootstrap-vol-3/16/hexagon-128.png" parent="1" vertex="1">
          <mxGeometry x="516" y="266" width="128" height="128" as="geometry" />
        </mxCell>
        <mxCell id="Ya52i8-AY6qaeCq4us4A-7" value="" style="points=[[0.145,0.145,0],[0.5,0,0],[0.855,0.145,0],[1,0.5,0],[0.855,0.855,0],[0.5,1,0],[0.145,0.855,0],[0,0.5,0]];shape=mxgraph.bpmn.event;html=1;verticalLabelPosition=bottom;labelBackgroundColor=#ffffff;verticalAlign=top;align=center;perimeter=ellipsePerimeter;outlineConnect=0;aspect=fixed;outline=standard;symbol=timer;" parent="1" vertex="1">
          <mxGeometry x="67" y="267" width="46" height="46" as="geometry" />
        </mxCell>
        <mxCell id="Ya52i8-AY6qaeCq4us4A-8" style="edgeStyle=orthogonalEdgeStyle;rounded=0;orthogonalLoop=1;jettySize=auto;html=1;" parent="1" source="Ya52i8-AY6qaeCq4us4A-9" target="Ya52i8-AY6qaeCq4us4A-10" edge="1">
          <mxGeometry relative="1" as="geometry" />
        </mxCell>
        <mxCell id="Ya52i8-AY6qaeCq4us4A-9" value="&lt;b&gt;s3-api&lt;/b&gt;" style="shape=image;html=1;verticalAlign=top;verticalLabelPosition=bottom;labelBackgroundColor=#ffffff;imageAspect=0;aspect=fixed;image=https://cdn1.iconfinder.com/data/icons/bootstrap-vol-3/16/hexagon-128.png" parent="1" vertex="1">
          <mxGeometry x="298" y="452" width="128" height="128" as="geometry" />
        </mxCell>
        <mxCell id="Ya52i8-AY6qaeCq4us4A-10" value="&lt;span style=&quot;font-weight: normal;&quot;&gt;Amazon S3&lt;/span&gt;" style="sketch=0;outlineConnect=0;fontColor=#232F3E;gradientColor=none;strokeColor=#ffffff;fillColor=#232F3E;dashed=0;verticalLabelPosition=middle;verticalAlign=bottom;align=center;html=1;whiteSpace=wrap;fontSize=10;fontStyle=1;spacing=3;shape=mxgraph.aws4.productIcon;prIcon=mxgraph.aws4.s3;" parent="1" vertex="1">
          <mxGeometry x="333" y="631" width="58" height="79" as="geometry" />
        </mxCell>
        <mxCell id="Ya52i8-AY6qaeCq4us4A-11" value="Blogger post" style="shape=image;html=1;verticalAlign=top;verticalLabelPosition=bottom;labelBackgroundColor=#ffffff;imageAspect=0;aspect=fixed;image=https://cdn3.iconfinder.com/data/icons/picons-social/57/65-blogger-128.png" parent="1" vertex="1">
          <mxGeometry x="546" y="452" width="68" height="68" as="geometry" />
        </mxCell>
        <mxCell id="Ya52i8-AY6qaeCq4us4A-12" value="Secrets Manager" style="sketch=0;outlineConnect=0;fontColor=#232F3E;gradientColor=none;strokeColor=#ffffff;fillColor=#232F3E;dashed=0;verticalLabelPosition=middle;verticalAlign=bottom;align=center;html=1;whiteSpace=wrap;fontSize=10;fontStyle=1;spacing=3;shape=mxgraph.aws4.productIcon;prIcon=mxgraph.aws4.secrets_manager;" parent="1" vertex="1">
          <mxGeometry x="756.5" y="240" width="53.5" height="81" as="geometry" />
        </mxCell>
        <mxCell id="Ya52i8-AY6qaeCq4us4A-13" value="" style="dashed=0;outlineConnect=0;html=1;align=center;labelPosition=center;verticalLabelPosition=bottom;verticalAlign=top;shape=mxgraph.weblogos.java" parent="1" vertex="1">
          <mxGeometry x="481" y="112.88" width="20.1" height="38.12" as="geometry" />
        </mxCell>
        <mxCell id="Ya52i8-AY6qaeCq4us4A-14" value="" style="shape=image;verticalLabelPosition=bottom;labelBackgroundColor=default;verticalAlign=top;aspect=fixed;imageAspect=0;image=data:image/png,iVBORw0KGgoAAAANSUhEUgAAAO4AAADuCAYAAAA+7jsiAAAACXBIWXMAAAsSAAALEgHS3X78AAAgAElEQVR42sS9WZMdSZYedv8DEMjEnkACuQLIrOqllt5myBcZpwp7Yd93ILFEArV2NVqi+NCclZQoUQ8zPRw+kCaaJCNNfKLEJ8lMfJHpiTRSesm8W94bQM9M93BGHA45TIVHhEccP+c7xyNRU5o0c7uREb6c5fuOe3h4eHRWt483V7dnRUr9ceL+H9fn6vP0N6nyV3nLPDQvLUtSVS7d1uSr207Ktj/d+2rz5dzrzR/PvyrTwusyFf+/LtJLf+zPs+s/mnm1+WJnVrebEn1KmWkab0I7cF23hzLX9ZDfoB1Rd/ObksTPBXkDe41BvbS9cejDBOgoziOZs1DXhJzbkW1+vCvb/Hzq1eaXh52fXpW+yO3vfPbDQ682vzj4avOT3QwvQj+i23akWyb85m2wqmAsVWROGfagn5JM+Dfl/gb6CI4kGmcUPgR24f7MYHsudYIKEwkI3bkKEQIwW6AcC3D46w4MBflmX5Vp5lVzTBM7/7L6/+VsCaYfTr+CRNXI+5wTUOgiAbUKCCoAyo5DoEmb1LbeBoIFAkCSYfBuz4CeWwRrled5TtjP9mcNUX0AnXM2L33lAie95s65Ms8nFJuB9hFYUxCcUNALfWv5Yqz6RNhXkF0STsrY2D1VfTJWiaziJGnKdtSKEwk4fIx7LWQYFIlSEEHLHvO1EZmQPNW1HOwvJso6XPTXHIZ7GTmqgO0mmQxiSRbtYXnPrUVVPmrh4NF6aXg+Qb0taF8Bu/v9bB/pVV1AzO366Z6SkEE7SXnOXfv8ACXw6+LcqjUaSRRiJYgEVm80VgnOCYkJw/CfyN4b9Y4pxBUKpu2CsVanS86WHRyFAMiTDIA0M4iVCQVWzaFHU5cf6iInuV6IAzJlBn2Rg+fHFcBSOASWvX+qRP5UdXJ8iLuqgcYKaAkacksAaSBpC8BVRrhUEKjM54bEnrRf5Meu59WGuNy+zg9fHHhV3/I4MiNsaKOTkGSZGFmg3jU64iGyB+WTDPbqQVBLMtjZ6Lda4PYF3K6kGsbZNS/Tl4df58Q1hgBCye2ZAlZpEBndMqW87EF9j2sZyIqwzyfKOr50Pa439jYtaBjHADCriIBJpkT2eFRF+TmgUqWHxGVQsMnwiCcx7m/za+5e1Q953X2tHOLiISDX6eOdWXH7UpC/IK+0N799wSOrTAQ3HBjx/eyqknfL8w0ouCjBmAdH4f8EjXQz2OH4ss6OnVQd68sbZ5w3U4cLaAiYgjo50ELi4uFpagyxPHH5UDlVe/7MGBW0Aaox0kiU3ncbdow6F5AoE21wSKYTVLSToPvrcdG7OoA40r6YwJMzz6uJKjd0+2RPSdCiRwYgdHX8qCLv5zV5x8qtylgOj5MMTLqN1cmttNV9tDVqsYgdH+Ja+fWAmSnzKGGAcPMKHRml8dg/NSerxsqMm2Y8+97VDavcUJnPWKMhjCcAlQ/d45qz3gkYDWxrkgfSczD8T437R0yOdrO4PFqLAJRoM5/GfEOi2SL0nyNiPTM/IUHlCOpGMy/nmwmpZlLq1eYX03m5SWkPV1fR8+b5PtuXwV43hfe9mTJMRcPXMQwCfNbXmo9YBSPO2P2rRkBrRIA6QW34T/N8PlXf42ZYuCSDs1yrAlRgaGD2aHJiipYriftaDNnxPZCMaP4e98vqHhfN4j6HI4cxfOyjGd0c+mj3qcp9CxoiryoyapMyqo8gUDMItOe+Z8zJ9fFOObJwoPGP4xwJ3dD3s/1lckNrR3b/eM7dH/PA4Xrowr9z5f2ydi8nOhMxxzJWR13oVkabQZbDcxmMBfkS4z5/G/atHozlLYoVmMpbwXHzOMh8/mUM/VJj/G9HnkydWSyGaDOvcDTarjyfJIq+CIbK8eFxqj2aSexnvPqzN3sWN1UfP4R5njNnp2D+AcufqZNGyMe0HkfAYub4wCsx7HPBtOhh517Vs8RolvXTPY7UJbm/9H4kYP1iqiSve1S0qsxz6KDWn/NKsum4EQRKjCCZWBNbmTrnIkYISaaM9sbKPIo+hO/Uwiv3cXKCCVSYZPjRA4pixiyuP1dE5NnXrYbi6LlZMSSrZpW1Xj+8z5S9XqpFb/W5LHjcoM3iVpFZe76oPRtPleeaq9EJk0x9DirIWd2HPt8Rgv5zcs9bPJdNMsOf/p62fBzkJ6R8nufJuFqw8ao41mfpYwt6cBDGw2drJMhm85NM77GTTJk7GKsjyNQI0FpnoHWC/nwHP6S3hrVjc2ZZjxiZ0lvKoBH2uJlKHi0q6T2uPiGERgc8WqfRYb62qidTF0qkkaAGgaRMpqXq3EL82aL7vxzG0pnfyp6TWT277IZpWD857C0C6FxJ+HJWumnL3cYU53caQTLRiIx7aW2ICx99JVlkJIX9pwfjsfrkIo0Oy63JsQzcpo2be1y4CiiJDE+VxzxyUglPscN7h/oe91V0iBoug6P3aeP6OS5a4td29k5fMKAMQf09CBv+aENc7X4rtkgFDlGNRyTPE7xclctRPv7xw+CGPG6yyZ3/ZI+U79O95XVn60/2vBJyFxNdC9WjOaLLJ9UEGJ1hVieOEn0iyiScujJsrD5Sg7d6wLahTNroDNyPg0dncFJYPIoNsdBBJEy1VUO8x0gyYz0mnn3Gw8CQEC/ny6WLaFiSRhTzkf7HwVA51juhFTWK7MoMLQxm0QUT7WaDU2MWPm0lO16Kyn3l7OXI9JzMJLuhbO0P5q9irfJ8mNw5LqNfJlk+KmomwZp7YOORkCL3KsSlMhKMzDfYCyz88B4/NkNPTazbQHWhjDJjjoN+xofKY/WxjTUpgx8eK8OAxFi/WSV/L2Wt37TkCp7jqqOGDE5ApcYyQn0Gehxdv9xqYkUATFvaF5ssk5M51vNDf+xnk4NHP7uyYN23r6d8ZFSOjNxw1w2nHWnLRz2vAhu6obero5ilJjK5lxIcqa0hbjC0Tax7TmMNtrLISI48ssj8TqY+2oP2Vnpx9RGheOaPnjJU97goMosJlsQYTiv3rdpzXnOZXkKf4742F59bz86K57gLr8mSx3Cq3uo5oyvEjB5anR1NjIXlSaauqX2eZMb9ufam0VgdyVhvoLjjl7XdG9n8M91yBrgpU/bO1RtYlQ0dMX9ckZxi6fNqpvqTPaH9fKCwn2trb3VhW5tLV41VXtojNTHcTfQXFcw36hJ0i2kt9cyMl2PorDJayZREhrhJpk8YJPbQz3pVsHnJwHYAnMVNwD0uW/8po2m717esFyzS2D2/cv+pvc1ivkmTWAsv8HxD7A2nlCx8obr4npUumKD3wx/vDNcm++fn9pBff46p+VR7xqsSOkEvzLSY9VeejrR++SHJzMUa2toE7RZQe0utg260U+ORhBkhzJcK9CEl7+3EAozt1muDxsqp6VfmmlJ9csqa1Bgr975yEXkau59JFBImeGIktoYV1ZsqQzHUs4RD18qWVS9azDQTfLhJKX9P6/K4IfWPDtOeNTMmKjNz9j1tc9tgLsrR3hvXHreM4eo+9d3tBL+295WCsYlR2YF24kPZ2AN9NA1uP0SPvUr3khBXn93Vl67xe1x9Ha8yakiyVrO46qwfvy9J9E0FoDzGYxxtLTic1EkyY7mevE3w96gvJho9nlf+cKTm/izyV89j/aYGPzr8SgFrZvo+VYJbqq4swi/E6G+qGe/gJlm7V/3MxSwoUGX6WnMr8KgvkIzDHje1JlC2aY8q9Bk49QG3+l5tGNleBve4kckYMHGgvWRgLZ5As5bW2lXtWaA4nxgAtdbbGhsSrJqrp/QJRPhyx3a+nNE/1iEErdYlF4+JmD6ud/W7Xny6z3jclmTGAhdlBGQ8SrFWjaXq81Fl9VJkdVrKNllQV3NFNzQY6y+UmLdCcgTRgc+VjC4a3avqC6ONKfEkUx+4vwye447ja1EZEfxQ+ctDr/DwPMGL0FPjRYhVdRIPv6TRZha3zRBX3ufpC1/gyqIkU9Yry/uxcnKJL1zJ6oUZrtetHxUlWbwHUx6fpMqKqNSYiIu+e6yt5jOuxdbnqyNDNRhvdbMF62mLteiofo5rRApzRREeFqrPu4whOa37JVnyuNpqm5ewjmKSpHro3+qZWmSCynpeqA7jksx40VzpFZLYkGysg8LccgdHcxHtd4zrYe/qjnA+oXjNT7zVo/U+WXSIG3/0lUUmCO19m6x3cNs8UoT2SbL2z+OV5/l4TzB7pwwUjDvoWVJ8ImesTr6k6sxlJEKRPE2Pm0XX3KJg4IlbD5WTTH9jJsm2MHFgvyanDnHB7HxqPJaxXj+0niNbPbq911Nz7B77FMsep16JQOKGxdrrbukWhrhpZGSmLbu1l3YqduL3r4n9dEIbBa4qtyapsfMFmnBMzX3L4i+EPE88cc3nmPo+OW0mDvStbjJzAy//LmirxSBg57/wfVxrWJ6p+zLF370cRx/34IkWO6qmWxji2s/9WqxGAo+sVhPf65a7XlgTPtpri+o93TYbqKkZZPDGbVqvqN5SJfFdGtVbqxa7xVi9eOxdcLEycJsykqqf41rv5EZmvfRhHnkhPTK5wB+j/LheYhcjEzaKfMkgU18jTJVnnFqQMnf6MN4W0WcmI5vIGQvT7UcOmfq81PKHS5/tzcI3gcw3Y+xgb735ou2I0mq0s73NmzkW2VvsyGIGY+2+HEwkbsOveWrPb83HVs32rGNjTC0nD1LjLR17r6Cx0etkeK0yiLhuv173TNG9L+p+/etn1AjP2Yv02rA8hY+njKWGLaNqGgl0QR3b9N388Ay1sXIs0fef0pf44fesm9f46NplLXCM9WWzCd4jypp8SpVXN9vt0jiObpJnrXSy1kHHlkemkfXk6RZGLfYeZsH2rLgXid1HWT2a9SzYmnWmQ2Uuj1s+V2+IvvC6XrlD66l73GBfZW0Xy7E5i5uqm1Yb93fo0VIS2x1Re3aInssai+wTY6OAxLhPBD2Ye8TzkqxH1u5F2wxxtXvENhsNaE8zrEdqqWbHyC6NsY3IU2WXxi0FY3VnVXvii15THgdl0chivzaFN3RGD6iD9cNJuMtjoFBljBc7yscWH1erdegbJyl4HzeNvPURfwl7K1vYZMYOkZk5eRNbhKE9UrNnuJVn2Em42XpqTEQG27MefFVvbq7e62/XdwbVl8viTfnjuzRm6jA7vkujPrqEONcCeWLsjZXor8uaOz/CvbFCrHbiEbjtdhrGWtjEmGACzyfLF+lfR7Y00ffqcWuVX9ZrZjP9EyLGu8X6nltZ9D1QuBg9iW8AoL6VpLy2lqpbCekLauxnuXgtrlt48XK22UuqWGxBNkRfNXo3uHeUuk3MuNXIrM1mCta+2+akofG66NaC8bjVDo766jK8n1jKibtqgS3J1O1rUmNLy/hqJzykEJ8giabX9WcwXlbnfsxfRYusO1YDhLGHkfplhUTbyLztnMBYfVxgfRVC3M5sG7d4nBZ5ruyXPk6Mi0dFP5ptemD/rSY/H2E9yoi9ehg8HUi+/l0a1XPWO9RJ1nqXxlTdwgav0tJeKNC2ee08TzJ14/M0+gkG4+2hKEDH6ix2sYB9rrmXxduAvq4/iUG3BvWJTqqksS1BEj3yrhpvfpi7NKr39mMzqqLVV6uRjdatzeJVUisz/qn1Vkx17pNdboKwXOpYL9gAM/WqHElm7qmcKj2/3Utn0VVjaYs608hjovZvFmXqqj9rviE1tmUNh8pJfAmi+YgoyYzVU/F9fdRZyu2Z0Yu32QAMb+OZtlq9NVZfso9NlqizuIm+2VtsCWOU3Mp2LPhrEmNjJ8Kx/jZY7CNuSRZ5N9u452uxha360vz2trs0js0dXMzVU9GdXqwnDvqnffR7bHsL3mrllL4hWnQJGtiVQDWICpzYSwv6Yyn0VlL8Wz/sXnub0Ssksckr3TZoT+C0zc77LSbG0siaX/2toGyL39oxRgdJZDcU840de4ir3lolxu1OghcqwB0zEuu5e2bvFhl7XJNY68mz6Nf9tHtyXq6TGuuM9U9SRqbVY7tCJNZjpyy6gZb+ndixvoF1bPvMNmtmY+0n+tswbfaYMtcnG9+yTc3X2NDoY6u7k9i7e1qTOWmLXRrTll+FUN9fVmbGW+/SuD0zd5CMBb032aVRC0Dh7QtaYlw/DtIea4xbrK/U36xJzZ3ttO1b274Lmamz3WnsEcp2ezcEuhF57Fs79j7K9ucstV0aUU/43FymN7ZXT8Vud5LM3Po29lpgGr2d0dYqx79/G5/c2voujer8xjZjD7AWi2FabWGT2LPPaXR/6bF8HKSui7XeHkrwmtpgiZex02OqbOnRfsubsfkOsP3VcdxDqsP/Vq+WbW0WV10NlLT5uJmxCsqaBEzakN6+f7NmcfFeW/ieN/Y5SWskF9+lMSxLg9/zJFN2L82im/Xba/H13TfU3TSMjevwM+qsuce1VgvpExv2JxDNjciT0Hnmh8di61aTLHr/gYCXKvs+46hq7+yh7tKYxF+k39IujeZG7Vnky+u4J4sNcfE9nHIvFtulMTLJpA5Jk6z1q3gQG4m2LjuDW/uo78Um8S84qtxJlJc64HNga4eTDPW4Vvcfef0NCZK0eWiuTC4lsQ3Kx5G9sMZ4H+ZtY2NXhMhujVvYpdFv+7Ia+WTGqvYcMYlvwJ5GNrlTAxkYKupfvGv/bV8rmOj7EBsryCysRBYqoEc0acvXUe29uuLv18Y/kp5F9y6ztuNJw7XKyseFo8vExsYGXvoX7dve44nhbBKffY4NHdXHJslf8EbkSu+dWm/UJPqzX/jIIcEf97ZmfdPo/sLxt7LMQJlk0VcQ063cXxtvo5kfHNcmOVuunoqtKLTeTort0hhbchkLxh19ptiOSPZrV/Ya3LTFdqHaM+C09SqtsborpP0VO+sjZzhwWM+2229ho3/yIrq3s/IOrPYM1RriWh8cb7ubxxt9TrLFUFO9B4/u/5UZe3EpX6JPIju/REYO1svwYufJbcZErdKLd2KPHdSNmY0b9VY7+UU2wNa29zQ/NLYt0ntHX5jI8EJ380tx2i6NkY9/ay+9Jxl8G8j6lEuqbCyvv8aXGWtxt/atHfU+fwsLFVJ165nYxF9kfiT6mQ/9ywVp5LXH2H26/QmUluv4jXe4O6m6s7o2uWBN6ugL9Nvv0mj1TpGXDRJrn17QKyXGBJvyRYBUzR95pUx5hVC7v1HvN8ED/lTbjD5p8fpd9FW5sbFjSNshc/ZGuzSqm98ZH1qPfhXCXJL4FXZpjKxTsJ4YoF7c+vZTCienksxc/vXcWotr7inbZitXe4mYGqUS/f1G9Zluor+Wtqq+mGDt6aQMDZXeM40Mcc2JEGOIi7e9iX/b196I3HplLsND7y19TjIzFirYXwTQ14rHhriRXUnNiaaYDrF11GPzpZJU3U+N3OOmytsOq+bqmSz+JfpWW6oaa4/Vlx/G6qqgdhuPZXrvmWRvNHGQbm8xRE+0RStjfZfGFs+1zUUWMBgbH6CKDHE1gKUtdmnc2uck9f2OYxsSpuqro+MWL9Rn6gSX/SSi3X5idmAd24/i2FORjvn8L8la3auuxj7J0XIHv9R47thmNtLeyVC5n9TecFImO9puYWNtx9Lmw2f6R8Fj7yjj+YbU/D5ubL3t2N6Bo5U8saCQGRuRj8379tSaAzH29rJ32LSeVOhvfFmTo3SXRuvtIW3JZyp7XHsDcPWeURn+xd6BXY2sgFI3YUsyPMsIFpGnxqbYrXdpbLlQoe0ujemW1iaPowEnvmUu3plCXZGUxEZMWXQZpPrRMbApYJvPSWpvKaVsF5XU2nM6ydSteO3Jsa1umat8TE55n12MshJr04OQyJ3YJIv6HVttejuJPYvDzw7j9xL4i2mp8q2f6Jf10KOSxP42jPUxa3Xbmy3s0qgR01z/rd3zJ/rKsja9T+xLAam5KGTrn5NUd2lUlshajwm/2i6N4L58m/5aovZIzVzAsR1/51d70woF4471CEZ3GF3/mZnPVZ8rzzPVd28TbVo+MzfPguumk0xd+pi22KUxNb/Ro283g7caHce/D6PN4pqPccZ60GyxydyqsRYar0cfm+8FW28CvdEujcpa4OjuHQpOrL3SrNVTaau9pTNjtdpYvd2xvicFye+/ZBC+12oPk63VStZieQi+JDarjJ8ZW5uHxXY3iO7xpK61HpsrbdTdG6KfkzSirTHy0V+Sjy8rjW5sH10A8Ca7NNq7f+rzDfakUuxj3eoz7yS2nHOsfycrtha8RQCBLx4k1qaBoeyd6CSPcW/4HO3SmOiGjW/WraxqSWIP0ceRrynoCxXsT09scRa3xSRSqrxznEKw4iFkShabpJHns/i+a2xuu6O/8G59+Axs0rbtq+/SmBrDxjTyOEbbpTG1dmmMDXHVrVnfNBjjlwxiizA62nMze1JC7/VS7Y2Q7frKk+gMs7HON1VWouiTS/q+Ran2Lmh0IcN40/ycZLLFIW7skdpf0BfT9d0mjMUcSWzfqMzciK7taAi+aqfcSrQa/SgLbNRHRi23x0nbLKrZrgfE2NJSbUjdMd/aT1qsdoquJc7MrUtiHzTWv+tiENZ8fpi1eK/WvhdNzZ0+mmO/K2Kx0d2c//KC9ekOBoAt7NJo9bCp8sgluuFAkrV6tBT/nGRmP6vWZqSVYa716ZBie99qF8pm+9jM/B6z3j7mQTQYWx8+295ik7lE309MPA6Kzc6m6rYy9v5G+pfQxvCRTtoKqPr3RM0dMLTlgpH3LNNWuzSGEfvzg34L09cVeV/XXwWgm4q3HXXA7+1s0x9trEYCmPrSiLlL41jfmjZR3imNbE/bapfGJDNfwhDb+1Y7fQZ2TqytlYydTBJ7fkbbgCC+gsr+AqX1ymsa7PLYYuF7uqV1vVmLt3gim48l9sRBm1nc1Fz5FFk/uoXPSdK6P91TEbUiaUp64GK/50OvWkVV7d1fbf+sNLqo3ni0lGTqUDqNTObElgrauzTan5NsN4wNZQiJm6mTd/B2b1tk19GkzVY6WtC0vgtsT77yvB3r3jC63Ub0KwP2/k909wtrKGFt/B2+EqUtZt/6RuSpsrN9mw+ffXm4JC790p0v576u8JJ8wrLNxmBtZnHVjQBaDXFjK7TGxovoW/icZKK8ibPtDXdpVPZD83tww321jRcRYsth9dcKM2PD+sjGAMbm788T/X3tTpu3RlZbb22yxW1eItuMpNEXFrRZb/1tFzojG9+lMX6/goJB/WFuMOx2X3R3wHIfidaGW/pGBMYujeoqLvx8Vf+cZPyWSP2c5PbI5yTVIa7xpg1ccWXv0ug3xX8xEe/x2+wllYL1Cz86/Lr4DIt+363Ph6Stn1Loj+k69uoe4+vc5ovMxhrVbbFPbdivAsaew1pfbtfetZX3UvYLAur2p1V6OZff187lxN0h5XYTVAVxd+tB8cXO8ns9Lk94Pzw2F/9bs57RNb1JZn+o6yvt0qh/KSGNfEdH2ytKyLStadN/1aKwnfY6YpJFNxtERHKTiy4o+69nuABMH83ZK93aLKm0Rl4Z+XaQ9T2gxPhqemK/wRMX2PgSgfZOorHLoP6CvrEJtSrnFmZxEzmLW3xbNneqIykl/4vJrJ6sorPLzcfKsmIo3XxKpQSg66XbDnFVHRM7MKrry9WPdbfdpXHcfpdGY3ub54m2F5O8JfLfNiq/5NhuxjwWjP1995eHq0/fzDWfvClGT8qoSXtba9V6opHg7YrYR7/09ZNhJIlsO0KNui2+Zar+/LjNmxeZ/QiLrtza1j6q6hMHWWQf3xBMjoDFN3VyBzsiukkpR2L/nR1HRH4P7cq4SO4/D/pF8eHurJ6R9mX0L/S1DHzKMkV7jyltuWoW+TYuWsgwNj8Lo3/61N5ogBLD94ZhcMxabIAPAkNVpuxpS7L6JwOf7W8C7Kd7slZD3NZvFiXWPM1Y+5KB/eFpdRbXjGD6c722uzSq7wcnmf3WjboqKL5Qwd4KRd/jqCDibNh7uv8/3fsKznh/trfM98V0GCBfTDRfyHu+Y6zu0pi2uU0xt4zJjF0GrZcF7KcF8V0aM+OR3hhuGGh/EjarPwTXEDczXgWN79Loh8f1aGmikceR17cnyJboK7ngPXHk277Unh37u7XxbTfxd0/xhIT9Vov1pbjMfJE8NXbvW1Wfj21l4kCfyVw1nk275L48+OPqW73PE/Y5SVLvjw43iwZ4QPOPkT7d98oAdqbuYrga+T5suy1n7CGu+izTeDEc78M0tt/dbrF6qnh+vtD0uFvbpZHN7NY97WvyBUg+4VgGXXuXxiyy2cJY3QUS2aXjJkLQI5HmUcYYTgTIIY4V9a3vBI2VPar0HjlVd55Q3kFt8znJJPY1vC1uRF7V5x77uGjshr7WLo1F77zwGi7Wd8Ow4l53/ytzvW1qLn4YR789pO/SON5s+znJ1Pjwmb1QwbJjZm4BwwnY3OOO7ZV/kfela9Iu+J5WeY1zW9nzptFJW32nlVTd/xnfhnR+XD1T5M51ArvhwSe7X5n3MzrpIl88U4ai2gvRbTYV07+1E5kpT+zPSUYdYdT38c6SdJ642pffflhNSgW+qJznvgDvZ6K1t3qiyxiT+H5iq9FdLPXdP/BGCe2/NqCSVvl8pxWM/Yq1FxP6Lo3ellZg/rIaHr+cJQtplH2+V839xGJLcZWXLZRXVYu3g5xgbhbUKelA5pJTCk2pw4fv0RfNYy9hx14gjy2SGKsvnq9GZ5HjG6iZW36iITh7waIkbm7jA5nZmzjC+uHYi4nGQcUEyELz1ffWL9gnWx/iqh9zS/SeODWeb5tbuRhLBbeyhQ3qSH7MV06xe8RyUsn55BV8dux6Wr+IphweW+/+Zsbza32XRrjbSGJswcTs3ZFfem+++O5mNXUyjlt8cHhsrIAaR56TtnxXN4k9tsgiLz/ruzTG1qXGNyIvv95e2PLgKzwZQeT2izP844ZyFvpVceweJVk9fbrFXRr1N3rwO6La1/n+YpIMzXQAACAASURBVD4nSZ5itNml0VpHXxD3NSNuc/3zKhB6zJcjoaaucnFFafdmIkr50kPsczLqhnXa9jw2t2i+zktCXD97WSi+UCr/+X79Y0Rp5GVza5fGdMu7NEZ2qn/Db+2kkZUy9lAw/jnJkrgVQBJjSFTV4e5nX85WwJqrJrUm23yPJv5ixGrs28LaHl7mo7is1Sxo7HOS5t5krV+o13pcOQPsZvdfVrP+vuct7mkPh8Njez25vlzV+kazGoSS9p1Kp3xEkZFvwo6LlTvlPVfZ8362vxlCiPvhbdYssPYJDmvf4naz2haRtT2ttNfB2nyiIrV2zTCGSn4I/PmBV5GvOTTtfj5VkX3qVYvPSca/dmfvTjk2ZswzdfVTaq2HZt8aXjVfHDFWdCU6jqw9wOnjoHBm/nU1V1D6onzUVnZSzj8/muGkjW1OOG4VjOEtTBLfnQTvyOI/s6nujO+HbqWy5Y162QusWhM+ylYb4tGQsktjGt3U295XWX0ZvsXnJLXF39ZCBX2Ts2ZWub7tqIKfSw40xfFEeK4kbfO80B7iokdWW9ulUR+2GZ+TtHZp3P5mn5NMI9/2tdbI81HdS/aSgX+cVvS0e8KZebrwpbG79bnVceSrBdYWQPH3wbVXWMEX6fHNtVfsh9XbLP6+4MsZsAa05ackrY2qY9uvqMvVwObpsXXGaeQTl6236TQfCZXXPXG/PJQ1tqzeza3nFKpZ0Pqd3Tw41ve0SaYOG1NriNvKH/ZIR/00TZKZI6FU2WY1ttAjttVv210a6dtBxfC4mivwpOXB2C+W8aQ1g3HS5ttX8V0a1Rc7WnQgq5S4cOF40jzOeBksjLd3FrCfzWXGoohMfeSjLoRPWrxSZuyfuxq9B9vqznzhdT+r7Cf9HIgcgXly97JfTJfLI4OletbnS9osCknskYq2WOJ5Yk1IyoAC70W39FUIezO3rSxUqCdXD2Z1MPx09yu4l1Wz0GIsJqLavKlj7+YY2SdceX6rf5QgIK6xGDzJAkOUvUDsNb5x8LX5NLoiJvLlPGNn+jSyGCM1ng2n6nY67T4n2Woj8upxkB+6ucdu8Hloiw+fpbEN8MxVaDFbWy8IWEtKs+je2autN/trM4Go700VrJwik6u+p02jG/FHdkaJ7NJoBdbYgiF1hGj04h3rvcb6Zr+afft4p7FhubJmWf96vBLBtmk7DIYP39WZbCOKp8Z9eHzSI4su2EejEL/qyT3SeR55LS6+hc1Y/8pd5CNZ+B3rzNgYT250oO833fJzki2+fKguVEgiCxXo46Dqts79lsNj+7OYqfnZm5a7NG43vmec2EHfnonG33jqmN/qKSptnov55ZH2oxL7LRrtA9Hoobv12cxU+dZsqn67aIw3DDc2VdM3Ih9Hd2n0r+i9nG9eNHCTIMUresaXCrSPY2u7Nqirp7Rv7SSRCS/le8RtApz5JCHJWm34Du/pE21GFr9lVD/y2feq3S6N2/S3kFaNVWPWJ0Etu2ir1tItbc9akbMolEiQuHcNC0MslPcMfqYTETxNcB2+7pCU9Jrybi+dvEjs9bmhosQxyTi6FjeNkEPbh6nQCUTV5+SNnh8eKtcYf0E2j/sUvKKnrVCyVi/BdcFgBj+UGb9XLUifEBABn4qeovCRsRQV+A/VGdbPfJHg4WzKsFT2tq+CFWjWlrnQ/7wXTKx30Mfwg+Tc7vW1ZGv2QbJ36gyUvFWiAKzTQvWYos6Xkd9M1JEiQS3BRb3G9QA0jXHCPJkou6rJxK8lEvBSlizUt1pb7Oz06f5QB7eQws0Y+90xbP1B2s7smXC5Gx9Iv2aRtpj/tjfnRF2BzZk/EhaoKT60gJnYuFhlMqyqOpbnXCdT4HQyxAOvQw0eEMdI70xibDvHRKbiVmI7k3xhWKt3eXyxK4MgKYZ6M6/rFVWul/jiUPk4yF1/BoGDwUzzouNnKmAzmWc7yp+p5e2yMjiEYIuQ1NUN2iyWK+bAQXJ+frDsET7ePdaBT0AR1BG1V+iLZ1Dfqs7tmvxUFmq/DAe2BIE1z+cWP+wIMdH8X8oAbQ06BI6tZ0p7payjwvYurU6ywJFIUnFbPoOYyoz/Y/LbPtO4EcN250e5go6Qn+zNNh2JP96dbX52ICdt1bu63uH5TqRoXqF3xI7MBNIzdhz8nxs6IDEz8jOtnGUk5oBn5Jyowzs8GUd1eBYYOBNy++svF19vfpkHO1c3b/uzqdymuV0/3hvqFrS3gwBjR6boHcodgjmDNn9m2hSffyZ8wgMCaauWldl0B8dKBu39DMorff3M8E0ROBdKG69OyHKqzXn72zGJnxl+ENd2hD5s6sykb7brMiG7FMT1ivrkI5YDnyOtI9czhQRCYEaEGBhEPTsys36etwYLAUQoz1iVuW07z5S2tWtfzlXAmSTyVHJ8cbi89mIXrs+ycZlGqg1EcFLO6+00fvbyplDvUVAmVdoLMLGj+UVBtI3fKbaeMcLQVBN3UvNxpuNJkYHiLIYFNQghHbePFG7oZeoe1/WuP8yHwA5wLv1wJisUdyDjhZ56p3FC7AACut8dYzv/jvDcUwoKjXSgrtS3tcMmGTQeARYvj86ZRM7zfjpV2u+Hcw150/zW49MDzXkoT7SdUbtAEtSTmQS32xyFft9Bzu2I+6TN/14m73cejGk+auOU4Yb63ndAL9w7t5NaGpdDaXc84Y/HME88jXGQqPUwbL0D+HWH5EWA84K4i82wrb44kdXKP8+Vr522A5BuRyMgr1wYdQe7vsOTVavXg6bKs0PmaQCF21IDAjIOJf8OGqxYYIBlw/OfH6psuOiIWt561GTemanlnyI7JOwasp+wiwTLUwaQpwAwT7XgvKOFnBBsLIgD/7v/n3K5WDB+atggZR2Es7m7XaG/9YjSHdNz+e+X/vxCeCx+F4z/F1+FOKLBZgfBMCN1wC2B20xg3evfcUBKHZAmGoK638/z+95PDzqQVQUComQE6BlzaFXHjpDYT4GQTwVo2XWvMFDMPpeJ60guq34uH5XtKSH5UwAqn9cFxC9mKnDMlz2ui9BCBrX9UXCd562vK86X+aneI3Y+A+1kzFaj2o/cHk+BX54q+j0VumW6rRNGVuEXWTcl58sjr2ti+fRllVyeL0neLxey6n89OWJ/WeUNr72usfSUBapCn4kM4jbQhfkIXffHnacRw3MHPDWBMRJ56zwT7BwA21MjBeUZoIugU/yPga61+xQAybfzTLFJ/X/dJpd/JGyF7BLWP8LgNmzzDLQF6ybk5nKrNgnyjJpfEUhGQn4pzyiQQ/fzSD2vET4WLJ7GsBvUNQrLJyPmu5HMR8sHNhy1bDOGH73OTgDWCUvpUQvDjOKGC0gWz9+m3lDu0NAQqNywE7G68jQhz/G8qC3bpr5cG31HLa+Hcuh1099MzzsR8cHEeEs+bOOPos6JdroiLHE9Any3kPeJFhAnNCxYvhkZOOD4Gim25zKMqh53QnHEBDHKhJEPNZywciB/baAJoNiEJk9j3CeKcrQ92kbgYN8+lXtC1vGEO2diHC1jgnwCOHxijO0E7ObleRL4ZAQAN8J2B+V0QuntBzadMIg+YddT+xHIGF5DeofnnwgfaaQIZXoCAzQLghMRTLbwHar/aS33CGL8qUhlnk5pIOBof36Ck2Qkgeby8HwM+KiOJ8hBE5LUvkxAVEMW7vi6nYlQryYPcAq59oTJ+pTZpUi0XlF/eZ0HjCfA5kgHamMRlBDpuf0nFL1o3cExAY3mD2B/VR+lV6vxxbEyAXochjPugza21fQVAdEIpgjjIRZ0vzxR/IRlHpnBvPPEG6M2DAMjA584PzGSBKb1MNA94Q7g5eq2RqFD6S8rT/NxGQPDTozktboOKssoqM86hqQKzo1sfSn4JseB3lyWp8xPQm6iP/XlU2ZX7qenSB9uS2Y3gQuAn/p/d20yq4+LNpmuT1iAfgJsy7EZyMl1neAYANdoWeAn7rOnCAsA9xwPpf5NO9IHOieesjxPKz07SIEnxOABEcXxKABQYGDqJFgurJM6UsiyY6TIFp5/CnUYgWAiHSuC0oTMx8lfyoztwR3F2w31HWEiUjlEwByDJPV9yoIoso2QtYXPQ9Iq8ql+G5s+egr0ebxjpOMDHrfJb+B+B+bB4x0j4FfdXg1GNLyMFZsg/zfXO4+5oqRyeu3xDlvxx8xQjzl5PTiq37q+SQnAx95ZE6Ookx9HnCcM3cZpkxIAj6nsQg4pY5BnUtfhcW2bsbBnoNtkY9NCp0lWF/2f2nQS2c0izyj0k/CZ9K07H/pMwZQWnCfHkaCs4G4S+SrSluo7if+AqJMKcYE9YF2ThhyTFOtKMGZ1deqTk1oDBDCMzPwaVGJyHKTHCNhGIHgs2h0H/z9myj9WQC+AODmWQYbnE3WFweQxqe+xcBg5PwkADW0xCvSguqJ6pNwy2PHyT8D/vPxjhRjYJ2Nh78csmDxG+ACYe4z8TfWaHJn6Pxb2GwnsIexw+4a2loFTkk3z0ZjlZUHWak90FCGPih738SRoeLIx1GMGeGFgd47nnzTyTIZ5/LUmjevrUgafmCyTUg8kq7iGZOFlJkEbk5XzJ9vZ50mg07jWU5znYJzEsjVOxDKUZTHxkY8Q8B8LUmA7Cz8CW4m6qf0nJaGoTYI2SFmEgSf8Gilv4hn5blLWy3Wy0hOlHROHDCPwejFU9kSZ5KAaba4g0GpOQs7aQhIkRKSZkHU/oWQXAWCESTgZggcCk+dj7a/UNpAEo+0gIjxW2qGEbmfLsWyLBwVe3yTThxKc+2PSCGhVPd4OKwjMUIdGrpUJhANZZmUC6Fe1Ia6BtoXNTcxSIusBxuselKvlR0FatrsiAljor5UJ7rOmrg4CwwqvWAPNpMy3EgMaPIfb0OqS5/PyO4k8qIxShzQOswHLs6IFnp1jRc6xsNXKBLAhc+6KYueV4Lql8zgq84raFib6SouADHUzdIr6FZwPbdj4a8XwoYaFFYaFmmg7x/H2mD+wfcZxm8GAqmO2Ju5KpFLNoE65FaocA9QKS48jBny8E7RN6i6NORb1rRBZVljdK6C+x0KmsWyTA0WzDXEy1/0xaA/KzoDCnanVscJ9oJwPjg1/UD1WApnGqm00+2ttibxMtgYDWOaVSZ2MKxyvik2DdneOVbyEOo0ZvsdxnyIb7BxBm0o5XXDYkJitsNhZUQDBDWyBJ3YtlrZa1im/FbnfSKadW5Px8RbkfByRGclf1KXIxMu2lRXJB8vubAD3JjbXgkst704lf8wmhtyPd4b6acftsKDzgBMfXtvZApc7aQcVl6PjK300udFUsNOonFayc6QnTVBa/07XLnfiWK9npyLPzhBg6nVNj8m4vlAHq36eZ3IDAueRANXY1hnJtpOQS9H/kUJGaKud2LZh2XErvQOfTir+3KnrS/Eg2typ4IrqDH0R8S/AKTxuW8dOHSOPtTyGbq5MByn3SCFHabgxFigovwHJ/GiSGHNyZBL/0U4FULFyk/iYln802b6eRwqYNR1VWxp1FnaB5cf1+cB2LI+wW32uKa8FuhULOMD2jxguoH20AN3Sb+o18PsIYC/WVqxd4adJDcsbEHM1NoxApZHSwiaVq9M4GxCHgOoRzFcCo65QAVBhTHAd1flI+50kgNw1bupQAP2I1YHSSkQeWM7QxdKLk10SfyzrQnYlgcPS4REHFJB1paVPgutUh0DWjcYfzE6Pdhp68HZ3jW2fTCo6T9p6rbTUu7WsNWk3oD+pf0zZUAfAbTAp9ehEgbpzQwX+m+TBztINh0CAyq2QcysK2ZxBYnJKQGxgYk5usHbHUIeYbTSQarZdUezh9V4x2rT87G1J9aE6IX2ErYGtuG9VOwDfoLIrO1vW11ZvZCMDQ48sbCp+aStn23IrnrhqRqvRXV+B4LuU8rside1qqWAbsOzSzwd17rLKbWByvaFt6nK7thIoN4g9N4CsG6TuDRlId8XBwkn8qCUZ3yjQ7zIwE61DD1jYb1znjUbPXU0wWfnK+sp2oj6lMgPfdgKD7VJItSt+/DCv+GEAIvBbHT8Ezvjs2Hjzs6Us/63SEv0dN+f9OZo3T89nxiaAfZtIxhWkb2CLpsxDSA6WLwhCo6BdWF7JawYyzUe7jDpFe8xnVhC0goN2LdAZtPNVCKHJinBMfafpz+oNzkP7bMi8HC8a+Wg5GPxZ3QDLHS7UQ9YYJ6S//pAZgyvKjVTWE7bzkBjFk/HTI+MqVcdHs+b/4pjmKc/7ss9nM6kHkJPL/kjR+aEIONI+wi6MIA+ZEx7uUojEZeSg2qXItgsAx7cB8kh/brBrUicE/IeR6zzVbTCbPUQy0fZ5G1zuICj6tAF1U3Vhems+0exI/fVQ+Gok9IaE38ltI/FKsdB5SI2xi4C6Thv1+TDvCOQt84tzOzfq89wJXjBHvE9yEvI6Hu0M83EHruzZaHrggrzj0Lm7NsL6gEy83odMNqi7v7ZTs8VGUM+joL6NsExdF7UdA8aujYC0amKkV2UHslAcBL8BqTYIVjheQhkfMVxRez3aresAcYLwuZPZZKe05SOBhZGZHkX+f8gCS1BvRdSHot0R9B+yj7AzwTDVryOU2cmBt1EaGSrOgYQMs2Gcb/4viTsO2pV1yPZX9rqy482Pq97ZHa9W5OXkETqRugMD7gTlePlWgW1D2hKW21CDoKwfyLg7HmBDX7Wo0/TfRhgUd9ORGMLEhmKXEaz7ESC2+/+RaJvZdKe06cPdWjBmtmc29O15OR4Z8j40fIp0xQGe9bC7dRw4zHeoEA+gQ4kBEEB2SyEe7NqADQbnd4+Ceh1xHflqGRixHnC5djfE/dQRdyErjj85Oq7ImwE5ZHl+/gEwOLXL76V/uGn9/b+/+PPNH73zSgDnAQAUtAfI8/fTn6vt/a0zv6/oFurzW3m+r+vPycd99Zf5V8iwk2Ou8cODIFBtqJiTAcAm5gNaF61ztyTgA3GNBa/dCnnzcx/nI1NA3FFAygdBQxJ0UthRLRS9FuZjyuwuyfdJ3mN6Az0gyvG26Pmix13ONl8slKR/VJM3q3veB8QpD3jQYLII2dmxRSL/9//8H/++cTTT5wFzqLQVI/VuO1j81pmfCYA8AH74rbNfH3F/L7fJAwbGv8w/j9UHPOCzziKwE7PZwwB7NNCH5aHfyG9IWjsPrSuUu8n/9GDJlc6D3Qygu6vkheLHJAUKgGvil9TzkLaT/366nPeaOeECeYAc1PglUTcKRTxxSzJvFOR1daazvN0RJGZ9fjcIEETONsR1f//Df/4LbJ/ieERSKBvV2Zf/vVW9zd86+7PQT7tDX/o6XL6v6+8f/ejnua2zcuSTj5rcPMNfKnF3M7zsHuFAGdhqJM8LbI8gJmqf7iLlaj+ODB4xjCNCkzzuuOiUclt3AsLtYhXuBoSur42kApQYvE5I/gbAhdM9catr95WAQdsqiLs8LhR6dnhUp9W5cVHnp9U9L2ybn6sNNwodQNLvtSSuGzJ/mQ+Z73NSCodvSHtS2+yy23Q9KQ+WoX5lPV9nj/uPXv6isL8Pli795RN3JINhEDhDnCN8PAQBVgTj/Pc+qntX6Mf7uzjmNS5sKP5seluH7Q5Uokr3AZFxqq7vIQLuGYW/VX0PRV2jqsfNh7tHxmrdvt77HOz7Nmqw1MkRNq/vE3Lu4V5Ll5FqwPtvSFz393/nQ2atntAxIwCmUVHmfqTN38x70vtM9vuVne4Te32dPe7fz0cEtT9yfz+Z/ssdKt8XuAltex90QtRPD/eMBDbCcyGufbn7KADskVi6z/K4uqnPxIisSs/nSyyvTI2aHvc+aeg+FQQofJ8B8T4ph4h9n9UrFMnTJ8thj3tfaYefK4ByqATLk+mN6rdJH1e9wMN9QC9n1D3A+MX5ML839laI6/7+u1t/IGwZtKPpt8f9lnL83uoftiKuZl+XftPocf/kF/9p82f9/wjT7+fpD4Y+/XmVwjx/t9KR+jos++dq/T5Zf7GyPGkY4zZu7EXxPRJ8qLFNj1Vbj0Q9ASkZD+4r3EM8er5YYtld79yHyoyAchJYRUN7qnN7KODCc/dBQODJEffFsbGZxwM5BDeTeU/Y1vPFUVH3o32jIH9xvIcFHS7jHqmPRSJtyLyaR8qY/lCvShdrcsoTN1b3bxo9rhsZcH85ez3LbzE+zn3ySTV68Wl1fgRlRzq6UZQr83h6BOXyZWI96H0Y2DaUOmWepq0hKDds4ZNRYJ8QIyPbj0wuLP9Ibft+0LllRdnOfUpARLo9NI2g4Jy84ryoR9ZREDfvHbW6HnA5WF0BeEgdJXHLITWsmxsJ6UPyb5W47u+f//YfY5sgu+yRoDB73I9+tnl/DwYWPbcV4jqSfbxUEs79OqKmc6Mi4n98bFSOXvZsyJ4IAHvlQBk4nx9114dS5+p/k7jIbpHO4Z4jYxtsxnC6R+KDB6p7nvh8pOaPqX0oj/ZoPNsAHeKouP1z/kgXRiVxecF7/nd3SJJ7u8NflUiKQFq5e7zHZXU+mvLOUOpzAJnCMqxWPe6DvZoco+L/e0pwoefvFT3uz80hp9kzGk4KgLaHtxknbmOvEfPjqEhtifv44KjuYZ/O5GX3hvK4uQKMg1Foq93UB2UQqIMnwEIr4gIsFu1CnzFyKDi+Rwh5D/lnd9ixNWQl5YL6hsC32F6cvPdYZ/GA8MN3bj51OFkpiO4Rhe4xMNFrwfn6+lCeC4LCsDne0xCX5y2if95jPpsbheVJu09nyzwOaHWevaOQuPuqNneHQeke0D2Qde8o0OnvGST6p7/5R+Z9mouUyGY8mMlg0Ya4uL5S9mGRTyXuv/j3hW6OWC+OjZqhLfE1/fW2pT7UApG7/qzwT95T5AReOTQqfRFgJULcvRuwHWTHe6jDIXbg5OI4FIFh70jWD+xi8SjopPZs6Dbj5aq2/a+z4Yu8x32Uj2I6DUA5wYaScHsVErZMFpE/eSsfTjHilqRt7pFCuRr5Hk65oV1W5H0y4w1UXnfE/dgTV5PNGWrvCMg5FHJbxP295z8vei9ryEzlVu2xt32bv5ETkvvnPvOV+/83YsQl9n42X/W0e3X52vrbJecTV2/hy7fGMshGelweTC2cBoE2ICy3+7A+f78lZu+3lMG6fl8519hU6lN3boQjnXtVgbu0QMwxe9sIPAySr78w7F4JBE7cFQeit0pnuygdk+dhPpx20ejjaohXtLu3Ie79/S0DTES3v/dcJ5G79sW7mQlCSjQvI7Jd4ci9nrg/b0ncESZY/mv1uP8mJ64r+/xIab8H+6u29wK7cEKLfCOBIeeblUN5YMjTs7myV/cBwmPPJC4C+17WXizARIPNEOujBQWjPu+7uxBDQ8G3uxaPiN2dzQRxbWGHjULIaXsVhWlQoMqQNr3QL/IoXAiVn3uUk9b974j7OCftXd7+3lAhf/yAkPfxTFkuXSzrcsS9W8kiDKXUh/Syej9HXJfnn/7Wv1Xz9P7ln2EZ9igg29uix+Uygzp+I0LcAhi5vV8sj7FtgH+hXzRckOR88fxY6d9Hh8oyNnGHKpjDc0Nddo0sHJd7CUb2brBzRiBQgtxdxB1A7CCfwOUwIK6To3PXNwAMfNcnD3iarxasOscMpZFNO//iLS/UsIj43rFumIWM6eVyEdeffzJbkvT5Un4fdaDMlx4ZFXWXxB1G5fF6hu0M6/NR4lZRufcv/4Oa73/Oid3YFQPfy+V+rV6+7nGBXndJXb9xziBuPry/WxHXB89S9yHEhebHu9xezF/0+OGBsr3VI6N4jwv0qvFI/r+3R+K4tqMhP5W31mGvUk7VnfFD4xPxK/UR9zkqX9ir4kiHE7IQoDg3rI8bwYbkOi3DHFcTYAj+H0JHOnKt5r2lL+OjsjvvCBnUzeq560nreoyctPenGkOWxC173NDAQyw3uk5sYA6Vc1L7MhZR/uQXf775xXuZDBB7N6BtY8QN9WB2r45jPa7L99yNVnIb3tsnZYGyKna8J8A/hGRwAdb18O5/60/H2jAItMKHTH6trJcLyz0sOwflmuAOOX8PXAs4tmco8MyDAE3OP8/zjsndOnZQBg6AO3uGQtA7DOBF2rcBQVMrvI8fN/UWxD02Ctq+v39YOjcn3uOKvPcAcT1pnVL3D4R6PCPERc6SMkvyUiD8bqTHpfL/89/5Y3NCCAOK2X9fhLjnfqb4LdTp1yPEdT5+ulDa8VEODOjzIBijAEh9jOwYHjsguvbixLXrCXUeGjgcyk5lD8X4BiOTHQy1FNoA8WdY8OeO6AyHhq7DzZWZsoNzeNaJS0jmju8EBhnWjTeGwpH4DjeqJ92+jaA+J0y6NGKGHxa95+pSRdx9TK6qrUeHNwrSPjggZffEvbc/rPcOCzg8kGCnDaOTU1TvZ4sjcznff/9f/KKpex9uL9bj/vpHr8Pyla/uBH4Zbv76uViPu7H5YLoZ+dzbH9ZHA/YdEOi4P4NAzrBUBuWN0ufHSr9Ge9x92siInUNyQDzyDohfY9jep5P5Di/D5d3H6tsnZbojOkAs80qO9Rdvjz1xiRD7mPIECAEg9oWRgxL7DhPwDiW/F4waJE/PK+LSsv743v6QcLz+8ngoyhbkOToq6r43JeUIfmlwYnno+d+NEPcOs9mvR4bMn78/FjLTNt2v1eavFz2uIXdlH0uO3r/6s+K6S3/nxh9s/t27v7/5d27+fn3u18+9Jsdhero4CmxI7chtR3uZp4slcV3QjRLXl98nsUYxhvyoyrRXnrvDiGphnndc3HcSS0S+faFveA8sedKU9QGvU1RCyHpHM/g+IiAVdN8QAi8w9D6fSP37wno4cYP2fV3MgaF8QLaAuMNA5juavPt0IrvrVu/3u9VQOXBgXuaf//SPjYmhPw1sdNfbisgVI26oFzkmvxZxv8rfD7+XFUFRT8Pg//vT5e2L88lq5W+XrD9OxEY3TBhuvwZ/FIfS5/SX+hzadh/Ab0ijFQAAIABJREFUuNYeqofqwuqzMO5GoM/froh7ey9SSFF4b5n/9l5EyqEgtBSYtteULYibD3fdcVP3hqyfAVs/X6aCuPnQouhxhT6h3Lc5gYVj7d7PXUOyPj1iD5n/2zt/0Oi8dyjat4n7urYDt+vd+lze457/eoj7N37lVWFfB6YivTVqjoM0Dv53frl3oAGkSdx9mDiBnTnmOHYE4cKyt5ntbyOCajhERN0r2/X13hYckcHoLvBnkd/N+xTE3c8AakSognQQ/EPYiMi7f4Oc3yh+fR4njCcul0FrU7ZbGWYfJ24JkttAL73uDdiOSdwXf6jKGRsyO3Ljtlv0uMROhZz7pQ+/LuL+9f/s1ebT3MY8PQPnXHqyMNp8cGhDYKoNcVXsWfiguNtr+5jXxzs0DTe3CabjcoWBpQ0med1Pj+XE9YrdJuRChLtNBLzNhL2NBOXg2a+T3/2/WhH3tqLwbUZ80f7+YSBHmTYKsLi63ZBNyh7WewddY2VixL1tyPp//bN/p5b9X3/6b2F7BXFf2D3ubUVWbxd3/tfyfF/H32f5PToC8W3eS+3fMEFv/YWY2Ggwun9D6H0nklQ7MZxzzBfyV50cLKvgGuJp71AhPi5L8e2Su93o1Bf3Y4IWjt8/VIl7WwOLq2t/WW+bMo5czzxx94fG4gbEbW4QPZrznrh3DzR6cpk0J6E2LBI5UgeAYnU8yXtV6w2iX8t7Rap/3aYRLH7N9bj7h6xdpmf++2tfU4/ridsqER8Ftt/fjrjIv7y+IE+dd2D4uvy9FcMxaEtc21e2dStPrTizn7TR2oblb+c2dfJ+Cew77PwtbwStzH5mBHZNGKFKq99gxN0vCYnKoXZukf/dsMIR986U3b4qKyvz0+d/oALsp77HVep1tvtv7urlX+f3wU/yQMPL/9Qi7vnXsB1+ziKuCybukRBK/1o579PjPBjdUgKilAvYpfo1ibtfKWficENgAcnTXN/Qfb9fBgQVK/t0XVXu7MPYbYLDhijXsYQoFDOEugXyq4EAJJrfEdclN1x+VqSNzWdvbVS/5bnU/b5VXavOF/mLfNU1llwZV6/rcW8V0bDU6ZbipFuVE28x+bwdzB7XETewzwDq+2/+xZ/aQ2Ym009f/KHdS9d1b6i2dgS3nuPqftoI9Fd9T/S9tS+GiY2AMLciQ+VbFkkZATkRY7KgstxvdvlBK3zfEu1t2PXv08ldE/dWbXjWSOz8/pDYpVADNV+ZBkG9/tgTtyYw+U3f3qj/r8+x/KvgOs1z54CUXxJWP+eBaZHop564Sl3+/Kf58NIeMr8O6vjpC72X/lVPXOiPxtYWcV2vSvMi/6m2mgrBK2w8tSH0R/gxiavVzTAUyDa1QXA2COwByWTIF7OJyMNseauyE7KRZpvbRv0FcW8ZglKSFQ1PRZSbsuoZ6IQn+W5PyTpvT1kyxhJuO5Y0HbdC3FtTpJ6pEMz/8K//wlwQ0bZNStwArAw0sR436n8rAP8FJJO4iv9vM5uqvmyBn9YY2wIWb8ewO4VkGGy24WTnVqRitfEp0OCUotgUaXSKnKPJCzwVCggdQtoJZJsCbSBj87JTWp6BAGmMuJr+N2kAqfL8a2PI/E/+1h/V+ewe97VuHyLLr8Z63Kk4OG/XegBbo7JTRn0sXzviDpr2W6SbAAuB/MBOql77DazsZ3Xvb6l3mwChtNfBgtP/N8T1m5SkU+AccuCUDqqy/BDXiYivpJuEaFQe1VmiPHYorcsiUUHc/QoYpiSQPv2OPmR2z3Y/ya/He9zXNnGq9KsXIsRt6zNGgACswF4xIN5sQ9z9uhzIrjFboDpMgjNZRdv7GYb2G3VrPFDlk9h1bXZowzd9IsC/OTUMfoMKwLWbIO/NyhB13fXvwKyvzjs10Nsmct6MkZr9f5MRW+ThOkV6v9/JCVbLU9gQ1MPasIbMrke+GQkWjpDIX1yPX73wM5O4MBhze+2Xdhdt7jeuKUG/VY+ryIXsGuCHBXEvH+poEI5xvRFZkI1qLMvzt7i8FeZLew9gp9K5SYWcGlRpKFIj2EAc1+WIcLcO0DopeAfSOEyGW6osg/D6/gHJ1+SXpBuAYBAeh22GulD9rd6vIK6w5YDZg+tjzzL/w7/+c7vHLYg7FDpxEMWGyhxUyH7i3P4B8BMJXFMDUV7DmPWn+lIN9AC/B8I6ZNAfQPluCfklljW+3EQBLyozaX8/s+uBRuYOz1wCTDP4EPzPFN6vkz8Q6sAwnkd1uiRrWOcgIrOVRwFXZZffifW4rP4b+/UA5I9//Ndemcshf+fjCHFpUDuA9Y72uKaMVeDK676h2C0MTJXuURwMWhJ3AAg4AMSSOmB76ER1x1zHWwdwGX/+VhRrMQwOAVbkNSpH5wYjwY1acJIO4EZvTA10AnMBDzTgh2Ss2rhB26Pn6vPlL5TxwJCVBQBCgYnUCwMLqfN3PtaJ+9s5qaFMwD432O8/+dv2kFn7+5ueuEIHaqf4Pe4N4WtOPByQbwgbD8JrnNDMJj5PrMfVg+0A+HcIAvpAyib0aNHpHDA6sgPSVjfEMdbjhg8EB4DdORbz1LlByXqAGNsdH2AAoBVXv7A8cxq/rtZ1IDzP86G21HRAtmHVFZw/IK/5ZBHX9Yw3KJCA3Sy9uv/qz7a85NARN6hzqvEdBcrfbEPcotxQtQHHxg0W6IOgT/U7gG1J/WgSF5Sr2zwwaLBK66TyT+F2gw5AOY/kRhzg54KOivoFYZHkvTE1VLFH6+/4ghzstfIgNdeGdaNBHuTgOv9AOp0YnioTlmXtTgGZpgbivGy7aePHfy3b/EkO6I+/Nw7rZwGgSe2Jy9viuiD5LXKZxD0A7Hsg9Gcb4kr5hg2ZDyg+1PzLfATJR/JZf7ANjrEDIZZQJ3ADER1hnOCP54FYnZJta+3hNlvIMRXyoXN9yiLmgBFzSNLAEKBq7KAm5JDlHYK2kExDSCYtwGjpv773++IxzP/+P/7J5qNjG030y9N10I51v/nbOak5yK5PDaCevF5vq3/2u3+8ZeKGPhxCItnE/VPTjr5+6s/rU33V/tfR+amBiRubuFrwGLbwP/XjUMV4KB/2PbeHxZHrU7yDUwLF1CAqP+JCR1PyeoQU18GvVvZ6oDA3igYUDAjajs9T5HegOhiv+yctASzIUB2b97j5NQSS67y+g9I2Pj1c2iheNnizHpfXOaz//0mkN3/d/w9fKb3MRy9B2weHQfsUF8hHceKGuHL2vK6QtLk2VLEICanY7+ZB0tkclAEYYR91iBAbdQBE/GtsSbF/vRgq1yf7goTXaUQjhWsDRVJQ5iBT8iAmoySnfp3WxQl9HURbd2xN9Li/n1x83RjuoJTlt03i/mFdRpVVdWZj259sYcjs5MXthKB0+b7Ov79ZyXFDCeixFBsqb6VuLdhfN85fh+QdCpteR0TiGJ/q67hXAquFadRmp/7noMwUZD4o811nlYv/6fmDelnfW9btHVTqAArcUM7jOoZRAP7jv/1HlSxlHfVxVcfvRIjr813LA6HmYNVOJLUdMnPiFm3W9ffrcz+58PUStwh4QdsGDrZIXIo91aaVriY+eR0KJgM9Dg7wMSdXC71vVEnLa9mvvlaljgNY+c+wSh54imJIkSAN5bmIASCo0S+rs5Ed1K8Y0w3rrL9/8F/+XLRxjbRl9rif/GFjNy1gHdBtRgH1cDkfMg/+YzviAn25/35y8dXXS9xLr22sVOe8PbkNosTVfKzgssaGRliaT8NyBH9leQPfBy2fS0LqeB4KzHdQhdcAKYpzKO/BAXQEUqTJNxQkvwbqulblEbIcDGWh5WheJNc/Np6X/skf/afNF98fs/Z9/RVxP7GJi2S8xoiE5EJOazO8dXm47uXvcMt1fdUe17cZ6trHuDkQ4sr6Q1hEOLx+EGO0bVnrfKzeIE0PpVwHUOc2hL5HunA7djg4a7Jw8B3sS5KB/0Wj00NxTjNy0cY0Bz0m7TWlDY10NL+bQUak/a/u/6zW/7qin03cP4jaxnIKyvd//i//rgVx+2EAmB6Ktv7/IC7y77UWmGnT4wZ1Tw+lbWsbDhWs9U2fyI6gr2Ig4Mr0MMDLNdJWieehyhvhe4ZTeDxNiTsNhJvWFQyFe9MEyk83jom3PwhIjs/3oTHd799+8Pv5feS/3fzf/qc/2fwHf+Pnmw+Wh28kf2G7gih9pT2kY/8r2LWv6NsP/fZG9msC53XFbtdooJwebsk316ffDCd2ua+KQ0+YvmkX3g7CGOcRlLuFf1BQ4rbu1I3TCqdBxdNMoGnm1Pz/q7WC4Xlf7mrwfx+DfZrlmwZOmlYMMT0Q7V5VAS3blfn7uA2mQxBokN2gbKwdTW8mr7DhtGIPNRD3DeD3G/0PKnq0CO6BDadbBDHNVwcNDHAdpi1bG7iO2szAHNJxGtmiL+1A5LoqAn4f23E6IG4IiKsBGJhBgCGu1uXL46vIiHVeHfz8PK3HqtMMNIGMDOS8buW6NHA/DFDMDq1lZES9ikB20MiDdAQyq/8zv1416ruKbHMQt3mVkn9awRWS66AuIywr7I/1kH42cGlgWOiB7MNtcxD7Xa1zWglCQu7hZucqF7BK9bFThF2rz9NrROGrimGuAmGvstTI0Yf5r4l8VBbF6Mb/MTm4oV0bom3artJ+0A6xHbejpmtpj76Ul9UVykp+oe2kzbx+2I59YQtRv5dHs8N0H9g0kkfzV4C3IcTYVcX/Hl/CVqzsNaabJtNV1nad/xDgFDjGOKW2CbHXubc03Ly9kA9/ZyhwCRGm+5Kw9bl+YOgg78G+XuYgr7cfJKlsHwN1ug/ATRQ+xHSi7R9kegU69AWRA1If0spweXK7Hh5sPnh7uPn42xubj98p08o7zbGV7h4dVm31mZ0Y8IL/+xAcXCcBODWI9WEga/JKP16DduuD/5Fe0q7XovUAvBxUzlf/Q1+8y3zw7fLczTnpg8IvB3X5dTmR3n0cpFX5+5sdKujDbw43by0MCTjzjIcGgKgDTLKgDEmHpCOvHOwzwpJrQbt9At5GjitQprZgCeuXMpO6Dw3CvIcGpG0eVfuN/NV1FxgDULwbEhiSmOS5MTcw9Oxj3xwatLBJX7GTVl8/1JvZ7srBRvfQHnY7V6BPGh2uoKB+SCNDn13T/DjYfPStjSI5G/tjn1aqIOt+3f8352I25FzoR35D+a4gogc46wd+cMeduzmwHn6jAtC75a8T9tpMU+GVFkC+Ag0Xkj/IR0mqGeSQTEE7AaCUOg8xwxwCYDkk5b0iSBrqyHW5wvTz5Yre1hPw0ADLAOz64BtluZtzAwDGPnB2HwPiEHY8qkv4kAe3afD/Ib1e4T9mm6BdBFSEgWnpT6sNjLGyvWsz/QLzD97eaPLk5+8cLXvkohND2NMCzzTFBZPl0EB0DleEn/B1Wo9PHX/ghsp3jw03H1XDg4K8h32DVYFDpDA59tfdb2hIl4+UZ6QIiOfO82uMQLRtce0Ql2kgyympNowvc0jKyuu1zl0l8t3PCbhCiHslsE0/IBe1w4NvlH64MT9s9OJ2VOxa2Gda+oLnCY7F9TDPVfB/qA8JzocAaSssoPo5jgIb8sB9iLYhZeP2uQrtVo0McuI63zjiXiU2uJPzYCW3/a3FocCYsDPCGJM9rKP5tTDKzwf/H/LEJYo7ZYrhQi64642vBMQgBg+SNCoV8ioqR9ulRqB1HAqBJdoP5AoNpsok5GL1TveBfkxWlGc6bNufL4j7bkncmsjvbjTpnfC3yOfKvV2Vm0d2U2TnAON2mub6DbCu08juwNcswBXtHh6ogZbigAY53eZ9ptcgDNTTGDOIQKIuT1zX435jGOTxxL25ODBwIOWmQQHlucrwHnKl0u/wQPCHc8bV00EOvLNUCn53uVToMgLDIR0EPr/7vVw1dlkBgQmgQ3rAuDyNyimGUeqvjdRChsvTMZkGdS9A89fErQjo/n/0zkZIXpJcvsvTTT5OXGpbXZ8BAFQ70l6G+g3INaT3QPHFwLDrwGjXDpyXtXamuU9tfF6bLYl7Px/dNFjtb94+NqiIO8SyTtt4uTxtYzeKWzVvk68TOqVfCOuEflQR93JgVCLI4bBcnefwoDYuTRIAEjCXlciL6rrM2uRyXLZIqF4fiPOXGWDVeg9jIHriXp8bqCS5bJWbHwT6Qd0ODzARvI+mZRuXgc6XjVHVZZL3Mmv7spFXJ2g/AuZ+iDGGqysAC9ivA+zzvL6GuCFBC+K+lxP3yMDEpYYl3a8D4QtLDwvDHXfxan5/eyu/Ib/nwPJeFf3z37tvDQMACGcdHuDGDutku8LycdK1SbT9MmFDoTJmfVw2ECB0nfH5e9/Me853hyUBqS0Ps7LTYT33v9n01EGd01IuLgeV5Yoh35WWumk+rYl5OOavxp48r+arK4ZvLkf0b+wggztNV3Piug7q/jc3AnzfdnM975bEpbJftsh1WLFrG24APgk/Mjt0Hr6TC/le2cMWKT9+8O3y1xE3qIA3elg5R36LspXy9FpQ52Fy7jCo6xCvE9TDZdLAdFjKCNtSzsUAzss64rogeG0+Yismtw+i1xcGth7MloENmX71tcOGzoeM60Gb/c1LMZtSMFoYQnVouOAB77BtG+Hjw4y4720UQZLWfyvvcT1xYWA+HJGbHQv5Y/bX8pHfTkPW4eZtNxnlet+lksx33hqaBlXB1/J/SsBLh3oijzhHUnHtEMgvZBpg2SPp0qHwFwYqdv4SaMcR8BEloAZKUoezS9FTvzcsy1E9YsFH2JDIdihi30NAj0O6blBvkY8Hi4FZl2rnwxEC1B1EzN+DWmZPXOcj6odbS4Pi/I0jEVnb6MDkvnLYtqfzid5mI2Pn+mJe2eygMmhZyAn+kBD3kq+U/F4i/wcNH34DRVm9CBBImUuHWB6QqLIob3h+oMoCdZypbKYY+ZIfKtMet4XNLh1uypXEHRjyDMJg5p0fI5hi90tb8GXdHihn/R+zg4qtOtAMWtvSyuOI63DubE11aYiL7FH69dLhLQY0w9eXtmKDKnUQGb3gtMe9ZKTLMy3yRP6PnQ+ANTMg53sykMzYsrRJQQSM5VEIQAl4bbGSmZAK1jfTlHuY97jXHHFn4m1e2qqfSG+L8w5MfbfSLszPSL/V+i5vAVuazW4czW387nDzztshzm8eHRS2LwjdIrjEOjSJX4zRy6RDaMpifBfEvTQDiPv+xubtt4dbBHwvmucizTNjg0wD0JbTDK5bk1katade15xQE/dbIQFhXtBeWS4n/MKb2r0X0anKM2OQnNn+Yh3Eel8JA5rupYw9KHvbYNzUAeQhdVyZ62/ef6f0jTsO6pgtrzkOOL+1Dkgz7YPgm2CY1t+pFZtpFLvphsqUuORa8DvDQEf+v8jrnQmB4q5f5E7mbWgk18CvyHaxatf/ttIn+O3JfJoNaiMPitQQcFCfh/IxPe66cu+TnnrGsJN2bUaRl7QX2CQaUMJrgQ8j/okFbIyXEAtU1sszUhZRH8cRqfPO2yXG79DOidjn2pFqGJ37QcN4qFcP2qeVfw7r/kR1uHMd5OSCuHkkKog7A5w7Q4Vryl2eHRj5eqGz2xBnRnGoO0+uXWxBrCavzH8xIHef/fZk2xywM6TM4VBHT8Cri6Dew6H93DlvQ1fugeupFwdSD2GHJvlzl4D8SBfhkxlqkz7ML4iiyBccQ5/0A5+gNi8qARdiss47UOUucJr3sM6299/Z2Lwyr+Q7XPnOPc9dGqr6Wzbl/IC6U520fOB8J3B+dXxzmfS4xHhF4g6f6Qfp0kwowMWZphzNH9TLHWWA6mJQJ6k7P74027QZGK9upyfAwGUufwcNeIW+pD3eRpDKvAUBKXGBrpRwXp+G8INGNhr86MgF2W1GjjS87JdmDFkUH0YD6WFmFwWAjf00HPWwrkLOXkN2xY8Xud+qOu98owyKN5YGzF+hXM5nzgf3c/Jemu0FPEGBidrgIrPdRY7lWalrwBfCmUtA/w43tifug/fLHlcq1guUlGCVxvuq6RJo9xJ3NGoXBBYOEi43Il94zPW367hTEHdYE/Bu9f8D9wju/Y3y+P2S3Pff8/l6oqdugpi0NdRzJnZO6nNJzRerR/dbAVAuX/7/hcNKuSAQkgBdBWato2jjb1f++rES2/feGQKMyvKOA843jhO1HLD+nmK/GEZ6reTg+nZQhLhREfdWTdzGeBf8sTfibL8laJooc0ETjNbpkwAYd2Iv8quRsK+D2NSpB/Su5Jlldc964uZDssXymidyQNjqlxL8DumpoQ3yui/QyGwFG5cXBiDpm7gve7Weehkr2Df2vQADSb+FP3uGT0F+ghVHWGfXa8diHUaFMzeJ9W7pKzfElnX2IR6acz2gK8V3U0bYYxboXZXpXAAGKYm7URIXkkk64IIqbAMcngIFZ/shyFgZ6exGsSDPrMwjyzN5Z/uBTLSu8Br7PwheXNZeTdT77zc9aWCb2ZBcVEZPcE/4QDdIROmnC8hHoB6oz2yoVxjQesLPF0Q+8Mt1n+V26AufwPwARxcYYalOPo8bGjtc3/7mUNTF8ULluvHWoPCh8wm10QUtcAD7BtgVHZjkCQ0GFxg+3G/nAgf3bJ/0uIPNC7PV9VkmUHUuELD6/8KsBDkHDhWoLMNAiYBK2rxAZArA6q8j51EizsrzF4FOte4zLA+XbQ7VFfa4tY0CPUD7oJywJSvf6N0Tx0hu7BcvX3hePyeJH7QXnAftMntDP872oM9C4pL6iby0rsvz/c1775ZB9NJ8v8bIRWGvpp4GA2VPfd+PnDS8UJtwGbiOMw2HqPwXZ5kMFLdE907tFNKwI65T8FZ+E4+M0eRnjqIEZwpcoAAPygPQCZmokyWQLgTAlG3yc9LgQFYA2KBtFnB8vbe+UdqOp4KAs00PrKUyX35v9a0SKE0qr19e7Ae+4kGV+xKd10AW6Evzz/E6+gomepvnax8zGwp/9tRAJv0gbY2v96Rfq7w3C79sbN759rAYJl/P0zWWrrrfJXns0s23yvJ33yl7XafneYFZ7AOq00Vkt5meDAAzgBPkuHN+RlZeDA2+s1Eo666dn9UIJYlVKzSrpSofOXdec6yRGnAYwFCIeH5G5ucyNwEG13teqf/uu4yM39kIiHv728OAiGHaaPJ9qwwA96rk81zLg+qFuT6QQQfLVuwaEHKur9oJ4caqS5Pv/Ay4XtV9HgTT0C89XA/znethnR/uvR/a/sF3yqBI7Vscfwf7xl8vfADIFNPt/IzSMcxy2fsKzpqyHQ5Gl65XY/qbrselFc716zz+WDRC8wBhzgNBzzMhz4M2efvnSb303HlIKt5W6NjzwGBcrvPQiKG+Fxc8QDbqcp6Al4/0YR1I9/MVwe9V5dz5a/n9mfv/1jcHYZk53cnof2zrvm5/VE4NHNivHCPnrWAy1xfYOa/pBORD+jublXgeFNhuUh//v1z+3qjO+9+bb5f13H0v73XnegCLPSwPw23RuSk6nDfsSs93BBkcSHIF7lWKloRhTqvOndcEA0Sm+RtlufI9TMK6TULeOZzv/CxqhwBtDvT2SP45PSDgNnqbVz258mGuL88J6OUOADnHdWXl3GzmfK8ICg40KKBodjsP6q/zBDbsNraZs30hys8BYhv2o/jBvu5BuS8Yftbqu7rUL3rQO+8OWX2GvYh+olNz5M3ru/GNYRQfejvt/KbWWQyV5yrDz4U97r2qxxXXWd7wmABlTjq2MERAvj7MI5QB585xRWmbWp3s+gXavpXmGv0EIEl9LtD5oZQ/d+vb+TnXC+fOLtL7IH1nKK9X/xc9ddWGA5+7dmmxb9oH6XUuJyayg7Ad0Ou8SnYDD3PEv3NYJh6EqW3PEbxInCl4BHoVNsvteOVYX+QXQWjOxkqR8gDqgqfzgxthqXLMGrhW7dWz7UyOO9zIFxfK+zSn7I23B7oygBQ1OOb6en5B2H5NwnOBLP3m2lzEsGqShL4gZOubdZybta+dI8b0ILlEyFYSlxHzO2G6+/4AE5sR1wWGu+7R0vKgpf6h/OcMYuHrW7Fvv0XZftiWQphzs5ZfACaU/K53LHCc2+3crI2fAruztr99uWJEmtd769vDOkBIDLfDUBvMIXt0zvl/5kuB7laAKYYWCxV5KFDnqlQdw4ZZOs+O5f/9wnDnuINAmfPz/eZ4TspwDhzrxuyb5VoBsPp10bew23tDaA/tnPitgt850o6/dmW5X5D85reGIeCM+jV7WT48R+WY7any1HiYNWwP9Grq7oZBEODkvNIu0p+3eee9krgXFmxsang5J+xLRz+DOkhDbDO/nJuN++pcS5K7fJ3reTS6XQlxt4r6DnxOWaHgvFQckdP+v8t+tTJdk/znAnJ31cBwjhmzyDuLdOiq+poBqTL0lfxeytnv5rcGmCS03LzS5nzftG0xGnL+eX+o2IP9ziP9Ud1dKKcmf5s8qi7kvJNPBOn5Pva5ct5KDseuI6qJO49tJo+7QUeB6nZ+vsuJO9/WNjqmkJ9qmUj9nXvfLQlbgC4f1l3Ne11O2kAwKtx8OwO6fHWj88p5o+xW2ioMPa8RxQge80S/+RbysPLXv+kc6dMwSKWN8/O1rQfgOk8DcNzUcdENoecVUEAduq19pQVX0Z6wRVe2q/qv21KW9ikgZo6Dm++UdnMEvp33vu63PKb/D4pA6P7352neO9X/TSrPu3rdcSuZ5tvpYtuX5umWPa4bgrlhcVBgPjQ6IoT7/yPvAFDGX//IO3SeCaiUOYcCxDwgpxIMaILy+fNaEJo35J8HIM9/b1fOLIjFkwMPJeJ3q/9FvoaY9767QYgu67nyVl/YjfuolFvaytsE2cCfC67NGwRscf4jRGjh/670P5WdyPCRFiB4wM47oOvfGgR+4Pb0x4W9K/vWvqLlWB233sl78iMGZmOYo9iigUzTkdmi81GRqaqINwAarX+BUz/ywtRlABCQIvOs/fkuaDfG0Zm0AAAfqklEQVQ85uU+mpN1et0+Qm0RuRqduoH8vH2RP+agSHrTfB+9YT0of3AcqU8txwMEsp8lzxZkR/ULbDIMbNnGc7qcDQ5827YftpLH5AqTrXOOk40KWaeuJCXIyx31EVJcOT5H2qpJVBOpS+RoyCVIxuWlZUhQ+KiFPMXxAtOHEPycoluof5fog/6X8gnbz3WZXXBZZE9Un9ZGACJqpwWAibmusLXPp8kTBoiwPArcH6lyhwE3CLrCPqGsNu6I/CBQ2qlrXj/H7KD5U8MxCnCdc2bjIWka58QE7xr1tVOWt62RsV17+FqpT1eQ9RxsH7S10N6RZ+sAxIC90AN27TIndqu2ui0A060Dzkcm8JB9u1COOCm6LfDACd9TgmkX2DXmW4ZTAPyPDKLquMa+0fx/ri2Zhd26INlBoxMK0N08CyuhgnYZkLrS2As9g3SovR5s46xaTjNmN6i7IAyp/2xwjuRdiIBiocfqBQFooSfIdRY5b8GO3uci130bZ9VghfObwZPoZ9cb2vKskKOp7yxss9uS5Dopua3OchItcP/GsNtjGCTYWzCwsdCT2KU+tOy5oASohZ7eWTBcdwLHVcJQxen/ZwFoAwdSInAiL+hACUEQysJlk21EgEPK8fpgO5TkC7ius8i5tVyhPc6ygHFWBMdeGFCg3XosgEh9hI+EXD0ZuObb2EJi4yzqdVg7Z1H9iCS8Xk5GWt9CD9pUtcdCLxJ4AaEWQMDegn1gQFzAgT20HcAGaeMsC0SdokEHtgUGtgVmqAVmZH9toSvI568HeXz5+pedn+8Gec9SY9G6fN3z3aBtTdaPWLmwLQkMmi/UlwURog+VRTia2mchtG/9S9N8F+s839hF2lraUMi2gMF/FgQgFQekbu5D4QeqJ9CNymf6jdtE89MCtltwfZ7JxmwjcFv/L+3K20L2ELjjealPAd/OQhnKc52msZ4EEREuPIeJ7K+d4UYJ6uiBNli9iz0T2GEg6KnXz3KDctIzYyCQfcTLCn26m7YNUX6kWy9SV8xPtq3UOrifyP9n5i05/HVdjo9g2dKmZyhm5llAEnaO2S6si5IqJAcnRuXnRRbsgH0+QrLMa3p2Iz7CHVpgu0USKBeZXCVxKyf4Qos9G3BK4k48Q8qf4W3U51j9iz0lj24AKTOQzZAZtdGc1wlzJkpOSfIzgV5KPYs9SKAzWwJGG6L3QoDMUx9KDJyZ77bDQVVnkZ9h6UwLnwgbL/Za5O8JfMXwGQ16ERx9tIgCWA/rt6jhtAeCY8/AV9NWQFwErKJARagzPO8iLxuS7wwrL9vChjwTkYmTW5CPyFs738uwyORZ7IZ5F1hZrpev2yATr4e3iexHAcrbPqPYTACbgfwMO8+Bc4YFWC2InwH+OQMAyn2B5DijAPuM2sN3ocyoPoSRM5o/WBlLvjNGsAnsu6DYt/I/IiDEC8Ax76g6HFhnEJjZ/4GS/toiawjWtw7rslMPn1/swmByBhD3jdNiqHtZL65ba1PasoevL7avw7JFmySDVekbLo8oQ68tyvYpJkpMbV2+s7y+xUh53lalRxAchR/byRQSp2nDyyUCxyKum3cGXKezSgDhdqWpExi2qLCHQSGc1ZMGpr3zIktI6BgYFklQ4XlReWScxbAu93ta5Onl59ZDAi0CI2rtLxJ7kGunY8EA6F+DkPXwp2ti9Qx79YJj0xfMJqZPIrYNgNzGH0Qfzeew/UVDpgi+gvYsXC42voP6GOWC/AuKbRaxDKcXWvpg0RPXN3rErhgCtDiuAEbKn1YMYQGkLN8LAoIGsNMKMbeSTpN6TgeySNBspb3TEaKcrp3UU2xK6+lFrtvnCrAu8rbzc8zXpxc03za2sWzQyj4LLQgDMRLK0QpTiyBwvqnvFrFN/S8k5AKvq9f0xFSnBYnts0UngmWhHOucXuwKw5ymDmPnndNPUwWAUU8bJBF5jhiOMeRq6l0Pjk9zoNI6SVtN2Z4qOzo+rZKkKwgBy1mBxLLhQpjvNNPfajMkcU+2Wfk0GIEAfeGxoQOty5KXy4wDCcgXbVup6wix54LEouab0wa2Y/htjnsqvk5vAS8dbtTTCBxtEylfGCe4vs5+sWJQ2SO4vTOKQZsy60HZ4toRWZ9WPwW25kQBfl/XkVDvQA6j/aKtIz1V35pUIs+6BNYRS7/KNlUPXJ/T7MICtWUDzc+qry17oHIkQJ9uUZ/V9pvooJ//qklvj+vUQQVr4Y+0UbQylE9FHUyA2DWt/iNGvvz/U66uI6wNIcvWDXjG1x2R6cwRpKOdTrXV/0ikHPXZkRiAtTbXTfKEfuWp107vI7adUf5AbiVP7d8jIB+TWwTTI101OAr5joTlGl+sg3rWmd7rug1iWDmCyet16ZwCxvEgcb+naONHpFEEcdA5du0UU6iWgfx/SlOaO4q1cWqxq8vOCc9loXWz+qD+bWyx2MJWWh2s7dAmVU+pAfaryHUEAwfb22Ml0v6RllhZNGQ4Qvx6ROJGDdyK3tSeGlbgNdYphPUYdmR2O6XaNNL2EU9cWGn+ywWpztX5fKryN+fXAwMHQhyJC8XzCbJZwFAceornQXUuhucFwY80NnE6IqCeMhxY1HG0JwIMlwv9f4oFnVOG3pb9TkXaoTpqNsb1h4Bs8vR0/0fqPA19phBAAb6Gu1NtgnFL2RBOTgOMnFL0pn4LSav4Ks/XOcUJ6EhHzjUEbc6fPirLnKZ5SD1heQKso1KZEDzrJBHBj0qQ2cCnOoW61QGG6iZ06go5wmtdaK/ThOCiTR4IlDpC2bnNQQAF7ZyGda9LP4J8iCBQF/B7GrQJsYRsd7QLr58CPj3N5NGATu1m4ntxXfcnxKn0i2XPU6Bjo52kpjf3eYc74aRGUG+Yo/T8ugqaMo/maCutY0AsWnJJZ+ugzOs5yq9zgmhkX1cJYusqjxv7aARuY7t1YmvLhutAX0a0o2380lXqkXXa/lgHWOmauDtl+otjsi3O3szexfHRLpFpfQv4tuWIYduX6XAnn6SCwXM6oE9aYKeNi+N1Vjcx0lHU7jorEzrrZOBocnwUyCPyrYNryEnAacDAJ1XbcACsw/pOCv3WcRtBXiTzOpA1LHsSgf4o8McRYM/A7ohoynGgP/CNOGb6HWUY4vJpAelo2ElhgkZ8dtQoe7RFZyRsbvuAYqgjjH1UkikAxtGuSCeJsCgvL3eS1Blcr34vfKu3ef37/c2bvzTYvPmD6jdPN6pj94uOb1bHLl3/Xn/z7LKUIyaL0IvZ4ySwU9hGWOdJQSzk+HVRjwhohs1FAnJrvjoJ/BwAyP9/tDx3+lh386O3upuX3u1tXvuus3XjF+ezq+/3Ny+/1988942QdL78KcX3Gm58uZNQj0YHZA8R0I7yTmZd/Kr+J3Y5iYKqoo/oNFiek7xjZOc1fHZOUkGPloaqAcgNSBs9Gp6T56tGRR3r0Fm07Rvfz8FQAcGlazkJr1W//lxw7XvNtWvVeQekKzmIQtm6ARBOgrZPMXs0OnVJCvVt8ndZW12pc9A+seFRKQ+qOyhPAROUl7KHeqzDFLTFZc8Je+Hb3dq2lKw+3fglmga5LwZ5md7m6aVugJPARsgOR7A/OBaprKdY2VAHqZPEH+DAUYAbbtsjyJ9NfacC+STepJzrsC1A3HVJQnLuRCXUCQC2E0cQABBIujAfvU7rco53BKTlTkCgh4HDK+mAUhD3O33QpjwODcgBsG4CwL6uk6TRqQvtogO7a+rjCNbU25wT7fNgfKyrEKi7eb4aAXlSOrue+2ZDyBOknDt37pt5j/xeryBvSeAy/0lAjJBoKIiw/EcR8DVfrLdMXWDjroJx2V6MBydQkDwmZT9xpMGEru96YV9B3BMwWrVRugsBdoLVfSJWX66QJ+6JNkYHoHTg8QA7cTRmeEAolu+EuIbyryukjgcOPaDZ7frzJ2o74AB5wggcJ5AsxKYX3+kVtryep4v58PjUUle2zQB/gvihJHBO+F8eFOVpeyei9uTXARGOdYN6TggduvXxiSNrij26cX8c64ayH1lvh09azzEr0DS+OKFeK9PVfHTZQUQ9YYKj+T8w1jFW7lh4judH//tj5+irFXFRqutl9Zf/59Fqab0A2pXv9qFTqS6a48Vv7nSkMyp/4uhafe0k1HsNBhxkSwvcYeoK+3BbBcfAppwYl97rFnZ0QDn7dhfKEureJaRp9D+b3+8WtzCO/O/1dL8q+gVgD3QIfagHuC7pONZVO1mY1zCMbH0CyXqsqwcfVrapbx3W54JgBxeozh1jxj2GGwjKHVuXZYNzHtSybl+HE8wirgRlaKRTyyVxL3viHlsX7QWyFnm6IiCE8nWlTseYbhH7IIdAmyt10Twnj0kbCD2PKcHymCFT1e6FdyvS5n44tdwVerpj1/ueyQn90bfK5Mh9cgnrf3q5Ie8F1/Me4/6ziXAiBu5jJIAdU2xq1MUxr/ICyqrg5liEU4grCs5p3dd+0G+Ie1whqkvHq/+PI9AC8HLhBKEjoK+Jy4gVEKiuV9btgHb9lx1xe1i+o+u6PJZeR7F9AuJrbVE7ULsq9lMdrch2/OiaHlBQPqM9R0Jnv4C0pM7TOUGdbR0JXb7r1VD6WvX/pfwWxeUJ2+4WdV39QZn33Le7ocxW8NcwRu2JyEDxweo9yXFk1R3zQRt/K/yw9NXKu8DXUQX1jmYgO94G7IYBCmeRehGQrznQ/KAfrZvL4us+6YbKFXGPVwHnuNImlfO4pnvVVhvZfR4kFw2CUv5uVD8IphY+ON5CX9+WG60U5Mrtd+Yb0nfnXU+cB1Z33RH1Qj70PZ8D6dw7+f3sd3oF2Z3/3HV3LWivIr0r59o4ubxF/wJblLbtNj4+auD5qP1/zHetbG3m76q+0OuSPnc+6gSgMgjm/j9OftE1KhjPR8seVwDlrznHXwHEPX5sXZZf6gqSOUCUxO0LGdoC+7jWJtOhzAOctbRuBgIn9/Etg6Qb2NXS67hhX+QjnxwJnf0vvt8TdV6pSHk1J97Zb3VFO/7Y9die/Fe+3xM2Pv9e2cb5d7oq8I8bgZ76ILA9w0KgI8BJSfY1qMeJaKBfF36wjmk7mo+Ocx8t6fV1XIVNBV1R+LgC4kKQJQbSAoxrah04rbG61wLiHn+DdHLZ1dHbvOSGykuNfLSNuI5rgQFF+SXFTkvrbyz3cSNAqfmXiExH17ZUFqUrFeGK3pDoeP69bu2Xk8vYzydIQHLlXd6CoDlRQ5nX6gBwYtmSk2KDttdtZccTwk4KNmty0zxrhq01X3Rb4X1L/lVk7RT/UIGWyP9L4f+1YjyP1vCS8f8SMkpZt3Pq5R/0QiWXFLCCNhxoXB2OuD5P3cMtcQOutZIv6ixuj6WI45Za2AjIVLSH8jBfHVeDUFfarip35lslOS/kQ15az6m31glpZbk6YNftl0H91Fvdgpyu7OlvdOtrruyl75W9rhuON0Sk/lwDdlgDxF2DGPoQlldwfqzKv4TznVgCvGhDbO3/JQNLQoY16OeauKWia8R4a40yxxhhtUTLgGDQtKGQpMp37a/kIPmlvg5MxYAfekN74n6vZ8iqBKgl5kSSpzzfVQNb3D6VjMcU22i6qaTktlyzdbXayX8dYZ3tz347DEYXv1uS7Oy3ew3I/bD4nV5x3dm6KMfacedcnZe+1yfl1srzRW/chbb/0NLlGPDXMR2T4n9kj2OynCBSxLYSK1LO5nzX9mtE786H3GBao1Wi/wcCLa1tfgiM784HdRyT9Qa/eZmrf6VXRHde73EkK5Dz5FvrFVh6sK3y2NWxJnT9UGvHCFwfKiD5EOgHg8SxNbX++jqol5b58Nia3gYNHLzu5W6dp+gFc7udeIuUd5NVLpDmIyBe9tL3y/zu+rUqFSMl1r4LwkW9y8055yNX7nJeB5L9w8pHHxqBsPHPWmOTpXWb+C0CBJZHz/dhhaMPI21ouP2Q1nUs1OVDkKci7lrhnNAAknDSoKHRpBBrEsDLTMglRvjq1xH3cu5sKDyT4UPg5BNvrRWguPi9XnBN1rUmQPIh/H+NtY8BU/9/jOm0THRX2wPneCDwBF9mDvb2Xia+AnmkDcNrV365V9iNynLqm2WPeeG7vcDGrsd0eR15T+d5Tr7dLY7dubPvdoPe5bybbc596uqibbr2rvxyv9FBC1CB39YAhtYh6FEQ4ARxPd+HSnsCtxx33j/LBH/LEo+BT5iuIZbWJAeXu4FePm/HJkL5/wewUgm6QrBlDkKNEGsgledD4q5BIn24vA6J635PVNH84vd7wOlN2drgy4pOy+uqjLo+mv5rKjk/NEDzIQMGCl4BsJa5jcK2j6t2qwLmD3pB3rPvlAT96L1uAE4XFK/91fye9xtNPae+Wdq9JHkjiyvrzp95pxvI6XzcBIr1uP0UfH0QkGZtC5hbj2DaCvpaR4IJHPTMyxEfLmE9aJ6OJMJaQ1Ti5A/o7/I6zofOLzPCLANn0GvV0OzyL/Xq8x8sMWWXyS9N1XVH3Cs5CAviijxrddkPKlk/IOfUgMDaDIIZ0EEnubRtULdmNw62ZaWcEiyFjiDv1ZyIl385JNIZSlyiuyOnO1/0otU5R2JXR233QH4gi0YqFjA/iGEH+RGSVLu2FvqC2OcDZNdlrgfmDJVZ6EBxzfEEONXk8T0uB/Yyq2w5BHl9vEyFCUH7ARBUCEnLMUUKAOXRuKlnTQQMKx1/Ox+G/dVeOVQGciG96rRs6yR089dZXtUepA2U70N27QMtMKA8y5L8XGaqJz93xd3LFj1gc/7kN0t/uOFuKVt5rSB0fv5S3kM7wrp87rjuWZdBkGcy18fLDVg/UOwm5CcAx9jCtvJk/ECxJ/dVLR+wt8REiFXkO+gLII/3D/Kb+79TC7UMCi4TJ9Nz7H/VAKgu7jBglAIQ+f2Pd6hsf13UTeU+/nbT4wZll/jxWmgkVt8HNEhxWyyFsgTlSGCi+eo6qb5BHay9oDy3gy73h0FbjKTcjoTEF/NRjrO9s19DorXClpf/Si/0pRsu/6BbBMgiuQnFisgfBARcE7aR9mC+QHIur8nEAm5gU4q/pTWBHe7XDwN7rOO2KO6WuO3XoR84fwRhEd6WAM6JPjVxafoVQUqbtB8wx1Dj/8rSmuIADtRQaQeEkrgaoIl8b60LecoeN7/Xqom71kL+9bKupTWlDK7H6VjKQOrg5Fq2ZEfBwC77K1a+pbWozr+i5PnoOyURT+c9ps/jZLzw/W5hz9PvrIdy53n+v1KtbcltWwnqjyICcO4pJyd7xJs2dmIna6/PrxugfD4k4Z2DmZ4htXlASQIwt57uIbdqh7sDzk/92827b2+7Q17gfaQ3nEcHaty4C0RL7xR6f9uv7N5veklKXzqig6MxOh0vcnYaHS8kNARMz1sagJD2OpO2BYW1KGlw3q7C/f/qKyuumOLQodCygpdX5afXXyBAMqfZJ8/tKxKTEn+xLZQnAfOFm9XZTxPLfm+YUKwA1rzXy3rzqhtx+/A6H3hv+/1P/f6nXryPrtshcwd73LJh1TK8oJ+iU/jSCaxRbY8F9nFV+sdFBHMk+bca7mhYCo5g/tPaWwPX0+IEBWjBygpYiliSKIhdARIsLL9b3P89bK/KtAB0vz1Hsf/YC/fTTMCW5HBlTWuVXLKmgPjrXrHgkEQcK8b1zO4X1Jduc1X8tIxQai8L5XyOOTx9nodX3odZoMW21qfxdzfYD95figvnBsKH1o6FodS9810VW9HZYi4M3lt8UfokBkxWe8r4pOmC4nTiZGyZ0PLPbmoAdY4KpL6KXNhrE5Gv+WwQ3ceeQIutLEa3HQk4CPdhfnIUABCUV0EF2anDRdTN6of1GkNQ2Gg5nhOsleLR0kGG7EHNvN53399G/N//eBOY/d6/Cue4R+Fz7T8banu8gbmC/axHyzAokl0zi3Mt5F2NS7CXhdJLgPWVxqPDs9BrxFjmuZ4mo25e6fjSACt29ud4WaHsfBDdx1++SFH1n815P9ajn3w8vb6Jc2SPBgG/t5xt+919OL1odbuik4ToRF209kaLs9i76ak74De8Ou/l34ge0T5tfhs0LJZ7Z5BLYewbuF6Z/dWyO+ucaAp0L8reIAzOzOZ8kBdnXMf2fds7NUpDrv2rUiOSnQpqNAGBohviTzagW/1x4X4gT1zku2HfsXC/2KTbqQP51vYbRmTNbyNI3+3nKMQSxXdNkM1OHWj98V3/N23/ujy89Tz6Toi0uQOne+/pw8XAfG/4qfe6Eb9133V31/PSRfnRGNoZ77lO5HNaieE6IYYGEWgozgEhjyuqAmuMfb6eH/JXZWr/9ptufI17/9Ntep3zEpRBuM+/3rYnLs3NYVE0xm8hHgZkYwwUy+civMy/64weRJhPY+TUGAPP6tX7H7rpzafvwzV0GAfl91aL/N6QmuXDIMqcaV2u2x3ircJbrSfaXi6eqGKJNdDpGIn+RrVXUntQuJuTFWSHCBwlAcG9VeAOn3PbsSC3CXd44qL7f/xwG8+HNTwVfvu6Y/7jKObh/K9euI05JKJRJ65Jq7k96APnEDPf63JYsPxOw/pFc9n8xgP1MfH+NGB9G3vx5uvbv6hP5xPEzZG83SbY+hzNnkB/JpfvW5xnh23cC7ACtdE7p8ypY2RwSuEaOL3Teibii4FyQLgkj2tIo1iX1XpK2HmarcL9oguV1VevOUdTFPlddkexqXmTHfGBYjC7muFJSQ17dRDnDBdFQO9+7NZBOQh5wL+5p8c72Kh5K3YIS5WfB/DJxOF2bPd6zjBtNRuX7tRIFPYnQSJWOCSplfhesQfsVuEqfmr+pCR3hrOBXOsTF/iv5wFTK0Kui2mhIUXxqAstP518FGshXhLfHJro3gGc68LuT630423/N+/QDyrgN9+m6RXa3U94C3f4UDAEv/ZRiZ89SMa3ui6LVReGuBzAj9lB7exx/OigMPA8jYXzYgHBarJfs7vCluxTX5yoyM/w+aH/+/TjIN5fh9e0aT3R78Mn/83WKNyfb2rhtKa9wVOD2jLCKH7WuhkxaxdV0VpY0j2NpLUh0JrEnu5GYB9lrOF1NUx/pjwN/0r6sKy5T/+5yaHktlo1PI8ujjvkGcPa6rkdJ06DGw1z5XftlMHsaL8l57IHCNKNU2KMwuXAcKGKFVUAd20A2GtCfjv7/ftuFS8nCf18/q/cf57vD2IeyJY1xEU1t8bCIcMjZguLO4ohtzbU7+PVANyaXVwxlqieRuxRbKLha9r/7Zv+Fbp/6v758zBAJ7xhnkVUOWARtdZEK/oXVW6auGU4aD60vsj7jVJfAznGeRMP8ZOvU2McYnL0y5PfGkk8+fRgX405F+alSPLGxMxfs8aJun/PAFJyb2DOMfve+HtxswaIgaPAbVsVzcmwr3i9PhnYJImPN+pjZ1UR1Z7i4cdwp/kuhPcI18m+MsheUVwFP7bcq8Lojzd8mhzW+ocGpdELj32fsqZ7mtgm0oqRVjjzSd7L9mK2l4EA/ORxNCAN0oO41drkCMGviK9KEVoF62B7XAB+8Z0I0ZgdaiI8y4lagSEk+pfVFIkfZRh76Rv1qbKIB7my5d6Q88qy9yA2qa/K6olZzAoOThaP89Sjh5MiejYwxXBk3BNDFA0xjqsHIp7vnGjSC7krHnT4nFcmguW3j3nxzFd+X8Za7EVMI581J+UO9Y0+xaDwMYvLa6O/N0xiZq/i4aT9kgP3z+NDvGnN4z6OjerZrcPp8bPceYzFR2AxfMx7lWFj8G256xKuG3Agw9dPw4ljsPmV9Sy1Q7xY7IrhpeVKfVrc1Tgvvs85n7JCyaLA578TWHE9E432VDTb/Zrbu0j8b0BkA4MPEB/xYKE5Ub+O18VFDvzTex7jVAMc8po3EiG8l1iliwq2jBC8H45jKrEU/eH57/QLYxUBVlGKVPQYC5re2XLivMNxJC6o5/owsWINw0j2NGFdOMQLI2+GeS3wxpw8LV9KtdkAkIDvaEOgUgll+AEFly4axEyqn9Id8y/P9f2aYJD5DwliVt4VE9wBmI9xwxGc5CpRj5EvZQBg/zPBQjLwTmxQRXPQ2Ljw3uYCK436B9xKZ/Qh2Pjt84ULX9cUHdg8p+UNhvs9ZU0cipkdlahx83nW1MDOsjtJBU0bGCUTQ+nzXGiunLTlYfGRxqs5SbBEXSH/LC1xLNiaIkoZcVSsUV4hn+6l+4xxCoCUAb9BlRwjln+p9jZhsaHhA/HdGVYHHjQaH0rCo9LgY2kMes5J2ivec61nKM+S1wX6tNzZhBuY6Mag035JkxjuhCgBCIDMAYAECi0ZANki8cvA8iC5bzbAhxJrrA/cpX7t82TGqTiuWc7a9yjqkzWiWtKhHGWPk2ojbL2yH3ISlpy0Ru5WHXzYabihoUgxq0A/te95DxQehLyvpcXpdfAleIfjw2NrdZ6oOLJieVORcAMTGBNZycUVNl8bAMwf8XkhewIkXlhg9gEMgBBVguN8AIk0/zT/AMga9LtiUbw0jEKeMx1sEBsfce/Wvir4BVA7xwHZhqjmAYWqccrCzODgLhcMDkA+BMBxESdBTqp1BjBcVf3l+6ctoaQQKdmNWe+k/QYGDOLFb8si9GXPJ8/5CLGOxKF7fvOP8hlAvfj742UE8QdxDPkQfNFaehA+/21zIWES73EmG9QEN38An4NnFfF78Z9Vu4sxAEY7q4/KUFMfDpA3OH+VLz6p/T1NTZOgX4DTqTjZvEvYF135Kh0SygWdHxFW2Bf/RfFv5WzW9SqZuV68UZO/Y1go8S6wTwn6uRj4HhYhEi7NiXy/7A6rz+SOHuNIz17CGcpZKloe72JivaebtPEI1Lf05aLxx9j7B67v2Thex3bZAAAAAElFTkSuQmCC;" parent="1" vertex="1">
          <mxGeometry x="244" y="119.94" width="30" height="30" as="geometry" />
        </mxCell>
        <mxCell id="Ya52i8-AY6qaeCq4us4A-15" value="Amazon CloudWatch" style="sketch=0;outlineConnect=0;fontColor=#232F3E;gradientColor=none;strokeColor=#ffffff;fillColor=#232F3E;dashed=0;verticalLabelPosition=middle;verticalAlign=bottom;align=center;html=1;whiteSpace=wrap;fontSize=10;fontStyle=1;spacing=3;shape=mxgraph.aws4.productIcon;prIcon=mxgraph.aws4.cloudwatch;" parent="1" vertex="1">
          <mxGeometry x="753.5" y="321" width="59" height="90.88" as="geometry" />
        </mxCell>
        <mxCell id="Ya52i8-AY6qaeCq4us4A-16" value="Amazon EKS" style="sketch=0;outlineConnect=0;fontColor=#232F3E;gradientColor=none;strokeColor=#ffffff;fillColor=#232F3E;dashed=0;verticalLabelPosition=middle;verticalAlign=bottom;align=center;html=1;whiteSpace=wrap;fontSize=10;fontStyle=1;spacing=3;shape=mxgraph.aws4.productIcon;prIcon=mxgraph.aws4.eks;" parent="1" vertex="1">
          <mxGeometry x="760" y="456" width="63" height="90" as="geometry" />
        </mxCell>
        <mxCell id="Ya52i8-AY6qaeCq4us4A-17" value="Amazon ECS" style="sketch=0;outlineConnect=0;fontColor=#232F3E;gradientColor=none;strokeColor=#ffffff;fillColor=#232F3E;dashed=0;verticalLabelPosition=middle;verticalAlign=bottom;align=center;html=1;whiteSpace=wrap;fontSize=10;fontStyle=1;spacing=3;shape=mxgraph.aws4.productIcon;prIcon=mxgraph.aws4.ecs;" parent="1" vertex="1">
          <mxGeometry x="760" y="546" width="64" height="98" as="geometry" />
        </mxCell>
        <mxCell id="Ya52i8-AY6qaeCq4us4A-18" value="AWS Lambda" style="sketch=0;outlineConnect=0;fontColor=#232F3E;gradientColor=none;strokeColor=#ffffff;fillColor=#232F3E;dashed=0;verticalLabelPosition=middle;verticalAlign=bottom;align=center;html=1;whiteSpace=wrap;fontSize=10;fontStyle=1;spacing=3;shape=mxgraph.aws4.productIcon;prIcon=mxgraph.aws4.lambda;" parent="1" vertex="1">
          <mxGeometry x="760" y="644" width="64" height="95" as="geometry" />
        </mxCell>
        <mxCell id="Ya52i8-AY6qaeCq4us4A-19" value="" style="edgeStyle=orthogonalEdgeStyle;rounded=0;orthogonalLoop=1;jettySize=auto;html=1;dashed=1;" parent="1" source="Ya52i8-AY6qaeCq4us4A-23" target="Ya52i8-AY6qaeCq4us4A-34" edge="1">
          <mxGeometry relative="1" as="geometry" />
        </mxCell>
        <mxCell id="Ya52i8-AY6qaeCq4us4A-20" style="edgeStyle=orthogonalEdgeStyle;rounded=0;orthogonalLoop=1;jettySize=auto;html=1;entryX=0;entryY=0.5;entryDx=0;entryDy=0;dashed=1;" parent="1" source="Ya52i8-AY6qaeCq4us4A-23" target="Ya52i8-AY6qaeCq4us4A-26" edge="1">
          <mxGeometry relative="1" as="geometry">
            <Array as="points">
              <mxPoint x="220" y="310" />
              <mxPoint x="220" y="168" />
            </Array>
          </mxGeometry>
        </mxCell>
        <mxCell id="Ya52i8-AY6qaeCq4us4A-21" style="edgeStyle=orthogonalEdgeStyle;rounded=0;orthogonalLoop=1;jettySize=auto;html=1;entryX=0;entryY=0.75;entryDx=0;entryDy=0;dashed=1;" parent="1" source="Ya52i8-AY6qaeCq4us4A-23" target="Ya52i8-AY6qaeCq4us4A-35" edge="1">
          <mxGeometry relative="1" as="geometry">
            <Array as="points">
              <mxPoint x="370" y="173" />
            </Array>
          </mxGeometry>
        </mxCell>
        <mxCell id="Ya52i8-AY6qaeCq4us4A-22" style="edgeStyle=orthogonalEdgeStyle;rounded=0;orthogonalLoop=1;jettySize=auto;html=1;dashed=1;" parent="1" source="Ya52i8-AY6qaeCq4us4A-23" target="Ya52i8-AY6qaeCq4us4A-33" edge="1">
          <mxGeometry relative="1" as="geometry" />
        </mxCell>
        <mxCell id="Ya52i8-AY6qaeCq4us4A-23" value="" style="shape=image;verticalLabelPosition=bottom;labelBackgroundColor=default;verticalAlign=top;aspect=fixed;imageAspect=0;image=data:image/png,iVBORw0KGgoAAAANSUhEUgAAAOEAAADhCAMAAAAJbSJIAAAAhFBMVEX///8AAABhYWHNzc3T09PCwsJKSkpycnL8/Pz19fXg4OC0tLTj4+Pa2tp/f3/n5+fv7++6urrGxsZoaGg4ODgnJycXFxeXl5eKiop3d3c+Pj4vLy+fn5+urq5PT0+oqKhZWVkeHh6FhYWQkJCbm5tFRUULCws6OjohISEpKSkYGBgyMjKhW/z/AAAIk0lEQVR4nO2caXuyOhCGiYJsoqitS91QW63t//9/h5CFCQFJ+2IRz9wfepUIYx5IJpNJ0LIQBEEQBEEQBEEQBEEQBEEQBEEQBEEQBEEQBEEQBEEQBEEQBEEQBEEQBEGQ/w3O6IOQz9570HZF7sQ7kbz1267MHQjmBDJruz6NMyUFrn7bVWqWqCgwldh2nRrF0wU+WUMd5bLcN/n/tO1qNUfMJZ0zTbHLD1/arldzbJiiV089JlGrtWqSDyYolgU9VrBosU7NwvSs8oIhK0naqlDT8G7ogCI2/L+2VqWGCfRex9rtubUqNcyYKYSx6DorObRWpabR/IrPSt7aq1LDsCdG8oIFKxi1V6WGOTFBrjgWUapz66JOMVQjUUeEbcpJ/SON5w6z0Cux8PD0hKZRONl8i4MTOGPylYfkxw5q9EkZ+edeon7SwRSAUyLQlp/68+JnYYt1/SVbTSAQoQnspBMqPkUwOezpAmGY3gD+n6RMYiikBwTkKZzecvQp/k+Uax2K7J2wvrVeydtkc+5k6+mGmma8fM0qf1gOYfGFa2KutS+aLEyq9hXRAR1Yx2eyo2bWtMRP797Omu7Sf4kfn8/Ai03k/aNxsZ39d8dYin2dGsoEhZ7nsdugnMUU9viRSzwa7I5PqY6Q+l2PrOL46DvfmcIxiSIZ5e9JicLB/RSG2ReslDI+4T/KAh6oz6sUxmT3Ts9KhaVOKkkf3HKXfeDQZ0MV5hcOyQMo5N0T9K2ZVqIoHI0CQhXuLzvLOVtkaK0n2QfMmfnZHeIXrh5B4UXrGmFeIw5U6JEwIpNU4XFvWd/HKHGtCxt5nG/P96lCX/pOLu7iXltUeM3KYPKUO9c8IlAULsjb5eXVytqiTT4uH8TbfGWfODR5p7RSnl1IG7U1nNnWnylUPc2L9qWTmwqzctLPdLzRuu+W1mC+Dc++Q/0qVbjZvMPrQL+8r8LgtBaN5h0Mh7wfgnGNdx5wDlBoZy4p3PvpkOG7tDVG6R3b9pK9FdHxxvX80WjEmwnrmZe/UWgPCMSVfoT70o08U4Tp4GJ1tDCHKUxALe6ncEWKbHklxLRJjvA8u+qCq/9NIbjubgr9V00gcy7jXX7MXH7MBcJu+PgKy6eHJLGWyvH1tN3I4FWJrB5e4Sf5Ocpa/6MrdGW1V6FtTxffuh6NvWLhwRXaotYyL9M/KGo+J6TIUjXx4ArFkijM6sO5Yvq44oIn2hdMPLZCkRxVN9HI1NOKDfULoC8ZF208tkLuL7eFYq5mIo69LRO9XpbsJ/qtwumfKGSOVNt5sS30TYofV2RnCgodxkTERfYxC25n9HZ5k+wzWhw4LNk+mMqzCwq5obDMkJUZkk+gGr+8Z4mHaHY7i3N8Bg+voxfZvs+O+D76wYYo6LMnEWjxNaMo30RB21Zu6Da8G2pdS/TEnysUAnm7B5vJCJ2Z5Wb3yie6QiGQ3331hrjGCqdVJy5/qVAI5O1nRFR2xgqFQJ64PVYbuo1TdeLidwqFQJ64KqiQ1CsUAif1hm7T8DMUAnlCWWaarqcwlPNPYtAPhUB+p8birFdqCERd9ZVrth8KgSKnKyYiXHD/DCs2nLJ2MuhPUxzFl67UCy0xx+GC7Tk0dJtGfakQKGZWIiCUg4x3UCpWOR7OCncq0gxdjRU2OB7OxI2X8d+qcJy3NnZUEdMkwj3JOeiocJzvVDNQeDumkcUGMY0gKBhRcndK965QKMjvDGvdMK0gluYNFNbEpTwINYlLOfmix1h7hLLMRGFeo7jEUGyssHZusTSdW2h3qtRPn00VBlqxaujLWGHt/JDoY1Hp/JAU68vmlQVn1TNVqBm6VBuq4Tdz/I1iQWml+c4jlmDeqd82M1UIvNykzJBrrrCpPI1ALh//o8J8KZ0p/Pi9wspcm9o8lVyb0mRUhXLUYv2wsP/vYq5QxiGlhj5+oLA6X+qDTHEhXwqXopnCV+GgPnkxX1xVF+lJvcK5GPG/+FrCUL1zuiEDKnPegcj2G+W8eYI8USqhDLVKpF+hcCc7zk4xpLhwxVFHk/q1/6hq3YIHN2brFiJk4U4i4Y8EoOwSrM7TiJCFO23WOJRm+pIbCs6j/dJgAwxYe9qA9sA9reHak0g8Mm/Dj8By3Um5PTcyUWIHyAQaAu1mkRuKiR+kj9DoZa2y9cOB/FLBzfVDMVFlToIfyE0AQmC9QrmiMISGZNUWwJBrW2/ht+WZbNpuYg2Yd9M5MJhGszTP5E/ykbZeoZgwnT1wV8mVGbpAQ6ljG9A/Hwb7jsoUsmdYso5foVC8YZTAamoYKBSGmLdJqg0daCXTR90z2KdVppD3Q30vRvkacB7KZ07CO5NSDBTKnTzM0KHS0MC3dk7afk023pcp5KO+tp8G2lOziWIXYObc/Ktao625Qmko8zb+WjUUSkPTnnWyTvFGmctWULYnSgwA9XuiEnEoZuhsCIXZtvWwZMRPckNMoQzPVpWGrgEwdBpE/ngFzFRRsa9NDJQ39rVFMzclD7ldBm8MQ1HRl/RheNmp3HHZheusICvIZy6rckPfNMMIDEWjnlv/pl3l3sQ8Vqzcm1hL4IThtIkNm/9gqLi/FEQIM1JCo/tL/wJ9kguiyYMusHN7hPVVXjh58DWJxbzVwxOXCIShaPf36ksBle9bOCAP0MH3LUTwUHxnRlFi83dmtt3TJ+cD2ntPBgusHYG3wLxgUZDcdfikXX//8GleVw90B6m9kdhtKt8DfhqFPFcHQ1cWXs8rL+kaTKH+Pv4dd5T/MTwxp/2mgsmUshvwwUH7XQz75lVdouK3TdZt16tB8pz+k/4+TflvDP18q+EjY+sCP+uv6hTab319PtlvfdH1G0XgU/0MluDZf3OP8uy/m4ggCIIgCIIgCIIgCIIgCIIgCIIgCIIgCIIgCIIgCIIgCIIgCIIgCIIgCIJ0mP8AvdRk0Zd6tPcAAAAASUVORK5CYII=;imageBorder=default;" parent="1" vertex="1">
          <mxGeometry x="303" y="287.5" width="117" height="117" as="geometry" />
        </mxCell>
        <mxCell id="Ya52i8-AY6qaeCq4us4A-24" value="" style="edgeStyle=orthogonalEdgeStyle;rounded=0;orthogonalLoop=1;jettySize=auto;html=1;dashed=1;" parent="1" source="Ya52i8-AY6qaeCq4us4A-25" edge="1">
          <mxGeometry relative="1" as="geometry">
            <mxPoint x="300" y="365" as="targetPoint" />
          </mxGeometry>
        </mxCell>
        <mxCell id="Ya52i8-AY6qaeCq4us4A-25" value="Producer" style="rounded=1;whiteSpace=wrap;html=1;" parent="1" vertex="1">
          <mxGeometry x="97" y="355" width="54" height="20" as="geometry" />
        </mxCell>
        <mxCell id="Ya52i8-AY6qaeCq4us4A-26" value="Consumer" style="rounded=1;whiteSpace=wrap;html=1;" parent="1" vertex="1">
          <mxGeometry x="230" y="158" width="60" height="20" as="geometry" />
        </mxCell>
        <mxCell id="Ya52i8-AY6qaeCq4us4A-27" style="edgeStyle=orthogonalEdgeStyle;rounded=0;orthogonalLoop=1;jettySize=auto;html=1;entryX=0.25;entryY=0;entryDx=0;entryDy=0;dashed=1;" parent="1" source="Ya52i8-AY6qaeCq4us4A-29" target="Ya52i8-AY6qaeCq4us4A-23" edge="1">
          <mxGeometry relative="1" as="geometry" />
        </mxCell>
        <mxCell id="Ya52i8-AY6qaeCq4us4A-28" value="&amp;lt;wiki results&amp;gt;" style="edgeLabel;html=1;align=center;verticalAlign=middle;resizable=0;points=[];fontSize=10;" parent="Ya52i8-AY6qaeCq4us4A-27" vertex="1" connectable="0">
          <mxGeometry x="0.1774" y="1" relative="1" as="geometry">
            <mxPoint x="-10" as="offset" />
          </mxGeometry>
        </mxCell>
        <mxCell id="Ya52i8-AY6qaeCq4us4A-29" value="Producer" style="rounded=1;whiteSpace=wrap;html=1;" parent="1" vertex="1">
          <mxGeometry x="233" y="183" width="54" height="20" as="geometry" />
        </mxCell>
        <mxCell id="Ya52i8-AY6qaeCq4us4A-30" value="" style="shape=image;verticalLabelPosition=bottom;labelBackgroundColor=default;verticalAlign=top;aspect=fixed;imageAspect=0;image=data:image/png,iVBORw0KGgoAAAANSUhEUgAAAO4AAADuCAYAAAA+7jsiAAAACXBIWXMAAAsSAAALEgHS3X78AAAgAElEQVR42sS9WZMdSZYedv8DEMjEnkACuQLIrOqllt5myBcZpwp7Yd93ILFEArV2NVqi+NCclZQoUQ8zPRw+kCaaJCNNfKLEJ8lMfJHpiTRSesm8W94bQM9M93BGHA45TIVHhEccP+c7xyNRU5o0c7uREb6c5fuOe3h4eHRWt483V7dnRUr9ceL+H9fn6vP0N6nyV3nLPDQvLUtSVS7d1uSr207Ktj/d+2rz5dzrzR/PvyrTwusyFf+/LtJLf+zPs+s/mnm1+WJnVrebEn1KmWkab0I7cF23hzLX9ZDfoB1Rd/ObksTPBXkDe41BvbS9cejDBOgoziOZs1DXhJzbkW1+vCvb/Hzq1eaXh52fXpW+yO3vfPbDQ682vzj4avOT3QwvQj+i23akWyb85m2wqmAsVWROGfagn5JM+Dfl/gb6CI4kGmcUPgR24f7MYHsudYIKEwkI3bkKEQIwW6AcC3D46w4MBflmX5Vp5lVzTBM7/7L6/+VsCaYfTr+CRNXI+5wTUOgiAbUKCCoAyo5DoEmb1LbeBoIFAkCSYfBuz4CeWwRrled5TtjP9mcNUX0AnXM2L33lAie95s65Ms8nFJuB9hFYUxCcUNALfWv5Yqz6RNhXkF0STsrY2D1VfTJWiaziJGnKdtSKEwk4fIx7LWQYFIlSEEHLHvO1EZmQPNW1HOwvJso6XPTXHIZ7GTmqgO0mmQxiSRbtYXnPrUVVPmrh4NF6aXg+Qb0taF8Bu/v9bB/pVV1AzO366Z6SkEE7SXnOXfv8ACXw6+LcqjUaSRRiJYgEVm80VgnOCYkJw/CfyN4b9Y4pxBUKpu2CsVanS86WHRyFAMiTDIA0M4iVCQVWzaFHU5cf6iInuV6IAzJlBn2Rg+fHFcBSOASWvX+qRP5UdXJ8iLuqgcYKaAkacksAaSBpC8BVRrhUEKjM54bEnrRf5Meu59WGuNy+zg9fHHhV3/I4MiNsaKOTkGSZGFmg3jU64iGyB+WTDPbqQVBLMtjZ6Lda4PYF3K6kGsbZNS/Tl4df58Q1hgBCye2ZAlZpEBndMqW87EF9j2sZyIqwzyfKOr50Pa439jYtaBjHADCriIBJpkT2eFRF+TmgUqWHxGVQsMnwiCcx7m/za+5e1Q953X2tHOLiISDX6eOdWXH7UpC/IK+0N799wSOrTAQ3HBjx/eyqknfL8w0ouCjBmAdH4f8EjXQz2OH4ss6OnVQd68sbZ5w3U4cLaAiYgjo50ELi4uFpagyxPHH5UDlVe/7MGBW0Aaox0kiU3ncbdow6F5AoE21wSKYTVLSToPvrcdG7OoA40r6YwJMzz6uJKjd0+2RPSdCiRwYgdHX8qCLv5zV5x8qtylgOj5MMTLqN1cmttNV9tDVqsYgdH+Ja+fWAmSnzKGGAcPMKHRml8dg/NSerxsqMm2Y8+97VDavcUJnPWKMhjCcAlQ/d45qz3gkYDWxrkgfSczD8T437R0yOdrO4PFqLAJRoM5/GfEOi2SL0nyNiPTM/IUHlCOpGMy/nmwmpZlLq1eYX03m5SWkPV1fR8+b5PtuXwV43hfe9mTJMRcPXMQwCfNbXmo9YBSPO2P2rRkBrRIA6QW34T/N8PlXf42ZYuCSDs1yrAlRgaGD2aHJiipYriftaDNnxPZCMaP4e98vqHhfN4j6HI4cxfOyjGd0c+mj3qcp9CxoiryoyapMyqo8gUDMItOe+Z8zJ9fFOObJwoPGP4xwJ3dD3s/1lckNrR3b/eM7dH/PA4Xrowr9z5f2ydi8nOhMxxzJWR13oVkabQZbDcxmMBfkS4z5/G/atHozlLYoVmMpbwXHzOMh8/mUM/VJj/G9HnkydWSyGaDOvcDTarjyfJIq+CIbK8eFxqj2aSexnvPqzN3sWN1UfP4R5njNnp2D+AcufqZNGyMe0HkfAYub4wCsx7HPBtOhh517Vs8RolvXTPY7UJbm/9H4kYP1iqiSve1S0qsxz6KDWn/NKsum4EQRKjCCZWBNbmTrnIkYISaaM9sbKPIo+hO/Uwiv3cXKCCVSYZPjRA4pixiyuP1dE5NnXrYbi6LlZMSSrZpW1Xj+8z5S9XqpFb/W5LHjcoM3iVpFZe76oPRtPleeaq9EJk0x9DirIWd2HPt8Rgv5zcs9bPJdNMsOf/p62fBzkJ6R8nufJuFqw8ao41mfpYwt6cBDGw2drJMhm85NM77GTTJk7GKsjyNQI0FpnoHWC/nwHP6S3hrVjc2ZZjxiZ0lvKoBH2uJlKHi0q6T2uPiGERgc8WqfRYb62qidTF0qkkaAGgaRMpqXq3EL82aL7vxzG0pnfyp6TWT277IZpWD857C0C6FxJ+HJWumnL3cYU53caQTLRiIx7aW2ICx99JVlkJIX9pwfjsfrkIo0Oy63JsQzcpo2be1y4CiiJDE+VxzxyUglPscN7h/oe91V0iBoug6P3aeP6OS5a4td29k5fMKAMQf09CBv+aENc7X4rtkgFDlGNRyTPE7xclctRPv7xw+CGPG6yyZ3/ZI+U79O95XVn60/2vBJyFxNdC9WjOaLLJ9UEGJ1hVieOEn0iyiScujJsrD5Sg7d6wLahTNroDNyPg0dncFJYPIoNsdBBJEy1VUO8x0gyYz0mnn3Gw8CQEC/ny6WLaFiSRhTzkf7HwVA51juhFTWK7MoMLQxm0QUT7WaDU2MWPm0lO16Kyn3l7OXI9JzMJLuhbO0P5q9irfJ8mNw5LqNfJlk+KmomwZp7YOORkCL3KsSlMhKMzDfYCyz88B4/NkNPTazbQHWhjDJjjoN+xofKY/WxjTUpgx8eK8OAxFi/WSV/L2Wt37TkCp7jqqOGDE5ApcYyQn0Gehxdv9xqYkUATFvaF5ssk5M51vNDf+xnk4NHP7uyYN23r6d8ZFSOjNxw1w2nHWnLRz2vAhu6obero5ilJjK5lxIcqa0hbjC0Tax7TmMNtrLISI48ssj8TqY+2oP2Vnpx9RGheOaPnjJU97goMosJlsQYTiv3rdpzXnOZXkKf4742F59bz86K57gLr8mSx3Cq3uo5oyvEjB5anR1NjIXlSaauqX2eZMb9ufam0VgdyVhvoLjjl7XdG9n8M91yBrgpU/bO1RtYlQ0dMX9ckZxi6fNqpvqTPaH9fKCwn2trb3VhW5tLV41VXtojNTHcTfQXFcw36hJ0i2kt9cyMl2PorDJayZREhrhJpk8YJPbQz3pVsHnJwHYAnMVNwD0uW/8po2m717esFyzS2D2/cv+pvc1ivkmTWAsv8HxD7A2nlCx8obr4npUumKD3wx/vDNcm++fn9pBff46p+VR7xqsSOkEvzLSY9VeejrR++SHJzMUa2toE7RZQe0utg260U+ORhBkhzJcK9CEl7+3EAozt1muDxsqp6VfmmlJ9csqa1Bgr975yEXkau59JFBImeGIktoYV1ZsqQzHUs4RD18qWVS9azDQTfLhJKX9P6/K4IfWPDtOeNTMmKjNz9j1tc9tgLsrR3hvXHreM4eo+9d3tBL+295WCsYlR2YF24kPZ2AN9NA1uP0SPvUr3khBXn93Vl67xe1x9Ha8yakiyVrO46qwfvy9J9E0FoDzGYxxtLTic1EkyY7mevE3w96gvJho9nlf+cKTm/izyV89j/aYGPzr8SgFrZvo+VYJbqq4swi/E6G+qGe/gJlm7V/3MxSwoUGX6WnMr8KgvkIzDHje1JlC2aY8q9Bk49QG3+l5tGNleBve4kckYMHGgvWRgLZ5As5bW2lXtWaA4nxgAtdbbGhsSrJqrp/QJRPhyx3a+nNE/1iEErdYlF4+JmD6ud/W7Xny6z3jclmTGAhdlBGQ8SrFWjaXq81Fl9VJkdVrKNllQV3NFNzQY6y+UmLdCcgTRgc+VjC4a3avqC6ONKfEkUx+4vwye447ja1EZEfxQ+ctDr/DwPMGL0FPjRYhVdRIPv6TRZha3zRBX3ufpC1/gyqIkU9Yry/uxcnKJL1zJ6oUZrtetHxUlWbwHUx6fpMqKqNSYiIu+e6yt5jOuxdbnqyNDNRhvdbMF62mLteiofo5rRApzRREeFqrPu4whOa37JVnyuNpqm5ewjmKSpHro3+qZWmSCynpeqA7jksx40VzpFZLYkGysg8LccgdHcxHtd4zrYe/qjnA+oXjNT7zVo/U+WXSIG3/0lUUmCO19m6x3cNs8UoT2SbL2z+OV5/l4TzB7pwwUjDvoWVJ8ImesTr6k6sxlJEKRPE2Pm0XX3KJg4IlbD5WTTH9jJsm2MHFgvyanDnHB7HxqPJaxXj+0niNbPbq911Nz7B77FMsep16JQOKGxdrrbukWhrhpZGSmLbu1l3YqduL3r4n9dEIbBa4qtyapsfMFmnBMzX3L4i+EPE88cc3nmPo+OW0mDvStbjJzAy//LmirxSBg57/wfVxrWJ6p+zLF370cRx/34IkWO6qmWxji2s/9WqxGAo+sVhPf65a7XlgTPtpri+o93TYbqKkZZPDGbVqvqN5SJfFdGtVbqxa7xVi9eOxdcLEycJsykqqf41rv5EZmvfRhHnkhPTK5wB+j/LheYhcjEzaKfMkgU18jTJVnnFqQMnf6MN4W0WcmI5vIGQvT7UcOmfq81PKHS5/tzcI3gcw3Y+xgb735ou2I0mq0s73NmzkW2VvsyGIGY+2+HEwkbsOveWrPb83HVs32rGNjTC0nD1LjLR17r6Cx0etkeK0yiLhuv173TNG9L+p+/etn1AjP2Yv02rA8hY+njKWGLaNqGgl0QR3b9N388Ay1sXIs0fef0pf44fesm9f46NplLXCM9WWzCd4jypp8SpVXN9vt0jiObpJnrXSy1kHHlkemkfXk6RZGLfYeZsH2rLgXid1HWT2a9SzYmnWmQ2Uuj1s+V2+IvvC6XrlD66l73GBfZW0Xy7E5i5uqm1Yb93fo0VIS2x1Re3aInssai+wTY6OAxLhPBD2Ye8TzkqxH1u5F2wxxtXvENhsNaE8zrEdqqWbHyC6NsY3IU2WXxi0FY3VnVXvii15THgdl0chivzaFN3RGD6iD9cNJuMtjoFBljBc7yscWH1erdegbJyl4HzeNvPURfwl7K1vYZMYOkZk5eRNbhKE9UrNnuJVn2Em42XpqTEQG27MefFVvbq7e62/XdwbVl8viTfnjuzRm6jA7vkujPrqEONcCeWLsjZXor8uaOz/CvbFCrHbiEbjtdhrGWtjEmGACzyfLF+lfR7Y00ffqcWuVX9ZrZjP9EyLGu8X6nltZ9D1QuBg9iW8AoL6VpLy2lqpbCekLauxnuXgtrlt48XK22UuqWGxBNkRfNXo3uHeUuk3MuNXIrM1mCta+2+akofG66NaC8bjVDo766jK8n1jKibtqgS3J1O1rUmNLy/hqJzykEJ8giabX9WcwXlbnfsxfRYusO1YDhLGHkfplhUTbyLztnMBYfVxgfRVC3M5sG7d4nBZ5ruyXPk6Mi0dFP5ptemD/rSY/H2E9yoi9ehg8HUi+/l0a1XPWO9RJ1nqXxlTdwgav0tJeKNC2ee08TzJ14/M0+gkG4+2hKEDH6ix2sYB9rrmXxduAvq4/iUG3BvWJTqqksS1BEj3yrhpvfpi7NKr39mMzqqLVV6uRjdatzeJVUisz/qn1Vkx17pNdboKwXOpYL9gAM/WqHElm7qmcKj2/3Utn0VVjaYs608hjovZvFmXqqj9rviE1tmUNh8pJfAmi+YgoyYzVU/F9fdRZyu2Z0Yu32QAMb+OZtlq9NVZfso9NlqizuIm+2VtsCWOU3Mp2LPhrEmNjJ8Kx/jZY7CNuSRZ5N9u452uxha360vz2trs0js0dXMzVU9GdXqwnDvqnffR7bHsL3mrllL4hWnQJGtiVQDWICpzYSwv6Yyn0VlL8Wz/sXnub0Ssksckr3TZoT+C0zc77LSbG0siaX/2toGyL39oxRgdJZDcU840de4ir3lolxu1OghcqwB0zEuu5e2bvFhl7XJNY68mz6Nf9tHtyXq6TGuuM9U9SRqbVY7tCJNZjpyy6gZb+ndixvoF1bPvMNmtmY+0n+tswbfaYMtcnG9+yTc3X2NDoY6u7k9i7e1qTOWmLXRrTll+FUN9fVmbGW+/SuD0zd5CMBb032aVRC0Dh7QtaYlw/DtIea4xbrK/U36xJzZ3ttO1b274Lmamz3WnsEcp2ezcEuhF57Fs79j7K9ucstV0aUU/43FymN7ZXT8Vud5LM3Po29lpgGr2d0dYqx79/G5/c2voujer8xjZjD7AWi2FabWGT2LPPaXR/6bF8HKSui7XeHkrwmtpgiZex02OqbOnRfsubsfkOsP3VcdxDqsP/Vq+WbW0WV10NlLT5uJmxCsqaBEzakN6+f7NmcfFeW/ieN/Y5SWskF9+lMSxLg9/zJFN2L82im/Xba/H13TfU3TSMjevwM+qsuce1VgvpExv2JxDNjciT0Hnmh8di61aTLHr/gYCXKvs+46hq7+yh7tKYxF+k39IujeZG7Vnky+u4J4sNcfE9nHIvFtulMTLJpA5Jk6z1q3gQG4m2LjuDW/uo78Um8S84qtxJlJc64HNga4eTDPW4Vvcfef0NCZK0eWiuTC4lsQ3Kx5G9sMZ4H+ZtY2NXhMhujVvYpdFv+7Ia+WTGqvYcMYlvwJ5GNrlTAxkYKupfvGv/bV8rmOj7EBsryCysRBYqoEc0acvXUe29uuLv18Y/kp5F9y6ztuNJw7XKyseFo8vExsYGXvoX7dve44nhbBKffY4NHdXHJslf8EbkSu+dWm/UJPqzX/jIIcEf97ZmfdPo/sLxt7LMQJlk0VcQ063cXxtvo5kfHNcmOVuunoqtKLTeTort0hhbchkLxh19ptiOSPZrV/Ya3LTFdqHaM+C09SqtsborpP0VO+sjZzhwWM+2229ho3/yIrq3s/IOrPYM1RriWh8cb7ubxxt9TrLFUFO9B4/u/5UZe3EpX6JPIju/REYO1svwYufJbcZErdKLd2KPHdSNmY0b9VY7+UU2wNa29zQ/NLYt0ntHX5jI8EJ380tx2i6NkY9/ay+9Jxl8G8j6lEuqbCyvv8aXGWtxt/atHfU+fwsLFVJ165nYxF9kfiT6mQ/9ywVp5LXH2H26/QmUluv4jXe4O6m6s7o2uWBN6ugL9Nvv0mj1TpGXDRJrn17QKyXGBJvyRYBUzR95pUx5hVC7v1HvN8ED/lTbjD5p8fpd9FW5sbFjSNshc/ZGuzSqm98ZH1qPfhXCXJL4FXZpjKxTsJ4YoF7c+vZTCienksxc/vXcWotr7inbZitXe4mYGqUS/f1G9Zluor+Wtqq+mGDt6aQMDZXeM40Mcc2JEGOIi7e9iX/b196I3HplLsND7y19TjIzFirYXwTQ14rHhriRXUnNiaaYDrF11GPzpZJU3U+N3OOmytsOq+bqmSz+JfpWW6oaa4/Vlx/G6qqgdhuPZXrvmWRvNHGQbm8xRE+0RStjfZfGFs+1zUUWMBgbH6CKDHE1gKUtdmnc2uck9f2OYxsSpuqro+MWL9Rn6gSX/SSi3X5idmAd24/i2FORjvn8L8la3auuxj7J0XIHv9R47thmNtLeyVC5n9TecFImO9puYWNtx9Lmw2f6R8Fj7yjj+YbU/D5ubL3t2N6Bo5U8saCQGRuRj8379tSaAzH29rJ32LSeVOhvfFmTo3SXRuvtIW3JZyp7XHsDcPWeURn+xd6BXY2sgFI3YUsyPMsIFpGnxqbYrXdpbLlQoe0ujemW1iaPowEnvmUu3plCXZGUxEZMWXQZpPrRMbApYJvPSWpvKaVsF5XU2nM6ydSteO3Jsa1umat8TE55n12MshJr04OQyJ3YJIv6HVttejuJPYvDzw7j9xL4i2mp8q2f6Jf10KOSxP42jPUxa3Xbmy3s0qgR01z/rd3zJ/rKsja9T+xLAam5KGTrn5NUd2lUlshajwm/2i6N4L58m/5aovZIzVzAsR1/51d70woF4471CEZ3GF3/mZnPVZ8rzzPVd28TbVo+MzfPguumk0xd+pi22KUxNb/Ro283g7caHce/D6PN4pqPccZ60GyxydyqsRYar0cfm+8FW28CvdEujcpa4OjuHQpOrL3SrNVTaau9pTNjtdpYvd2xvicFye+/ZBC+12oPk63VStZieQi+JDarjJ8ZW5uHxXY3iO7xpK61HpsrbdTdG6KfkzSirTHy0V+Sjy8rjW5sH10A8Ca7NNq7f+rzDfakUuxj3eoz7yS2nHOsfycrtha8RQCBLx4k1qaBoeyd6CSPcW/4HO3SmOiGjW/WraxqSWIP0ceRrynoCxXsT09scRa3xSRSqrxznEKw4iFkShabpJHns/i+a2xuu6O/8G59+Axs0rbtq+/SmBrDxjTyOEbbpTG1dmmMDXHVrVnfNBjjlwxiizA62nMze1JC7/VS7Y2Q7frKk+gMs7HON1VWouiTS/q+Ran2Lmh0IcN40/ycZLLFIW7skdpf0BfT9d0mjMUcSWzfqMzciK7taAi+aqfcSrQa/SgLbNRHRi23x0nbLKrZrgfE2NJSbUjdMd/aT1qsdoquJc7MrUtiHzTWv+tiENZ8fpi1eK/WvhdNzZ0+mmO/K2Kx0d2c//KC9ekOBoAt7NJo9bCp8sgluuFAkrV6tBT/nGRmP6vWZqSVYa716ZBie99qF8pm+9jM/B6z3j7mQTQYWx8+295ik7lE309MPA6Kzc6m6rYy9v5G+pfQxvCRTtoKqPr3RM0dMLTlgpH3LNNWuzSGEfvzg34L09cVeV/XXwWgm4q3HXXA7+1s0x9trEYCmPrSiLlL41jfmjZR3imNbE/bapfGJDNfwhDb+1Y7fQZ2TqytlYydTBJ7fkbbgCC+gsr+AqX1ymsa7PLYYuF7uqV1vVmLt3gim48l9sRBm1nc1Fz5FFk/uoXPSdK6P91TEbUiaUp64GK/50OvWkVV7d1fbf+sNLqo3ni0lGTqUDqNTObElgrauzTan5NsN4wNZQiJm6mTd/B2b1tk19GkzVY6WtC0vgtsT77yvB3r3jC63Ub0KwP2/k909wtrKGFt/B2+EqUtZt/6RuSpsrN9mw+ffXm4JC790p0v576u8JJ8wrLNxmBtZnHVjQBaDXFjK7TGxovoW/icZKK8ibPtDXdpVPZD83tww321jRcRYsth9dcKM2PD+sjGAMbm788T/X3tTpu3RlZbb22yxW1eItuMpNEXFrRZb/1tFzojG9+lMX6/goJB/WFuMOx2X3R3wHIfidaGW/pGBMYujeoqLvx8Vf+cZPyWSP2c5PbI5yTVIa7xpg1ccWXv0ug3xX8xEe/x2+wllYL1Cz86/Lr4DIt+363Ph6Stn1Loj+k69uoe4+vc5ovMxhrVbbFPbdivAsaew1pfbtfetZX3UvYLAur2p1V6OZff187lxN0h5XYTVAVxd+tB8cXO8ns9Lk94Pzw2F/9bs57RNb1JZn+o6yvt0qh/KSGNfEdH2ytKyLStadN/1aKwnfY6YpJFNxtERHKTiy4o+69nuABMH83ZK93aLKm0Rl4Z+XaQ9T2gxPhqemK/wRMX2PgSgfZOorHLoP6CvrEJtSrnFmZxEzmLW3xbNneqIykl/4vJrJ6sorPLzcfKsmIo3XxKpQSg66XbDnFVHRM7MKrry9WPdbfdpXHcfpdGY3ub54m2F5O8JfLfNiq/5NhuxjwWjP1995eHq0/fzDWfvClGT8qoSXtba9V6opHg7YrYR7/09ZNhJIlsO0KNui2+Zar+/LjNmxeZ/QiLrtza1j6q6hMHWWQf3xBMjoDFN3VyBzsiukkpR2L/nR1HRH4P7cq4SO4/D/pF8eHurJ6R9mX0L/S1DHzKMkV7jyltuWoW+TYuWsgwNj8Lo3/61N5ogBLD94ZhcMxabIAPAkNVpuxpS7L6JwOf7W8C7Kd7slZD3NZvFiXWPM1Y+5KB/eFpdRbXjGD6c722uzSq7wcnmf3WjboqKL5Qwd4KRd/jqCDibNh7uv8/3fsKznh/trfM98V0GCBfTDRfyHu+Y6zu0pi2uU0xt4zJjF0GrZcF7KcF8V0aM+OR3hhuGGh/EjarPwTXEDczXgWN79Loh8f1aGmikceR17cnyJboK7ngPXHk277Unh37u7XxbTfxd0/xhIT9Vov1pbjMfJE8NXbvW1Wfj21l4kCfyVw1nk275L48+OPqW73PE/Y5SVLvjw43iwZ4QPOPkT7d98oAdqbuYrga+T5suy1n7CGu+izTeDEc78M0tt/dbrF6qnh+vtD0uFvbpZHN7NY97WvyBUg+4VgGXXuXxiyy2cJY3QUS2aXjJkLQI5HmUcYYTgTIIY4V9a3vBI2VPar0HjlVd55Q3kFt8znJJPY1vC1uRF7V5x77uGjshr7WLo1F77zwGi7Wd8Ow4l53/ytzvW1qLn4YR789pO/SON5s+znJ1Pjwmb1QwbJjZm4BwwnY3OOO7ZV/kfela9Iu+J5WeY1zW9nzptFJW32nlVTd/xnfhnR+XD1T5M51ArvhwSe7X5n3MzrpIl88U4ai2gvRbTYV07+1E5kpT+zPSUYdYdT38c6SdJ642pffflhNSgW+qJznvgDvZ6K1t3qiyxiT+H5iq9FdLPXdP/BGCe2/NqCSVvl8pxWM/Yq1FxP6Lo3ellZg/rIaHr+cJQtplH2+V839xGJLcZWXLZRXVYu3g5xgbhbUKelA5pJTCk2pw4fv0RfNYy9hx14gjy2SGKsvnq9GZ5HjG6iZW36iITh7waIkbm7jA5nZmzjC+uHYi4nGQcUEyELz1ffWL9gnWx/iqh9zS/SeODWeb5tbuRhLBbeyhQ3qSH7MV06xe8RyUsn55BV8dux6Wr+IphweW+/+Zsbza32XRrjbSGJswcTs3ZFfem+++O5mNXUyjlt8cHhsrIAaR56TtnxXN4k9tsgiLz/ruzTG1qXGNyIvv95e2PLgKzwZQeT2izP844ZyFvpVceweJVk9fbrFXRr1N3rwO6La1/n+YpIMzXQAACAASURBVD4nSZ5itNml0VpHXxD3NSNuc/3zKhB6zJcjoaaucnFFafdmIkr50kPsczLqhnXa9jw2t2i+zktCXD97WSi+UCr/+X79Y0Rp5GVza5fGdMu7NEZ2qn/Db+2kkZUy9lAw/jnJkrgVQBJjSFTV4e5nX85WwJqrJrUm23yPJv5ixGrs28LaHl7mo7is1Sxo7HOS5t5krV+o13pcOQPsZvdfVrP+vuct7mkPh8Njez25vlzV+kazGoSS9p1Kp3xEkZFvwo6LlTvlPVfZ8362vxlCiPvhbdYssPYJDmvf4naz2haRtT2ttNfB2nyiIrV2zTCGSn4I/PmBV5GvOTTtfj5VkX3qVYvPSca/dmfvTjk2ZswzdfVTaq2HZt8aXjVfHDFWdCU6jqw9wOnjoHBm/nU1V1D6onzUVnZSzj8/muGkjW1OOG4VjOEtTBLfnQTvyOI/s6nujO+HbqWy5Y162QusWhM+ylYb4tGQsktjGt3U295XWX0ZvsXnJLXF39ZCBX2Ts2ZWub7tqIKfSw40xfFEeK4kbfO80B7iokdWW9ulUR+2GZ+TtHZp3P5mn5NMI9/2tdbI81HdS/aSgX+cVvS0e8KZebrwpbG79bnVceSrBdYWQPH3wbVXWMEX6fHNtVfsh9XbLP6+4MsZsAa05ackrY2qY9uvqMvVwObpsXXGaeQTl6236TQfCZXXPXG/PJQ1tqzeza3nFKpZ0Pqd3Tw41ve0SaYOG1NriNvKH/ZIR/00TZKZI6FU2WY1ttAjttVv210a6dtBxfC4mivwpOXB2C+W8aQ1g3HS5ttX8V0a1Rc7WnQgq5S4cOF40jzOeBksjLd3FrCfzWXGoohMfeSjLoRPWrxSZuyfuxq9B9vqznzhdT+r7Cf9HIgcgXly97JfTJfLI4OletbnS9osCknskYq2WOJ5Yk1IyoAC70W39FUIezO3rSxUqCdXD2Z1MPx09yu4l1Wz0GIsJqLavKlj7+YY2SdceX6rf5QgIK6xGDzJAkOUvUDsNb5x8LX5NLoiJvLlPGNn+jSyGCM1ng2n6nY67T4n2Woj8upxkB+6ucdu8Hloiw+fpbEN8MxVaDFbWy8IWEtKs+je2autN/trM4Go700VrJwik6u+p02jG/FHdkaJ7NJoBdbYgiF1hGj04h3rvcb6Zr+afft4p7FhubJmWf96vBLBtmk7DIYP39WZbCOKp8Z9eHzSI4su2EejEL/qyT3SeR55LS6+hc1Y/8pd5CNZ+B3rzNgYT250oO833fJzki2+fKguVEgiCxXo46Dqts79lsNj+7OYqfnZm5a7NG43vmec2EHfnonG33jqmN/qKSptnov55ZH2oxL7LRrtA9Hoobv12cxU+dZsqn67aIw3DDc2VdM3Ih9Hd2n0r+i9nG9eNHCTIMUresaXCrSPY2u7Nqirp7Rv7SSRCS/le8RtApz5JCHJWm34Du/pE21GFr9lVD/y2feq3S6N2/S3kFaNVWPWJ0Etu2ir1tItbc9akbMolEiQuHcNC0MslPcMfqYTETxNcB2+7pCU9Jrybi+dvEjs9bmhosQxyTi6FjeNkEPbh6nQCUTV5+SNnh8eKtcYf0E2j/sUvKKnrVCyVi/BdcFgBj+UGb9XLUifEBABn4qeovCRsRQV+A/VGdbPfJHg4WzKsFT2tq+CFWjWlrnQ/7wXTKx30Mfwg+Tc7vW1ZGv2QbJ36gyUvFWiAKzTQvWYos6Xkd9M1JEiQS3BRb3G9QA0jXHCPJkou6rJxK8lEvBSlizUt1pb7Oz06f5QB7eQws0Y+90xbP1B2s7smXC5Gx9Iv2aRtpj/tjfnRF2BzZk/EhaoKT60gJnYuFhlMqyqOpbnXCdT4HQyxAOvQw0eEMdI70xibDvHRKbiVmI7k3xhWKt3eXyxK4MgKYZ6M6/rFVWul/jiUPk4yF1/BoGDwUzzouNnKmAzmWc7yp+p5e2yMjiEYIuQ1NUN2iyWK+bAQXJ+frDsET7ePdaBT0AR1BG1V+iLZ1Dfqs7tmvxUFmq/DAe2BIE1z+cWP+wIMdH8X8oAbQ06BI6tZ0p7payjwvYurU6ywJFIUnFbPoOYyoz/Y/LbPtO4EcN250e5go6Qn+zNNh2JP96dbX52ICdt1bu63uH5TqRoXqF3xI7MBNIzdhz8nxs6IDEz8jOtnGUk5oBn5Jyowzs8GUd1eBYYOBNy++svF19vfpkHO1c3b/uzqdymuV0/3hvqFrS3gwBjR6boHcodgjmDNn9m2hSffyZ8wgMCaauWldl0B8dKBu39DMorff3M8E0ROBdKG69OyHKqzXn72zGJnxl+ENd2hD5s6sykb7brMiG7FMT1ivrkI5YDnyOtI9czhQRCYEaEGBhEPTsys36etwYLAUQoz1iVuW07z5S2tWtfzlXAmSTyVHJ8cbi89mIXrs+ycZlGqg1EcFLO6+00fvbyplDvUVAmVdoLMLGj+UVBtI3fKbaeMcLQVBN3UvNxpuNJkYHiLIYFNQghHbePFG7oZeoe1/WuP8yHwA5wLv1wJisUdyDjhZ56p3FC7AACut8dYzv/jvDcUwoKjXSgrtS3tcMmGTQeARYvj86ZRM7zfjpV2u+Hcw150/zW49MDzXkoT7SdUbtAEtSTmQS32xyFft9Bzu2I+6TN/14m73cejGk+auOU4Yb63ndAL9w7t5NaGpdDaXc84Y/HME88jXGQqPUwbL0D+HWH5EWA84K4i82wrb44kdXKP8+Vr522A5BuRyMgr1wYdQe7vsOTVavXg6bKs0PmaQCF21IDAjIOJf8OGqxYYIBlw/OfH6psuOiIWt561GTemanlnyI7JOwasp+wiwTLUwaQpwAwT7XgvKOFnBBsLIgD/7v/n3K5WDB+atggZR2Es7m7XaG/9YjSHdNz+e+X/vxCeCx+F4z/F1+FOKLBZgfBMCN1wC2B20xg3evfcUBKHZAmGoK638/z+95PDzqQVQUComQE6BlzaFXHjpDYT4GQTwVo2XWvMFDMPpeJ60guq34uH5XtKSH5UwAqn9cFxC9mKnDMlz2ui9BCBrX9UXCd562vK86X+aneI3Y+A+1kzFaj2o/cHk+BX54q+j0VumW6rRNGVuEXWTcl58sjr2ti+fRllVyeL0neLxey6n89OWJ/WeUNr72usfSUBapCn4kM4jbQhfkIXffHnacRw3MHPDWBMRJ56zwT7BwA21MjBeUZoIugU/yPga61+xQAybfzTLFJ/X/dJpd/JGyF7BLWP8LgNmzzDLQF6ybk5nKrNgnyjJpfEUhGQn4pzyiQQ/fzSD2vET4WLJ7GsBvUNQrLJyPmu5HMR8sHNhy1bDOGH73OTgDWCUvpUQvDjOKGC0gWz9+m3lDu0NAQqNywE7G68jQhz/G8qC3bpr5cG31HLa+Hcuh1099MzzsR8cHEeEs+bOOPos6JdroiLHE9Any3kPeJFhAnNCxYvhkZOOD4Gim25zKMqh53QnHEBDHKhJEPNZywciB/baAJoNiEJk9j3CeKcrQ92kbgYN8+lXtC1vGEO2diHC1jgnwCOHxijO0E7ObleRL4ZAQAN8J2B+V0QuntBzadMIg+YddT+xHIGF5DeofnnwgfaaQIZXoCAzQLghMRTLbwHar/aS33CGL8qUhlnk5pIOBof36Ck2Qkgeby8HwM+KiOJ8hBE5LUvkxAVEMW7vi6nYlQryYPcAq59oTJ+pTZpUi0XlF/eZ0HjCfA5kgHamMRlBDpuf0nFL1o3cExAY3mD2B/VR+lV6vxxbEyAXochjPugza21fQVAdEIpgjjIRZ0vzxR/IRlHpnBvPPEG6M2DAMjA584PzGSBKb1MNA94Q7g5eq2RqFD6S8rT/NxGQPDTozktboOKssoqM86hqQKzo1sfSn4JseB3lyWp8xPQm6iP/XlU2ZX7qenSB9uS2Y3gQuAn/p/d20yq4+LNpmuT1iAfgJsy7EZyMl1neAYANdoWeAn7rOnCAsA9xwPpf5NO9IHOieesjxPKz07SIEnxOABEcXxKABQYGDqJFgurJM6UsiyY6TIFp5/CnUYgWAiHSuC0oTMx8lfyoztwR3F2w31HWEiUjlEwByDJPV9yoIoso2QtYXPQ9Iq8ql+G5s+egr0ebxjpOMDHrfJb+B+B+bB4x0j4FfdXg1GNLyMFZsg/zfXO4+5oqRyeu3xDlvxx8xQjzl5PTiq37q+SQnAx95ZE6Ookx9HnCcM3cZpkxIAj6nsQg4pY5BnUtfhcW2bsbBnoNtkY9NCp0lWF/2f2nQS2c0izyj0k/CZ9K07H/pMwZQWnCfHkaCs4G4S+SrSluo7if+AqJMKcYE9YF2ThhyTFOtKMGZ1deqTk1oDBDCMzPwaVGJyHKTHCNhGIHgs2h0H/z9myj9WQC+AODmWQYbnE3WFweQxqe+xcBg5PwkADW0xCvSguqJ6pNwy2PHyT8D/vPxjhRjYJ2Nh78csmDxG+ACYe4z8TfWaHJn6Pxb2GwnsIexw+4a2loFTkk3z0ZjlZUHWak90FCGPih738SRoeLIx1GMGeGFgd47nnzTyTIZ5/LUmjevrUgafmCyTUg8kq7iGZOFlJkEbk5XzJ9vZ50mg07jWU5znYJzEsjVOxDKUZTHxkY8Q8B8LUmA7Cz8CW4m6qf0nJaGoTYI2SFmEgSf8Gilv4hn5blLWy3Wy0hOlHROHDCPwejFU9kSZ5KAaba4g0GpOQs7aQhIkRKSZkHU/oWQXAWCESTgZggcCk+dj7a/UNpAEo+0gIjxW2qGEbmfLsWyLBwVe3yTThxKc+2PSCGhVPd4OKwjMUIdGrpUJhANZZmUC6Fe1Ia6BtoXNTcxSIusBxuselKvlR0FatrsiAljor5UJ7rOmrg4CwwqvWAPNpMy3EgMaPIfb0OqS5/PyO4k8qIxShzQOswHLs6IFnp1jRc6xsNXKBLAhc+6KYueV4Lql8zgq84raFib6SouADHUzdIr6FZwPbdj4a8XwoYaFFYaFmmg7x/H2mD+wfcZxm8GAqmO2Ju5KpFLNoE65FaocA9QKS48jBny8E7RN6i6NORb1rRBZVljdK6C+x0KmsWyTA0WzDXEy1/0xaA/KzoDCnanVscJ9oJwPjg1/UD1WApnGqm00+2ttibxMtgYDWOaVSZ2MKxyvik2DdneOVbyEOo0ZvsdxnyIb7BxBm0o5XXDYkJitsNhZUQDBDWyBJ3YtlrZa1im/FbnfSKadW5Px8RbkfByRGclf1KXIxMu2lRXJB8vubAD3JjbXgkst704lf8wmhtyPd4b6acftsKDzgBMfXtvZApc7aQcVl6PjK300udFUsNOonFayc6QnTVBa/07XLnfiWK9npyLPzhBg6nVNj8m4vlAHq36eZ3IDAueRANXY1hnJtpOQS9H/kUJGaKud2LZh2XErvQOfTir+3KnrS/Eg2typ4IrqDH0R8S/AKTxuW8dOHSOPtTyGbq5MByn3SCFHabgxFigovwHJ/GiSGHNyZBL/0U4FULFyk/iYln802b6eRwqYNR1VWxp1FnaB5cf1+cB2LI+wW32uKa8FuhULOMD2jxguoH20AN3Sb+o18PsIYC/WVqxd4adJDcsbEHM1NoxApZHSwiaVq9M4GxCHgOoRzFcCo65QAVBhTHAd1flI+50kgNw1bupQAP2I1YHSSkQeWM7QxdKLk10SfyzrQnYlgcPS4REHFJB1paVPgutUh0DWjcYfzE6Pdhp68HZ3jW2fTCo6T9p6rbTUu7WsNWk3oD+pf0zZUAfAbTAp9ehEgbpzQwX+m+TBztINh0CAyq2QcysK2ZxBYnJKQGxgYk5usHbHUIeYbTSQarZdUezh9V4x2rT87G1J9aE6IX2ErYGtuG9VOwDfoLIrO1vW11ZvZCMDQ48sbCp+aStn23IrnrhqRqvRXV+B4LuU8rside1qqWAbsOzSzwd17rLKbWByvaFt6nK7thIoN4g9N4CsG6TuDRlId8XBwkn8qCUZ3yjQ7zIwE61DD1jYb1znjUbPXU0wWfnK+sp2oj6lMgPfdgKD7VJItSt+/DCv+GEAIvBbHT8Ezvjs2Hjzs6Us/63SEv0dN+f9OZo3T89nxiaAfZtIxhWkb2CLpsxDSA6WLwhCo6BdWF7JawYyzUe7jDpFe8xnVhC0goN2LdAZtPNVCKHJinBMfafpz+oNzkP7bMi8HC8a+Wg5GPxZ3QDLHS7UQ9YYJ6S//pAZgyvKjVTWE7bzkBjFk/HTI+MqVcdHs+b/4pjmKc/7ss9nM6kHkJPL/kjR+aEIONI+wi6MIA+ZEx7uUojEZeSg2qXItgsAx7cB8kh/brBrUicE/IeR6zzVbTCbPUQy0fZ5G1zuICj6tAF1U3Vhems+0exI/fVQ+Gok9IaE38ltI/FKsdB5SI2xi4C6Thv1+TDvCOQt84tzOzfq89wJXjBHvE9yEvI6Hu0M83EHruzZaHrggrzj0Lm7NsL6gEy83odMNqi7v7ZTs8VGUM+joL6NsExdF7UdA8aujYC0amKkV2UHslAcBL8BqTYIVjheQhkfMVxRez3aresAcYLwuZPZZKe05SOBhZGZHkX+f8gCS1BvRdSHot0R9B+yj7AzwTDVryOU2cmBt1EaGSrOgYQMs2Gcb/4viTsO2pV1yPZX9rqy482Pq97ZHa9W5OXkETqRugMD7gTlePlWgW1D2hKW21CDoKwfyLg7HmBDX7Wo0/TfRhgUd9ORGMLEhmKXEaz7ESC2+/+RaJvZdKe06cPdWjBmtmc29O15OR4Z8j40fIp0xQGe9bC7dRw4zHeoEA+gQ4kBEEB2SyEe7NqADQbnd4+Ceh1xHflqGRixHnC5djfE/dQRdyErjj85Oq7ImwE5ZHl+/gEwOLXL76V/uGn9/b+/+PPNH73zSgDnAQAUtAfI8/fTn6vt/a0zv6/oFurzW3m+r+vPycd99Zf5V8iwk2Ou8cODIFBtqJiTAcAm5gNaF61ztyTgA3GNBa/dCnnzcx/nI1NA3FFAygdBQxJ0UthRLRS9FuZjyuwuyfdJ3mN6Az0gyvG26Pmix13ONl8slKR/VJM3q3veB8QpD3jQYLII2dmxRSL/9//8H/++cTTT5wFzqLQVI/VuO1j81pmfCYA8AH74rbNfH3F/L7fJAwbGv8w/j9UHPOCzziKwE7PZwwB7NNCH5aHfyG9IWjsPrSuUu8n/9GDJlc6D3Qygu6vkheLHJAUKgGvil9TzkLaT/366nPeaOeECeYAc1PglUTcKRTxxSzJvFOR1daazvN0RJGZ9fjcIEETONsR1f//Df/4LbJ/ieERSKBvV2Zf/vVW9zd86+7PQT7tDX/o6XL6v6+8f/ejnua2zcuSTj5rcPMNfKnF3M7zsHuFAGdhqJM8LbI8gJmqf7iLlaj+ODB4xjCNCkzzuuOiUclt3AsLtYhXuBoSur42kApQYvE5I/gbAhdM9catr95WAQdsqiLs8LhR6dnhUp9W5cVHnp9U9L2ybn6sNNwodQNLvtSSuGzJ/mQ+Z73NSCodvSHtS2+yy23Q9KQ+WoX5lPV9nj/uPXv6isL8Pli795RN3JINhEDhDnCN8PAQBVgTj/Pc+qntX6Mf7uzjmNS5sKP5seluH7Q5Uokr3AZFxqq7vIQLuGYW/VX0PRV2jqsfNh7tHxmrdvt77HOz7Nmqw1MkRNq/vE3Lu4V5Ll5FqwPtvSFz393/nQ2atntAxIwCmUVHmfqTN38x70vtM9vuVne4Te32dPe7fz0cEtT9yfz+Z/ssdKt8XuAltex90QtRPD/eMBDbCcyGufbn7KADskVi6z/K4uqnPxIisSs/nSyyvTI2aHvc+aeg+FQQofJ8B8T4ph4h9n9UrFMnTJ8thj3tfaYefK4ByqATLk+mN6rdJH1e9wMN9QC9n1D3A+MX5ML839laI6/7+u1t/IGwZtKPpt8f9lnL83uoftiKuZl+XftPocf/kF/9p82f9/wjT7+fpD4Y+/XmVwjx/t9KR+jos++dq/T5Zf7GyPGkY4zZu7EXxPRJ8qLFNj1Vbj0Q9ASkZD+4r3EM8er5YYtld79yHyoyAchJYRUN7qnN7KODCc/dBQODJEffFsbGZxwM5BDeTeU/Y1vPFUVH3o32jIH9xvIcFHS7jHqmPRSJtyLyaR8qY/lCvShdrcsoTN1b3bxo9rhsZcH85ez3LbzE+zn3ySTV68Wl1fgRlRzq6UZQr83h6BOXyZWI96H0Y2DaUOmWepq0hKDds4ZNRYJ8QIyPbj0wuLP9Ibft+0LllRdnOfUpARLo9NI2g4Jy84ryoR9ZREDfvHbW6HnA5WF0BeEgdJXHLITWsmxsJ6UPyb5W47u+f//YfY5sgu+yRoDB73I9+tnl/DwYWPbcV4jqSfbxUEs79OqKmc6Mi4n98bFSOXvZsyJ4IAHvlQBk4nx9114dS5+p/k7jIbpHO4Z4jYxtsxnC6R+KDB6p7nvh8pOaPqX0oj/ZoPNsAHeKouP1z/kgXRiVxecF7/nd3SJJ7u8NflUiKQFq5e7zHZXU+mvLOUOpzAJnCMqxWPe6DvZoco+L/e0pwoefvFT3uz80hp9kzGk4KgLaHtxknbmOvEfPjqEhtifv44KjuYZ/O5GX3hvK4uQKMg1Foq93UB2UQqIMnwEIr4gIsFu1CnzFyKDi+Rwh5D/lnd9ixNWQl5YL6hsC32F6cvPdYZ/GA8MN3bj51OFkpiO4Rhe4xMNFrwfn6+lCeC4LCsDne0xCX5y2if95jPpsbheVJu09nyzwOaHWevaOQuPuqNneHQeke0D2Qde8o0OnvGST6p7/5R+Z9mouUyGY8mMlg0Ya4uL5S9mGRTyXuv/j3hW6OWC+OjZqhLfE1/fW2pT7UApG7/qzwT95T5AReOTQqfRFgJULcvRuwHWTHe6jDIXbg5OI4FIFh70jWD+xi8SjopPZs6Dbj5aq2/a+z4Yu8x32Uj2I6DUA5wYaScHsVErZMFpE/eSsfTjHilqRt7pFCuRr5Hk65oV1W5H0y4w1UXnfE/dgTV5PNGWrvCMg5FHJbxP295z8vei9ryEzlVu2xt32bv5ETkvvnPvOV+/83YsQl9n42X/W0e3X52vrbJecTV2/hy7fGMshGelweTC2cBoE2ICy3+7A+f78lZu+3lMG6fl8519hU6lN3boQjnXtVgbu0QMwxe9sIPAySr78w7F4JBE7cFQeit0pnuygdk+dhPpx20ejjaohXtLu3Ie79/S0DTES3v/dcJ5G79sW7mQlCSjQvI7Jd4ci9nrg/b0ncESZY/mv1uP8mJ64r+/xIab8H+6u29wK7cEKLfCOBIeeblUN5YMjTs7myV/cBwmPPJC4C+17WXizARIPNEOujBQWjPu+7uxBDQ8G3uxaPiN2dzQRxbWGHjULIaXsVhWlQoMqQNr3QL/IoXAiVn3uUk9b974j7OCftXd7+3lAhf/yAkPfxTFkuXSzrcsS9W8kiDKXUh/Syej9HXJfnn/7Wv1Xz9P7ln2EZ9igg29uix+Uygzp+I0LcAhi5vV8sj7FtgH+hXzRckOR88fxY6d9Hh8oyNnGHKpjDc0Nddo0sHJd7CUb2brBzRiBQgtxdxB1A7CCfwOUwIK6To3PXNwAMfNcnD3iarxasOscMpZFNO//iLS/UsIj43rFumIWM6eVyEdeffzJbkvT5Un4fdaDMlx4ZFXWXxB1G5fF6hu0M6/NR4lZRufcv/4Oa73/Oid3YFQPfy+V+rV6+7nGBXndJXb9xziBuPry/WxHXB89S9yHEhebHu9xezF/0+OGBsr3VI6N4jwv0qvFI/r+3R+K4tqMhP5W31mGvUk7VnfFD4xPxK/UR9zkqX9ir4kiHE7IQoDg3rI8bwYbkOi3DHFcTYAj+H0JHOnKt5r2lL+OjsjvvCBnUzeq560nreoyctPenGkOWxC173NDAQyw3uk5sYA6Vc1L7MhZR/uQXf775xXuZDBB7N6BtY8QN9WB2r45jPa7L99yNVnIb3tsnZYGyKna8J8A/hGRwAdb18O5/60/H2jAItMKHTH6trJcLyz0sOwflmuAOOX8PXAs4tmco8MyDAE3OP8/zjsndOnZQBg6AO3uGQtA7DOBF2rcBQVMrvI8fN/UWxD02Ctq+v39YOjcn3uOKvPcAcT1pnVL3D4R6PCPERc6SMkvyUiD8bqTHpfL/89/5Y3NCCAOK2X9fhLjnfqb4LdTp1yPEdT5+ulDa8VEODOjzIBijAEh9jOwYHjsguvbixLXrCXUeGjgcyk5lD8X4BiOTHQy1FNoA8WdY8OeO6AyHhq7DzZWZsoNzeNaJS0jmju8EBhnWjTeGwpH4DjeqJ92+jaA+J0y6NGKGHxa95+pSRdx9TK6qrUeHNwrSPjggZffEvbc/rPcOCzg8kGCnDaOTU1TvZ4sjcznff/9f/KKpex9uL9bj/vpHr8Pyla/uBH4Zbv76uViPu7H5YLoZ+dzbH9ZHA/YdEOi4P4NAzrBUBuWN0ufHSr9Ge9x92siInUNyQDzyDohfY9jep5P5Di/D5d3H6tsnZbojOkAs80qO9Rdvjz1xiRD7mPIECAEg9oWRgxL7DhPwDiW/F4waJE/PK+LSsv743v6QcLz+8ngoyhbkOToq6r43JeUIfmlwYnno+d+NEPcOs9mvR4bMn78/FjLTNt2v1eavFz2uIXdlH0uO3r/6s+K6S3/nxh9s/t27v7/5d27+fn3u18+9Jsdhero4CmxI7chtR3uZp4slcV3QjRLXl98nsUYxhvyoyrRXnrvDiGphnndc3HcSS0S+faFveA8sedKU9QGvU1RCyHpHM/g+IiAVdN8QAi8w9D6fSP37wno4cYP2fV3MgaF8QLaAuMNA5juavPt0IrvrVu/3u9VQOXBgXuaf//SPjYmhPw1sdNfbisgVI26oFzkmvxZxv8rfD7+XFUFRT8Pg//vT5e2L88lq5W+XrD9OxEY3TBhuvwZ/FIfS5/SX+hzadh/Ab0ijFQAAIABJREFUuNYeqofqwuqzMO5GoM/froh7ey9SSFF4b5n/9l5EyqEgtBSYtteULYibD3fdcVP3hqyfAVs/X6aCuPnQouhxhT6h3Lc5gYVj7d7PXUOyPj1iD5n/2zt/0Oi8dyjat4n7urYDt+vd+lze457/eoj7N37lVWFfB6YivTVqjoM0Dv53frl3oAGkSdx9mDiBnTnmOHYE4cKyt5ntbyOCajhERN0r2/X13hYckcHoLvBnkd/N+xTE3c8AakSognQQ/EPYiMi7f4Oc3yh+fR4njCcul0FrU7ZbGWYfJ24JkttAL73uDdiOSdwXf6jKGRsyO3Ljtlv0uMROhZz7pQ+/LuL+9f/s1ebT3MY8PQPnXHqyMNp8cGhDYKoNcVXsWfiguNtr+5jXxzs0DTe3CabjcoWBpQ0med1Pj+XE9YrdJuRChLtNBLzNhL2NBOXg2a+T3/2/WhH3tqLwbUZ80f7+YSBHmTYKsLi63ZBNyh7WewddY2VixL1tyPp//bN/p5b9X3/6b2F7BXFf2D3ubUVWbxd3/tfyfF/H32f5PToC8W3eS+3fMEFv/YWY2Ggwun9D6H0nklQ7MZxzzBfyV50cLKvgGuJp71AhPi5L8e2Su93o1Bf3Y4IWjt8/VIl7WwOLq2t/WW+bMo5czzxx94fG4gbEbW4QPZrznrh3DzR6cpk0J6E2LBI5UgeAYnU8yXtV6w2iX8t7Rap/3aYRLH7N9bj7h6xdpmf++2tfU4/ridsqER8Ftt/fjrjIv7y+IE+dd2D4uvy9FcMxaEtc21e2dStPrTizn7TR2oblb+c2dfJ+Cew77PwtbwStzH5mBHZNGKFKq99gxN0vCYnKoXZukf/dsMIR986U3b4qKyvz0+d/oALsp77HVep1tvtv7urlX+f3wU/yQMPL/9Qi7vnXsB1+ziKuCybukRBK/1o579PjPBjdUgKilAvYpfo1ibtfKWficENgAcnTXN/Qfb9fBgQVK/t0XVXu7MPYbYLDhijXsYQoFDOEugXyq4EAJJrfEdclN1x+VqSNzWdvbVS/5bnU/b5VXavOF/mLfNU1llwZV6/rcW8V0bDU6ZbipFuVE28x+bwdzB7XETewzwDq+2/+xZ/aQ2Ym009f/KHdS9d1b6i2dgS3nuPqftoI9Fd9T/S9tS+GiY2AMLciQ+VbFkkZATkRY7KgstxvdvlBK3zfEu1t2PXv08ldE/dWbXjWSOz8/pDYpVADNV+ZBkG9/tgTtyYw+U3f3qj/r8+x/KvgOs1z54CUXxJWP+eBaZHop564Sl3+/Kf58NIeMr8O6vjpC72X/lVPXOiPxtYWcV2vSvMi/6m2mgrBK2w8tSH0R/gxiavVzTAUyDa1QXA2COwByWTIF7OJyMNseauyE7KRZpvbRv0FcW8ZglKSFQ1PRZSbsuoZ6IQn+W5PyTpvT1kyxhJuO5Y0HbdC3FtTpJ6pEMz/8K//wlwQ0bZNStwArAw0sR436n8rAP8FJJO4iv9vM5uqvmyBn9YY2wIWb8ewO4VkGGy24WTnVqRitfEp0OCUotgUaXSKnKPJCzwVCggdQtoJZJsCbSBj87JTWp6BAGmMuJr+N2kAqfL8a2PI/E/+1h/V+ewe97VuHyLLr8Z63Kk4OG/XegBbo7JTRn0sXzviDpr2W6SbAAuB/MBOql77DazsZ3Xvb6l3mwChtNfBgtP/N8T1m5SkU+AccuCUDqqy/BDXiYivpJuEaFQe1VmiPHYorcsiUUHc/QoYpiSQPv2OPmR2z3Y/ya/He9zXNnGq9KsXIsRt6zNGgACswF4xIN5sQ9z9uhzIrjFboDpMgjNZRdv7GYb2G3VrPFDlk9h1bXZowzd9IsC/OTUMfoMKwLWbIO/NyhB13fXvwKyvzjs10Nsmct6MkZr9f5MRW+ThOkV6v9/JCVbLU9gQ1MPasIbMrke+GQkWjpDIX1yPX73wM5O4MBhze+2Xdhdt7jeuKUG/VY+ryIXsGuCHBXEvH+poEI5xvRFZkI1qLMvzt7i8FeZLew9gp9K5SYWcGlRpKFIj2EAc1+WIcLcO0DopeAfSOEyGW6osg/D6/gHJ1+SXpBuAYBAeh22GulD9rd6vIK6w5YDZg+tjzzL/w7/+c7vHLYg7FDpxEMWGyhxUyH7i3P4B8BMJXFMDUV7DmPWn+lIN9AC/B8I6ZNAfQPluCfklljW+3EQBLyozaX8/s+uBRuYOz1wCTDP4EPzPFN6vkz8Q6sAwnkd1uiRrWOcgIrOVRwFXZZffifW4rP4b+/UA5I9//Ndemcshf+fjCHFpUDuA9Y72uKaMVeDK676h2C0MTJXuURwMWhJ3AAg4AMSSOmB76ER1x1zHWwdwGX/+VhRrMQwOAVbkNSpH5wYjwY1acJIO4EZvTA10AnMBDzTgh2Ss2rhB26Pn6vPlL5TxwJCVBQBCgYnUCwMLqfN3PtaJ+9s5qaFMwD432O8/+dv2kFn7+5ueuEIHaqf4Pe4N4WtOPByQbwgbD8JrnNDMJj5PrMfVg+0A+HcIAvpAyib0aNHpHDA6sgPSVjfEMdbjhg8EB4DdORbz1LlByXqAGNsdH2AAoBVXv7A8cxq/rtZ1IDzP86G21HRAtmHVFZw/IK/5ZBHX9Yw3KJCA3Sy9uv/qz7a85NARN6hzqvEdBcrfbEPcotxQtQHHxg0W6IOgT/U7gG1J/WgSF5Sr2zwwaLBK66TyT+F2gw5AOY/kRhzg54KOivoFYZHkvTE1VLFH6+/4ghzstfIgNdeGdaNBHuTgOv9AOp0YnioTlmXtTgGZpgbivGy7aePHfy3b/EkO6I+/Nw7rZwGgSe2Jy9viuiD5LXKZxD0A7Hsg9Gcb4kr5hg2ZDyg+1PzLfATJR/JZf7ANjrEDIZZQJ3ADER1hnOCP54FYnZJta+3hNlvIMRXyoXN9yiLmgBFzSNLAEKBq7KAm5JDlHYK2kExDSCYtwGjpv773++IxzP/+P/7J5qNjG030y9N10I51v/nbOak5yK5PDaCevF5vq3/2u3+8ZeKGPhxCItnE/VPTjr5+6s/rU33V/tfR+amBiRubuFrwGLbwP/XjUMV4KB/2PbeHxZHrU7yDUwLF1CAqP+JCR1PyeoQU18GvVvZ6oDA3igYUDAjajs9T5HegOhiv+yctASzIUB2b97j5NQSS67y+g9I2Pj1c2iheNnizHpfXOaz//0mkN3/d/w9fKb3MRy9B2weHQfsUF8hHceKGuHL2vK6QtLk2VLEICanY7+ZB0tkclAEYYR91iBAbdQBE/GtsSbF/vRgq1yf7goTXaUQjhWsDRVJQ5iBT8iAmoySnfp3WxQl9HURbd2xN9Li/n1x83RjuoJTlt03i/mFdRpVVdWZj259sYcjs5MXthKB0+b7Ov79ZyXFDCeixFBsqb6VuLdhfN85fh+QdCpteR0TiGJ/q67hXAquFadRmp/7noMwUZD4o811nlYv/6fmDelnfW9btHVTqAArcUM7jOoZRAP7jv/1HlSxlHfVxVcfvRIjr813LA6HmYNVOJLUdMnPiFm3W9ffrcz+58PUStwh4QdsGDrZIXIo91aaVriY+eR0KJgM9Dg7wMSdXC71vVEnLa9mvvlaljgNY+c+wSh54imJIkSAN5bmIASCo0S+rs5Ed1K8Y0w3rrL9/8F/+XLRxjbRl9rif/GFjNy1gHdBtRgH1cDkfMg/+YzviAn25/35y8dXXS9xLr22sVOe8PbkNosTVfKzgssaGRliaT8NyBH9leQPfBy2fS0LqeB4KzHdQhdcAKYpzKO/BAXQEUqTJNxQkvwbqulblEbIcDGWh5WheJNc/Np6X/skf/afNF98fs/Z9/RVxP7GJi2S8xoiE5EJOazO8dXm47uXvcMt1fdUe17cZ6trHuDkQ4sr6Q1hEOLx+EGO0bVnrfKzeIE0PpVwHUOc2hL5HunA7djg4a7Jw8B3sS5KB/0Wj00NxTjNy0cY0Bz0m7TWlDY10NL+bQUak/a/u/6zW/7qin03cP4jaxnIKyvd//i//rgVx+2EAmB6Ktv7/IC7y77UWmGnT4wZ1Tw+lbWsbDhWs9U2fyI6gr2Ig4Mr0MMDLNdJWieehyhvhe4ZTeDxNiTsNhJvWFQyFe9MEyk83jom3PwhIjs/3oTHd799+8Pv5feS/3fzf/qc/2fwHf+Pnmw+Wh28kf2G7gih9pT2kY/8r2LWv6NsP/fZG9msC53XFbtdooJwebsk316ffDCd2ua+KQ0+YvmkX3g7CGOcRlLuFf1BQ4rbu1I3TCqdBxdNMoGnm1Pz/q7WC4Xlf7mrwfx+DfZrlmwZOmlYMMT0Q7V5VAS3blfn7uA2mQxBokN2gbKwdTW8mr7DhtGIPNRD3DeD3G/0PKnq0CO6BDadbBDHNVwcNDHAdpi1bG7iO2szAHNJxGtmiL+1A5LoqAn4f23E6IG4IiKsBGJhBgCGu1uXL46vIiHVeHfz8PK3HqtMMNIGMDOS8buW6NHA/DFDMDq1lZES9ikB20MiDdAQyq/8zv1416ruKbHMQt3mVkn9awRWS66AuIywr7I/1kH42cGlgWOiB7MNtcxD7Xa1zWglCQu7hZucqF7BK9bFThF2rz9NrROGrimGuAmGvstTI0Yf5r4l8VBbF6Mb/MTm4oV0bom3artJ+0A6xHbejpmtpj76Ul9UVykp+oe2kzbx+2I59YQtRv5dHs8N0H9g0kkfzV4C3IcTYVcX/Hl/CVqzsNaabJtNV1nad/xDgFDjGOKW2CbHXubc03Ly9kA9/ZyhwCRGm+5Kw9bl+YOgg78G+XuYgr7cfJKlsHwN1ug/ATRQ+xHSi7R9kegU69AWRA1If0spweXK7Hh5sPnh7uPn42xubj98p08o7zbGV7h4dVm31mZ0Y8IL/+xAcXCcBODWI9WEga/JKP16DduuD/5Fe0q7XovUAvBxUzlf/Q1+8y3zw7fLczTnpg8IvB3X5dTmR3n0cpFX5+5sdKujDbw43by0MCTjzjIcGgKgDTLKgDEmHpCOvHOwzwpJrQbt9At5GjitQprZgCeuXMpO6Dw3CvIcGpG0eVfuN/NV1FxgDULwbEhiSmOS5MTcw9Oxj3xwatLBJX7GTVl8/1JvZ7srBRvfQHnY7V6BPGh2uoKB+SCNDn13T/DjYfPStjSI5G/tjn1aqIOt+3f8352I25FzoR35D+a4gogc46wd+cMeduzmwHn6jAtC75a8T9tpMU+GVFkC+Ag0Xkj/IR0mqGeSQTEE7AaCUOg8xwxwCYDkk5b0iSBrqyHW5wvTz5Yre1hPw0ADLAOz64BtluZtzAwDGPnB2HwPiEHY8qkv4kAe3afD/Ib1e4T9mm6BdBFSEgWnpT6sNjLGyvWsz/QLzD97eaPLk5+8cLXvkohND2NMCzzTFBZPl0EB0DleEn/B1Wo9PHX/ghsp3jw03H1XDg4K8h32DVYFDpDA59tfdb2hIl4+UZ6QIiOfO82uMQLRtce0Ql2kgyympNowvc0jKyuu1zl0l8t3PCbhCiHslsE0/IBe1w4NvlH64MT9s9OJ2VOxa2Gda+oLnCY7F9TDPVfB/qA8JzocAaSssoPo5jgIb8sB9iLYhZeP2uQrtVo0McuI63zjiXiU2uJPzYCW3/a3FocCYsDPCGJM9rKP5tTDKzwf/H/LEJYo7ZYrhQi64642vBMQgBg+SNCoV8ioqR9ulRqB1HAqBJdoP5AoNpsok5GL1TveBfkxWlGc6bNufL4j7bkncmsjvbjTpnfC3yOfKvV2Vm0d2U2TnAON2mub6DbCu08juwNcswBXtHh6ogZbigAY53eZ9ptcgDNTTGDOIQKIuT1zX435jGOTxxL25ODBwIOWmQQHlucrwHnKl0u/wQPCHc8bV00EOvLNUCn53uVToMgLDIR0EPr/7vVw1dlkBgQmgQ3rAuDyNyimGUeqvjdRChsvTMZkGdS9A89fErQjo/n/0zkZIXpJcvsvTTT5OXGpbXZ8BAFQ70l6G+g3INaT3QPHFwLDrwGjXDpyXtXamuU9tfF6bLYl7Px/dNFjtb94+NqiIO8SyTtt4uTxtYzeKWzVvk68TOqVfCOuEflQR93JgVCLI4bBcnefwoDYuTRIAEjCXlciL6rrM2uRyXLZIqF4fiPOXGWDVeg9jIHriXp8bqCS5bJWbHwT6Qd0ODzARvI+mZRuXgc6XjVHVZZL3Mmv7spFXJ2g/AuZ+iDGGqysAC9ivA+zzvL6GuCFBC+K+lxP3yMDEpYYl3a8D4QtLDwvDHXfxan5/eyu/Ib/nwPJeFf3z37tvDQMACGcdHuDGDutku8LycdK1SbT9MmFDoTJmfVw2ECB0nfH5e9/Me853hyUBqS0Ps7LTYT33v9n01EGd01IuLgeV5Yoh35WWumk+rYl5OOavxp48r+arK4ZvLkf0b+wggztNV3Piug7q/jc3AnzfdnM975bEpbJftsh1WLFrG24APgk/Mjt0Hr6TC/le2cMWKT9+8O3y1xE3qIA3elg5R36LspXy9FpQ52Fy7jCo6xCvE9TDZdLAdFjKCNtSzsUAzss64rogeG0+Yismtw+i1xcGth7MloENmX71tcOGzoeM60Gb/c1LMZtSMFoYQnVouOAB77BtG+Hjw4y4720UQZLWfyvvcT1xYWA+HJGbHQv5Y/bX8pHfTkPW4eZtNxnlet+lksx33hqaBlXB1/J/SsBLh3oijzhHUnHtEMgvZBpg2SPp0qHwFwYqdv4SaMcR8BEloAZKUoezS9FTvzcsy1E9YsFH2JDIdihi30NAj0O6blBvkY8Hi4FZl2rnwxEC1B1EzN+DWmZPXOcj6odbS4Pi/I0jEVnb6MDkvnLYtqfzid5mI2Pn+mJe2eygMmhZyAn+kBD3kq+U/F4i/wcNH34DRVm9CBBImUuHWB6QqLIob3h+oMoCdZypbKYY+ZIfKtMet4XNLh1uypXEHRjyDMJg5p0fI5hi90tb8GXdHihn/R+zg4qtOtAMWtvSyuOI63DubE11aYiL7FH69dLhLQY0w9eXtmKDKnUQGb3gtMe9ZKTLMy3yRP6PnQ+ANTMg53sykMzYsrRJQQSM5VEIQAl4bbGSmZAK1jfTlHuY97jXHHFn4m1e2qqfSG+L8w5MfbfSLszPSL/V+i5vAVuazW4czW387nDzztshzm8eHRS2LwjdIrjEOjSJX4zRy6RDaMpifBfEvTQDiPv+xubtt4dbBHwvmucizTNjg0wD0JbTDK5bk1katade15xQE/dbIQFhXtBeWS4n/MKb2r0X0anKM2OQnNn+Yh3Eel8JA5rupYw9KHvbYNzUAeQhdVyZ62/ef6f0jTsO6pgtrzkOOL+1Dkgz7YPgm2CY1t+pFZtpFLvphsqUuORa8DvDQEf+v8jrnQmB4q5f5E7mbWgk18CvyHaxatf/ttIn+O3JfJoNaiMPitQQcFCfh/IxPe66cu+TnnrGsJN2bUaRl7QX2CQaUMJrgQ8j/okFbIyXEAtU1sszUhZRH8cRqfPO2yXG79DOidjn2pFqGJ37QcN4qFcP2qeVfw7r/kR1uHMd5OSCuHkkKog7A5w7Q4Vryl2eHRj5eqGz2xBnRnGoO0+uXWxBrCavzH8xIHef/fZk2xywM6TM4VBHT8Cri6Dew6H93DlvQ1fugeupFwdSD2GHJvlzl4D8SBfhkxlqkz7ML4iiyBccQ5/0A5+gNi8qARdiss47UOUucJr3sM6299/Z2Lwyr+Q7XPnOPc9dGqr6Wzbl/IC6U520fOB8J3B+dXxzmfS4xHhF4g6f6Qfp0kwowMWZphzNH9TLHWWA6mJQJ6k7P74027QZGK9upyfAwGUufwcNeIW+pD3eRpDKvAUBKXGBrpRwXp+G8INGNhr86MgF2W1GjjS87JdmDFkUH0YD6WFmFwWAjf00HPWwrkLOXkN2xY8Xud+qOu98owyKN5YGzF+hXM5nzgf3c/Jemu0FPEGBidrgIrPdRY7lWalrwBfCmUtA/w43tifug/fLHlcq1guUlGCVxvuq6RJo9xJ3NGoXBBYOEi43Il94zPW367hTEHdYE/Bu9f8D9wju/Y3y+P2S3Pff8/l6oqdugpi0NdRzJnZO6nNJzRerR/dbAVAuX/7/hcNKuSAQkgBdBWato2jjb1f++rES2/feGQKMyvKOA843jhO1HLD+nmK/GEZ6reTg+nZQhLhREfdWTdzGeBf8sTfibL8laJooc0ETjNbpkwAYd2Iv8quRsK+D2NSpB/Su5Jlldc964uZDssXymidyQNjqlxL8DumpoQ3yui/QyGwFG5cXBiDpm7gve7Weehkr2Df2vQADSb+FP3uGT0F+ghVHWGfXa8diHUaFMzeJ9W7pKzfElnX2IR6acz2gK8V3U0bYYxboXZXpXAAGKYm7URIXkkk64IIqbAMcngIFZ/shyFgZ6exGsSDPrMwjyzN5Z/uBTLSu8Br7PwheXNZeTdT77zc9aWCb2ZBcVEZPcE/4QDdIROmnC8hHoB6oz2yoVxjQesLPF0Q+8Mt1n+V26AufwPwARxcYYalOPo8bGjtc3/7mUNTF8ULluvHWoPCh8wm10QUtcAD7BtgVHZjkCQ0GFxg+3G/nAgf3bJ/0uIPNC7PV9VkmUHUuELD6/8KsBDkHDhWoLMNAiYBK2rxAZArA6q8j51EizsrzF4FOte4zLA+XbQ7VFfa4tY0CPUD7oJywJSvf6N0Tx0hu7BcvX3hePyeJH7QXnAftMntDP872oM9C4pL6iby0rsvz/c1775ZB9NJ8v8bIRWGvpp4GA2VPfd+PnDS8UJtwGbiOMw2HqPwXZ5kMFLdE907tFNKwI65T8FZ+E4+M0eRnjqIEZwpcoAAPygPQCZmokyWQLgTAlG3yc9LgQFYA2KBtFnB8vbe+UdqOp4KAs00PrKUyX35v9a0SKE0qr19e7Ae+4kGV+xKd10AW6Evzz/E6+gomepvnax8zGwp/9tRAJv0gbY2v96Rfq7w3C79sbN759rAYJl/P0zWWrrrfJXns0s23yvJ33yl7XafneYFZ7AOq00Vkt5meDAAzgBPkuHN+RlZeDA2+s1Eo666dn9UIJYlVKzSrpSofOXdec6yRGnAYwFCIeH5G5ucyNwEG13teqf/uu4yM39kIiHv728OAiGHaaPJ9qwwA96rk81zLg+qFuT6QQQfLVuwaEHKur9oJ4caqS5Pv/Ay4XtV9HgTT0C89XA/znethnR/uvR/a/sF3yqBI7Vscfwf7xl8vfADIFNPt/IzSMcxy2fsKzpqyHQ5Gl65XY/qbrselFc716zz+WDRC8wBhzgNBzzMhz4M2efvnSb303HlIKt5W6NjzwGBcrvPQiKG+Fxc8QDbqcp6Al4/0YR1I9/MVwe9V5dz5a/n9mfv/1jcHYZk53cnof2zrvm5/VE4NHNivHCPnrWAy1xfYOa/pBORD+jublXgeFNhuUh//v1z+3qjO+9+bb5f13H0v73XnegCLPSwPw23RuSk6nDfsSs93BBkcSHIF7lWKloRhTqvOndcEA0Sm+RtlufI9TMK6TULeOZzv/CxqhwBtDvT2SP45PSDgNnqbVz258mGuL88J6OUOADnHdWXl3GzmfK8ICg40KKBodjsP6q/zBDbsNraZs30hys8BYhv2o/jBvu5BuS8Yftbqu7rUL3rQO+8OWX2GvYh+olNz5M3ru/GNYRQfejvt/KbWWQyV5yrDz4U97r2qxxXXWd7wmABlTjq2MERAvj7MI5QB585xRWmbWp3s+gXavpXmGv0EIEl9LtD5oZQ/d+vb+TnXC+fOLtL7IH1nKK9X/xc9ddWGA5+7dmmxb9oH6XUuJyayg7Ad0Ou8SnYDD3PEv3NYJh6EqW3PEbxInCl4BHoVNsvteOVYX+QXQWjOxkqR8gDqgqfzgxthqXLMGrhW7dWz7UyOO9zIFxfK+zSn7I23B7oygBQ1OOb6en5B2H5NwnOBLP3m2lzEsGqShL4gZOubdZybta+dI8b0ILlEyFYSlxHzO2G6+/4AE5sR1wWGu+7R0vKgpf6h/OcMYuHrW7Fvv0XZftiWQphzs5ZfACaU/K53LHCc2+3crI2fAruztr99uWJEmtd769vDOkBIDLfDUBvMIXt0zvl/5kuB7laAKYYWCxV5KFDnqlQdw4ZZOs+O5f/9wnDnuINAmfPz/eZ4TspwDhzrxuyb5VoBsPp10bew23tDaA/tnPitgt850o6/dmW5X5D85reGIeCM+jV7WT48R+WY7any1HiYNWwP9Grq7oZBEODkvNIu0p+3eee9krgXFmxsang5J+xLRz+DOkhDbDO/nJuN++pcS5K7fJ3reTS6XQlxt4r6DnxOWaHgvFQckdP+v8t+tTJdk/znAnJ31cBwjhmzyDuLdOiq+poBqTL0lfxeytnv5rcGmCS03LzS5nzftG0xGnL+eX+o2IP9ziP9Ud1dKKcmf5s8qi7kvJNPBOn5Pva5ct5KDseuI6qJO49tJo+7QUeB6nZ+vsuJO9/WNjqmkJ9qmUj9nXvfLQlbgC4f1l3Ne11O2kAwKtx8OwO6fHWj88p5o+xW2ioMPa8RxQge80S/+RbysPLXv+kc6dMwSKWN8/O1rQfgOk8DcNzUcdENoecVUEAduq19pQVX0Z6wRVe2q/qv21KW9ikgZo6Dm++UdnMEvp33vu63PKb/D4pA6P7352neO9X/TSrPu3rdcSuZ5tvpYtuX5umWPa4bgrlhcVBgPjQ6IoT7/yPvAFDGX//IO3SeCaiUOYcCxDwgpxIMaILy+fNaEJo35J8HIM9/b1fOLIjFkwMPJeJ3q/9FvoaY9767QYgu67nyVl/YjfuolFvaytsE2cCfC67NGwRscf4jRGjh/670P5WdyPCRFiB4wM47oOvfGgR+4Pb0x4W9K/vWvqLlWB233sl78iMGZmOYo9iigUzTkdmi81GRqaqINwAarX+BUz/ywtRlABCQIvOs/fkuaDfG0Zm0AAAfqklEQVQ85uU+mpN1et0+Qm0RuRqduoH8vH2RP+agSHrTfB+9YT0of3AcqU8txwMEsp8lzxZkR/ULbDIMbNnGc7qcDQ5827YftpLH5AqTrXOOk40KWaeuJCXIyx31EVJcOT5H2qpJVBOpS+RoyCVIxuWlZUhQ+KiFPMXxAtOHEPycoluof5fog/6X8gnbz3WZXXBZZE9Un9ZGACJqpwWAibmusLXPp8kTBoiwPArcH6lyhwE3CLrCPqGsNu6I/CBQ2qlrXj/H7KD5U8MxCnCdc2bjIWka58QE7xr1tVOWt62RsV17+FqpT1eQ9RxsH7S10N6RZ+sAxIC90AN27TIndqu2ui0A060Dzkcm8JB9u1COOCm6LfDACd9TgmkX2DXmW4ZTAPyPDKLquMa+0fx/ri2Zhd26INlBoxMK0N08CyuhgnYZkLrS2As9g3SovR5s46xaTjNmN6i7IAyp/2xwjuRdiIBiocfqBQFooSfIdRY5b8GO3uci130bZ9VghfObwZPoZ9cb2vKskKOp7yxss9uS5Dopua3OchItcP/GsNtjGCTYWzCwsdCT2KU+tOy5oASohZ7eWTBcdwLHVcJQxen/ZwFoAwdSInAiL+hACUEQysJlk21EgEPK8fpgO5TkC7ius8i5tVyhPc6ygHFWBMdeGFCg3XosgEh9hI+EXD0ZuObb2EJi4yzqdVg7Z1H9iCS8Xk5GWt9CD9pUtcdCLxJ4AaEWQMDegn1gQFzAgT20HcAGaeMsC0SdokEHtgUGtgVmqAVmZH9toSvI568HeXz5+pedn+8Gec9SY9G6fN3z3aBtTdaPWLmwLQkMmi/UlwURog+VRTia2mchtG/9S9N8F+s839hF2lraUMi2gMF/FgQgFQekbu5D4QeqJ9CNymf6jdtE89MCtltwfZ7JxmwjcFv/L+3K20L2ELjjealPAd/OQhnKc52msZ4EEREuPIeJ7K+d4UYJ6uiBNli9iz0T2GEg6KnXz3KDctIzYyCQfcTLCn26m7YNUX6kWy9SV8xPtq3UOrifyP9n5i05/HVdjo9g2dKmZyhm5llAEnaO2S6si5IqJAcnRuXnRRbsgH0+QrLMa3p2Iz7CHVpgu0USKBeZXCVxKyf4Qos9G3BK4k48Q8qf4W3U51j9iz0lj24AKTOQzZAZtdGc1wlzJkpOSfIzgV5KPYs9SKAzWwJGG6L3QoDMUx9KDJyZ77bDQVVnkZ9h6UwLnwgbL/Za5O8JfMXwGQ16ERx9tIgCWA/rt6jhtAeCY8/AV9NWQFwErKJARagzPO8iLxuS7wwrL9vChjwTkYmTW5CPyFs738uwyORZ7IZ5F1hZrpev2yATr4e3iexHAcrbPqPYTACbgfwMO8+Bc4YFWC2InwH+OQMAyn2B5DijAPuM2sN3ocyoPoSRM5o/WBlLvjNGsAnsu6DYt/I/IiDEC8Ax76g6HFhnEJjZ/4GS/toiawjWtw7rslMPn1/swmByBhD3jdNiqHtZL65ba1PasoevL7avw7JFmySDVekbLo8oQ68tyvYpJkpMbV2+s7y+xUh53lalRxAchR/byRQSp2nDyyUCxyKum3cGXKezSgDhdqWpExi2qLCHQSGc1ZMGpr3zIktI6BgYFklQ4XlReWScxbAu93ta5Onl59ZDAi0CI2rtLxJ7kGunY8EA6F+DkPXwp2ti9Qx79YJj0xfMJqZPIrYNgNzGH0Qfzeew/UVDpgi+gvYsXC42voP6GOWC/AuKbRaxDKcXWvpg0RPXN3rErhgCtDiuAEbKn1YMYQGkLN8LAoIGsNMKMbeSTpN6TgeySNBspb3TEaKcrp3UU2xK6+lFrtvnCrAu8rbzc8zXpxc03za2sWzQyj4LLQgDMRLK0QpTiyBwvqnvFrFN/S8k5AKvq9f0xFSnBYnts0UngmWhHOucXuwKw5ymDmPnndNPUwWAUU8bJBF5jhiOMeRq6l0Pjk9zoNI6SVtN2Z4qOzo+rZKkKwgBy1mBxLLhQpjvNNPfajMkcU+2Wfk0GIEAfeGxoQOty5KXy4wDCcgXbVup6wix54LEouab0wa2Y/htjnsqvk5vAS8dbtTTCBxtEylfGCe4vs5+sWJQ2SO4vTOKQZsy60HZ4toRWZ9WPwW25kQBfl/XkVDvQA6j/aKtIz1V35pUIs+6BNYRS7/KNlUPXJ/T7MICtWUDzc+qry17oHIkQJ9uUZ/V9pvooJ//qklvj+vUQQVr4Y+0UbQylE9FHUyA2DWt/iNGvvz/U66uI6wNIcvWDXjG1x2R6cwRpKOdTrXV/0ikHPXZkRiAtTbXTfKEfuWp107vI7adUf5AbiVP7d8jIB+TWwTTI101OAr5joTlGl+sg3rWmd7rug1iWDmCyet16ZwCxvEgcb+naONHpFEEcdA5du0UU6iWgfx/SlOaO4q1cWqxq8vOCc9loXWz+qD+bWyx2MJWWh2s7dAmVU+pAfaryHUEAwfb22Ml0v6RllhZNGQ4Qvx6ROJGDdyK3tSeGlbgNdYphPUYdmR2O6XaNNL2EU9cWGn+ywWpztX5fKryN+fXAwMHQhyJC8XzCbJZwFAceornQXUuhucFwY80NnE6IqCeMhxY1HG0JwIMlwv9f4oFnVOG3pb9TkXaoTpqNsb1h4Bs8vR0/0fqPA19phBAAb6Gu1NtgnFL2RBOTgOMnFL0pn4LSav4Ks/XOcUJ6EhHzjUEbc6fPirLnKZ5SD1heQKso1KZEDzrJBHBj0qQ2cCnOoW61QGG6iZ06go5wmtdaK/ThOCiTR4IlDpC2bnNQQAF7ZyGda9LP4J8iCBQF/B7GrQJsYRsd7QLr58CPj3N5NGATu1m4ntxXfcnxKn0i2XPU6Bjo52kpjf3eYc74aRGUG+Yo/T8ugqaMo/maCutY0AsWnJJZ+ugzOs5yq9zgmhkX1cJYusqjxv7aARuY7t1YmvLhutAX0a0o2380lXqkXXa/lgHWOmauDtl+otjsi3O3szexfHRLpFpfQv4tuWIYduX6XAnn6SCwXM6oE9aYKeNi+N1Vjcx0lHU7jorEzrrZOBocnwUyCPyrYNryEnAacDAJ1XbcACsw/pOCv3WcRtBXiTzOpA1LHsSgf4o8McRYM/A7ohoynGgP/CNOGb6HWUY4vJpAelo2ElhgkZ8dtQoe7RFZyRsbvuAYqgjjH1UkikAxtGuSCeJsCgvL3eS1Blcr34vfKu3ef37/c2bvzTYvPmD6jdPN6pj94uOb1bHLl3/Xn/z7LKUIyaL0IvZ4ySwU9hGWOdJQSzk+HVRjwhohs1FAnJrvjoJ/BwAyP9/tDx3+lh386O3upuX3u1tXvuus3XjF+ezq+/3Ny+/1988942QdL78KcX3Gm58uZNQj0YHZA8R0I7yTmZd/Kr+J3Y5iYKqoo/oNFiek7xjZOc1fHZOUkGPloaqAcgNSBs9Gp6T56tGRR3r0Fm07Rvfz8FQAcGlazkJr1W//lxw7XvNtWvVeQekKzmIQtm6ARBOgrZPMXs0OnVJCvVt8ndZW12pc9A+seFRKQ+qOyhPAROUl7KHeqzDFLTFZc8Je+Hb3dq2lKw+3fglmga5LwZ5md7m6aVugJPARsgOR7A/OBaprKdY2VAHqZPEH+DAUYAbbtsjyJ9NfacC+STepJzrsC1A3HVJQnLuRCXUCQC2E0cQABBIujAfvU7rco53BKTlTkCgh4HDK+mAUhD3O33QpjwODcgBsG4CwL6uk6TRqQvtogO7a+rjCNbU25wT7fNgfKyrEKi7eb4aAXlSOrue+2ZDyBOknDt37pt5j/xeryBvSeAy/0lAjJBoKIiw/EcR8DVfrLdMXWDjroJx2V6MBydQkDwmZT9xpMGEru96YV9B3BMwWrVRugsBdoLVfSJWX66QJ+6JNkYHoHTg8QA7cTRmeEAolu+EuIbyryukjgcOPaDZ7frzJ2o74AB5wggcJ5AsxKYX3+kVtryep4v58PjUUle2zQB/gvihJHBO+F8eFOVpeyei9uTXARGOdYN6TggduvXxiSNrij26cX8c64ayH1lvh09azzEr0DS+OKFeK9PVfHTZQUQ9YYKj+T8w1jFW7lh4judH//tj5+irFXFRqutl9Zf/59Fqab0A2pXv9qFTqS6a48Vv7nSkMyp/4uhafe0k1HsNBhxkSwvcYeoK+3BbBcfAppwYl97rFnZ0QDn7dhfKEureJaRp9D+b3+8WtzCO/O/1dL8q+gVgD3QIfagHuC7pONZVO1mY1zCMbH0CyXqsqwcfVrapbx3W54JgBxeozh1jxj2GGwjKHVuXZYNzHtSybl+HE8wirgRlaKRTyyVxL3viHlsX7QWyFnm6IiCE8nWlTseYbhH7IIdAmyt10Twnj0kbCD2PKcHymCFT1e6FdyvS5n44tdwVerpj1/ueyQn90bfK5Mh9cgnrf3q5Ie8F1/Me4/6ziXAiBu5jJIAdU2xq1MUxr/ICyqrg5liEU4grCs5p3dd+0G+Ie1whqkvHq/+PI9AC8HLhBKEjoK+Jy4gVEKiuV9btgHb9lx1xe1i+o+u6PJZeR7F9AuJrbVE7ULsq9lMdrch2/OiaHlBQPqM9R0Jnv4C0pM7TOUGdbR0JXb7r1VD6WvX/pfwWxeUJ2+4WdV39QZn33Le7ocxW8NcwRu2JyEDxweo9yXFk1R3zQRt/K/yw9NXKu8DXUQX1jmYgO94G7IYBCmeRehGQrznQ/KAfrZvL4us+6YbKFXGPVwHnuNImlfO4pnvVVhvZfR4kFw2CUv5uVD8IphY+ON5CX9+WG60U5Mrtd+Yb0nfnXU+cB1Z33RH1Qj70PZ8D6dw7+f3sd3oF2Z3/3HV3LWivIr0r59o4ubxF/wJblLbtNj4+auD5qP1/zHetbG3m76q+0OuSPnc+6gSgMgjm/j9OftE1KhjPR8seVwDlrznHXwHEPX5sXZZf6gqSOUCUxO0LGdoC+7jWJtOhzAOctbRuBgIn9/Etg6Qb2NXS67hhX+QjnxwJnf0vvt8TdV6pSHk1J97Zb3VFO/7Y9die/Fe+3xM2Pv9e2cb5d7oq8I8bgZ76ILA9w0KgI8BJSfY1qMeJaKBfF36wjmk7mo+Ocx8t6fV1XIVNBV1R+LgC4kKQJQbSAoxrah04rbG61wLiHn+DdHLZ1dHbvOSGykuNfLSNuI5rgQFF+SXFTkvrbyz3cSNAqfmXiExH17ZUFqUrFeGK3pDoeP69bu2Xk8vYzydIQHLlXd6CoDlRQ5nX6gBwYtmSk2KDttdtZccTwk4KNmty0zxrhq01X3Rb4X1L/lVk7RT/UIGWyP9L4f+1YjyP1vCS8f8SMkpZt3Pq5R/0QiWXFLCCNhxoXB2OuD5P3cMtcQOutZIv6ixuj6WI45Za2AjIVLSH8jBfHVeDUFfarip35lslOS/kQ15az6m31glpZbk6YNftl0H91Fvdgpyu7OlvdOtrruyl75W9rhuON0Sk/lwDdlgDxF2DGPoQlldwfqzKv4TznVgCvGhDbO3/JQNLQoY16OeauKWia8R4a40yxxhhtUTLgGDQtKGQpMp37a/kIPmlvg5MxYAfekN74n6vZ8iqBKgl5kSSpzzfVQNb3D6VjMcU22i6qaTktlyzdbXayX8dYZ3tz347DEYXv1uS7Oy3ew3I/bD4nV5x3dm6KMfacedcnZe+1yfl1srzRW/chbb/0NLlGPDXMR2T4n9kj2OynCBSxLYSK1LO5nzX9mtE786H3GBao1Wi/wcCLa1tfgiM784HdRyT9Qa/eZmrf6VXRHde73EkK5Dz5FvrFVh6sK3y2NWxJnT9UGvHCFwfKiD5EOgHg8SxNbX++jqol5b58Nia3gYNHLzu5W6dp+gFc7udeIuUd5NVLpDmIyBe9tL3y/zu+rUqFSMl1r4LwkW9y8055yNX7nJeB5L9w8pHHxqBsPHPWmOTpXWb+C0CBJZHz/dhhaMPI21ouP2Q1nUs1OVDkKci7lrhnNAAknDSoKHRpBBrEsDLTMglRvjq1xH3cu5sKDyT4UPg5BNvrRWguPi9XnBN1rUmQPIh/H+NtY8BU/9/jOm0THRX2wPneCDwBF9mDvb2Xia+AnmkDcNrV365V9iNynLqm2WPeeG7vcDGrsd0eR15T+d5Tr7dLY7dubPvdoPe5bybbc596uqibbr2rvxyv9FBC1CB39YAhtYh6FEQ4ARxPd+HSnsCtxx33j/LBH/LEo+BT5iuIZbWJAeXu4FePm/HJkL5/wewUgm6QrBlDkKNEGsgledD4q5BIn24vA6J635PVNH84vd7wOlN2drgy4pOy+uqjLo+mv5rKjk/NEDzIQMGCl4BsJa5jcK2j6t2qwLmD3pB3rPvlAT96L1uAE4XFK/91fye9xtNPae+Wdq9JHkjiyvrzp95pxvI6XzcBIr1uP0UfH0QkGZtC5hbj2DaCvpaR4IJHPTMyxEfLmE9aJ6OJMJaQ1Ti5A/o7/I6zofOLzPCLANn0GvV0OzyL/Xq8x8sMWWXyS9N1XVH3Cs5CAviijxrddkPKlk/IOfUgMDaDIIZ0EEnubRtULdmNw62ZaWcEiyFjiDv1ZyIl385JNIZSlyiuyOnO1/0otU5R2JXR233QH4gi0YqFjA/iGEH+RGSVLu2FvqC2OcDZNdlrgfmDJVZ6EBxzfEEONXk8T0uB/Yyq2w5BHl9vEyFCUH7ARBUCEnLMUUKAOXRuKlnTQQMKx1/Ox+G/dVeOVQGciG96rRs6yR089dZXtUepA2U70N27QMtMKA8y5L8XGaqJz93xd3LFj1gc/7kN0t/uOFuKVt5rSB0fv5S3kM7wrp87rjuWZdBkGcy18fLDVg/UOwm5CcAx9jCtvJk/ECxJ/dVLR+wt8REiFXkO+gLII/3D/Kb+79TC7UMCi4TJ9Nz7H/VAKgu7jBglAIQ+f2Pd6hsf13UTeU+/nbT4wZll/jxWmgkVt8HNEhxWyyFsgTlSGCi+eo6qb5BHay9oDy3gy73h0FbjKTcjoTEF/NRjrO9s19DorXClpf/Si/0pRsu/6BbBMgiuQnFisgfBARcE7aR9mC+QHIur8nEAm5gU4q/pTWBHe7XDwN7rOO2KO6WuO3XoR84fwRhEd6WAM6JPjVxafoVQUqbtB8wx1Dj/8rSmuIADtRQaQeEkrgaoIl8b60LecoeN7/Xqom71kL+9bKupTWlDK7H6VjKQOrg5Fq2ZEfBwC77K1a+pbWozr+i5PnoOyURT+c9ps/jZLzw/W5hz9PvrIdy53n+v1KtbcltWwnqjyICcO4pJyd7xJs2dmIna6/PrxugfD4k4Z2DmZ4htXlASQIwt57uIbdqh7sDzk/92827b2+7Q17gfaQ3nEcHaty4C0RL7xR6f9uv7N5veklKXzqig6MxOh0vcnYaHS8kNARMz1sagJD2OpO2BYW1KGlw3q7C/f/qKyuumOLQodCygpdX5afXXyBAMqfZJ8/tKxKTEn+xLZQnAfOFm9XZTxPLfm+YUKwA1rzXy3rzqhtx+/A6H3hv+/1P/f6nXryPrtshcwd73LJh1TK8oJ+iU/jSCaxRbY8F9nFV+sdFBHMk+bca7mhYCo5g/tPaWwPX0+IEBWjBygpYiliSKIhdARIsLL9b3P89bK/KtAB0vz1Hsf/YC/fTTMCW5HBlTWuVXLKmgPjrXrHgkEQcK8b1zO4X1Jduc1X8tIxQai8L5XyOOTx9nodX3odZoMW21qfxdzfYD95figvnBsKH1o6FodS9810VW9HZYi4M3lt8UfokBkxWe8r4pOmC4nTiZGyZ0PLPbmoAdY4KpL6KXNhrE5Gv+WwQ3ceeQIutLEa3HQk4CPdhfnIUABCUV0EF2anDRdTN6of1GkNQ2Gg5nhOsleLR0kGG7EHNvN53399G/N//eBOY/d6/Cue4R+Fz7T8banu8gbmC/axHyzAokl0zi3Mt5F2NS7CXhdJLgPWVxqPDs9BrxFjmuZ4mo25e6fjSACt29ud4WaHsfBDdx1++SFH1n815P9ajn3w8vb6Jc2SPBgG/t5xt+919OL1odbuik4ToRF209kaLs9i76ak74De8Ou/l34ge0T5tfhs0LJZ7Z5BLYewbuF6Z/dWyO+ucaAp0L8reIAzOzOZ8kBdnXMf2fds7NUpDrv2rUiOSnQpqNAGBohviTzagW/1x4X4gT1zku2HfsXC/2KTbqQP51vYbRmTNbyNI3+3nKMQSxXdNkM1OHWj98V3/N23/ujy89Tz6Toi0uQOne+/pw8XAfG/4qfe6Eb9133V31/PSRfnRGNoZ77lO5HNaieE6IYYGEWgozgEhjyuqAmuMfb6eH/JXZWr/9ptufI17/9Ntep3zEpRBuM+/3rYnLs3NYVE0xm8hHgZkYwwUy+civMy/64weRJhPY+TUGAPP6tX7H7rpzafvwzV0GAfl91aL/N6QmuXDIMqcaV2u2x3ircJbrSfaXi6eqGKJNdDpGIn+RrVXUntQuJuTFWSHCBwlAcG9VeAOn3PbsSC3CXd44qL7f/xwG8+HNTwVfvu6Y/7jKObh/K9euI05JKJRJ65Jq7k96APnEDPf63JYsPxOw/pFc9n8xgP1MfH+NGB9G3vx5uvbv6hP5xPEzZG83SbY+hzNnkB/JpfvW5xnh23cC7ACtdE7p8ypY2RwSuEaOL3Teibii4FyQLgkj2tIo1iX1XpK2HmarcL9oguV1VevOUdTFPlddkexqXmTHfGBYjC7muFJSQ17dRDnDBdFQO9+7NZBOQh5wL+5p8c72Kh5K3YIS5WfB/DJxOF2bPd6zjBtNRuX7tRIFPYnQSJWOCSplfhesQfsVuEqfmr+pCR3hrOBXOsTF/iv5wFTK0Kui2mhIUXxqAstP518FGshXhLfHJro3gGc68LuT630423/N+/QDyrgN9+m6RXa3U94C3f4UDAEv/ZRiZ89SMa3ui6LVReGuBzAj9lB7exx/OigMPA8jYXzYgHBarJfs7vCluxTX5yoyM/w+aH/+/TjIN5fh9e0aT3R78Mn/83WKNyfb2rhtKa9wVOD2jLCKH7WuhkxaxdV0VpY0j2NpLUh0JrEnu5GYB9lrOF1NUx/pjwN/0r6sKy5T/+5yaHktlo1PI8ujjvkGcPa6rkdJ06DGw1z5XftlMHsaL8l57IHCNKNU2KMwuXAcKGKFVUAd20A2GtCfjv7/ftuFS8nCf18/q/cf57vD2IeyJY1xEU1t8bCIcMjZguLO4ohtzbU7+PVANyaXVwxlqieRuxRbKLha9r/7Zv+Fbp/6v758zBAJ7xhnkVUOWARtdZEK/oXVW6auGU4aD60vsj7jVJfAznGeRMP8ZOvU2McYnL0y5PfGkk8+fRgX405F+alSPLGxMxfs8aJun/PAFJyb2DOMfve+HtxswaIgaPAbVsVzcmwr3i9PhnYJImPN+pjZ1UR1Z7i4cdwp/kuhPcI18m+MsheUVwFP7bcq8Lojzd8mhzW+ocGpdELj32fsqZ7mtgm0oqRVjjzSd7L9mK2l4EA/ORxNCAN0oO41drkCMGviK9KEVoF62B7XAB+8Z0I0ZgdaiI8y4lagSEk+pfVFIkfZRh76Rv1qbKIB7my5d6Q88qy9yA2qa/K6olZzAoOThaP89Sjh5MiejYwxXBk3BNDFA0xjqsHIp7vnGjSC7krHnT4nFcmguW3j3nxzFd+X8Za7EVMI581J+UO9Y0+xaDwMYvLa6O/N0xiZq/i4aT9kgP3z+NDvGnN4z6OjerZrcPp8bPceYzFR2AxfMx7lWFj8G256xKuG3Agw9dPw4ljsPmV9Sy1Q7xY7IrhpeVKfVrc1Tgvvs85n7JCyaLA578TWHE9E432VDTb/Zrbu0j8b0BkA4MPEB/xYKE5Ub+O18VFDvzTex7jVAMc8po3EiG8l1iliwq2jBC8H45jKrEU/eH57/QLYxUBVlGKVPQYC5re2XLivMNxJC6o5/owsWINw0j2NGFdOMQLI2+GeS3wxpw8LV9KtdkAkIDvaEOgUgll+AEFly4axEyqn9Id8y/P9f2aYJD5DwliVt4VE9wBmI9xwxGc5CpRj5EvZQBg/zPBQjLwTmxQRXPQ2Ljw3uYCK436B9xKZ/Qh2Pjt84ULX9cUHdg8p+UNhvs9ZU0cipkdlahx83nW1MDOsjtJBU0bGCUTQ+nzXGiunLTlYfGRxqs5SbBEXSH/LC1xLNiaIkoZcVSsUV4hn+6l+4xxCoCUAb9BlRwjln+p9jZhsaHhA/HdGVYHHjQaH0rCo9LgY2kMes5J2ivec61nKM+S1wX6tNzZhBuY6Mag035JkxjuhCgBCIDMAYAECi0ZANki8cvA8iC5bzbAhxJrrA/cpX7t82TGqTiuWc7a9yjqkzWiWtKhHGWPk2ojbL2yH3ISlpy0Ru5WHXzYabihoUgxq0A/te95DxQehLyvpcXpdfAleIfjw2NrdZ6oOLJieVORcAMTGBNZycUVNl8bAMwf8XkhewIkXlhg9gEMgBBVguN8AIk0/zT/AMga9LtiUbw0jEKeMx1sEBsfce/Wvir4BVA7xwHZhqjmAYWqccrCzODgLhcMDkA+BMBxESdBTqp1BjBcVf3l+6ctoaQQKdmNWe+k/QYGDOLFb8si9GXPJ8/5CLGOxKF7fvOP8hlAvfj742UE8QdxDPkQfNFaehA+/21zIWES73EmG9QEN38An4NnFfF78Z9Vu4sxAEY7q4/KUFMfDpA3OH+VLz6p/T1NTZOgX4DTqTjZvEvYF135Kh0SygWdHxFW2Bf/RfFv5WzW9SqZuV68UZO/Y1go8S6wTwn6uRj4HhYhEi7NiXy/7A6rz+SOHuNIz17CGcpZKloe72JivaebtPEI1Lf05aLxx9j7B67v2Thex3bZAAAAAElFTkSuQmCC;" parent="1" vertex="1">
          <mxGeometry x="561" y="287.5" width="30" height="30" as="geometry" />
        </mxCell>
        <mxCell id="Ya52i8-AY6qaeCq4us4A-31" value="" style="dashed=0;outlineConnect=0;html=1;align=center;labelPosition=center;verticalLabelPosition=bottom;verticalAlign=top;shape=mxgraph.weblogos.java" parent="1" vertex="1">
          <mxGeometry x="109.94999999999999" y="291" width="20.1" height="38.12" as="geometry" />
        </mxCell>
        <mxCell id="Ya52i8-AY6qaeCq4us4A-32" value="" style="dashed=0;outlineConnect=0;html=1;align=center;labelPosition=center;verticalLabelPosition=bottom;verticalAlign=top;shape=mxgraph.weblogos.java" parent="1" vertex="1">
          <mxGeometry x="334.95" y="472" width="20.1" height="38.12" as="geometry" />
        </mxCell>
        <mxCell id="Ya52i8-AY6qaeCq4us4A-33" value="Consumer" style="rounded=1;whiteSpace=wrap;html=1;" parent="1" vertex="1">
          <mxGeometry x="550" y="336" width="60" height="20" as="geometry" />
        </mxCell>
        <mxCell id="Ya52i8-AY6qaeCq4us4A-34" value="Consumer" style="rounded=1;whiteSpace=wrap;html=1;" parent="1" vertex="1">
          <mxGeometry x="332" y="522" width="60" height="20" as="geometry" />
        </mxCell>
        <mxCell id="Ya52i8-AY6qaeCq4us4A-35" value="Consumer" style="rounded=1;whiteSpace=wrap;html=1;" parent="1" vertex="1">
          <mxGeometry x="464.05" y="158" width="60" height="20" as="geometry" />
        </mxCell>
        <mxCell id="Ya52i8-AY6qaeCq4us4A-36" style="edgeStyle=orthogonalEdgeStyle;rounded=0;orthogonalLoop=1;jettySize=auto;html=1;dashed=1;" parent="1" source="Ya52i8-AY6qaeCq4us4A-38" edge="1">
          <mxGeometry relative="1" as="geometry">
            <mxPoint x="400" y="290" as="targetPoint" />
          </mxGeometry>
        </mxCell>
        <mxCell id="Ya52i8-AY6qaeCq4us4A-37" value="&amp;lt;movie results&amp;gt;" style="edgeLabel;html=1;align=center;verticalAlign=middle;resizable=0;points=[];fontSize=10;" parent="Ya52i8-AY6qaeCq4us4A-36" vertex="1" connectable="0">
          <mxGeometry x="0.5478" y="-1" relative="1" as="geometry">
            <mxPoint x="13" y="3" as="offset" />
          </mxGeometry>
        </mxCell>
        <mxCell id="Ya52i8-AY6qaeCq4us4A-38" value="Producer" style="rounded=1;whiteSpace=wrap;html=1;" parent="1" vertex="1">
          <mxGeometry x="467.05" y="183" width="54" height="20" as="geometry" />
        </mxCell>
        <mxCell id="Ya52i8-AY6qaeCq4us4A-39" value="&amp;lt;message for either wiki / movie api&amp;gt;" style="text;html=1;strokeColor=none;fillColor=none;align=center;verticalAlign=middle;whiteSpace=wrap;rounded=0;fontSize=10;" parent="1" vertex="1">
          <mxGeometry x="185" y="367" width="95" height="26" as="geometry" />
        </mxCell>
        <mxCell id="Ya52i8-AY6qaeCq4us4A-40" value="&amp;lt;publish to internet&amp;gt;" style="text;html=1;strokeColor=none;fillColor=none;align=center;verticalAlign=middle;whiteSpace=wrap;rounded=0;fontSize=10;" parent="1" vertex="1">
          <mxGeometry x="424" y="343.5" width="106" height="43" as="geometry" />
        </mxCell>
        <mxCell id="Ya52i8-AY6qaeCq4us4A-41" value="&amp;lt;save for audit&amp;gt;" style="text;html=1;strokeColor=none;fillColor=none;align=center;verticalAlign=middle;whiteSpace=wrap;rounded=0;fontSize=10;" parent="1" vertex="1">
          <mxGeometry x="366.05" y="409" width="73.95" height="31" as="geometry" />
        </mxCell>
        <mxCell id="Ya52i8-AY6qaeCq4us4A-42" value="DevOps / Shared services" style="text;html=1;fillColor=none;align=center;verticalAlign=middle;whiteSpace=wrap;rounded=0;fontSize=12;fontStyle=1" parent="1" vertex="1">
          <mxGeometry x="740" y="41" width="96" height="30" as="geometry" />
        </mxCell>
        <mxCell id="Ya52i8-AY6qaeCq4us4A-43" value="AWS Hosting options" style="text;html=1;fillColor=none;align=center;verticalAlign=middle;whiteSpace=wrap;rounded=0;fontSize=12;fontStyle=1" parent="1" vertex="1">
          <mxGeometry x="744" y="422.5" width="86" height="30" as="geometry" />
        </mxCell>
        <mxCell id="Ya52i8-AY6qaeCq4us4A-44" value="" style="endArrow=none;html=1;rounded=0;fontSize=11;entryX=0.84;entryY=1;entryDx=0;entryDy=0;entryPerimeter=0;dashed=1;dashPattern=12 12;" parent="1" edge="1">
          <mxGeometry width="50" height="50" relative="1" as="geometry">
            <mxPoint x="718" y="40" as="sourcePoint" />
            <mxPoint x="718.4000000000001" y="740" as="targetPoint" />
          </mxGeometry>
        </mxCell>
        <mxCell id="Ya52i8-AY6qaeCq4us4A-45" value="" style="endArrow=none;html=1;rounded=0;fontSize=11;entryX=1;entryY=0.5;entryDx=0;entryDy=0;dashed=1;dashPattern=12 12;" parent="1" edge="1">
          <mxGeometry width="50" height="50" relative="1" as="geometry">
            <mxPoint x="720" y="415" as="sourcePoint" />
            <mxPoint x="850" y="415" as="targetPoint" />
          </mxGeometry>
        </mxCell>
        <mxCell id="Ya52i8-AY6qaeCq4us4A-46" value="Event-driven Microservices Architecture" style="text;html=1;strokeColor=#6c8ebf;fillColor=#dae8fc;align=center;verticalAlign=middle;whiteSpace=wrap;rounded=0;fontSize=14;fontStyle=1" parent="1" vertex="1">
          <mxGeometry x="244.10000000000002" y="41" width="285.9" height="30" as="geometry" />
        </mxCell>
        <mxCell id="Hb2fQr_BGOHqDPU0L_fM-1" value="" style="shape=image;html=1;verticalAlign=top;verticalLabelPosition=bottom;labelBackgroundColor=#ffffff;imageAspect=0;aspect=fixed;image=https://cdn2.iconfinder.com/data/icons/boxicons-logos/24/bxl-docker-128.png;fontSize=14;" parent="1" vertex="1">
          <mxGeometry x="274" y="128" width="23" height="23" as="geometry" />
        </mxCell>
        <mxCell id="Hb2fQr_BGOHqDPU0L_fM-2" value="" style="shape=image;html=1;verticalAlign=top;verticalLabelPosition=bottom;labelBackgroundColor=#ffffff;imageAspect=0;aspect=fixed;image=https://cdn2.iconfinder.com/data/icons/boxicons-logos/24/bxl-docker-128.png;fontSize=14;" parent="1" vertex="1">
          <mxGeometry x="501" y="126.44" width="23" height="23" as="geometry" />
        </mxCell>
        <mxCell id="Hb2fQr_BGOHqDPU0L_fM-4" value="" style="shape=image;html=1;verticalAlign=top;verticalLabelPosition=bottom;labelBackgroundColor=#ffffff;imageAspect=0;aspect=fixed;image=https://cdn2.iconfinder.com/data/icons/boxicons-logos/24/bxl-docker-128.png;fontSize=14;" parent="1" vertex="1">
          <mxGeometry x="591" y="294.5" width="23" height="23" as="geometry" />
        </mxCell>
        <mxCell id="Hb2fQr_BGOHqDPU0L_fM-6" value="" style="shape=image;html=1;verticalAlign=top;verticalLabelPosition=bottom;labelBackgroundColor=#ffffff;imageAspect=0;aspect=fixed;image=https://cdn2.iconfinder.com/data/icons/boxicons-logos/24/bxl-docker-128.png;fontSize=14;" parent="1" vertex="1">
          <mxGeometry x="130.05" y="306.12" width="23" height="23" as="geometry" />
        </mxCell>
        <mxCell id="Hb2fQr_BGOHqDPU0L_fM-7" value="" style="shape=image;html=1;verticalAlign=top;verticalLabelPosition=bottom;labelBackgroundColor=#ffffff;imageAspect=0;aspect=fixed;image=https://cdn2.iconfinder.com/data/icons/boxicons-logos/24/bxl-docker-128.png;fontSize=14;" parent="1" vertex="1">
          <mxGeometry x="369" y="478.5" width="23" height="23" as="geometry" />
        </mxCell>
        <mxCell id="Oy8kM78HI0bEzsmMR2zc-2" value="" style="shape=image;verticalLabelPosition=bottom;labelBackgroundColor=default;verticalAlign=top;aspect=fixed;imageAspect=0;image=data:image/png,iVBORw0KGgoAAAANSUhEUgAAAlgAAAJYCAYAAAC+ZpjcAAAABHNCSVQICAgIfAhkiAAAIABJREFUeF7snQe8HUX1x2d3Z9MIEJoUEQJEgUfy3r0ERKkC0ouAFEEBAUGpf7qAIAhIUYpIEakivYggVZpUqeGVhECoQapACJiQtmX+v33vAUlI3ts2e2f3/pbP477cN3PmzHe2nJ05c44leJAACZAACZAACZAACeRKwMpVGoWRAAmQAAmQAAmQAAkIGlg8CUiABEiABEiABEggZwI0sHIGSnEkQAIkQAIkQAIkQAOL5wAJkAAJkAAJkAAJ5EyABlbOQCmOBEiABEiABEiABGhg8RwgARIgARIgARIggZwJ0MDKGSjFkQAJkAAJkAAJkAANLJ4DJEACJEACJEACJJAzARpYOQOlOBIgARIgARIgARKggcVzgARIgARIgARIgARyJkADK2egFEcCJEACJEACJEACNLB4DpAACZAACZAACZBAzgRoYOUMlOJIgARIgARIgARIgAYWzwESIAESIAESIAESyJkADaycgVIcCZAACZAACZAACdDA4jlAAiRAAiRAAiRAAjkToIGVM1CKIwESIAESIAESIAEaWDwHSIAESIAESIAESCBnAjSwcgZKcSRAAiRAAiRAAiRAA4vnAAmQAAmQAAmQAAnkTIAGVs5AKY4ESIAESIAESIAEaGDxHCABEiABEiABEiCBnAnQwMoZKMWRAAmQAAmQAAmQAA0sngMkQAIkQAIkQAIkkDMBGlg5A6U4EiABEiABEiABEqCBxXOABEiABEiABEiABHImQAMrZ6AURwIkQAIkQAIkQAI0sHgOkAAJkAAJkAAJkEDOBGhg5QyU4kiABEiABEiABEiABhbPARIgARIgARIgARLImQANrJyBUhwJkAAJkAAJkAAJ0MDiOUACJEACJEACJEACOROggZUzUIojARIgARIgARIgARpYPAdIgARIgARIgARIIGcCNLByBkpxJEACJEACJEACJEADi+cACZAACZAACZAACeRMgAZWzkApjgRIoD8CLYsKMWAx4YaLSeUsIETgKiVcISyJmtEnfqJPIZXd+7sS+FvY/b2NcqFQPn73hLA9YYnu361Q4d/Rd9G/P/9d+ZYVfed4vhV8Jjx7khCz8DP+4/605N9JgARIIAsBGlhZ6LEuCZAACLQsJ6Rc3lHO15QdLiaUtZgt1GLKshYXSiyGm8wiMIKWUPgexs5ipiCDUTfJstRH0PEjJayPhaUmWUpNCoU1qfv30J4UWOF/hR+8KcS4t0zRm3qQAAmUgwANrHKME7UkgQYSaBkqxMCVHCdcUVn2ijBCVhSWtSKMkxVhpAy3LGtAA5UrpGml1EwYhxNhJL4ulHodxuPr4PB6EPivY2YNP+OnFqIIGyEBEigNARpYpRkqKkoCugnUao6jRsJgWgUGxIjIkMLMDgwpc2addBNIKx+G5keW+MLweg3/fhHG11jMfHWllcl6JEAC5SZAA6vc40ftSSApAVzztRGRIYXZqFGYhRppCWskDIJvwpCKfKB45EgAXOEDpl6GoTpWqXCcpaxxvYYXZr2wOMmDBEigsgRoYFV2aNkxEhixkJQLfAc+RW2YlRppKdECX6g1yKXxBGB4zcCM11hliRew7DjOFqLT96c9LcSEKY3XjhqQAAnkQYAGVh4UKYMEjCBQXwYzU9+DKutatrUu/IZWg2GFZzePMhDAeIWYRezC/x+HX9fjQeA9At+u98ugO3UkARL4KgEaWDwrSKCcBHDtjhppu3JdzISsi9AG+BTLlbMr1Hp+BJRQEzG2jykYXKFnw/BqH09aJEAC5SBAA6sc40QtSQBRoWrrYDpqfVy06+Chux5mOxYiluYigFmuT3oNridCSz0svC4sK/IgARIwkQANLBNHhTqRQDeBlqGOM2ALYVvbwB16CxhUixMMCcxOAAbXB/Cru0uE6o4gUPcJ0fUZCZEACZhBgAaWGeNALUigl0B9edtV22G32Tb4Yn0YVVH0ch4k0C8BGFuzMLv1L2WpO0LP/weDo/aLjAVIQCsBGlha8VI4CfRLwBaydR0p7G0QvHNrlF613xosQALxCIxFUNQ7fCu8o3cpkWEh4nFjKRLIhQANrFwwUggJJCEweojjBFth6W9rPAC3xU6/YUlqsywJJCUQpQXCUuLtPUuJHbclrc/yJEACyQnQwErOjDVIIAWBbn+qbTFL9UNU3hxLf0NSCGEVEshMAEuJU3Eewm9L3BIE9t1CjJmWWSgFkAAJfIUADSyeFCSgjcDohTFTtV2PUaU2xUzVQG1NUTAJpCCAma3pqHYPZlL/FgSz4LfFnIopMLIKCcyTAA0snhgkkCuBlkUxU/XD3pmqjeiknitcCtNIIEpoDfH3Y8cqZrYcLCOO+VRjcxRNApUnQAOr8kPMDuonMHqI7fo/wc6/H2GWakP97bEFEtBPAAbXfZjZuiEIJt0gxNvRTBcPEiCBBARoYCWAxaIkMAcBt7amI8S+eOPfFYbVUNIhgSoSwDLipzC0rgkC6yJGkq/iCLNPugjQwNJFlnIrSmDlBW138O6IqL4vYg7VKtpJdosE5k1AqWdgcF2KJcTr6BzPk4QE+iZAA4tnCAnEISBraztWNFtl7cwdgHGAsUyVCWD5cArCPlwfiOAS4Y0dU+W+sm8kkJYADay05FivCQiMXth2g5/2zlat1gQdZhdJIAUB1R4K65LQm3atEBOmpBDAKiRQSQI0sCo5rOxUNgL1FsdVR1vC2jObHNYmgeYhgKXDGcJSVwee/Tshnn+1eXrOnpLAvAnQwOKZQQK9BKRs3VwJ+3A4rG9CKCRAAukIYPkwSslzFx4uZ/t+x8PppLAWCZSfAA2s8o8he5CJQMsAx3F/YtnW4XBa5zJgJpasTAJfIfC8CtXZSM9zE/7ikw8JNBMBGljNNNrs62wERi1iS/tALAMehBmrJYmGBEhAHwFMab2Fia0/hv7US4R49X/6WqJkEjCHAA0sc8aCmhRCYNSKjuMciUjre2E34KBCmmziRnr8csSHuNF8iN8/hI/OhxY+Q/w7+gSaD2HgfuIL5WFMZgkP/4noB//u/sR3X/w7xL+7PvsSZ+sCQtguyuAnHNDzKXr/jU9XDUCMMlfiezzco4TaSyhLLIFNC1+LPvG3JXAOLAG98Gkt28TDVFjXMQ6f4Vy4zPfDszCWbxfWMBsigQYQoIHVAOhsshEERo1ypHMyHqTbNaL1KrYZbdUHz4kwUCbCWJmo7PANKxQTA1u9C9PoA6wIwYAqU267lRcUYsASwrWWcEJnWRhhw2EEDodROByG2HD0E58MKJvXuYxZrRsCLzgJhtaEvGRSDgmYRIAGlkmjQV00EGhd2ZH26Xgwbq9BeBOIVC8rZU3oNqAsMdFS4cQgUBNhPOFn/MdNAGCuLq6ymHDd4U4oV1CR4dVtgEU/1sq4mY5oPh7Ze6wEosR74gQhOnBO8SCB6hCggVWdsWRP5iDQ9nXHtU5BYNA9MPuAjDY85kcAM1EIYxTNQlnjLKFewEzNOKRFeUGImS/CiIqW6HjEIjBioBALtDiOGGlZ9mowHEaC62owTpeHgc97bR8McQ7Owvl3SRAEp2BGC7OfPEig/AR40Zd/DNmDOQjUl3AcdSJ2BR5IMF8lAOMpcjB+oteQeiGwxQvC+2gck/nqPFvgK+aKUVh2XM2yFAwvMRKtfZfLjfM8P2dYIrzQ961TMaP1ic5RoWwS0E2ABpZuwpRfEIGWoVIO/CVmDQ7lg+tL5NHuLTiMP6aE9XjoBY9hdgAzU5hT4dFoAvC1r7XarrUejN31MHuzLua4lm60Uqa0jxmtybiWzwz9SX+k8W/KqFCPpARoYCUlxvKGERgx0JZDD8GJfAwMq0UNU65QdaIAj3hIvwjr6XERqseCwIZB1f5moUqwsQwERq7kOHI9YfcaXcL6ZgZhlaiKGdf34Pt3SujZlyG5dLSzlAcJlIYADazSDBUVnZuA7db3h5Pxr2FULNW8dFTkgH4PHkSPwH/lESHGTm5eFlXrefdy9/fQqw1gdG2Dm/VyVeth3P50z8SG6lgELEW+Qx4kUA4CNLDKMU7UcnYCsr6+tMTF+GrVZgMDQ2oaVvgewlv9PaFn3cUZqmY6A1pXtl17C7xUbIler48ZWzjVN9mh1NO+pQ4RXuczTdZzdreEBGhglXDQmldlLKFIeR4eLFs1F4OeWSoYVvf4vvcwd/Y11+jPu7ejhziOvxGCq24pbLEFMhIMbxYq3bkOrSiGVng0g5U2y6iXs580sMo5bk2mdcuijjPgFOwMPKBZOo5nyF2Is3Rv6CnMUnW90Sz9Zj/TElh9VVuqLXFD3wJL5hunlVK6ekr9FlHhT58zwn/pekGFK0qABlZFB7Ya3Rrt2q5/kKWsEzBrtUg1+jTvXuCdPEoPcz92k90YBFNuY762Ko+27r61LGq77k6WsnfGOfU9XDvYsVjdA9fO+0KFvwqCzivRS+6Qre5Ql65nNLBKN2TNobDj1LbDY+F3WAKp7E4qPBh8jOYDeDjcFATyVuyS+rQ5Rpe9LI7A6MVtN9jZVtYuCHuAUBCVNrY6fSUOEX77o8XxZUskMH8CNLB4dhhGYNQoKZ3zkXpkA8MUy00dGFYPCoX0IEFwO3f95YaVgvolsOrStjtoJ1upnXB9rdtv8ZIWwPX1j8APDuXSekkHsEJq08Cq0GCWvStS1k+B8+rxZe/HPPXH7qfQsq4KvZk3NmcOv0qOaok7VV/GlmJX2xL7oBOV3I0bKnFk6LefXeJBouolJ0ADq+QDWAn13VGjpXCur9pyIN6kJyFK99VwwkVIia4JlRgrdqJ6BNy2bzvC2hfeSz+qYBaEMb4X7iZE58vVGzj2yHQCNLBMH6FK67fsYCkXPw1eqYdUxTekewu56F4CvCwIvL8zpEKlT+CKdS4K/RDuinyJ+2IJca2qdC5KJI2L8uTQ7zgTfYr8HnmQQCEEaGAVgpmNfIWAbFvXsexrcAIuXwU6uIm/g778BUlqL2XwzyqMaLP3od4ipdoPhsnuFUpB1el73h5CjOtq9tFl/4shQAOrGM5s5QsCIxZy3AXPwYkX+X6U/ogcajFb9Wek8Li79J1hB0hgHgQcp45ZLfEL+EeuXwlASpzh++3HVqIv7ITRBGhgGT081VJOytomCMF8FW7WS5e5Z90xqyzsAvTs04R4/tUy94W6k0BsAm59DUep41B+O8xqlfzZoSb4Qu3BlDuxR58FUxAo+UWSoses0gACoxZxXOcCpPOAs2l5DxhWM+AIDN+qAL4cXW+XtyfUnASyEGhdGdfzcXh4YLmt5IdS5/r+JzAaJ84oeU+ovoEEaGAZOChVUknK1o2UcK7F++5SZe0X/Ks+xoVyvu/P+iNDLJR1FKl3/gRal5XSOkoJ+2e4vofkL78oieoV3xOIet/RUVSLbKc5CNDAao5xbkAvhw9ynEV+h6W0g8q6nBA5rmNJ85zQD/7MXGcNOIXYZEkItCwq5cBDESk+utZLmdIqWvaH/r/BTsMzAD0oCXiqaTgBGliGD1A51avVpGshrpVYpYz6Y+fUayIMT0NusyvKqD91JoHGEGhdwJb2/nioHAlDa8nG6JCxVSWe8v0ArgxMsJ6RJKuDAA0sngZ5ErBtWT8aJ9XJWDJw8xRchCy8wb4uQnEKdgRezbfYIoizjWoSWHawLZeAoaWOgaG1RNn6iJnrKfC1PAT3gb+UTXfqaxYBGlhmjUeJtWlZTsoB1yNA4dpl6wRmrN4UoTq194bKQIRlG0DqayiB0UNs6R9sCfsovHAtZqiS81ULy4Z3BP7Mn9LvsmwjZ46+NLDMGYvSauI4tT1hWP0RN9GFytQJvKm+rSzrt6FnXy7EGK9MulNXEigPgZahtnQPxS7iIzCjNaw8eguEuFMfWCLc1fe7HiqT3tTVDAI0sMwYh5JqMXphR4ZXwLDaoUwdwJvpe8oSpyPxMpzXx88qk+7UlQTKS2DEQlIOPRwbRw4r3ctYKC4IgslHMZxDec++RmhOA6sR1CvRZq3mSHEn3ki/Xpbu4G30v8pSZ4beZxcJ8erMsuhNPUmgWgRqw6QUCO/QnYN0aIn69qLvqS0RzmFiiXSmqg0kQAOrgfDL2rTt1g60lDgHN8cBZehDFCAUDrdn+76DyOtjppVBZ+pIAtUn0Po1BCw9Detwe5Ul2XvkAI8lw52xZHhv9ceHPcxKgAZWVoJNVR+xreSwq3Ez3LEs3cbOwJsDz8LUfvubZdGZepJAcxEY2SqlvAh+nOuUod8wsuBhYJ2JfIa/gr5hGXSmjo0hQAOrMdxL2GptOGJbRQmNVy2J8p2+UgcIv+PfJdGXapJAUxNAUukdha1+D+NleClAKPUIYmZtL8TYyaXQl0oWToAGVuHIy9cg0t1sjnQYN2HmakHTtcdy4PtChb9CkNAroSvcPHiQAAmUh8CIgbYceiQeTMfifrOA6XpH2R4CS2wvvI5nTdeV+hVPgAZW8czL1KItZe10WCmIY4N9PwYfuNHNxJsvErcGpzKtjcEDRdVIIBaBVZd23EFnwD9rd/PvPUizY6nDQq/jwlhdY6GmIWD0Q7NpRsHIjtaXwE6fWxDrf30j1ZtNKcxa3Rr46gju7jF9pKgfCSQk4I4aLZUT+Wd9O2HNwovjRfSGwLP34UaawtEb2yANLGOHpoGKua1rOcq5FXNWyzRQi36bjuJZ4Q13X0Rgv6vfwixAAiRQWgLYuXwAdi6faX5YB/WC7wXbwi/r9dLCpuK5EaCBlRvKagiCo+m2wlKRv9VAU3sU7eLBzNqlgTf9SCEmTDFVT+pFAiSQJ4G2rzvSQmBja9M8peYtC7enjwMr2FR4Y8fkLZvyykWABla5xkurtrZb/4Wl1EUm+zxECZkDEe4mvK6ntcKgcBIgASMJIDXXj7Fk+AfMsC9upIJQqif2XrA942WZOkLF6EUDqxjOxrcCZ/bf46aFGSEzD9ywfJysZ/n+lJMYhd3MMaJWJFAcgdGLO25wHja27FZcm8lawkxWCEvrZ707mpNVZulKEKCBVYlhzNQJ6bi163Cj2imTFK2VVYfvhbtjd+A4rc1QOAmQQKkI4MVwEziXR8uGyxqruBKnIijpCcbqR8W0EaCBpQ1tGQS3DJVywJ2YudrARG0xazUdS4Inhn7H2dCPEZNNHCTqRAINJ9C6gOPYZ8Iv8wBT3RtwH7s28Dr24H2s4SdLoQrQwCoUt0mNjVxSuvJBIazVTNLqC12Uetb3w10wa/WGkfpRKRIgAbMIyNb1HMu5Gg+15c1SrEcbLBk+EPgfYYfh29NN1I865U+ABlb+TEsgse1b2I3zoInT6pGvFab8Twn99t8CZFACmFSRBEjAGAItQx13wAVwedjTGJXmUCRyd3A2Qaysj8zUj1rlSYAGVp40yyBL1td3hPgHduAsbJ666hXfEzsjYGiHebpRIxIggbIQcJy2rYVl/wX3ucVM0xkvkG8Gnr8RY2WZNjL560MDK3+mxkrETWd7y7ZvNVJBpc7z/U+OEWLiDCP1o1IkQAIlIzBySUfKyAF+S9MUZ6ws00ZEjz40sPRwNU5qd6Z6S92Im41tknLdyVJFuKvwux4zSS/qQgIkUA0Cttu2n6Wsc0xLHo1732eBFW7MmH7VOM/m1QsaWNUd2y96hpmrvbBT8HLTdthgZ811gTd1f8S1+l8TDAO7SAIk0DACrStIad+I++CaDVNhHg1HO6URkHRrBCR9yCS9qEs+BGhg5cPRWCnI4XWoLaxzTVIQN5Vp2FLzU+QQvNkkvagLCZBAtQkgbtaJMLJOMq2XKlRbM6eqaaOSXR8aWNkZGisBN5OTcDM50SQF4eD5WuCF8InofNkkvagLCZBAcxCQsm1TJeyb4QC/kCk9jnZPCyV2DYL2W0zRiXpkJ0ADKztDIyXAuDoXxtWhJimHm8g/A38aIsYzQbNJ40JdSKD5CIxaUbrO3YgDuLIpfe9OYq/ETzCTdZ0pOlGPbARoYGXjZ2Rtx61fjoHd2xTlohsH4tL8Fukifg2dMInFgwRIgAQaTWD0EEcG0cafrRutyeftR/dKZVkHhF77xaboRD3SE6CBlZ6diTUt5BVEJGPrx6YoF+2UgUm1C/0LTBkR6kECJDA7AVu2HY975skmbQJCluhDQ6/jPI5UuQnQwCr3+M2uvXRk7RbcJH5gSpfob2XKSFAPEiCBvgiY6JeFjUCY9e84niNXXgI0sMo7drNr7jiyfiecNjc3pTv0tzJlJKgHCZBAPAKjVnRceR8eiivFK19AKaXOgpF1VAEtsQkNBGhgaYBatEjMXGFHjLVj0e3Otz2+eRkzFFSEBEggCYERCzlyQfhlmfOyGipxInKznpykFyxrBgEaWGaMQ1otLBhXN5liXGHWyhMq3D0IOm9M2yHWIwESIIEGE7CwC/sck3Zhw8g6EkbW2Q3mwuYTEqCBlRCYScXh0H6NKQ7tMK4+DYTaSvgdT5jEiLqQAAmQQBoCjlP7mbDEn01JLwbH94Pg+H5hmr6wTmMI0MBqDPfMrZoUigHO7P8JPPV9ITpeydwxCiABEiABQwj0Or//HUuGQ0xQCRHf98WO7MtM0IU69E+ABlb/jIwrgTeriyzbQg4/I44xvjd9MyFemmSENlSCBEiABHIlMGqUI537MZO1ZK5iUwjrCUaq9oAbxjUpqrNKwQRoYBUMPGtzJkVox6V+a+BP2Q3Jmmdm7RfrkwAJkIC5BOrLSFfdj8jvLY3WETYWVgsV0up03tRoXdh+3wRoYJXoDJGyfjp8Ao4xQmWlfo/tw0cboQuVIAESIAHtBFoXcKR9B2ayNtTeVD8N4OUWLq/qh1guvL3RurD9+ROggVWSsyOKNmxb9imNVrfnwg73wtvT1Y3Whe2TAAmQQMEEbPi/XokH5x4Ft/uV5noTRG+LBNH3NFoXtj9vAjSwSnBmOE59H8sWRjg2YnJ6S17QJThpqCIJkIA2Arasn2BbwojYVL5S62D39r+1dZaCUxOggZUaXUEVZX19R4iHsIsFH4078LY0PRDhpsLvfLxxWrBlEiABEjCDAIysI2BkndVobeCTNTnwrboQ7W82Whe2PycBGlhGnxGrj3CkGgPjaqFGqgnj6n+BFWwqvK6nG6kH2yYBEiABkwj0xsq6pPGJotUr2M09WogJU0zi0+y60MAy9gxYZTHHHfQcAokOb6SKeDv6JPCD9YUYO7aRerBtEiABEjCRgOO07Y6o71c13MhS6hFsPNoIjEITOTWjTjSwjBz1lgFSDnwCOwbXaKR6mLmahKnn9YR4/sVG6sG2SYAESMBkAjCydhGWfW3DXTmEujLwOvY2mVUz6UYDy8DRdmT9FlyoP2ykajCu3oVxtQGMq1cbqQfbJgESIIEyEMBy4XaYyUJuWOE2Ut9QqaNCv6PhvmGNZGBK2zSwTBmJXj0Q6+oUzFwd30i1elLfeOsKMe6tRurBtkmABEigTARw//4+Qq3fieXCgY3Suyfau9gGMbLuapQObLeHAA0sg84EhGPYFeEYrmukSrgy3wi8mesI8eJ7jdSDbZMACZBAGQnAyNoAL6n3YCZrcKP079717ftr0Xe2USNAA6ux5OduHeEYpCUeaaxS6mXf8+HQPu6/jdWDrZMACZBAiQnItnWlZT/WyB7AyHofG5TWFKLr7Ubq0cxtcwbLiNEfuZIj5bOYVl6kUepg5mpi4CksC3a+0ygd2C4JkAAJVIVAtFyINSLkL2zo0eV79neFGDOtoVo0aeM0sBo+8MsOlu4Sz0ONVRqlCt503gt8tbYQHRMbpQPbJQESIIGqEYDbxxYwsv6B5ULZqL7h/n5r4Lc3dNNUo/re6HZpYDV4BLBj8G+4+HZolBrwh/ww8G0YV9wt2KgxYLskQALVJYDdhT/A7sLoPt+wbByhCA8Pvc5zq0vZzJ7RwGrguCDVwuFItXB2o1SAcfUx1ujh0D72pUbpwHZJgARIoOoEECdrZxhZNzQqGClmsQJk41iH2TiKPdNoYBXL+8vWZOt6jnD+1ai3Glxwn2KXCYKIMkJ7o04BtksCJNA8BKK0OpZtXdqoHuOF+gPENhyJnIUfNkqHZmuXBlZDRnzVpR05sANvM19rRPMwrqZh5grGVVfk+8WDBEiABEigAAK2WzvQFtYFBTQ17yaUeMr327FqwXQ6RYwBDawiKM/ZhpRuPUqavHrxTQsB42pGIJC42e9q6BbiRvSdbZIACZBAownYsnacbVm/bZQeKhTnB0H7IY1qv5napYFV8GhjmvgiTBPvX3CzXzanxCZ4g3mgYe2zYRKIS8AdNVoK+Vzc4r4X4qWlsz1ueZYjgUYRkLL2O/hkHdWo9mFk7Qoj64ZGtd8s7dLAKnCkGx2pHRfVnrio/lpgl9kUCaQmIGXbhkig+1BsAUp8Dy8PDQ7WG1tbFmxyAo3MOdvrJoIXkq4JTT4MWrtPA0sr3tmFt450pP1cw3JUKXW673ccV1h32RAJZCQQJc/FbO/f44rBC8QP8ALxj7jlWY4EGkugZYCUAx9GnCwEAi3+QDqf1wJvCoysV/9XfOvN0SINrELGuTbMca0uwP5GIc3N1QiitN8UeB27NKJttkkCaQlgxncP5Oa8Km59FYa7B0HnNXHLsxwJNJ7AKos57qBnLWGt0AhdsLPwzsDv2KYRbTdDmzSwChhlR9buwszVlgU09dUmuneN2MgvOMZrSPtslARSErDdtoNsYZ8ft3oo1IGh13FR3PIsRwJmEFh9hCPDZxqVKg3XzWG4bv5gBotqaUEDS/N44iHxczwkLtbczDzFYwr4TeQXrCEFzieNaJ9tkkAWAtht9Svstjo1roxQqeNCv+P0uOVZjgSMIeC2fsdRzqOIi+gWrRNmsWYFfjga/ljjim676u3RwNI6wtGbiRqLi2aQ1mbmIRwXzWQEEkUm9XGvFd022yOBPAhgp9WZ2Gl1dGxZSpwBJ/djY5dnQRIwiEBjN0GpCb43tQ3+WDPQIBi1AAAgAElEQVQNQlJ6VWhgaRvC0a50A2wZt1bT1sR8BGOHiIe0COsxLULR5NlengTwwLkYPlg/jytThepPQdBxQNzyLEcCphHAztnfYOfsrxuhFzaJXIxNIo0LIdSITmtukwaWJsB4+z4Xb9+HahLfp1g4++4CZ9+bGtE22ySBvAg4bu06OP/uGlceNnNci80cP4lbnuVIwEQCDQ3fEIbb4Nlxp4lcyqgTDSwNoyZl6+bCcu7RILp/kUqcimWSE/ovyBIkYDYBbA65E46/W8XVEjO3dwR++7Zxy7McCZhKAC/oT+MF/dtF69fjWtKdr/DdotuuYns0sHIfVWy7lYNfgt/V4rmL7kcgLo4HsOV2k6LbZXumEBi9uC3DA0IrvFd4nc+YolVaPaSsP4oYQciZGfNQ6mHEetswZmkWIwGDCTQwX61Sj+A6+p7BcEqjGg2snIcK07sPwLjaOGex/YrDjsH/IGjcKAaN6xdVBQvUaoizdjgSTe6CGZ8BVZnJQc7OTgxWa/wBUx2+11GPX54lScBgAm7rWthZ+ASeJ07RWoYqPCb0O88sut2qtUcDK8cRRab0Q5Ep/dwcRcYS1Zv2YC1us42FqyKFRruOE+wEg+pgzPJ8Z/ZOYSZTBb6Csd35Qpk767j1ibhBLR+3D/DBegM+WCvGLc9yJGA6ATxT/g/PlMJjVOGZ4iN0A5YomdszyzlCAysLvTnq1lsQkqE9mkHITWRMQXBq3wGOibFTisQUy2JGEmj9mpT2/kpYv8Cb7VLzUxHGxvUwNnYzsgsxlYIP1sdJgi/ioTAJPliFL83H7A6LkUAqAlgV+Ruu9R1SVc5QCfeQ1wPPwYvamGkZxDR1VRpY+Qy/I90aljOKD8mAZaE/YL38sHy6QSnmEmhZznEHnI5ddbGNJt/zVxJi7Ovm9qlvzbBEiJXvZIfvtfOelgwZSxtPYNnB0l3iaagJY6fYA6FPLkTok4OKbbU6rfFmlMNYIuL0cYg4/dscRCUTocSj2DEYOfWGySqydPkIjFxJuu6rSfTGG+glmMWKHUcqiWz9ZVsXkK4zNWk7vvfhECHenp60HsuTgNkERn4Db/FR0OqFi9Sz293ACtdGTMWnimy3Km3RwMo8kt15pF4oemkQyyHvIlI7ttOOnZy5CxRQCgLYuv0Mtm4jOn+8oycFxszhQrz4XrwaJpVadWnpDkq8Vdz3PCybjvuvST2hLiSQBwHsqt0YL03341lT8HM7ivLeEQXMDvLoRzPJKHigqocWD72n8NCDg3lxR3ekdj9Em3RALI5641tKtYlCiXMwy3lE47VPqsGoVaQrX0xay/fClXFdvJy0HsuTQBkI2LLteNuyTyla11CJE0O//eSi2y17ezSwMoyg49T2tWzrkgwiUlVF9vMDkf38olSVWanEBFq/5kj7/SRvsDDGp2NH4TKlS/jttn1bCjvyO0l0+EKsKbz25xJVYmESKBEBOL3fgzmszYtWGT6dq2LF5KWi2y1zezSwUo9e9LBzXm7AmjiDiaYes/JXxM31QZxzGyXqiQpP9v3OExPVaXBhzAxvgpnh+xKrocT3MWP3YOJ6rEACpSEwenFHBnj2WIsUqrIST+LaWrvQNkveGA2slAPYiK2zmI34KPCnryLES5NSqs1qJSfgOG17W7Z9eZJuwBfr48D/aNkyOX+jn9ujn7cm6WdUFruetsOup9uT1mN5EigTASRC3xaJ0As/z7Gbav/Qa7+4TKwaqSsNrBT0sTS4FZYGi0+IybfzFKNVtSotQx05EPGhhJukZ6FSR4V+x1lJ6jSyLB4ge+ABclVSHRATbnfEhLsmaT2WJ4GyEUAg3svwAN+nSL3xsjYVm6tGcCNJPOo0sOJxmq1U6wLwg3kN07NLJq6aoUK5t9xn6DirfoUAAnD+HeffdknQ4Mb4YeA7X0fQQC9JvUaVhUP/AYhgfWHS9vmGnZQYy5eXwOghjht24SGOeHfFHbiX3I6ct4nuP8VpZ1ZLNLASjgferC/Gm3WhsYV6UoBMhYPhqzMTqsviFSSA5bOdsXx2Y9Kulcn4QGy5oxFbLnEuNOx2OhK7nc5OyoblSaCcBFpXxwv/s3jhsovUHzPFP8RMceIl/CJ1NKEtGlhJRkHW1paW9USSKnmU9YX6tvA6ns1DFmVUgcDwQY4c9gFuqgsm6Q0M9Ym9ufoSR0hP0k4eZRHz52TkWDwhsSylTkJmg98krscKJFBSAtgQchI2hBS6iQX+wO8H/rRvCTFhSkmxFaI2DawEmJG6I4rLAyfz4g5kNT8BWc1PLa5FtlQGAvC/+Csu3t2T6loWHyU8NM7BQyN5CiilzoKBdVRSLixPAiUmYOHZFL2Ajy60D6WNsVccJRpYMVnbbv0XmIP9U8zi+RRT6mk8LL4LYcbPOOTTYUqJSwBL1VtgUeDuuOW/LKdeRlRmBOM0+3Dc2iXIu7hvUi2xi/BP2EV4QNJ6LE8C5SYwakVHSmQUEYOK6kdPwGsPrivjXiuqzbK1QwMr1ojVhjnSehUn72KxiudQqGe3RpTcs2NiDuIoonoEbDi7f5QmFg6MkO1hhNxmMhIYWNcmSWz9eV/wJnJ14LXvYXLfqBsJ6CBgu2372cL+sw7Z85OJ59RdcHjfusg2y9QWDawYoyVl23nCsg+JUTS3InBIPgDxRoqdMctNewoqggDChVyIcCFpZmvG+F77GkXomLYNxJm7HS802yatj7fqWwO//YdJ67E8CVSBAF667sNL1yaF9kWJTRCA9IFC2yxJYzSw+h2o1hUQsf0V3OydfovmVUCpx7E0uF5e4iinogRk27rSsh9L1TsVbOz7XQ+lqltApVQR66EX3qjvwxv1ZgWoyCZIwEAC9WUcKaLVlsFFKYdZ41cxaxy5HWBegMfsBGhg9XM+4Eb/AE7WjYs6bXpyx82EI/34/xTVJtspLwE4u/8HF/E3kvYAhsj9MEQ2TVqvqPJwcn8aTu7fTtyeUv/Gy8k6ieuxAglUhACWCg/CUuH5RXYnFOHhodd5bpFtlqEtGlh9jFIj0hHwRC3DZWOOjghncAbCGfwyjUa+F44UovOFNHV115FuDXpZLSna6cLyZ1uKeqxCApUhgBeUp/CCslZRHcIL2xT4DC9XuqTymgHRwJo/YInZgdfTzA6kHjOlnsHbd2EXRWo9WdEgAvU26YqONArhpngLZrF2SlNXdx1ce2/i2sMNO9mB5YrXsFyBVB48SKCZCaw+wpEhdhVaA4qiwGwjXyVNA2s+Z58t235pW/YZhZ2cSs1Cjie8sXPLa1HMq9JOhtke4XsKwQI7XjGNBZbmsUMy+a7dngCI7Uub1h/qQwJFE0A2hKOQDeF3RbWLFzYV+PZqQjwfxYvkAQI0sOZ5GqyymCMH/wc3+CFFnSVIxnsckvGeXlR7bKc6BHAjPRY30tPS9AhvnZchunvieFNp2kpSB7uhZuDte2CSOlHZnvAmHYki3Cdtg+VJoCQEbLx8PYfHfL0wfZV4FDsKNyisPcMbooE1jwFCDJ4rEINnrwLHzvht8wWyYFOJCbR9HXHa3oJBkvh6xoyPH/gzsBT34nuJm9VXIYpMnXpHEnywEnPQ1xVKJoFGEmgdKV1nbJEaqFDsGATtfyuyTVPb4o3oKyMThWWwsc21mOSZPQ84q5XTqqZeIuXQC06t/4JT6/dSaavCs32/88hUdbVUqg2TrjU5rWjfC4YK0fVZ2vqsRwJVImDL+q9tSxSWn7M3bANcD5iBhAbWXFcSnGuvB5QfFXaBKXEGplSPLaw9NlRJAo7Ttrdl25en6VxPaBC1jDk7gFqXxVv3W2n6EtWBgbUkDKwP0tZnPRKoGgEsFU7AUmFk9BRyIOfpHkHQeXUhjRncCA2sOQandWXc2F8qarzgL/Jh4H+0vBBvTy+qTbZTVQKtCyAgbuQYnioXWajEr0O//RQz6IxaRboytaOs7/krCTH2dTP6Qi1IoPEEHKd1G8t2/lGUJr2zWIjnKIKi2jSxHRpYs40Kdi7dggdUYWk2EPPq5wjOdomJJwZ1Kh8B+A7eCN/BndNoDmN/cuB/glmsiTPS1M+1jltfQwrxbFqZvuchDta4rrT1WY8EqkgAbgQPw42gMAd0zGLtjVmsK6vIMm6faGB9QarY2SssT4/3vQ5saeVBAvkQQG7CrZCb8M600mDwHwyD/4K09XOrJ1vXk5bzaFp5vlLrCL/j32nrsx4JVJPA6qv2xsYq5LmPWaz/ICbdis08i1UI6DKcrNgWfhsc239QlK6+CtYXfle6PHJFKcl2ykbAxnmMZUJrkTSKwxfrXcSQioJ7NnRaH2/am+BN+740feiuo8T34df4YOr6rEgCFSUAH+PL8dDfu6juqVDtGwQdlxXVnmnt0MDqHpGRrdJ1O4saHCzH3I1YPVsV1R7baR4CSO/0R+x/PThtj7HFek9ssf5r2vp51IPD/tZw2L8jrSzc1LfCTf3utPVZjwSqS2D04pjFerOoGI/NPotFAwtXEt7678Jb/5ZFXFSYJQgC30PmcUZsL4J3X20gj9/Jvi+QFLX9w0brklv7bm1NKaxn0str/NI1DKwdYGCljqMDA2t7GFi3pWfAmiRQXQII23ACwjacXFQPEdBu/9Brv7io9kxqhwZW5gdSsuHEzf9C3PwPSlaLpfMm8Hk4DrxhvRl4/kZV2nUGZ/fX4Owe+T6kOnCObodz9PZUlXOoBF+y3eBLdm1aUZiF2xWzcDekrc96JFBtAi0DHDnwDcxiYVOL/gOTCu8hhQ52y4/x9LdmVgtNb2Bh9uqfmL3atIhhYcbxIij338bcsc4wLh8HVrCp8MaO6b+2+SWQR/N45NFMH3JBiefgw7Rmo3qKGay9MIN1Rdr2YSD+FAbiVWnrsx4JVJ0ArrHdcY0V5goQCnVQ6HVcWHWuc/evuQ2sgmevEGvoSMQaOrvZTjKT+ovZnasxu/OTuXWCkfWZJdQOiGie3rnamI7Wl5eumJhFHV+JDYTfnnonX5a2bbft57awUy8pMPxJFvqs2ywEEHz0+aLyFDbrLFZTG1iIe3Uvpkk3K+KC6lmKah9eRFtsY94E+ovSH/nHIVswIhB3XFd2hvAvexSp3NdL2w+wuAc7CgvxS5xbR9ut/Z8trD+k1R0+H4fA5wO+dTxIgATmS0DW1pGW9XhRhDCLdSBmsS4qqj0T2mliA6ttNena44oaBBN2ZxXVVwPbsWFcXRs3BVKo1PGh3/FbA/sRWyX4Me0LP6ZMQWx9L8RmjM6XYzeaU0Fb1o62LevMtOIwfkdh/M5KW5/1SKBZCBTqIiPUG4HXgSwLzZOjsGkNLCwVXYelol2LuJBUE55YRXCN2UYUGwoR+q3tY5bvLoYZxysw4/iz8t4MulPnTMYMrZuk37OXxXl7GW6I+6atn7Ze1l1OVTCQ07JjPRJIRqBWQ2L19mR10pdGdPcfIbr7jekllKtmkxpYqy6NXRRv46FrFzFcOKl2wUl1UxFtsY05CKQyrj6X0LNMNnM7IcbPKiNXGJY34xzfMa3u8EubFfgCiZM7PkkrI009BBo9FYFGf5Wmbq91fAqc9H+duj4rkkATEYCrzO14Edu2oC53+V47Ulk1x9GUBpaUbecJyz6koCEeixOqtaC22MwcBHJIf6TUE77vICjsmE/LBjeXBK9KneT7Hb8psu8wsH4HA+uo1G0qcSYMrGNS12dFEmgqAsWm0BEq2Nj3ux5qBsRNaGDVhjnSehcW++AiBliFwbZB0JU6KnUROla5jVyMDKEmwB/p+0J0vV02VpjF+jht6pyor5jFmxT4k5ctMgl01mj0UPoPMAoPK9tYUV8SaBSBLInik+qMe8q92ECzRdJ6ZSzfdAZWVv+ORIPc4HhCiXStcGHEfNkbMV8uz9JF3BTex3LZxoj6Pj6LnKLr5jFbi7hS+2Fn5aVF6Y6b/Z/hH7lf2vawoeRiBBrdP2191iOB5iMwciVHypeLcpvxPR+rOmPHVp1zkxlYo11HBv/N8kaf6IRQalO8Sd+fqA4LayEQpcVB2IITsgjvDhQrrK0bFR8qne555NmMZvA6VknXfvJaMLD+AgNrz+Q1e2rAOf9KOOcXltA2rZ6sRwImEcBO66tgEOxRhE7YRHQ1NhEV0lYR/ZlfG01lYNlufX94tRcTh0Opx2FcpY5D1MiToqptzy/IaJL+YibLwxN8R8yQ/CNJvUaWzSOgYJEJlPuLV9YfSxhY18HA+nF/5fh3EiCB2QmM/IYj3dfhPiN1c8F91MeKANLntL+ru61Gym8mA8vCA/Z1vBkPLwK4L/w1qpJ6pQheRbWRV2JvRAs/OPQ6LyhK7yztIDL6QYiMninwJm6ID8JvAn5o+g+M0a1Jw2rMrhVmGm8J/I6d9GvKFkigWgTwjLwEz8hiQrModS4mIQ6vFsE5e9M0BhYcZ3dEUIabixhMPIz+iYfR5kW0xTaSEhgxULpDn8wlRYQSp2K3WqZlx6Tapys/emFHhh9miYkVtVuU30RWIxgG1p0wsLZJx4q1SKCZCdSXQZqtd4oggOt0auA72EBTvh3acfk0jYEFH5xn4YOzRlwwWcr5Klhf+F2PZZHBujoJjF7ccYNn8Ka2QtZW4FD9ZywX/iKrHN3189glBL+Jv8JvIrVvVNw+wsC6HzNYqWfLcOO+DwZWISmw4vaJ5UigLASwRH8ZDIN9itA3VOExod+ZOmtDETpmaaM5DCy3vgYWlZ/NAip2Xe4cjI2qsQUjfwP5LB7kCKSZ7cCM5a2YsdwlmuTJJklfbczgboEZ3LuztNDrN7EM/CY+zCKnv7qIg/U44mCt01+5+f5diUcxs7hB6vqsSAJNTaDtWwhl9BLujdrtg6rn6NUO0ITzNOu27yR9wIzGTpjRuCVJHZZtFIG21XAjeRL3kQWzaoBZk38F/idIjjxxRlZZmupbiNiM7AUCBlKGQ4kzYLwcm0FCv1UzzzYr9TR8O77Tb0MsQAIkME8CmEW+A/fFrQvBo8LNfL/zvkLaKriRJjCwlh3syCU+woNliG622L00EbuXVkQ7MMx5lIIAMso7QjyEm8mAzPoq9Qyivm9qqk8BZoZOw8xQJuOoO1SF/8nXdBqS0q13YSxGpR8P1YGwEvX09VmTBJqcgKyvLy3xSBEUqrwppfIGFpZG9sHSyGVFnCihEAeEXvufimiLbeRHIIr2jtRJyMeVy5T4S743c0PkL3w/Pw3zklRfHg6sE7NK072DEmElJmATwrfS66nGw8BaLX191iQBEsAL2TN4IVtTN4ko9E3gT19aiJcm6W6raPmVN7BwkjyFk2Qt3WBhhU/Gjgj484zxdLdF+fkTsN3aAbawLsxDMqYv3wo8gRho7W/mIS9PGbgeHsP1sG4WmZipfQMztStBhpaZWjjZTsSNCTFy0h1Q6jU4449IV5u1SIAEIgJF7rwPlToq9DvOqhr5ihtY9Ra8sb9QyKA1ICluIf1qokZgfPwWxsdxeXQZBvcHgR8itU7XuDzk5SUDaYP2QtqgK7LKU2G4QxB0/j2rnHnVh6/Ye5hLXCqtbLB/G7sIv5G2PuuRAAl0E4hiR76Wx27r/nmqlzHrvHL/5cpVotIGVuaksTHHElOc0wNfwXm445OYVVjMUAJ5RHv/vGs9qXXE5sLv+Lc53R09BOmiPsBq6AKZdNKYqSB7gmr1IQws+InxIAESyEIgz5n9/vTwldigXGnI+usRLNT+i5S1RMsARw6MgisupLsHSCNyIZLhHqS7HcovhgBmUOCPJbbNozUY3zOEUkit03FXHvLykIEluMtx4WfO1ecL9W3hdeQe/gQG1tQsBiCYf4qwGcPyYEUZJNDcBIYPcuSwd4vI31vF/ISVNbCwFPITLIVcrfviwCxFGPgWdg6a52+ju+/VlY9o73Loo1gu/HYefYziRwkV/gRLajfmIS+zDNm6nrScR7PKwQ3xRvg6/SirnLnrYxdhJt8uXJMzMYM1KG+9KI8EmpGAlG2/wSagX+vue891OxUzz6/+T3dbRcmvrIEFf5qH8YDUHmywN8jkD4saMLZTFIHRC0s3eBqTvLn4BeDmoZQlkL+wIxdH+qwUsBT6Rta8nL0vF/B1yjVhK/LN1jMHbPW99sre27KOPeuTQDIC9SXgy/xBsjrpSodCHYh75EXpaptXq6I3oZErSdd9tQjcWB7cCss/mSJkF6En20hDYNWlHTnouczBOWdvWolTEKhT+9tgf721Ze0427J+21+5fv+uxDnozxH9lotdYPQQ6YafxS4+n4IIlTEQoTJmZZXD+iRAAthRKOu34D5YxETCWLwctVaFeSUNLMxenYnZq6N1DxJ3K+kmbIL87rQRUbT3RfPSBmEOLkGYg5/nJS+dnHySuvYkbJ369fym9WvDpGtNTtenL2vBwEJ0/vFTs8phfRIgASGwTLgZlgnvLYKFL/w1hDd2TBFt6W6jkgYWnGTfzyPHXL/wDZmN6FdPFshIoFZzpHg8i+P13ArAyLoZRtau+B4bDRtz4K30HryVbp619VCJI0K//Zyscnrqtywl3YHvZZXle/YSiEn3UVY5rE8CJNBDAPeLd3KdzZ8fWKX+gFRXh1WBe/UMrJwcePsb3MilJvBnDcdb8n/6K8u/l58A3uA2VMK+DzcY5A3P54D/3j3Y7RbtVszsc5RGI8ep7WTZ1k1p6s5eB5fCO71xpzI5p/fIzCfavO+FywrR+U7WvrE+CZBAD4HinN3F+7gvIrJ7+Y/KGVh4aFyAh8aBuocGD5X78VBB3jkezUIA59aPcW5dk2d/e5JEO0iqOmZannLjysoac+rzdhB4dBfsksxsrAnR9i3p2kiVk+3wvQA7e7veyCaFtUmABL4kUBuOmfzXc0op1idYX4XrCb/z8bLTr56BJWsfFxKzI7cHStlPoebSX0vgPSWe8v1pMNYnTCmaZo7BeLvgnNqWXf9Ro6Qro2TPmQ7fs1qEeP7FTEJYmQRIYA4CeCHDLL61iW4sKhQXBEH7wbrb0S2/UgaWlK0bIbj/g7qh9QYyXBztNGRpR3f/KL9vApo2UcBA6U4S/XGx/NvqmDF6Po82c3nrdOtrYA02c/BS31N1ZFboyKNflEECJNBDAPEld0Z8Se3x/PCMrcQyYaUMLMT2uQSxffbVfjEodS6c8A7X3g4bMJZAnil1vuykegUzL+sgrtSHRXYccaciQyTz7BOWO2/Dsvn2mXSXbetKy34sk4zuN5/gO8LrQhwzHiRAAjkSkJjFQoYUS3+mBKU2xHP24Rx1L1xUlQwsGwP/URHLg3g7/hbejl8pfLTYoEkEcL7V78pjF97sncLuwjcCz0eA3HFvFdVZ260fYgtxXtb2ejZ+CPg+dUxMK0vK+sZI4PVA2vqf16tiXrOsTFifBPIggBn8cxEG6dA8ZPUlAzEm/4QYkwfobken/MoYWFge3BzLg/fohNUtW4knEVhxbe3tsIESEMg3pc7nHcb0+LtIvwQj6/lCguUKMXphR4ZR3k43K/SseTmxkWBLbCTInrdRqU3x9nt/1v6wPgmQwNwEWleWrvOSbi54X/sYM+IItyJC3W3pkl8ZAwtLNldgeXAvXaC+ePiFal9Y1Zfpbofyy0Ig35Q6sxlZkwLfh0/W2LFFkMDs782Y/d0xa1swDqcHvloGs1ifpJEFH4/t4eNxa5q6s9fBrsZtsKvxzqxyWJ8ESOCrBDCL9QxmsdbUzkYFG/t+10Pa29HUQFUMrGhdONo9iOjN+g48PAI8PODcnu7hoU8zSm4sgbavI9r7Uzj/EHspv6N7M4UVbiq8zmfykzpvSXnOACPw6LEIPHpGGp1hYO0CA+uGNHXnNLDEjtiF9LesclifBEjgqwRsWT/CtsRZutnAZeJSBGTeT3c7uuRXwsDCVvNtLVvcrgvS53IxZXk3piy30t0O5ZeRQOvKjrSjlDqL5Kk9zrnPLKG28f3Of+Upd16y4FP2HpYJl8raDgzD9xAoELNYyQ8YWD+BgXV18ppz1sBS5Y8x03xdVjmsTwIkMC8CI5dEvt/3dbMp+zJhNQwst3Ytlgd30z7YYbgHlh0y3/x160n5jSIwapQjnX/DyBqapwa4ycy0RLgdpsq15gKDg/npcDA/Jg/dEcdmT8wg/TWpLBhYe8PAujxpvbnLY4lwH1yrV2SVw/okQALzJoBlwsexTIhdz5oPFW6OF8x/am5Fi/gqGFjRbq4pePMeooVQr1C8lXuBPxMJf5lAVifn0suWtbWlZT2hox8wGn4Eo0FjDJqRK+GtNCfHejXO9zpGJeVgu20/t4V9cdJ6c5cPRfiL0Ov8c1Y5rE8CJDBvArhWD8K1er5uPmXeTVh+A0vW15eWeET7ICtxK5Y9fqi7HcovP4Eo1AB8B+7GTNaAPHsThUEQSkUzM1fmKXd2Wbm+lSqxCXbcJgq5kNdNG9uODgm9du03f13jQLkkYD6BkUs6UsKtANMbGg/c9t7uzXWqsRU9orWC0aPynFLxMDsDyxq/1N0WrOid4dNxs+52KL8aBOAXuAXOyztw63Hy7lEo1KGh15E5btW89MpriS6SjRvjXbgxIs9i/AMG1mF4Kz4nfo15l4Sj/ZFwtD87qxzWJwESmD8BrB49iHvcRroZ+Z6/KnZUaw8NkXc/ym9gufVOQGnNG8zs8nq2nk/G8uDEGTrboexqEYjSSsBH4QYtb3hKnYQ4T7/Jn9joIYiJNQk3zUFZZfcEHg1XSpJ02ZZtv7QtO9UOxNn1DZU6LvQ7Ts/aB9YnARKYPwG8EO2HFyLtS/F4qTwML5V/KNtYlNzAWmUx6Q7+SDd0rMtch62iP9bdDuVXjwACZ/4MgTMv1dIzpf4AI+uwvGUjptyV2DTy0zzkYub3Isz8HhhXFgys42FgnRK3/HzLaTNAM2tGASRQIQKjFsEyYRSkOPeZ+jknOdR9mA3frGzgSm1gYRlmH4Rn0B70U4XBtkHQdUfZBpf6mh+QbpEAACAASURBVEEgN6NhHt1RQlwReO375NrTHP0aMfs7DZtDloy7OUTKtt8Iy/515v4odRqMz19llkMBJEACfRLAMiH8TcUWOjFFO6kDf9ZCuI/M0tlO3rLLbWDJ+t8wsDvkDWUuy3kKLGcsDyJ/LA8SSEkALwPn42XgoJTV+6yGGdabMcO6KwoFecnHLNYbmMUanoc8LNcdjeW638eRBSf707Csemycsn1DUWfBwDoqsxwKIAES6NvAcmp7Ypb+L7oxYTZ8K8yG3627nTzll93A+hQGFqxafQceXlfh4fVTfS1QcrMQcNz6Zbjg8p1t6oWHN7w78SKwTV4sbVk71ras0/KQh1m2tzDLtlwcWTCwfg8D68g4ZfsxsM6DgaU9IW1mPSmABEpPIEoXFqZKjZWk64itdz5i6x2SpE6jy5bWwMLuwQ2wS+th3QAxqLthUK/X3Q7lNwUBCymdboXT+3Y6eovluAexGQO79vLYjNGylCMHvANd7Tx0RQyvXRBe4qb+ZGGJ8DwsEWa+iZY5dk5/jPh3EjCNAF6MHsOL0bo69cKL2mt4URuhs428ZZfZwNIenqFnF9TUYUK8+r+8wVNe0xJwYGT9A4bLlloIKPGU70/bVIgJU7LKh2/F7Zgh3jarnO76SjyJmFhr9ycLmwIuwnLD/v2V6+/vuBlfjpvxz/orx7+TAAlkJ6DTz3R27XzP+qYQz+cUDDl7v/uTUF4Dy613oXOJI0X3B2SOvyv1DJYZ1kpUh4VJoF8Co10pwwcwA7t+v0XTFejyvZkbwiH043TVe2o5Tus2lu38I4uMOW+OoiZEexRWZb4HfL8uhe9XZsMIBtbVMLD2yEt3yiEBEuiDgFtfQwrxrG5GZQsgXFIDa9WlpTvoXd2DKVR4MnIgnai9naZooHUFKe3/863weuF1Pd0UXe6zky1DpRzwIKbVv62JxYu+J74PgybTdYJZrHcxi7V0HjrCn/F6+DP2mTMUBtZfYGDtmbW9OG1lbYP1SYAEviSAmfnJmJnHio++A4tKd8PXdCt9LeQruZQGVp7RpvvC6YvguzAGnsoXeXNKwxr972BM9O7qUq9gyeg637evKdN0b/4jN2Ih6S4YnV+IUpz/gVmc/wSeB7+IcW+llQ5fx1Mw03Z82vqz14OPmB/4wdcRePSD+cmDgXUdDKxoR2SmAzfiv+NGrHWHcSYFWZkEKkYA1+41uHa1xovsCfrdrjXvcJ7DUk4DK6e33L5AYiA/xUBqtcbzHEizZbUMcOTAKBjdV3d8KvVsaIlrQw8zW308eM3uXxbtRi/uuMEzuDGtkEXK/OriPH438K0N0huyLcvB2X1ibtHolTgDvljzDcOAt+Cb0daOWVmkSdOTtU3WJ4FmJoCJj90t2/6rbga+EmsLv/1J3e3kIb+kBlb9VSiOFBz6Diwx3ITljF30tdA8knHh7YUL74r+eoyH4v1IYHd9EHjI+Th+an/lq/P3+vKOFE/BAF1KR5/A9ePAFxsL0dGRRj6Mnn/C6IHjfPajR5eOxeYnCW39PY9dlminlJGfsxOmBBJoFIH6EtIV852dzksrxNU7CnH1zspLnk45JTSwWhaV7sBJOqFEsrGtfG9sK79SdzvNIF+6teeFsOpJ+orlrRtFGF6DMbgzSb3ylq19E0bWEzAultDRh+4ZWYFoyyne/BAkdUcEa8gt0Xkowp+HXucl8+onfL6ww1JkjucFA+tfMOS0J6HVMVaUSQJlJZDmXp+0r7i2b8O1vX3Seo0oXzoDCzf7H+Jmf4tuWL5n40E3RnueQ939aLh8Wf+utMS/0+oRzXgIZd0UWOG1wu98IrJ908oyv96oUcjr9RgMjIV16Br5L+CC3wJLdI8klC9h+LwHvRZPWG8+xdV43+tYbT4G1j1oZ/PM7Sj1OHYAr5dZDgWQAAnEJpBbJoY+WsR97CO472h5EY3d0ZgFS2dgYQDPgbN07glu5+KFbe7tbTEZslgfBOD4eC38i/rcORYXICyrNy2lIuf4q+FT9GLceuUq17q6I53IyNLiyBnl9MJ4bA0j64EkXBAA9CwEAD0iSZ0+yyq1KQyg++cugyXC+zGLh92PGY/ueGDt380ohdVJgAQSECgqALjvqW/B5eGVBKo1pGgZDaxnYGCtqZWWEmfi5nyM1jaaQnh3pvUPYCwgREruRxfW4q8NfQs7EbOFIshds6wCZet6jrAfgKExIKuoedXHG6AHX7edkdfrtvjya9+UrvVy/PJ9l5xfah8YWA+h34jhlfHA5gkYcLpCYGRUjtVJoLoEcA1PwTU8VGcPkanhp7h/XaWzjTxkl8zAGjHQkUOn5ZW+Y34Ay5hUMo+TIW8ZtqyfYFvi5Lzlzi4viraPk/hRGA3XBoGDVCxjPtXZXlGysRS+BcIj3AHj1NHRJngFcDT8MXzcbowrP890GD1ZEgKkvRj7+uzt4w34kXwCsKp2LEOuHrdvLEcCJJAPAbgT3Iv71mb5SJu3FGxCuwyb0PbV2UYesktlYGGZYkMsUzyUR8f7koEo2As21y42LUSjvHvw27GW1CJ9HkLxzJ6Fr++GzxaMrSl3IMXRzKLa1tEOdl/ujNnaG3ILkTCXkpGRg5msPWFkYcm1/wNG3x7wf8zvrVGpryRkhhH3BPrcb0qd/rUVXOaPAYlFSCBvAkW8WENnBFJub8lb97zllcrAKmjgxmLgWvMG3WzyijKG58cVtsNUPKhvtZS4Oqm/kUljZbv1/ZFt+SKdOsVPPzF8kCOHIZ5ZPtP/0RgF/ixEif8yJAdmsJ7EDNZ3svdXvYAZrJHZ5VACCZBAEgJF3ft9bxriKmbPuZqkb0nLlsrAKmTqMVR/wtruAUlBsvw8CCA/laPUb7QlNo4JPQq2iRP9Bt8PrkUwU4SMKNdhy9qxtmWdplPrUIkjQ7/97P7aQDLmC5GMObfrY27jTrr156DD6P706P/v6mUYWCv3X44lSIAE8iXQ/SL2mX5XnnAb08P4lMnAipacPsWgYflO3wH/q5/AwMKDmEduBHoMrZMwdibkkHopVCGc46OdiO1v5tZHzYKwPHc+lucO0tqMEqdgtu/XfbfROlK6zti89MDO0NeQlBm+WD0H4ui0I2YakkJnO+aWm00aa5MACSQhgKX+Ijaj9ZkVIom+usqWyMCq1bCLCTdfvQcS5A4v04NXL428pUchCOxoRmvrvCWnkqfEk0jTc3XozYSj9/iPU8kosBKMrD/ByPqF1iaVOhe77w7vq438lvF6WlGh2DII2u/pMbDqXfgYlbWPcC6bCCdYLemHsurG+iRQdQIwsM6Fi8ahWvupxGN4IVxfaxsZhZfGwLLdtv1sYf85Y3/7rA6fkHcQIXZZnW1QdkSgre5I60QYWj8wgUevc/w/4Bx/BR70/4ROWLky83Dc+g24aLWmcIJxcimMk/3mRyDvZOtYwv0nAgd2BxeFgTUeH5mTX2NM38a1/A0zR5FakUC1CeAesQPSo/1NZy/LkPi5NAYWfD8ugu/H/loHDH46WK7YVWcblD07gXqb46pfIfDlTqZwiYxsXBRXwV/r8rlDCJiiI5bKb9NtnGKJ7a+4Fvacd5+XHezIxRHfLB9n96gN3wtWgX/cBCwRvoQlwsy+U7j5vgejbRlTxox6kEBzEVhlMekO1p4J5fP7hqlsS2Ng5RmDZ36DEQp1UOh1XGjqYFVXr9YVHNc+BobWfGdNGtH3KJ8dwhhgVmsS3sTent4IHebXZn7xoubfKxhZ833hyNvZHb6PF8L38SDM0L2Cm9IXPllpmWPsPsQM1tfS1mc9EiCBbASQxeM13NNXzCal79pwL9gJqw7aU+el7UNpDCzsIMSuBD3pQz6HB/8rONe2d6aFyXpZCeCtRw46DA/2AzE7MiyrtLzqYzbkf8iAeH1gh1cIr/OZvORmk7PsYCmXeCifkAZ9GFlK3QJDJVqSnGvZdNQo6crIXyqXA4ynBf6UpR13wS7clJbPKhQG1mTovWhWOaxPAiSQjgBelq7CtbxHutoxa8XamBNTloZiJTGw6stLV0zU0P8vROKGPAU35CjJboWTCeskmKfslqG2HPhzS6jDYGh9PU/J2WWpcZjpvCL0PATcbLRjfOsC2NEXJdLWGrcN10ZkZP0I7QSz88Os8lNwZF0rO9MeCaEID7eUdTjGPLMfZO/1jDg5PEiABBpBoCC/6dtwb9q+Ef2L02YpDCw4zG0NhzlE5tZ34Ib8AAZqE30tUHIaAtg5t49lq6Py8MtJ035fdSLDA+b4lVjaujtv2fHltSwq3YEPo3zmnXf99PXvuD52mL0Mrsu9cF1eEV/XvktGoRXAcwhmqhF8NNuBsfkM+mrNh5ZNQ9YmgaoTyHeWe160TA/HUgoDC4EWf4VAi6dqPR2VOAdbPo/Q2gaFpyVgwednW8xsHKN7SSyNgo13jB+9uHQDzGRZ30yjf9w6WMb7R+DbOyLfo9dTp2WAIwd8jHFZIK6MospFO0NhYA0sqj22QwIk8BUCUexKX3fAUd+zcf8ZM81E/qUwsOAsdyOc5XbWCbAs2bl1MiiFbNm6niPgEG9ZW5qm75eJp9XlcIyH42WRjvEtSznuwGdwQWsNTQAj614YWdt+bmTl7eye15hiLEIYWFoSZeelI+WQQNUJ5BXXri9Ovgi+K7yup0xkWQoDC4P0IuBhG7e+w/fC1YXo1B7IVF8Pmk1y22rYeXi0difKlFh7ciGK6wIROcZ3PZ1STMJq2I0pnX9jiW2phBUTFYeRdU/gT8Zy4cQZiGm2mnTtcYkEFFQYOUVLcX8rCAebIYHCCWBy5FpMjuyms2H4bv489Dov0dlGWtlluAFJTDPO1DnN2Pu2Gy0n+GlBsl6jCLQs5zgDsHRo7QXDYlCjtOi7XfVCiCCmoS+i9Dwf6tWx9k1HiidwvSyhsx0YWQ/CyEJE/okz8o7snpfeNLDyIkk5JJCOgC3bfmlb9hnpaserhVANFyBUw8HxShdbqgQGVuvq2Ck1Ri8WNR6JYVfT2wal6yUwahFbyoNxQh8MQ2txvW2lkw6jJPJdQsT4KLZWRxQxfo5deemkzqvW6qs6Uj0JDtGuWG0H+vMQjKytHGfh3eDsjsCsZh0wsKQ+xmb1ldqQgIkE4EKwJQKE36VVNyUehf/0BlrbSCnceAMLA/RTDNCVKfsXq1pfARVjCWAhgwgsO9h2F98bJ/aRmJoebpBic6ii3THeHTXaUc7DeUZbnxfLHiPL3xFLk2+Z5uzOGSxTz37q1TwEWpfFBMlbOvuLe+nH8LdcTGcbaWUbb2Ah1s45WP45LG0H49QLlfpV6HecFqcsy5SGgIMQDzsjOfIvoXGbqVp/6Rgf5UH88OZcHePd1u/AyHpQd4BezMg9riyBCOzWXiZxpoFl0mhQl2YlABefSXj50hr0FylzsLmn623TGBtvYCGC+z14QHQngtV1YAfh1liy0TuNqUt5yu2XQPc0tSWOgqH+vX4LN7CADsd4Kds2FJb9kO5uQfcoN6FRqWloYOkedcongf4JYJLkX9rvvUpt6vsd9/evTbEljDewkPx1AuL7fEsnFt+bidQc4/+jsw3KNoFAW71352EUldzwQ40PEcQ09C1EjM/mGF+IH4SBNH1v8uCenY48SIAEGkUAKwnnYyXhIJ3tm7qT0HgDCzNYCFQmtMWz6cmB1m5coESdJyNlwy9AWocqYe+Lc8vodCpfOsYLxNZqjxzj58oJGG80Had1G2E5t6K/keN3UxxYNkAk967PmqKz7CQJGEoAL3j7wo9abxgFpU7HDNZxpiEw3MCqL4MchO9ohabEY9iBsL7WNijcUALdOQ/3g9FxSB4JhnV3Estwb8PP6UrfF9ix1/5m0vaazcjCzPSCmJmempQTy5MACeRIAL6gUjhP5ijxK6KUUNcHXofWeFtp9DfbwJK1daRlPZ6mY3HrYGAuxcDsF7c8y1WSABzi23aED9ER8BVY0/QeRo7xWDZ/CHn7LguCmbfCiJgVV+dmMrJ8bwrCVLz6v7hsWI4ESEAHgVGLSFd+rEPyFzKVeBITJWtrbSOFcKMNLEwt/hhTi9ek6FfsKtxBGBtVcxTsScUT5aTcRmdw27xgRluUhbKuDQL/UiHGjo0jt1mMLOQoG4aUPp/GYcIyJEAC+gjA1WcaVgrgE6nnwCvne3D1WUaP9PRSjTawEAX2eESBPSV99/qviSiwu8G35fr+S7JEcxEYtSKmtY7EjNae2sMc5AVWiedCS1weetOuFWLClL7ENoOR5Xs+toaPnZwXXsohARJIRwDp7jpQU1u4nGhWH7GwXLShKXhzun4bbWA5bv1yKLh3uq7Fq2Vyosh4PWApvQRWWcyWg34B36dDTY0QP3f/8TY3Q1jqxkBZfxZ++3x9H7C7Z1vs7rldL7/GSaeB1Tj2bJkEZieAWFi3YUXgBzqpIJ/wysgn/LLONpLKNtvAkvUoSOJGSTuVpDwcYZeGD8v7SeqwbDMSaBngOG60ZH04/J9GlohAF7YdXhx6M5EH8asO31WeycISIfIxjvmoRGNFVUmgkgQQC+sPWA34P62dU+Fmvt95n9Y2Ego328Bya69j5mCFhH2KXRyzijMxrWhoguDY3WDBggkgeOdmSlhH4I1sk4KbTt0czvXPhCWuD0RwsfDGzpHbs6pGFsI0LIkwDR+khsaKJEACuRCw3dr/2cL6Qy7C5iPExFhYZhtYmmNgYZxeRLTnFp2DTtlVJlBvcVx1NHbz7Qpja0CJevo8shdcHAQOfLXGTIv0rqKR5XveUkKM+2+JxoWqkkAlCWDD2g8w+3+b1s4ZGAvLYAOrvjxiYE3UOSDwVbkHOw+21NkGZTcDgZalpBxwCGIn/Fx3zq08aWJWawqMw2uCwLoAcbXGV83I8r0Z2FX04nt5MqMsEiCBNATqbXieR47u2g4TY2EZa2BhzfZ7WLP9l7bRgGC8xV+EHIQH6myDspuJwOghthvshWXtw3BhrVSqniv1NF44LsZVMd2y7RtKpft8lKWBVYVRZB+qQWD4IOkuMl1rXwyMhWWsgYUdTntghxPysOk7EAPrqNDvOEtfC5TcrAQQuHSH3sClxgW/62tMehNOfwAjccWyjx12FS2LXUV6M0GUHRL1J4GCCGAn4ce4Jy6iqzncu96BTzWueXMOYw0sW9aOtC3r9zpRIQbWToiBdYvONii7yQm49TUcEflpWTC49OXUbHLK8+w+fLCWgw/WW2RDAiTQeALSrT2PHdh1XZpE4Wng8qMtmGkavY01sKSsn45dT8ek6VTcOr7w15h7R1XcuixHAskIwKdQqsPgp7UP3uKQhJiHbgI0sHQTpnwSiE8A0dz/hpfMHeLXSF7StPyjxhpYjlu7FMsUP0uOOH4N+mjEZ8WSeREYsZAth/4cF94hMLSMms7Oq4emyMHNdnnE/vqPKfpQDxJoZgJw+zkfbj8H6WTge2I4Nuy8qbONJLLNNbBk7VY8gLZP0pmkZRGiwdj+J+0Ly5ePAPy0du8NXForn/bma2zazdZ8YtSQBPQRwMa1k7Bx7UR9LQiB2HejEfsOS5FmHMYaGFgifBRLhOvpwoT12v9hvXZhXfIplwRiE5D19eGnhQjx5UgwHbtfDS7oewpBijsmNlgNNk8CJAACttt2kC3s87XCUGpT3++4X2sbCYSba2C59fHox6oJ+pKoKGJmvB54HeXaSp+ohyxcPgJRgml5GPII7oXZ2wXKp79ZGuNtFjshu94wSytqQwLNSQBLhD/CEuH1OnuPjWu7YuOaMWFmjDWwsKXzv3jIfE3bYCj1DCzdtbTJp2ASSE1g9MK2DCI/rYPpp5UaIpYLfLxAjX09vQTWJAESyIsAlgg3wRKh1lyBoVAHhV7HhXnpnFWOyQZWiIeLNv0QM+NuxMzYKitA1icBjQQk3vp2wlVwOJbL19DYTiVFYxfhCIRpeK2SnWOnSKB0BNrq0rW1+keFSpwY+u0nm4JGmwGTrYO1YdK1JmeT0XdtbJf/a+C176mzDcomgdwIyLZ1HWFFflo/wHuHnZvcCgvyPeubQjz/aoW7yK6RQIkIjPyGdF29u3pV+Eff7/w/U6AYamCtPkK66hWtkJQ4x/fbj9DaBoWTQO4ERq0opf1/Slh7M55W33Dh5P4tOLnrvY/kPr4USAJVJTB6iHTDz3T2Dr7V18C3enedbSSRbaaB5bauJYXzVJKOJC2LNDnHIU3O6UnrsTwJmEEA8bTcBfaxhH0oLmJELOcxNwEaWDwnSMAsAgg2Oh0uD4N0aYXoAPcgOsCWuuQnlWukgeU4ta0QH+jOpJ1JUh6JnvdDoudLk9RhWRIwkICF62ULOI8ejETNm+n0WzSw732qhFyEKyMX4ctl05v6kkBVCThu/T8wOr6hrX+GbV4z1MDSn+hZheEOQdD5d20DTcEkUDiBaPnQOQTLhwjzIBYqvHnDGkSYhlUQpmGCYWpRHRJoWgLIR9iOfITaAivDt/o1+FZjc4sZh5EGlu3W94cX70U6EfkqWF/4XY/pbIOySaAxBFoXsF1nDxtblnEza2mMDo1vFWEaEEdv7EuN14QakAAJRAQQful+zLJ/XxcNLBF+hCXCJXTJTyrXUAOrdqAtrAuSdiZJedNC6ifRnWVJIC4BKVs3UsLG8qG1DWa1nLj1qlAOuwhhXD7/YhX6wj6QQBUIwMC6GQbWjrr6AgNrBgyswbrkJ5VrqIFVPxgzWH9M2pkk5ZGnDNOU7Z1J6rAsCZSXALZIS/dATKH/DIbWYuXtR3zNcY2vhms8ygjBgwRIwAACjlu70hLWT3WqghzDEvIDnW3ElW2qgXUIDKzz4nYiTTksH7Ri+WBsmrqsQwLmEGhFSh0XN5TP8CPx4+DHw0xV9Gn3/ng9n64lpbKGKEvsgZvcXub0QY8m2Mjy08CykConDDGDB9vSCoUV4HcbP/j0ou+i3/3e75zecp//e/bvZ6KsxN+jMjPx0/07vpuOTxc/A/Aztfe7wfichJ+JM/T0jFJJoJwEEDj5fETxg+uCvsP3psH/dMIUfS3El2yogVU7FEuE58bvRvKS2GE0EjuMXkhekzWak0BkyKgBeDAPRP/xOejL3118r5yBsGIGIEMAvle9ZaJy1kBlR5/4UdH39gD4RsEAUkOVsgcKW0VblqOfgUJZ+FSDYPygHL63uv89EE7rg1AXv0f/FgN1bnNuzrEtrtc4P6ZiHGeixZmw+WZirPG7miEU/o3fEcen529CzED0/u7vRIhyPb/DYFMzYLnN6v4+qh9G34U95fBjWdHv9gzfCmbCgIx+x4+HHwflJD6n4seMh09x1NmSKQSkrJ+B8/qXOvXxvRnLCPHiezrbiCvbTANL1g+3LXF23E6kKUf/jDTUGl2nZSgeMAvCxsBnuCB2zC2IBxZ+t/CdWlDZ+F3ZQ2HAYA1ewdixB8CA+dLYUZHh0mPsWF8YQdYAXPCRQTMA0xEwgmYrw514jR5wtq+ZAK4fvOlbMNhgtHUbfJHx1mvAqehTzcJ1ERl8kVGHMt3f9fw7FLPgT9P7NxVN6/XKieSFMP566/TKs6yg++9+ZPRFcryonP+l7O5yLv79X3y+PV1z1ym+AQRs2Xa8bdmn6GzapAwOhhpYtSNty/q93kFgjBydfHtkj8BU7QIwfsIFsYo1VKoQBpEdGUNDYQwtCGNmQSwFY2bIWkhZkeEEQwkGE07KBTF701MOZSLjiVHL9Y8WWyAB0wjAaXkSDL8pmOmbglm+qZjhiwzCKdF3IrSmYmbvEyT4nYb7xVQr7PkbZvGm+lEZP4j+jRlDF59jPjKtb82oj+0WsTpljn+1qQbW0TCwztR5Appk5ersZ96yHadtZxg731U9BhAMIgGDCL/DQMJSFmaQegwl3PiG5N025ZEACZBAFgKYsZsMYwwGG4yxboNNRL46MNhgiMFAw71tSijCqd1lug02AQPNnhJYIQy2yFjz8Z2NHxe/j5mWRZdmrIugyD9DEHGtAb59pdYRfse/TeBrqIHV9ktMI56hExCc3FeCk/vrOtuoomzd22yryIx9IgESqB4BXwTfEV7X09Xrmb4ewcn9R3Byv15fC5Csws2Q8Pk+rW3EFG6ogVU7FjNYp8XsQ6piyFO2AhLBTkxVuYkr0cBq4sFn10mABL4gQAMr+cmAFZCtLdu+I3nN+DVMytJiqoH1KxhYp8ZHmryk73lIkDvureQ1m7sGDazmHn/2ngRIoIcADazkZ4KUbRsKy34oec34NWBg7Y40eNfEr6GvpKEGVv0E7CI8WV+3cXF44bII0/COzjaqKJsGVhVHlX0iARJISoAGVlJiKO/W1pTCeiZFzdhV4EP3i9Dr/HPsChoLmmpg/RoG1m809hsGljmxMnT2M2/ZNLDyJkp5JEACZSRAAyvNqK2+qnSV1uwKoRJHhn671jBPcXtupIElZe1E7OI4KW4n0pTzvZlLCzH+/TR1m7kODaxmHn32nQRI4HMCNLDSnAsty0l34JtpasatEyp1fOh3/DZueZ3ljDSwbEknd52DnkU2Daws9FiXBEigKgRoYKUZydYVpOto3b2PGaxjMYOlNQpB3J4bamAVEcmdgUbjniSzl6OBlYYa65AACVSNAA2sNCM6ahXpyhfT1IxbBz5Yh8MHS2uqvbi6mGlguW0H2cI+P24n0pTzvWCUEF3j0tRt5jo0sJp59Nl3EiCBzwnQwEpzLoxsla7bmaZm3DqI7H9g6HVcFLe8znJGGliI9rovor1eorPjMLBGw8B6XmcbVZRNA6uKo8o+kQAJJCVAAyspMZQvYBehCsXPgqD98hTa5V7FVANrTxhYf8m9t7MJ9JVYW/jtT+pso4qyHbd2I1Lj7FzFvrFPJEACzU0AqXQ+xAarTy0lPkHew09A4xMkpv4k+jeSWeN39SmSWHd/HwQzHhFiQpROh0dcArK2jrSsx+MWT1OOcbD6oVZMOH3xPd9vxwXCIzmBI6P/JAAAIABJREFUVRYTQg4TrjVMKjlMqXBhyBimLHuYLdRCSNC8qLDFMOT6GgYLfhhuUAsj51fPvy2BBNA8SIAESCA/AjCMPv4yx6A1W1Jo5BL8Iseg+h/KfPKFgQRjCfkFe4woYeOHuQXzG5F5S5KydSNhOQ/qbAcG1i4INHqTzjbiyjZ0BqttB4TT/1vcTqQqp9Smvt9xf6q6rJSRwKhFkBB6WPePtBd0lBqK3wcLEQ5RdpQkGr8rMcQW1iA0tABunoNhsEXJo7u/j/6OE3cI3iZRRwxBkune78VgJpnOODSsTgI5EsC1G83wzIBhMwOfM5FkeYZQ0e9qBl66ou96fqzez9CaYVkoI8RnoUA5CwmYwyjhcpSI2f7UF2Ka8APIdPAzHd+/NClHdSlKMwEYWJvDwLpHZzMqVNsFQcftOtuIK9tQA6u2FZYI74zbiTTlMAhbYxDuSlOXdcpAoAVGmxiAG/NAIQZFn/gJ8Tu+c8UAqRz8rgYo9XkZG3/v+R1G3gA8BHrK4gezcr2/R+XtgcKOZEVlBL63vqiHi6nnd6unLpYYestE33eXGwgDMDIaeZCAdgI4t6dFhgzOvZkwVGZgaX9m97+VwKeYDgNnFv4WGTFRmW6jx1Jf/t5r4OB7e4YVht2fuIa65eE8ngZjZ5bwo387+PHxI/EzEz+D8cPZIO0DXMIG4F/9Azzbb9Oqugq28P2ue7W2EVO4kQYWAo1ugoeU1mzYJiWEjDlWLFYpAq0L4KEUGXn4cWF0RZ9yoHBhBCo1UArbyae73UZhr/yoDRsGJD5VNDuoBto9RqGLhybaUxK/Syzx9vxuC/w7+j36VPi0JB7Ovb9//reeOriRQFQkRzi4dru/+6IO6uJhHsmK6ve284Xc7jaaxfDEjM4HMHSQxkNlyMdmKd8KZgovMpgi48bDZ2TcTMfnAHx2fZbPuUMpJJAvARhYO8HA0rt8p8KNfL/zX/lqnk6akQaWkPX1ccfW6h+FnQa7YqfBDemwsRYJkIAOAo6svwtjC1kWKn904R70xyCYgqS0r0YzSjxIoPIEHKftJ3D/uVpnR32l1hF+x791thFXtpkGltv6HSkcrTv8cHPbEwbWX+OCYjkSIAH9BBAG5G3Lsr6uvyUzWsAy3kfwS7rU92f9kam7zBgTaqGPAAysvWFgaQ2hgKXrNYXX/py+XsSXbKaBJWo16Vrt8buRvCR8sPaFD9ZlyWuyBgmQgC4CMLDegoG1rC75psqFoeXD0ftvgRLnMXyMqaNEvbISsN36L+BL8Kescvqq73vhSCE6X9DZRlzZhhpYbatJ19YaZR0JIY9CQsiz4oJiORIgAf0EHLf+Jm5Ky+lvyeAWlHgOoU/OCwJ5I5zFPYM1pWokkIhAMXmGzUmDZ6iBpT/jNpxtz0AcrGMTnR0sTAIkoJUAAtm+ASfw4VobKYlwzGq9j+XDi33fuRCG1kclUZtqksB8CUhZPxsztYfrROR7M5YR4sX3dLYRV7ahBlbrAsi4jRgn+g5sob808Dr209cCJZMACSQlAAPrdRhYKyStV+Xy2Hk4Czszbwg8HzPuY8dWua/sW7UJ4Pr+C67vPXX20vfajbFrjFFkbuDYTTRd59Zt3LT+HvgdO+gcaMomARJIRgBLhK/iprRSslpNVFqJRzGzdTY26NyBXiP6BQ8SKA8B+FjeCR/LrXRpHAW2xXPdmGwhBhtYmncT4UaFJcINdA005ZIACSQnAAPrFdyURiSv2Ww11CsIBHpu6H34FyHent5svWd/y0kAMS6fwmzsWrq0x8rUG1iZWlGX/KRyjTWwpFvvRGdak3Yofnn1gu91YLcBDxIgAVMISLc2AYFHv2WKPqbrgdmsSbiJ/8n3Z8JPa/z7putL/ZqbgPYXKGwQwcTJmqZQNtbAwlTiQ5hK3FAXKEwl/hdTiUvpkk+5JEACyQnAwHoJBtbKyWs2d40ePy1xbeBZ8NNqH9/cNNh7UwnguT4Zz3XkodVz4IXj3sBv30KP9ORSzTWw3NpNcIbbKXmX4tXADSmEgZVTOpJ4bbIUCZBA3wQwcx0ZB6uSU3oCuLfdh92HZyNdiNZ0Y+k1ZM1mJYDrW6vfIJYIr8ES4e6m8DXXwHLqf7Js8QudoHxvysJIU/E/nW1QNgmQQHwCmMFC/Dtrtfg1WHL+BNQ4ZKyAQ/ys67B8iMTOPEigkQRav4boAP/VqoFS5/l+x6Fa20gg3FgDC85wp8IZ7lcJ+pK4qO8FcIbreiNxRVYgARLQQgAGFsIQWPSNzJFuFE8Lb/YXhH5wEcI8TM5RNEWRQAICq68qXaV1+TpU4Qmh33lqAqW0FjXWwLLdtsNsYZ+js/e+UN8WXsezOtugbBIggfgE9G9uia9L1UrC0JqOwA5XBYF1thDPv1q1/rE/hhOQretJy3lUp5ahEAeEXrvWVDxJ9DfWwEJSyN2RFFJvMmYVbOH7XfcmAcayJEAC+gjAwOqA9DZ9LVAyfLTgB2PdEQhxNvIean3gkTYJfE4Az/Tt8Uy/VScR5BjeGTmGb9bZRhLZBhtYtS0t27orSWeSllVhuE8QdF6RtB7LkwAJ6CGAJcLn8fCv65FOqV8h0J33sDtwafRQgs3FgwT0ELDd2oG2sC7QI71Xqgo2xqTJQ1rbSCDcWANLuK1rSeE8laAvyYsqcQpiZvw6eUXWIAES0EEAM1jPQe5oHbILlBmlsxlVYHuZm8Kk1juY1vpD6E+9hBt/MuOkgHkQgF/17+FXfaROOL7nYfZ7XJfONpLINtfAEq0rYMfB60k6k7QsbihXB177HknrsTwJkIAeArgJP4ObsDGBAtP0EjNCnwYi2Ma2rBb4kR4AGRoDJqfRcP51YGh9hofCpb7vw/913Fv5Sqe0ZiaA9He3IP3dD3Uy8L2ZS5sUcNdgA0s4CErmISiZPh2VehxbOtfTOeCUTQIkEJ+A7lQa8TXJVhKGyseBb68LZ/IXhTtqtBPKfYWldsPtbMFskoupDSPRR+DSWwIv/J0Qne3FtMpWqkwAs9Nj0L/VdfUR52yAIKNSl/w0cvUZL2m0masODKy3cENaNgdR8xSBm+DbCDb6DV3yKZcESCAZARhYT2AGa+1ktcwsjfvLh4Ev1hGi45UeDUcPcRx/F8uy94Px8h0ztZ6HVkwwXZqhMllRPM8n4Xm+qD4d1ctIf2dUFgijDSzcbB/DzRZvgXqOaDcNDCwX0uncqQcxpZJAIgK45h/HNQ+jpBoH3qrfC3wFg7Fj4pw9al1ZSnt/uCnsrvehkydHJpjOk2ZzyWoZIN2BM3X2OcpggOf5ZjrbSCrbaAMLiSH/CgW1hr33PeubjAmT9LRheRLQQ0DK+iOY3Vlfj/TGSIUR9f/tnQeYHlXVx++UNyGBQIAEEEEBUWRNdvdNpEmV3mtoQZDQQaWjoCBFQCnSRYo06U2KdEQ6Ugzv7gZCCyH0kvDRAilT7vef3USSsJt32p25M/Of5/FB2HvPOfd35505c++557ztOR6crK53vmlBSz/L6r8Dtg/3xd/WUxoSkdLwvy4wLc5D3cPJKYmlmFITqLfZNRGkYFF2oWrBxTgNq7T6S1TjtXaw8LA9CQ/b46IOKlJ7KTbCScJ/RerDxiRAAkoIqC7yrsToEEKRSX2S58yAk/XS+303H/Y9267ti7Z7wtFaMoTY3JvA1itRYPoMFpjOfSq0NsCy2rdB2qXbVRrpS3GM7zb+pFJHVNlaO1hITLYXEpNdFnVQUdojMdm+SEz2tyh92JYESEANAZw0+heOtWygRnreUuVrrmPByRo7pYklFl5IW+HjMljV2hTOlpm35c30Y1XrPrxMUGCaH6vNWFXx78iBdShyYJ2tcuzIa7kL8lreqFJHVNlaO1i23fZTYZhqk4ZJeSpOEiqteRh1UtieBKpKACtYD8Ch2KjE43/JdVzEmIWtCdj2bds29pGGsRce1t8pAJcufLSe5XkWCkyPdQpgL03MgADe5efiXX6wSlWu8FcTTuezKnVEla21g4X0MRnkwpLXeU7HblHBsT0JkED6BLCCdS9WsDZNX7JWErtc5wukh5nweQSrTNtu3VgKK1jV2gqMgsM52l5BcD+2D8/3XQsFpsd+pq2hNCwTAvhd34F7dmuVylzHw7Z610cqdUSVrbmDlUkurKewglWaU0tRbwC2JwGdCGAF626sYG2uk02KbBmLF8K6eCF8GV3+yCGm7e1lGmIflBXCIR19ryBxqZDGFUhQhO2hcUoTR+tLgZYhB1aQXV1ZdQPcZzNwgnAB3Ujr7mAJnCR8U+XSeE9CwI7FdZsY2kMCVSSAL9078aW7VSXGLsXTrjt5fSHemRZ3vDgItK4MTiBKYwdw0+4FM3tceM76cAZv94REgemOp+KOl/0KScDA73qG2lVXOR45sH6kGx3tHSzkxXkEeXHwpafuch3xbZyCeU+dBkomARIIQwArWLdhBWvbMG1L0QZJPOFkYUs0vpPVw6F9sFkToxENj9I8hnYvmrnmSspnpTROx5H6W0sxhxxEEwLI+VazXlaJCQ783Vgo2VKljjiytXewrFr7lYYwfh5ncKH7SH9T1+28P3R7NiQBElBCAF+6t+JLd3slwmMIRSzRFNgzJEbX0F2g436U+Egv7qzWvorliz3xYbobbF8ktCEZN0R+sLek8M/xnY8vSu5gZmw81YUmgBOxOyJFw02hO8RoiPXRC+Cw/ypGV6VdtHewsIJ1PB4UJ6ik4Et5lO92nKlSB2WTAAk0J4APqpvwQbVj85YZtcApY6RL2Eb1qhC+wO/BF/gW6Y4qSGJa2xant8ZA7kZwtqx05acjrSdxqbzAdb1zw5+uTEc3pagnkEU+S1/4h/tOp9I0EHFIae9gZeL9CnkNThIqzRgfZ3LYhwSqRgAxlzfgobSzPuMO6pt5q2OLA+lijHaVdmFF50bPaeyiRkfLUqbdf0/TkHtiHFrVa5s9XjhaXwkpLvM8DwWme8t6r4YMpaolkMUJQiG9zVy36z61I4kuXXsHCwcPfmjX7JeiDy1Sj07XaSh9eEayho1JoKIEsIJ1LVawRus0fFfKtYQ7rcu2BzyE1fRVVNoGJ+tqOFl7qNQh7PoaliHHIDAehafFwkp1xRAOR8tF6SA4m8apzBAfA6BmXfCbfgO/6eVUmqVrHHUBHCyBEwjt0xH42k/VBGF5fuasI554vvEiARLIiwAexlfjYfyzvPT3pvdrp6dlIdvud6/KAvSBfiTqvBDVJX6hnsEyAyxrcdRBNFGaR8/s+d3xaUKcKtzGY+p5UEP6BJYZYNeGfpW+3K8l4v39Kd7fi6rUEVd2ERwsgRwaYzHAEXEHGaYftgGQo6PrhTBt2YYESEANAWwRXoWHktoVnIim9+TYmbpET2JQxDXZ/e5SnW0++6DdYcuadg2OFuogCmOFiIjUN5fyGThbf4LjeUfgg6pXSA2pELDb17QN44lUZPUlRMpHkMvyp0p1xBReCAcLX7VX4Ee/Z8wxhuqGB9ponEK4PlRjNiIBElBCAL/1y/FbD4Kytbp8IQ/znY5zZhuVTVyJfxJONx+fNQgcLFpPGnBypbELVrYGZK1/fvrgWb2Ok4dnIKD5Yp3soi29EzBr9QOROgTZ/BVe0j8Pv5NDFGqILboQDpZp1w9H1uI/xx5lmI74OkKh0mPCNGUbEiABNQTgYF0CBysoB6Pb9TLiNFee06gsAvJxwvnXOOF8Rj4wWhbCKcSdUGsaKR8ESvvoc3WX4jECR8u5VIjxU/WxjJbM9Rux6n9FqfIDVFLB4sg+WBy5TKWOuLIL4WDhmOeG+IE/GHeQYfrpmqgsjO1sQwJlIYBTw39Bzhwky0x2BTmWDCnfR7zUaskkfd3bld46wu16fB4nS/mWJlbPfonVs7+kNY54coavYNv2mGBlS2Vljai2wdH6DCkeLnRdA0f0G5Oj9md7tQSwGvokfoM/UanFFXJV4XQ8p1JHXNmFcLBQ9HkJHJP+MO4gw/TDA/ltnN4pQrX6MMNhGxIoJAHbbjsXQdcHJzUehYYnCl8cB2ft2qSyZveHzGuRzuUbAfhZrLpJ39/d8zqvSWssCeQY+ODdAOV5glOI2+myhQhHazoisy71vOl/FOKl9xOMj11TJICt9M9Un1R1nU+wjT1peopmpyaqIA6WEDhJ+DECSxdLbeS9CNL1qKfKMVM2CehEAA7WmXCwjkhuU5C/qqMFz4138dxYMrk8RFbPFew+t0TLqp+PrZBfpqGnNxndtfyk3BVOltKM2NHsH7mIWXN3NiUSmRpi9Wh91bQO5qgnl5YPR4u5tNRQDiu17Ud2zVR8cKz7d65lXreAUoEcrPq/VB8lxvHonXBK5eawtw/bkQAJpEsAWwqnYUvh1ylIfQkxUy2I3zwO8ZsnpSCvW8T8MkbDOTwRzuHv09I1rxys0qBWstxh1kk6VWpiykW9Odsag52APfCc/lZMIal1C1Lv4O12pefMPAUxWm+lJpiCQhMwa237m8JEGSR1F34Tt6LM1Ch1GpJJLoyDhQfvWXjwHpZsuE16a3waQem4KZwENCGA3/nJ+J3/LgVzxsHBahWiPtSuiY9SkDdLxPy/mOHQHQ2HDqsn6i6sZW2OoN571WlIJhlxdJsLUwTpHrQoeQSn73LPmXEiHa1k8xq1dxY57XwpjvfdRmofUFHH2Kx9YRwsy2obY5jm5c0GlPDvY/FQ/nFCGexOAiQQk0B6q0CyA1sH9cCMtAvGu1KsO7/El2at/VBTBEHX6i5X+msLt1NtfqHE5rcPNmvG7jimvydEKc1jGMZUxNBhRcvHy7jrjTDt2SYZgSwyuGPXaTus6N6ezFJ1vQvjYCHQfQQC3YOEo0ov15k8kJXdlSKmcBLok4Bpt//ONIyTEyOS4r9IuzKrrE1bHbEgzyeWOUtAX8Huc8pXnf8HW2BfeK6/HpyF1MaVFp/e5SAexxbYQjSwhWgMVatr/tJ7MvMbcLSen5CnHeXWvfK37NoC76keo+vI5YXomKRaT1z5BXKwhI0TCZ8rP7UixYZ4MD8UFyj7kQAJxCeQ2habFE/jd7zGbEuw9fgEth7XjG/Z1z0R9+F47hdDejK7931h1X136LwKDoWS5yzs+NhzJcbY8Voa48pIhmnbrRtLwwwSmW6r/Hnex6C6Dw0Y4gbPMZHIlY5W2nOPe38n7DjdmLbcOeX13P8N/A71vZT88FUNFw/JR/DAWleV/G65Up6AtPvYr+dFAiSQNQE4WEcghunMxHqlfAK/4/8lx0Rc0I5I2ZDaCbx5M7v3ZS/07ga9ytIrBAk34WQhz5C+X/F9z2WQyLR/UHD653kmMsWK5PXYOsQzv+uVxPcdBXQTwKna83Cq9lcqccBJvg01CLdXqSOp7KI5WKfAwfpt0kHPrz8m7UFM2sYqdVA2CZBA7wQQv3QI4pf+V5ImNqde6pNhBRwpG8TSsWXO3XFWEH1zaaq/5uEgvOE5LlayXlCaK7D5SJO0qH/XtMXPTUPuhsPtP0giKW7fnhNpAqdAG+PjymC/HgJ2rR1b10Z3DKSqCwHuRyLAXW2Fl4TGF8rBgle8GbziexKOeb7d8SObhmXHBdGIBUVVgqZsEuiFABysX8DBuiApHPyOH8LveMM55SC+67eI78Kx/XQuFIgfGTYGqvtknWHcDgevlo72eaXIF13Hwhbo2M/UyM9SKmLmbHNnJDPdGScRl8tSc098VkOrYuNZjj8dXViZtPshwSje1govV3irC6frGYUqEosulIMlxEqD7NrA+cY9JCYCAa7j48RLZyMNWZRBAiQQnkBauXPgYN0PB2vTuTUPX9Syrffx4O8f3qK+WyKK53ykSwiddT4o+YXVprvS0v8Ny6R8znWnIITinWlpjE8LGbXW1Wxp7oLgeNRETG31sc+hucJfTTidz2ox9oIagZPAGyMf3P0qzQ8y9+P3vRB0eCr1JJVdMAere+lxHJYehyUd+Pz6+0Ic7DuN81XqoGwSIIFvEsAq9d747v1bUjbY6r8HW/1bzCsHBZovw0Nvr6Tyg/7Q8Sl0BCfi3LDy4GSti1WSe5UFd3dvjVoIcRjrhLWpIO0MYdfXtqTcBfFao9ScRJQNpPbIPZ1EQeajTzNxj5+EOTpO6TikfBQxlusp1ZGC8MI5WFhqvxBBowemMPY+ReDBeQsenFokyVM5TsomAd0IwMHaAw7WVUntwhfunfjC3eabckasbNdkajE2WMUahVWsWyPZa9fXsIR4SJWThefXXXh+BWPHt2IpLwvvgU2EaeAkotgGHBdIY5SYy59jLv+ehqwqy8jmMJo4GaeE1TpxKUxiAR2stp/h+OfVKYx9fg7Wl3hALVziB5RKfJRNArEJ4MU5Oo0CzXCw/gEHa4feDMEX9qP4wl4ntpFzdIQzczeeFVtGltXtZMkHsBITbHOkfvWcjOsYnbpg7QSuNMiyBuwCJ2sPxLitFdc8zOP/ee5MlPgZPzOuDPYLCCwzwLKHfoH5wDeEukv3agazR144BwsJR5dHwtGJ6qauR3KzbM2q9VM+CVSRQFrpFOBg3AQHY+feGOJU3/b4SIu26jSfyXAdZ6lYJ/hq9R9jy+vfcLIGqZhrZLm+EFmuf6FCtp4ye04i4uW+N15s34lko5SnYsspjRJNkdSWrTFWoEdhBVppPd8ghxmc4UXgDE/VnV8BHSzk2LDrk/EjUptgTIo/YQnyGN0nkPaRQJkIwMHaBitYiUtfNMu2jlisCXj4fS8Ndr6UR/luR8zcXfU2y5YPqokpwuik+AOeY8oKUKfBT4kMu20tS5o7CUNuD7bfbqYDB5uWwcGmd5u149/nTwDlcS7Hyc8xijl1oaRdm2IdqYgvpoNVa78pg0KihZnEVO4ECiEBDQiklYqlp+5cR58P+tTybfUwexkP/JXj4xuxIpysR1WdkkMg1iE4tHNefPsK3rPWtqotjW2wLbwtDki1zDua+W0nF3zkmZufxeIHVmb/ipXZgzIfXAyFhXSwUn449onNdUycEBo7JQZXdiEBEohBAGVU1heGlbhUFRysS+Bg7d+3CUGsyJAP09qec4VcVTgdz8UY8qwuw5a1avaj+HBEbbX0L7yU9sRLKfHhgfQty1pi6/KmbY5CgqZtcZpz9e5cTdJf33U7H87akvLpS7fmZ198cC/vhnv5uiLwK6SDJURWE+nv7XmdlxdhImkjCZSCAIK/bUM8lXgs0j8PL81D5icHp51OR2D0UYl1QUA68U6tS6AoNZxLNWloEBi8I07J3ZLGeMshY+QQy3I3wzNe6aGpcrBqPoq0E/n2pdF1BLZ8G8oLSTcfcfMWBXWwgjis9o+UxS3M4tZTOqExqjlGtiABEkiFQG34SFvY/00sS8ozEbTcxHlq+7ZlG2+lkXE6Tk6s3sc4chG75gcreMgSn+6F55lrCLk5uDyYrmRKIwHkqEyxoHrfPOV45Cr7UVF4F9fBqtX/DuN3VwkaD02ma1AJmLJJ4BsEWofhlDCSCSe8Qp4KQ7D7DXiO9HraMKoF0vd3wWrIjVH7fbP9yIG27d+nogBydwZsIdYXbuM/ye2kBBKYTWDFhS17oU/xsaLWp5D+n7EyfWRRuKuFoZACgmF3xe65+n1YKdbDKZxHFQ6FokmABP5HYMSKSAT6WlIgKAR7PArBntRcTr3NromO5u2at4Dzch9WvDdr3jJMi5Z+lt0/qF2YkryvdeLD8QvPdZEz6oWuMJawDQk0I4DUJzsj9ckNzdol/rsUG+J9nDhGM7EdIQUU1sESIiuPWZyGCT06JE82IwESSERg2LJ2rfZWIhHo7Ev/aN/tPC2MnLS2NuC4SM+dgfiQl94PozdEGwvH3q9XcWIazuDHnivXEKIjsTMbYhxsUnICWAm+Cs6E0iLZuGe/wgdMkDOuMBUKCuxgBXu+9aewjI6HhNJrHI5gtyrVQOEkQAKzCIwcghikyUlx+EIe5jsd54SRk2biUaycHYOVsz+F0Ru2DV5ef8ODeu+w7cO2wwvrfc8Nnp+NN8P2YTsS6I1AJukZpLwDVROQaqM4V6EdLNOu/940xImqcbuO8X0hnp+gWg/lkwAJrLiwXRv0WVIOcLB+AQfrwpByDByaCYLdkWwy2YX0EJOQHiL1VAtYZTsbJx4PTWbdN3vD3omeY6wOJyuxU5u2bZRXDAK4N9fDvak8zYUv/AN8p/PiYlDpsbLQDpaota9iC+NZ1cDxVfp7fJX+QbUeyicBEmjpZ9f6z0jKASkJ9kFKgsvCykkzt54r5ZrC7UieamIe4/FBeRw+KEPElYUd9ex28kXXsdZEzr/Ejm1UzWxffAKovnAhqi8cqHokrjN96RS331WbWwIHC0PA0iROLgjUJVJ6cZtQKV4KJ4GvCdi1OnJAJrtwom93nOi7JryU9BKPYlXoUqxi7Rded/iWZq1+gCHlhamf1pLyOdedsq4Q70wLbw1bkoAwsfo7BffjompZBB8BHcPU6khferFXsAIHq9Z+NYJAf5Y+mrklcptQNWHKJ4EeAnhgT8cDu38SHnCwdoaDdVMUGdjqOANbHYmPgPekd5m6uBATEq/E9WY/VgxGY+/h6jTyd80lX8pHXNfaGCtZThRubFtdAoiD3gD34r+UEwiV1065FZEVFN/BwsMGy5PXRh55xA7hj31HFMzmJEACcxFIY1UamdW3RTmNO6KhTTHxqC9/Bv3KnktIU7M1Xmy3YPW+Fm2M828N5/AuBBJvg1aFOamV5vgpKxoBLHBcjAUOJau1czv/3gau2/XvaNbl37rwDlZm6RqEfAFLlMPznzJaQALlJoAVrKBG4BKJRim9zfBAvi+qDJzYQ1oEsUvUfvO2xwm9h3CkfMOkcubXP6jbKIV1F5ysAWnqwRbn9djiHJ2mTMoqJYFMtgeLmJ5h9myXwMHqTtH/NJb2V1N9C3ObUDVhyieBYNu//iYeTN9JxCJ2Ad/hw+2anTgBp4KcWL3jqLWezkJuAAAgAElEQVSuZknrAThZCyfiNU9nHBK4CIcElAcup2kzZWVLAO/djfDefUC1VvyWbseq6naq9aiQXwoHC6drjsbpmj+qADSXTClPQB0v5WkhlI+DCkhAYwJ2rf1VHHBGapT4F07yrYWTfE/GkYAVtH9jBe2ncfrO2Se708fDh1u29RhsHpzU5rmfd/5JKEtyfKoyKaw0BLA9eCm2B/dRPSBs9++J7farVOtRIb8UDpYQ6WR/bg64WIUmm4+HLUhAPwI4RRisICXajneFWEU4jVhFoxFEvgXiOu9KSqYnx1TH95LKCde/3mLZ8hE4WUPDtQ/XCvnEDkU+sXPDtWarChHIanvQQXWExYQYP7WIbEviYHVndX8OQZ8/Vj0J3CZUTZjyq04gjS1/15F1lIGJXWMQq2gvYxVtpaRz4UqxLgorP5ZUTrj+7ctZNePRxNurcygLtjqFNHbCduEt4WxgqyoQsO22TYRhRo5xjMoGd9+diGUMDl0U8iqNg4VtwiOwTXim8lmQ8kRsE56gXA8VkEBFCcDBegSxHcjJFP9yHXdlIcbBSYp3YRVrH6xiXRqv99e94J1cgVWsvZLKCd9/5W8hUSuK0yfbYp1TH15yriH8jbFdqDxbd/hxsmWeBFSVb5p3TIgFHA3n/vo8x5pEd2kcrKy2CZEB8U3PaSyXBDr7kgAJ9E0AaRruQ9D2JkkYYQUL5Wo6JsWXMbJm2d47SU8zqs6J1fv4WhaDkxU4Q6nVUO0Zh1gryapg/LlgT70IBEl5hyK5qBio0i449tM89xNsD06arlKPStklcrAyK/4sRMwj4ConkrJJoCwEEGR+OxybRNsCrjPjW4jb+CAJk7RK0+QTpLvSINse+ADCJlBnMJ0LL7yPPdfB1usLb6cjkVKKSACru/tidfcS1bbDqb8Fpwd3VK1HpfxSOVhp1hObH3RM/G2Y+O1VTgxlk0BVCWD74QY8mHZOMn6sYKF0R8enSWQI0T7YskWQk6tfIjlSPoqwgvUSyYjVebkFLHvRIE/WBrG699IJK/ive86MVeG8/l9aMimnWARwCCU4PDJStdXYHtyx6LF/pXKwsE24pGXb76dep2ueOwkOlu+505EI8eWPVd9klE8CVSOA499X4vj3z5OM23U+QfLN5FsLaRWydR2xnBCNN5OMKWZfGyuCyPiebEVwbt2ygeLQ2C4c+1VMm9itsATqLXZNvKja/DJsDwaMSuZgdW8TPopRraP6BvCl/J3vdpyqWg/lk0DVCKAMzEWGKfZPMm7XaaT0bMPJPFtMTPzRJnPNKWXMqtm6WxKmc/bFC/DfON2FuoXCS0sm5ehPII3fZphRlqWaQEoPoTDIsmmDbcJfmMK4QLU2BrurJkz5VSWAI+Dn4gj4wXHHjxXmGdjCXyBu/3n7YQXoNjhY2yaRB4fkPTgk304iI2nftFbjZtuBl+DNOCG5U1K72L8oBLIJbg9oYHtwG2wP3lkUMn3ZWToHC/kJF0VW448Tf3GGmVkpcXS548EwTdmGBEggHAGkaTgNaRp+Ha71N1vBmfkMzkx6Wc3t9jVtw3girj3/6yfzL1gLtieD7e8Sj2WWAATw/wVZtn+ZljzK0ZdAhsHtX+ADCacHBfIFF/sqoYOFWmZ2/SEEdq6vemrKcMpBNSPKJ4GoBLCCdSJWsH4ftd/s9vhdfogH9FJx+/fWD47Js3BMVkkiEys+12DFZ/ckMtLom/ZhIIRLHIVwCfU5CNMYPGXEJpBVMm/8Tq7C72TP2IZq1LGcDpbVvieOkV6RBWfX8ZYUouujLHRRBwlUgYBptx9jGkbs+EYV2/f4et8Rz5SbkvDHytp0zzUX1yE4HLE0ewhDXoGVfjPJmIK+zPaelGAR+re32zWjkYmlUmzkuo1/ZaJLsZJSOlg4QToQSQI/wsNjQcX8hC/9o3238zTVeiifBKpCwKy1HWYK86z445WvuE7HD+P377VnECj+Ok43IoFp/AtbavtiS+1v8SWk1zOouYhVuZux2o8Tl8kuZntPxk/33tkFt4u3kMj7u7rzCGtfSR0sbBPW2i/Gw3C/sCDitsNy5htYzlwhbn/2IwESmJuAWasfiGWVCxNw6cQpwvYE/XvtCrsOhl3JCh9L+STiNpHiQJOr1r6KJcUD+BhNHLPGbO+azGnqZqw0yLIHvIt7ZFDqoucRiO3mY7HdfIpqPVnJL62DJfDgsIXxbBYg8VW6Hb5Kb89CF3WQQNkJWFbbXoZpXhZ7nFI+AycmtQzmX9sRJO4cHKyMJ3rR5JgTqw+krSvhYNDDWMlC9vtkV0+2dxeJSMdNTCaJvXUhkHxFOdxIevJLukujUsCH4Xro36q8DhbYI+NsF/4xXPk0SPE49oyV595SPg4qIAENCGDrajTina6NbYrCzOkIdj8V22rHxLYt6CjlKXAAj00kI/XOw5a1azZORBsrJRXds6rvrlGmF2VSJgXubyBNydv4qFCeYgTO+Z04/ZuoRJZunEvtYGWVEyuYVHyVYkui0anbBNMeEigaAaxgbY8VrFvj2o0H9f14UG8at//8+9WHIvHoe1jtsePK1yEnVu+2o0i03e9eOJBYgUp6yReQ7X01HQL6k46kyv3xW9wJv8Ubs2AgfX8rz+u8KwtdWekotYMlxIoLW/ZCwZJ+f9VAy5J5VjUnyieBZgQQULsZzrbd06xdX3/HVsPtSNOwXdz+zfohvvMKxHfu2azdfP+ubQ691gUt2/wHnplBlvZEF+bhQcxDYjmJjGDnRATSSE8SxgB8dHyAjyJsDwocAi7PVXIHKwh2r/8dg1SeeyY4ReO5/nJCdL5bntuDIyGB7AnYduv6wrAeiqsZT+gbcRJpl7j9m/dr+4FdM19p3q7vFrDxBti4axIZCvtaeG5eg+dmYobM9q5wllSLTivBbhg7pfgDwmxi574LoyKPNqV3sITdurZtWI9lAlfKMxFbcVQmuqiEBMpKwG7/CTKnPxl3eFkkKkRcyv1JVnlm5cRCMtSxn8Udp+p+WEk8HyuJybO087moeqqUyMc9HqxkKlsJnm10kEcNwe1IzfDC20oGkqPQ8jtYgGvX2vG1afxANWfcJ0jxPwWJR9+ZploX5ZNAeQm0jrBr1ti440Mds4tRx+yAuP3D9MPWyUaIVXogTNu+2vhCHOg7jYuSyFDdF0lfj8RL4vSkpcd8IX/hOx1JUm+oHirlz0Wgu8j562kkom0GVm3MZDPtav9eCQcreEggM/QZalH2SMeD5FA8SJLlysnCUOogAW0JtP0IW3AvxDZP+ue5buchsfuH7IgPt5cTnbpTlk4i5ABCNkOg884oXXRNssB+vEalsRMc31tCqmWzHAmktnoZYgz4IBqF+yL2oZYQKnJrUgkHS4gfLo5Eae/jAVFTTRqrWO8gsPM70FOqYD3V3CifBL4mMOx7dq02ITYRKU/HVv1vYvcP2TEoN4MttKtCNu+1mev4SIvQ+WoSGVn0DVbspDDuSJL1vTtOVcj1hNsRe/s3i7FSR8tClt0fh8OSZ/hvxrInb1oDuz7Ca9a2iH+viIPVndn9Wpz8GZ3FJJXZI8+CH3VUnUDbt7GC9U5sCtI/CStYx8fuH76jhTgVpGwwlgjfZZ6WGTmDse2bs2MKWd97wigkcmR1vpiKTRSSOgHTbvuNaZh/Sl1wbwK1zAmX3sgr42AJkWmxyv/iRMQq6U0TJZFAlQggH1Ot/8dxR+xLcYzvNjJ5QSR9GcHh+BAr3gh2L8o1YmXL9oPSOsvEtRhj/shzg1xbjTfjymA/VQSCagWLvoHVq0zuSeSPxMdJY7Kq0eQtt0IOFlax7PYH8WDYMAvoWMXaBvvKd2ahizpIoFwEWhdEkPvUuGPyhX+473SeHbd/tH7Jt1NQamsLlNqKnfcrmr1ptG5ZCg7ww5AUu6A24ide9xxzpM6nKNMgVTQZWcYrIyjvEtTx3b9ojKLYWykHy7bbNkaw5v1RAMVvK8e7TseP4vdnTxKoLgGUuYodw4jTeQfhdN5fs6KH+KRzcKIwdlA9VnRuwSrWjlnZm46ekYvYtnc3xr1mbHlSPuu6U1FibMKM2DLYMUUCIwdatheUxVksRaG9iupJzWAsX/ZVzEo5WMFM48EdlLNpVX0DBfKR+n9npP6/KQtd1EECZSJg2XUX2xRWnDHhd7cXfndXxOkbr099acuWwYvJjNMfgb6O55pDi7ea09LPsvvdinFvGWfc3c9IKe5DkPMW+L/wi3nlSQDb3cci9uoPWdgA/+o2fFRsn4WuPHVUzsFCIdndUEj2miyg4xN8ArI1B/m3Yn+NZ2EndZCAbgSwnT8VL+4F49iF7fnR2J6/Pk7fuH1wiOZGHKLZKW5/bGv+CtuaF8Ttn2M/A2O/GGPfN64N2Cq6BltFyqttxLWvGv2CsnKD3sJHzSJZjNcV7o+FMy52rrssbExDR+UcLEALTv68mUV18O4vNF/8HA/7v6cxWZRBAlUhgBWsyXjYD4kzXsQ0bYeYptvj9I3fJ1lyVHyCFfpgDMIvTkT4RexSJziYcDwOJpwUnz97JiGAbe5TsN372yQyQveV4nEcAsPWcPmvKjpYwqy1H2IK45wsphdLV29hFWsF6Cplno8sGFJH9QjgI+id2B9B0tvMdbvuy5qabdcfE4ZYO65e1zG+L8Tz8fN/xVWcUj/sDuyL3YFL4oor+vjjjjv/fsMXtWwr2OKOtWIc1X5s4W+FLfy7ovYrYvtKOlhCBEdRBwf5axbNYtKw/L8/lv9jP3iysJE6SEAnAig2/BoeTivGsknKnyLR6COx+ibohMSjWyMK647YIrLL3xXbxGYdkfV9S6xk3RQ1SSVeunvjpXt5M/n8e/oE8GHwZ3wYHJ6+5N4kyldx+AvJdatxVdTBQrC73X4ylkR/l8U096ximXhZjHWy0EcdJFB0AihDg1I5RqxTuK4UPxFu4z95MEA80kTEI+F0VPQLz4m3sdodVIEo+DV8OFZEgpQ4QYbu+V7BaTJEuiOMovPqZm35dxUEWpfAXGG1WH2Vk8B6bN+Pwfb9lSpGoqPMyjpYQtSH4uRPsA3RL4uJwRGZg3F0/PwsdFEHCRSdAE77/hdjQJ6k6BfKz4xApvBG9J7Je5i1+gE4Shg7RYQrvDWE0/V0ckvyllBf2q6Je2FFnye2ZzlXu8K5ujFva6uqH9u6F2Jb98Asxg9X+j2cGA0+ICoTLlNhByuIdq9fhCX9TBKd9WRsthCLNfarLG5m6iCBIhPACvMTcXMsuY67shDjUIg5j2uZAZY9JPhwi5VLCIdizsehmIPzsDx9nUES1n43gsXmvcnGtuAeXLlKn3p4ia3LI6HvxPDtk7XEQYYjcZDhz8mkFKt3pR0sIYYta9m1iUmqxEeabilPRWxIJtuSkexiYxLQjABOET6E3+X6ccxyHQ8fMl1vxOmbRp8k+YTwIfYJ8gMFpyfLkhfKhLN81pyJWLGSgZrP/m5cuUrjbosvAwdJ/gHnd7v4EsL37Cnq/MW3q5ZUtuIOVncR6CCHy37hb5X4LfHwnOG5M5EXa/xb8aWwJwmUnwAe/nf3tfLRbPSuM31pIV56v1k7dX9vH2zZBg7RiAFxdGAVa3OsYgXba6W5sBW1DwKpL0ZcXRBzNSr7NBqlQZnOQOzWtW3DeiwdYc2lVHH1KqBSeQerZxXLnpBVLBY8+VuxDz2q+S3JFiRQXQJYwboFDsoOcQi4jsTp4I5P4/RNqw/yQp2J03RHxJGHYPerEey+R5y+OvcBk02kNBaGc3WzznZWwDYTh0jG4fXfksVYq7p6RQdr1t2Fr6u/INDvoCxutkAHTjmti1NOmX09ZDUu6iGBtAhgZflarCyPjiPPdSYPFOKdaXH6ptcnKJ8jkNBY2FFl4oU0zXM/QQzXpOlR+7I9CTQjgDyQByEP5F+atUvr776Qh/pOx7lpySuSHK5gdc9Wy1IIxgyyu2dyohCHVVkIuki/EtqaOQHkwboMD6e94ih2nYYWzzU4iVfASdwzzhhwnB0xSh3XxenLPiTQN4Fg+1og7jibHJD4WPgAdTZxcrCaKYq0eBDp8HPAicLzcKLwV1nZguSjByD5KGISeJEACcxLIO7xccQ5zkSQeH89iLb9ALFYL+NlFvk5i3Hcg3EERZB5kUBqBLJ/z8lfYvUqs9Wy1EClJCjyDz8lvRqKCVax+gcnCmMFpkYdUM9poWnfFeKVL6L2ZXsSKDsBnDw7DSfPfh11nPhdfQHHZOGo/VS1R7D+bfCvto0j33XMofjynxKnL/uQwDcJjFgZuR/H4R1nZUGn6qtXAWM6WHPcabOOEx+Wxc3XrUPKs5G2IaMSBZmNiopIIDEB067/3jTEiVEF9TzUG9+K2k9Z+1r9xwjCei6OfMSuVPrrPw4z9umbAEriPIo3fmZFllkijg7WPHfjDxe37AEoepnVKpbwPNdBXaYXXueDgQRI4GsCcLAOh4MVOSkhTuBNwAk8FE3W54r9YpPyKXyAranPSGhJUQkkrpMZceCzyj4th25lyecWkUBPc65gzYMNq1inY2viqFg0Y3TCF/f9+OLeNEZXdiGB0hIwa237m8K8KPoAZQeKydaj91PXAy+3zRDfeU8cDUiauiySpr4Tpy/7kMBsAjhw8ToOXCABbzYXi3fTwerjTst2FSswAokFRyOx4PXZ3PrUQgL6E0CQ+25InXJNZEulfAKrPmtH7qe4w6y8Q8OiqvGlPNZ3O06J2o/tSWA2ASwanIpFg2OyIoJMshM9pyNYRa706lXAmytYvdx1WNI/CWSOy+yG7K5TKH6Yd3LErMZLPSTQjAAcrG3gYN3erN28f8eK8H1YEd4saj/V7TGeHTGem6Lq0XHLM+oY2D5PAsNa7VqtM0sLsGCAAt6NG7LUqasuOli9zkxQsHXo64jFyixYFl7/lfD6x+h6o9AuEsiSAD5yNsRHzoNRdeIU4S04Rbhj1H4ZtDewioUC1AZKZUW7XMcfIURnI1ovtiYBIXDPPY97LrstcymfwwryqmTfQ4AOVh93QuwtiiR3lhTruW7j0SQi2JcESkGg1rqaLayno45F5w8VPFP2xCrWFVHHhNPGZ+KllVlcaGT72EFLAohjPAxxjGdlZRw+bqTnem1CjEMZHl50sJrcA9i7fhp716tldavg5fCG58zEVuH4mVnppB4S0JNA6zC7ZkV+UCMD+l+QAf2Xeo5JWKix+BZWxlGMOvyF9xZCCDqWCt+DLUmgu1QTauxmcyI+4I3t7Mtwgncfsv+aAFew5ns31NvsmujI9IaR8nR8rf4mU51URgLaEWhdHg7WxMhmSXEaVoGPjtwvow5mrX6wKUT0umxc3c5ohsqhBgluH0CC242yGk1Pgt/pywvx8sdZ6SyCHjpYTWYpST2xODcAgnSRG8vHMmvni3H6sw8JlINAfSg+bj6KOhZf+sf5bufJUftl1365BSx7MFaxDGRpD39hdfsSxGjuH74HW1aVgGW1/cwwzauzHD9Oux6F065nZqmzCLroYDWdpZFDLNtHIWgxsGnT9BqMRcHaIFCw8sdc00NKScUisMwAuzb0q6g2I/v5Yah9dk7Uflm2N+3235qGESn1Qk9prY4hfCZkOVNF1NWyGEq+vYr31eJZWT8rLQMSZgs3K51F0UMHK8RMmXbbb0zD/FOIpqk18aU40ncbkTNZp2YABZFAzgTsWh1hHdEuxGDtixisv0XrlXXrloUsu997WMUaFEUzkjdu5Xmdd0Xpw7bVIoAdl2uQUHS3LEeN39yW+M3dnaXOouiigxVypnDjTsSNiz3mbC5sFU7zXKNViOcnZKORWkhALwKII/k8uhNSjBw8cSpGYKXgemwTjtZrlmiNLgRwSnVznFLN1NFhJZL5zz4drJC/jriJD0OK76tZsFUYnGL0EsphdxIoHAGcuMMqT7RcdNL3tva8rn/qP9j6UMuW78CB7BfW1p6Prk8WE2LS9LB92K4qBLorkLyM30uwjZzJ1RMv7CFje9cbmSgsoBI6WBEmLXbR1gg6vtFUij/gVNTvk4hgXxIoIgGrVn8ND6gVI9ku/fVdt/PhSH1yaoxV8UuwKr5vFPUsqxWFVnXaYrX3QTjrG2Y6YinPxon3wzPVWTBldLAiTVjrSjg6jmzM2V6u8NYQTlfkpIvZWkltJJAuAWShRvZyoz2KVFfIVYXT8VyUPvm1bV8OuYpQMQKloENeCHa/C8HuW4VszmYVIBC/MHp8OFi9et9zv0Jg+ytfxJdS/p50sCLOMWInTkDy0eMjdkvUHJG+r3uOiXissZFPVSVSzM4kkCMB/NaewG9tzSgmuI7RgrjFl6L0ybMtVh5uhoM1KqwNPdsyEttAHZ+G7cN2ZSYQOOnGS9gaXCDLUeLAxQ44cPGPLHUWURcdrOizZuHLGjmqjOBYamYXnKzLkSV378wUUhEJ5EwAMVj34cWxSRQzXMf5jhAvvB2lT75thw+3a3ZXFBt84e/vO52XROnDtqUkELyLsFqbYa1BYOQqavh7iQ5WeFZft6y1rm5J8yl8eWbKD/EX26BK+Z1xTGYfEigaAThYt+AXtkMUu13HRRD4uE+i9Mm7beT4GSkfRezLennbTf35EsAK7ylY4f1tllbAuZqKRNjfQ2B75CTAWdqpi65MHQRdBp2GHThVeCGOxB6YhqywMnqSDVo/wFbhlLB92I4EikogThUFnLot3DPNtlvXF4b1UJR5ch1/GVR7eDdKH7YtEYFa26qWNP4TJX4vjdFj9fQArJ5enIasKsgo3MNIn0lpXdCyraCYZqZFWJl3RJ87gJaoJWBZ9fMQ/v2rsFp60hg0sqy4ENa0pu2wGvEsViNWadpwVgMmIg5LqoztRg60av7LeHkvm+nopHwGK6erZ6qz4MroYCWYQMtq3cowrcy37PAV8St8RVyQwHR2JQHtCcDpOBlOx+/CGooV3o9wwm7JsO11ahcjSeTzWK0bqdMYaEs2BJC+5O94ce+ejbavtWDVFHHHna9mrbfI+uhgJZy9OHEiCVUiyFA42AdHAtJOHGPnRQLlJICafUehZt/p4UcnX3OdDmyhF/NCaaCxsHxEWOsR0I8cYS+8HrY92xWfAFIy7GcKM/MtOv2LqOs5t3SwEs/LsCUt20YGXWNwYlERBMDJes9zBXIENSZH6MamJFAYAjHy+wSVD35cmAHOYyhWsbZAXGf4WoNSnogtmxOKOl7aHZVAW92yzWcQllKL2jNZe/kiPlzaIIMVRSKCpIMVEVhvzfFg3BcPxuyPTUvxNLK8B3mC/BSGQREkoBUBxGDtghis68MahY+OfyMGa4Ow7XVsF2UVC6lbJiB1C0qV8Co/gaC0kuiAc7V0lmPFtrvEhzxWVTs6stRbFl10sFKaSZTReUoYYo2UxIUXI+W5+Io9NHwHtiSBYhCAg7UZHKx7wlqLd8FtiMHaPmx7HdtZVtuWhmk2raWIsU5GmZ2LWEZLx1lM3SYT75cn8X7JPsBc+ueh9NQhqY+oIgLpYKU20a3LY/l2HLYKF0xNZEhByKq7PbLq3hayOZuRQDEI2G1r2Yb5eFhjsaLzd6zo/Dxse13bzXcVS8onpDT+4nnmrUjX4ug6BtqVHgHbbjtXGObB6UkMKymIaZw6HAulM8L2YLu5CdDBSvGOwNfnz/D1eXWKIkOJwtbIV6hqjqD3rhdCdWAjEigEgWhZzpGI93wk4s3hRZQuzHlPJwe/b2HIaz3HOx9JVMelq43SdCaAVdxdsYp7XdY2YoV0pucGGeIb47PWXSZ9dLBSnk0kR7wJS/c7piy2qTh8vb/lOV8EXxufN23MBiRQCAL179o1MSm0qVKegu3yY0O317hhzyqWHOQL+Vff+fIy/q41nixlprUOw67If7Er0l+Zij4EI8/aEb7bOCtrvWXTRwcr9RldaZBVG/hi5kngMA58dfwLMSgbpT4kCiSBXAiMXMSu+aGLGvtSHuW7HWfmYmrqSluQwHj8B6mLpcCCEFhxYas2aBzeI6itme2FFdOHcFhkw2y1llMbHSwV84pahbaw/qNCdFOZUvyBga9NKbFBMQgYWMkJfUKWZTyKMam0sjkB1Kd8ACtXmX8sw7ma4rnOMORX+7C5lWzRjAAdrGaEYv7dtOvHmYY4KWb3RN0QizIasSihj7cnUsbOJKCQAF40U8MeHMF9vyvu+xsUmkPRJKCcAMJMLkaYyX7KFfWmQHobuG7Xv3PRXUKldLDUTaoxK3VD5kdruzO9G946wul6Wt3wKJkE1BNApYR3w+b+kb7cwvM6Qqd1UG89NZBANAJmrf1QUxhnR+uVUmumZEgJ5Ndi6GCljnROga3LoCD0i3hBLKxUTS/CEY/1ieeaqwrx/ISsdVMfCaRFAFuEL0HWD8PIc6W/tnA7nwjTlm1IQDcCQd43nBa9Cyu2Zva2BdnaLZwaZOqPNNnTwUqTZi+y8KMZhZ/LzYrV9CpeCjnJcwR+NB2hA4XzsJM6SaAvAij4/DQKPiMFSfPLddxWpjFozoktdCQQnBi0nsXH+ICsrcOOx3SkZMAJdH6Mp82eDlbaRHtzsmrtl2NPfUwGqr6pQor/uO6M9XAiaWYu+qmUBBIQiBLs6zpiOeTteTOBOnYlgRwI1Je2bPk8Vq6WzEF5UGftIN9p/DUP3WXXSQcrkxkeORDHzf8LVStnom4eJVjJus5zOnbLQzd1kkASAnCwbsaLZ1QYGa4jF+VqbRhSbKMPgdYF7ZqJWFkDJ/eyv7B6dStSMoT6fWVvXfE10sHKbA6Hr4Al4E68LBbKTOWciqR/EmpKHZ+LbiolgZgErFr9Mjyk9grT3XUaQewKcu7yIoFCEDDxAXE/3gl55Zx62XW8H6MCyJeFoFVAI+lgZThpltW+uWEad2eoci5VTN+QF3nqjUsAMVhnIwaraTFzHOr4Ekl28/l4iTs49qs0AaRjuBKhI7nUzsTvZSrKq7UhZnFipSdB8ebfR54AAB5ISURBVODpYCkGPK94vDBOxQvjmIzVfq2OeU5yQ0/F0QmgvucYfOE3fQlJYSBBIrc6ohNmjzwImHb7MaZhnJqH7kAnUppsh5Qmt+elvyp66WBlP9NBfqxHhCHWyV51UE4HhaENb33kyHomD/3USQIkQAJVJoBcV79ArqsLcmMgxWmo9nF0bvorpJgOVi6TPXxRy7ZfCJtAMW0Te5aH/XWx9/582rIpjwRIgARIoHcCWJH9mWGaV+fGR4rH4FytFyxi5WZDhRTTwcptstvqqJT+DJysWh4mYCXrM891kWV+3Mt56KdOEiABEqgSAThXOyE85Pp8Eol27168h2c+TiuO+6RK3PMcKx2sHOkj6H0fBL1fmpcJWMmajGzvP2GCubxmgHpJgASqQADP+m3gXN2KD2orj/HiWT/Dc+UaQnQ28tBfVZ10sHKeeZwkyS8JabBOLMX7+OHByeqYlDMKqicBEiCB0hHoKYEj7oRzZec1OJ4gz4c8Hax8uM+p1Ua9tSDgfERepmAz/m3PmYG6heM/yMsG6iUBEiCB0hGwW9e2hPkvbAv2y2tsSDR9KRJN75eX/irrpYOlxewPW9ayaw184SyenznyVdcx1kKpkcn52UDNJEACJFASAnbbWnCukEhUDMxtRN2l0hrYoeCVBwE6WHlQ701nbfhIS9qP51Hscw5zXnKdaWsL8fLHumChHSRAAiRQOAK1+o8tKR/OrXIHgGHlapLnWKsIMXZK4fiVxGA6WBpNJAIht8Be/T/xo8xxXuQrruMjR1fXRxqhoSkkQAIkUAwCtdbVLGk+hMf4gnkZjNjazz3XGMkDTHnNQI/eHF/k+Q5cV+2mXT/aNMQf87QPXz4TPcfASlbjvTztoG4SIAESKBSBnm3BB/LciYBz5XlCrC/cxmOFYldCY+lgaTipOFl4LWpUjc7TNAS+v4nAd6xkjX8rTzuomwRIgASKQMC2WzeVwrwdK1f987QXZXDGoAzOlXnaQN1cwdL5HrBRs/BfyJuCbOv5Xcid8i5SOKyP3Cmv5mcFNZMACZCA3gSQimFr7AcFea5yS8XQTUjK01234zd606qOdVzB0nauVxpk1waMxS7u9/M0EcvNKKIr4Og1xudpB3WTAAmQgI4E4FyNEoa8Ma8M7bOZ4IP4Ls/t2EpHRlW1iQ6W1jNf/65lS6RvMBbN00z8cD9BwORP4WR15mkHdZMACZCATgRQ/mYMdhouy/dgUrByJf7rup8gbnbSdJ34VN0WOli63wG11tUtaT2WV83Cr7+OcCrFEBsIp/Ff3ZHRPhIgARJQTcCs1Q8whfiraj3N5OMD+B3Pnd7O9DrNSGX/dzpY2TOPrBHpG3ZDzcJrIndMuQN+yFM94W8u3K7HUxZNcSRAAiRQGAKm3f5b0zBOydvg7meya6zGEI68Z6J3/XSw9JyXb1iF9A1HIH3DmXmbix/0TARS7uF5nTfmbQv1kwAJkEDGBAyc8r4Yp7z3zVjvN9QhPna6J+SGwu14Mm9bqJ8OVuHvAV2crACkL/3jfLfz5MJD5QBIgARIIBSBZQZY9tDbEK6xSajmChsFH7qGkJu6bufDCtVQdEICXMFKCDDr7rZd/wOOAx+btd7e9CFX1g2e09gdf3N1sIc2kAAJkIAaAvWl7Zq4F7Jb1cgPLxUrV64h/C3hXN0fvhdb5kGADlYe1BPqRI6sM3By5ciEYtLpLuUTrjt1CyEmfJ6OQEohARIgAZ0IDB9u2daDOCm4ZN5WBc6VkN72ntf1z7xtof7mBOhgNWekZQvkXjnfMMUv9TBOvuo67oZCvPC2HvbQChIgARJITsC22zZGdvZgW3BgcmnJJAQlcOBcbUfnKhnHLHvTwcqSdsq6EGx5iQ7BlsGwehKSeohN6Ho+5WFSHAmQAAlkTgCnt/dBOMbFeScQ7Xm+Sl9IYyfPa9yaOQgqjE2ADlZsdHp0tGr1v2MSgzio3K/gVAueBKNQB+vu3I2hASRAAiQQj4CBMIw/IwzjsHjd0+0F50oikejP8Fy9Ll3JlKaaAB0s1YQzkI+VrOuwkrVrBqpCqeAJw1CY2IgESEA7AisNsuwB12PVCnGlely+8A/wnc6L9bCGVkQhQAcrCi1925qW3Y5Co8a2upiIb657PXfGTkKMn6qLTbSDBEiABPom0DrMqpl34mN1eV0o+UIc6DuNi3Sxh3ZEI0AHKxovnVtbs5ysbXQxEuvab3iOvzXisl7QxSbaQQIkQALzEsChoV1RsPkKfKT214FOsC0oDeMgOlc6zEZ8G+hgxWenY88gy/DV+ALbTRfj8JiYgeDMMQjOvF4Xm2gHCZAACfQQWLG/VVvoAjwz99GFCGOudJmJ5HbQwUrOUDsJOP1yIWoXHqiTYVjNusRzZv4KW4YzdbKLtpAACVSVwLBl7VotOJAzXBcCPXmuxK74IL1FF5toR3wCdLDis9O6J07BnI1TMIfqZaRsIF8WtjCZL0uveaE1JFAtArbduqkU1g3Ib7WILiOHc+UYwtvadbvu08Um2pGMAB2sZPy07m3abceahvkHnYzEQ+Qz3HQ7uG7jIZ3soi0kQAKVIGDi4/MklPn6LeKttHn/4bk4Dc4Vyt90/bsSs1CRQWpzg1WEd+bDNGvth5jCOCdzxc0USnmK63ZoUVOxman8OwmQQBkItCxl2f2vhVu1vk6jQczVF54wNhFu4z862UVbkhOgg5WcofYSLKttDLYLL9Ppi20WtLGuI3YQovGm9hBpIAmQQGEJoOTNJlIY2BI0Bus0CDhXn6ICxjpCjBunk120JR0CdLDS4ai9FBxDHoVjyDfqUPZhTlh4wExFUOdeyFJ8s/YQaSAJkEDBCCy3gGUteg7qtu6vm+F49n3kueZ6Qjz/km620Z50CNDBSodjIaRgJWs7wzT/oaOxiIm4wXO+2k+IV77Q0T7aRAIkUDQCrcPsmhV8uP1QN8vxvHvbc5yf4sDP67rZRnvSI0AHKz2WxZBk19exhLhTp9Mzs8EhlcMkJCbFliELRhfjZqKVJKAnAcSeHmpI8SddEofOTUm+iNPUG8C5+lBPerQqLQJ0sNIiWSg5bT+wbOMhPHyW0c3sIA8MHK3f+27HabANlSJ4kQAJkEBYAi2LIZD9JnxAwoHR8JLyUdeduSVLiGk4NwpMooOlAGoxRA5b0q7ZSJVg/EhLe6V8Ag+iHfEg+kBL+2gUCZCAVgSQ22p9KcygUPMSWhk2yxh8ON7sOR2j8a+ujvbRpvQJ0MFKn2mBJLYsZNv97sIJw3V1NDo4YYMyO0ciq/FlOtpHm0iABHQgMHIRq+adicMye2t4UroHkBSnIfff0TrQog3ZEaCDlR1rXTXZqF94HWpxYbVI00uKx13X+zlis97Q1EKaRQIkkAMBlAXbXBgiKNKs56qVlL6Qch/P67wiBzxUmTMBOlg5T4Au6pEn5kxhmEfoYs+8dgSZjmfFZp2FvzE2S9eJol0kkAmB1iUs2/orYq22z0RdDCV4Zk1HdvbtWPomBrySdKGDVZKJTGMYZq1+gCHlhdous3cPUna4jr87VrNeSGPMlEECJFAsAli12gerVmfoljR0TooIb/g/z/A2Fs64scWiS2vTJEAHK02aJZCFhKRbIyEpTuEY/XUdTnDS0BDyDNedeqIQE2boaiftIgESSJNA6/K2bV0F52rtNKWmLQs5rt70HBfleMZNTFs25RWLAB2sYs1XNtba9TUsIW+Dk7VkNgrjapGvudLfW7hdj8eVwH4kQAL6EzDt9mNMwzhVe0u740W7y39N1t5WGqicAB0s5YiLqgBpHOzazbp/LQZ0EZt1BRKU4oRO10dFpU27SYAEeiFgt65tG9b5+Eub9nykPB0F7H+jvZ00MDMCdLAyQ11IRZZtt/8JaRyO1N16bBt+DkfrZN+1zhFirKO7vbSPBEhgfgTq37Vq8gytTzfPMh/xVl8K6e/qeV3/5JySwJwE6GDxfmhKwLJat8IJwyCB34JNG+fcAPEPrwtfHoHi0XfkbArVkwAJRCYwcqBte7+VwjgCJwQXiNw9+w4vuY6xNQo2T8heNTXqToAOlu4zpI19I1a0a/49yPz+fW1Mmp8h3SUpjIMQCzG+EPbSSBKoNgEDpwP3wGr5qXCsli4CCqxc3eK5n+JE86TpRbCXNmZPgA5W9swLrHHkQMv2rsJK1qgiDALbhh6S/F3ieTOPRcmd/yuCzbSRBCpHoNa2qi3MCzHukUUYO54rjjTEkb7TOK8I9tLG/AjQwcqPfWE1I1/WwahUfya+NGtFGERQcgcPxBN9p+MC2Ms6YEWYNNpYAQKty1g183TEWe1alMHCufrAM+TWwul4rig20878CNDByo99sTXX2lexpHEnnKylijIQBMFPRA74kxCfdQ1s9opiN+0kgXIRaF3Cts1jEGd1QEHirHrwd4cdWFi9HzulXPPB0agiQAdLFdlKyG1ZzLL7X4mH5FbFGq58FRXCToSjdQPsZtmdYk0erS0sgZFDEMD+GzhWB+GZMbAow+jeEhTyRN/t+COfF0WZNT3spIOlxzwU2gpkf98b2d/PQWzWQgUbyEvSl8fD0bol+D4tmO00lwQKQqBlMdvufxSclF8W7xmBZMaO2EmIjo6CwKaZGhGgg6XRZBTblKCMhXkjTgGtUsBxjIOj9ftZqR3oaBVwAmmyjgTaB9u2cTgcq0PhWA3S0cL52YRnwl8871PkAOQpwaLNnS720sHSZSbKYYdl2vXf4aY6DlsAdvGGJBs9jlbnXcWznRaTgC4EVlzYtAcdiufA4XgOLKKLVWHtwKGYjwzh7+q6Xf8O24ftSKA3AnSweF+kTyAIgBfiRpwOWj594ZlIHIsYrT97XuP6TLRRCQmUgkB9qG2LX2HF6hdYsVqsiEOCc3Wb587ch2ldijh7+tlMB0u/OSmJRciZZflnGabYv6gDwl7hm3hZnOM7M/+GB+7Uoo6DdpOAWgKtK1k169c4ZbcbHKv+anWpkQ7H6gvYfwhWr69Qo4FSq0iADlYVZz3DMdt22yY4NfR3PHiXyFBtqqpwiugzQ8hLkRn+bGSGfy9V4RRGAgUlgDqlG80qabNJQYfQY7aUT7nuTOTiGv9WocdB47UjQAdLuykpo0H1oZYtLyxKBvj5zQBWtK7zHHmmEJ2NMs4Ux0QCzQgEp4YNUx6KslnDmrXV/e++lL9G+oUzdLeT9hWTAB2sYs5bIa2eVTT6UjhaSxZyAHMajaSD2FY4E1sKdwffwIUfDwdAAvMlMHxR07YOQlwlUi0UJ7lwn0OS4mnX9UYL0fUGJ54EVBGgg6WKLOX2QaB9sFUzzsWNt0cZEGFF6w1sIV7muzMvwxbDB2UYE8dAArMJ2HZ9XWnIfYQ0doBjNaDoZPBRNBVls45G2ayg9iE/jIo+oZrbTwdL8wkqq3m23bqpFNZleGgvXYYxdheWFuIePLL/htOHwaoWS/GUYWIrOYbWJUzbGGMaxt7YBvx+WRDAuXrYc+Xu2N5/tyxj4jj0JkAHS+/5Kbl1Kw2yrIGnIwv8/tg2LM29CGfrfQTFX4mg+IsRFP9mySeRwysHAdOy2jcThkCKAmPLYuax630igmLvCGQ/nCcEy3GjFmkUpXmpFQk6bZ2bwKxtiCsR37FcmdjgwY4tCOPhnlWtGbdiC3FmmcbHsZSBwLBlbbu2H7a698Q3zjJlGNGcY8BP8G7PNcbgQ2dy2cbG8ehPgA6W/nNUEQuXGWDbQ05CqR2UpijfFaR6gKN1g2F4NzFDdPnmt1gjQsB6zd7FkHJHOFU/LZbt4azF7+1j/N5+ie36oKA7LxLIhQAdrFywU2mfBJAF3pbGediqWL2slPBV/SGChm/CNsytrtt4tKzj5Lh0IjByEbPm7mxIYxScqo10sixtW1CF4SLPm3asEC9/nLZsyiOBKAToYEWhxbaZEUCunV2EKU7DDfqdzJTmoAhf2u+h7tktrjBuFG7HUzmYQJWlJbDiwpa10Hb4WNkJW9UbwaGvlXaowcCQOsV1xb5CdLxW6nFycIUhQAerMFNVRUOXW8C0Bx+Om/QYfHUvVHYCWNl6B3FoN7nYRhRO1zNlHy/Hp4JAy0KWVdtWGCacKrkJfjf9VGjRTOZLKNJ+pOd13KOZXTSn4gToYFX8BijG8FuXQK2zU/GFOgYvDLMYNiezMljZwsrDvcIX93reFw8KMeHzZBLZu7wERqxs2nJzPMw3g1O1dkWcKjwOxBTk6DoBOa0uwtwyLUp5b/DCjowOVmGnroqG11tslNxBIPy6VRo9XiQu0j486Qt5r+/6+EofN65K4+dY5yXQuqBlWRvgv26GbfTN8BD/bpUYYaV3Jn4P57vulyfxw6NKM1+8sdLBKt6cVd5ixGdtjVpoqAdYniSIUSYVL5h3e1a35D2e52B1a/zUKP3ZtogEulep4ExJrFKJdaqySjXvTOFj4x9IFnoE4qwmFXEWaXO1CNDBqtZ8l2q0Zq39EEOK4/GyWbRUA4s6GAT3YmsoOI34pOvaTwgx9quoItheNwLt37csuZYwjTVg2UZlyxEXnbbscKV/sHC7Ho/elz1IIB8CdLDy4U6tqRFoWci2+x2BjJ5HwNEalJrYggoKSvbgR92Aw/U4VrqeQIJTOF48rq75dCKusK3NrJlrYYVqbaTwWAsn/r6luc0ZmSdfRNqFYxHAfntGCqmGBFIjQAcrNZQUlC+BlsVsu//v4GgdhJfTAvnaopt2+Qq4PC5843HP87AC0PWGbhZWy54V+wt74KqmMNfGytTaGPtPcM8uXC0G8x9tUEQd9+sJSBR6DVr6ZEMCRSRAB6uIs0ab50Ng5W9Ztf4nYRUAJw6FRVTfJICVrY/wXzvwcn9eSr/heQZWvDom4L/BD+OVLoGWhQRqQZmGVcfqVDseuHUpjR+VPidVTIhYgf1AGv4pvmOjjudYJ6YYdiMBLQjQwdJiGmhE+gRGrGjV/FPgMgTlQHifNwEMp2sqIHXi5Q9nK3C6gm1G50XWT4xyZ7YuYdtihC/MOu64Og5h1JFL4Hu8/5ozDAoyw7s/3XennCPEO9Oa92ALEtCfAF88+s8RLUxEoL3dssXJeMltkUhMZTvLDqwqTMCDYqJviDcNX0zCitckISZjm7GKL8KVvyXs/stbUiwnDfFdOFLLw4lHmgSjFf9/qcreJjEHjntrOlb2zkYG9tOxivppTDHsRgJaEqCDpeW00KjUCdj1dSwhj4OjtWHqsisqEKsOk/EAmQRHYxJOc77hG8akbgfMlFOEI/CyNPC/xuRi4FkJByRqg2HzYGEbgy1pLYMklsvBaVoODlTPP4Xxg2KMRX8r4VhNg2N1iev6pyImMNiy5kUCpSNAB6t0U8oBzZ9AvcWqid/gxt+DpLIhELxMoelTOCmfwlkJtoI+RR6vzxC6HPy3KUigOh3//iVCwL6CgxakmPjKMORXrsB/wz+FU8N/wz/x35GwG//rQtvWBfHv+J85EH9bEFX2FrSlOQBOX1BSCf9NLChN/FOKBXFEL/j3wXAEB+Pf4USJRaB3MOzo/vfKp/nI5jbo1hJUKAD3833X/CtirD7LUDVVkUDmBOhgZY6cCvUg0LIUTh0egtNK+/MFq8eM0IoyE8BWsy/P8rzO6zFK+M68SKD8BOhglX+OOcL5Ehg50Kz5e2O74lCcqluBsEiABNIhgNXE4FTqvfhdneW6jYfSkUopJFAcAnSwijNXtFQtAdOy2rZFLekjsV0VZM/mRQIkEINAELiOrd1rPMdHOauuV2KIYBcSKAUBOlilmEYOIlUCdvualjAOQ5zODqnKpTASKDEBLFh9iNUqBK6L84tzuKHEE8Kh5U6ADlbuU0AD9CXQuoRpm3vD0dqH24f6zhIty48AnCpkWTcexGGBS5F1/Q5Ywviq/KaDmjUjQAdLswmhOVoSMJCMewMc298PGeKxjYgza7xIoMIEgtOAeHlc7rrOJUK88HaFUXDoJNAnATpYvDlIIBKBkUNM2xtjGmJffLl/P1JXNiaBAhMICokj0cJ9PatVHXdhKPh3XiRAAn0RoIPFe4MEYhKw7fb1kFsJq1pie6R66B9TDLuRgNYEcBTwLUNKrFbJv6Ga0rtaG0vjSEAjAnSwNJoMmlJUAu2DTdvYyxRyZ2EYqxZ1FLSbBGYTQGwVkryK25AM9nqsVt1DMiRAAtEJ0MGKzow9SGA+BOpLmzW5oymNHZDEdE2sbCGROC8S0J9AUHAZHwh3wqm61fNm3MdC3/rPGS3UmwAdLL3nh9YVmgBOIdbMUQacLQxjXQTHW4UeDo0vHQHEVU3BStUdPU5V40EMkKcASzfLHFBeBOhg5UWeeitGoGUxy+q3PVYIRmHg6/MkYsWmX6Phwqn6AEUBb8Pq6q3IsP4ITGOwukbzQ1PKQ4AOVnnmkiMpDIGRi1iWuwOcra1wEnFjOFtBMWJeJKCMALarJxlS3OYK43bhNh5TpoiCSYAE/keADhZvBhLIlUBLP9uu/VRKOFumsRV+kN/J1RwqLwWBIKUC7qUnfSHv8l3vn0KMe7kUA+MgSKBABOhgFWiyaGoVCAwfbtrWVqYwtsKqw6oMkq/CnKczxllB6vcJX97leR5O/o37JB3JlEICJBCHAB2sONTYhwQyITByiGV5W/ZsJUpsJRoLZaKWSgpEQL6G6gJYoZL/dN2OJ2A4g9QLNHs0tdwE6GCVe345uhIRCMr1+MJfA3URV0fs1mqI3RpSouFxKKEIyBelMJ7B6uZY3zEfFuL5l0J1YyMSIIHMCdDByhw5FZJAWgRal7csC46W7Ha48NKtM6N8Wmzzl4M4qvexMvUsMqk/Ywr/GdcVzwjR9WX+ltECEiCBMAToYIWhxDYkUAgCI2ui5rUjfmt1Q8jVule5hFixEKZX3Eg4U9MwZ2PhUD2DAw/PeN5MOFPj36o4Fg6fBApNgA5WoaePxpNAMwLDF7Vto+4LC6tbWOESxggEQ6/E4Plm3NT9Hc7UZ3CmOqChgbl43vNkAytTwVYf81Gpw07JJJA5ATpYmSOnQhLIm8AyA0RtsTYzcLqEHAGnq44X/TBuL6Y/L91JPeFIgTOcKQPOlAtnatzE9DVRIgmQgG4E6GDpNiO0hwRyI9DeblndcVwtiPtZEf9cAY7XCjy92HxCwOkdOKoTpSEnwql6DUk9O1HP73khXkIcFS8SIIEqEqCDVcVZ55hJIBKBkUNEzV3B8s0V4EAEDtcKKLWyAmrYLY8UActWocYinKbPMc434EhNxGrURN8wJprSn+i6BlajnEksjBzphmJjEqgEATpYlZhmDpIEVBIYsaJtu9/BFthQaRqLw/laDIH2Q2SQRkIai8MhWRz/H/8d/98Qi6i0JIrsYPsOcWkfw66PsWKHosfyY6w8TfaF+MSQ+O/C/Ngz/Q+EY8OJGjslimy2JQESIAE6WLwHSIAEMibQuoQQ1hBh+4vZwlwAjk4NBuB/vt3zT2PWP0UNDlvP/+9u0/N3OG82SsAECTUdOEEOVtLwT+EY/uz/1vPvPf+TLpw6/NOY4RreF8Kx4DhNw/9e+SLjQVMdCZBAxQjQwarYhHO4JEACJEACJEAC6gnQwVLPmBpIgARIgARIgAQqRoAOVsUmnMMlARIgARIgARJQT4AOlnrG1EACJEACJEACJFAxAnSwKjbhHC4JkAAJkAAJkIB6AnSw1DOmBhIgARIgARIggYoRoINVsQnncEmABEiABEiABNQToIOlnjE1kAAJkAAJkAAJVIwAHayKTTiHSwIkQAIkQAIkoJ4AHSz1jKmBBEiABEiABEigYgToYFVswjlcEiABEiABEiAB9QToYKlnTA0kQAIkQAIkQAIVI0AHq2ITzuGSAAmQAAmQAAmoJ0AHSz1jaiABEiABEiABEqgYATpYFZtwDpcESIAESIAESEA9ATpY6hlTAwmQAAmQAAmQQMUI0MGq2IRzuCRAAiRAAiRAAuoJ0MFSz5gaSIAESIAESIAEKkaADlbFJpzDJQESIAESIAESUE+ADpZ6xtRAAiRAAiRAAiRQMQJ0sCo24RwuCZAACZAACZCAegJ0sNQzpgYSIAESIAESIIGKEaCDVbEJ53BJgARIgARIgATUE6CDpZ4xNZAACZAACZAACVSMAB2sik04h0sCJEACJEACJKCeAB0s9YypgQRIgARIgARIoGIE6GBVbMI5XBIgARIgARIgAfUE6GCpZ0wNJEACJEACJEACFSNAB6tiE87hkgAJkAAJkAAJqCdAB0s9Y2ogARIgARIgARKoGAE6WBWbcA6XBEiABEiABEhAPQE6WOoZUwMJkAAJkAAJkEDFCNDBqtiEc7gkQAIkQAIkQALqCdDBUs+YGkiABEiABEiABCpG4P8BWjEgzjsO57gAAAAASUVORK5CYII=;" vertex="1" parent="1">
          <mxGeometry x="341.5" y="289.12" width="40" height="40" as="geometry" />
        </mxCell>
        <mxCell id="Oy8kM78HI0bEzsmMR2zc-3" value="Terraform cloud" style="shape=image;verticalLabelPosition=bottom;labelBackgroundColor=default;verticalAlign=top;aspect=fixed;imageAspect=0;image=data:image/png,iVBORw0KGgoAAAANSUhEUgAAAgAAAAIACAMAAADDpiTIAAAB4FBMVEUAAAAAAAAAAAAAAAAAAAAAAAAAAAAAAAAAAAAAAAAAAAAAAAAAAAAAAAAAAAAAAAAAAAAAAAAAAAAAAAAAAAAAAAAAAAAAAAAAAAAAAAAAAAAAAAAAAAAAAAAAAAAAAAAAAAAAAAAAAAAAAAAAAAAAAAAAAAAAAAAAAAAAAAAAAAAAAAAAAAAAAAAAAAAAAAAAAAAAAAAAAAAAAAAAAAAAAAAAAAAAAAAAAAAAAAAAAAAAAAAAAAAAAAAAAAAAAAAAAAAAAAAAAAAAAAAAAAAAAAAAAAAAAAAAAAAAAAAAAAAAAAAAAAAAAAAAAAAAAAAAAAAAAAAAAAAAAAAAAAAAAAAAAAAAAAAAAAAAAAAAAAAAAAAAAAAAAAAAAAAAAAAAAAAAAAAAAAAAAAAAAAAAAAAAAAAAAAAAAAAAAAAAAAAAAAAAAAAAAAAAAAAAAAAAAAAAAAAAAAAAAAAAAAAAAAAAAAAAAAAAAAAAAAAAAAAAAAAAAAAAAAAAAAAAAAAAAAAAAAAAAAAAAAAAAAAAAAAAAAAAAAAAAAAAAAAAAAAAAAAAAAAAAAAAAAAAAAAAAAAAAAAAAAAAAAAAAAAAAAAAAAAAAAAAAAAAAAAAAAAAAAAAAAAAAAAAAAAAAACQixtVAAAAn3RSTlMANYcTP/OIERDyD+yADut3CuoJ6QjibwfhZgTf3gPWXtQC01UB0chNxsRCQLs2NDL+szH9qigmJfqiIyH5mRsZ9ZEY9Bbt4+Dd1dLQx8VDQTMvJyQiGvgXw1hSSxT2VPESDfAM7+4L6OcG5uQF3NvZ2M/ORMzKPL87vTo4Li0wKyr8KR/7Hh33FeXX2s3LwL68OTcgjowsyRxTgX9HPkhBnpRbAAAStUlEQVR42u2d+2NdUxbHj1EXFVJKNJQ0Eo0QJBI02tBoS6lHS9UYFW1RQnU6UkWpej9qBjPmYZ77X52cSiOPc+/eZ++19tr7rO/nZ23WWeuD9t7zXasogG4u+s3F0iUASdaYS1qXShcB5FhjzLwCl0mXAaQoBTDm8tZa6UKADL8IYMwVXVdKlwIkuCCAMVd1r5MuBsTnVwGMubr7GulyQGyWCmDM+u5rpQsCcVkugDHX9VwvXRKIyUoBjNnQe4N0USAeqwUw5kYooIcqAYzZ2HuTdGEgDtUCGHNzHxRQQTsBjNnU1y9dHOCnvQDG3DIwKF0e4KaTAMbcCgWaTmcBjNk8JF0hYMUmgDG3QYEmYxfAmOHbpasEbLgIMK/AHdJ1AibcBDBm5E7pSgELrgLMK3CXdK2AAXcB5hW4W7paQE4dAczo2D3S9QJiaglgzPjEvdIVA1JqClAqcJ90zYCQ2gKUCtwvXTUgw0MAY7ZMPiBdNyDCS4BSga3SlQMSPAUwZtvUg9K1AwK8BSgVeEi6ehBMgADGbJ9+WLp+EEiQAMbsmN4p/QQgiEABDNYLZE6wAGW2HOsF8oVAAGN2dWG9QK6QCID1AvlCJEC5XgDZ8hwhEwDrBfKEUABjHunBeoHcIBUA6wXyg1gAYx5FtjwryAXAeoG8YBDAmN1YL5ANLAIY8xjWC2QCkwDGbEKwOAvYBDDmcSiQAYwCGLNnQPrxgA1WAYx5AtnyxGEWwJgnn5J+RNAJdgGMGX5a+iFBeyIIMK/AGunHBO2IIoAxIxdJPyioJpIA8wrslX5UUEU0AczoGNYLJEg8AUoF9kk/LlhJTAHKYPEz0g8MlhNXAGTLkyO2AGWw+Fnphwa/El+AUoH90o8NLiAhALLlCSEjQKnAc9KPDkqkBDDmANYLpICcAGW2/HnpxweSAiBbngCyAuB0vTjSAuB0vTDyAiBbLkoKAuB0vSBpCIBsuRipCIDT9UKkIwCy5SKkJABO1wuQlgDIlkcnNQFwuj4y6QmA0/VRSVEAnK6PSJoC4HR9NFIVAKfrI5GuADhdH4WUBTDmt3iHnJu0BTAvSPen8UAA5UAA5UAA5UAA5UAA5UAA5UAA5UAA5eQmwO8QKqVjZ+vF7AR4AaFSKg62XjIzGQqAUCkJB7tenm9lngLMK9A6JN3AvLn4/PjzFQC54iAOdx9ZaGO+AuBmtTevdL+62MScBcDNai9e6X5tSQvzFgC54toc7Xl9WQNzFwA3q2uxrueNFe3LXwDkip2Z7X1zVfOaIAByxU7M9r5V0bpmCIBcsZVjfRsrG9cUAXCzuiPH+t5u07bmCIBccVv6B463bVqTBECuuJL+gd93aFmzBECueBX9Ayc6NqxpAiBXvIzBoT9Y2tU8AZArXmRw6B1rs5ooAHLFvzB30qFVzRQAueL58b/r1KimCmDMbaoVmNvs2KbmCmDMsNqz5afec25SkwXQerb8/Q9qtKjZAmg8W356rFaDmi6AtrPlH9YbvwYBNJ0t/2iidnM0CKDlbPmZidH6vVEhQKnAx9Lj4easz/jVCND4s+WfTH7q1xc1ApQK3Cc9Ji4+8x2/KgFKBRp5tnzrlPf4lQlQni1/QHpc1Hw+9UVIR5QJUCqwVXpklHw5fSCsH+oEaNTl+q9Cx69SgFKBRmyY2Nn6OrwXKgUwZvv0w9LjC+Wb1ksUnVAqQPZLRg62ttP0Qa0AWW+YuLDegwDFAmS7YeJQ15HwZ7+AagGyvFx/eMl6DwKUC5Ddhonl6z0IUC9AVpfrj3bvon56CGCy2TCxcrsLCRDgPBlsmLi+Yr0HARBgget6klZgtvdbnueGAItsSHfJSPV2FxIgwBISXTJyrG833zNDgGUkuGSk/XYXEiDACs6ltWGif+A73ueFAKt4LB0FOm93IQECVLApjfUC/QPn+J8VAlTyuLwC9u0uJECANtw6IDv/uT/GeU4I0JYnBDdMzP0p1lNCgA48KaSA43YXEiBAR4Zvjz/+U9/HfEIIYGH4jsjj/yHu80EAKyN3xhv/+z/GfjoI4MDIXXHG/+e66z0IgABOxFgy8heB8UMAV0bH7uEd/0d++x2CgQCujI/t4xu/13YXEiCAO2xLRjy3u5AAAeowPnE//fi9t7uQAAHqsWWSeMlI0HoPAiBAXbZM7qcb/09h6z0IgAD1IdswEbjdhQQI4MO2qefCxx+83YUECODHgdAlI19NE6z3IAAC+BK0YYJkuwsJEMCfHa1DfuMn2u5Cwkyx9q/pVFNBwgIYc6TLY8PEzr8RbXchYSYxIVeRtAAeS0YIt7uQMJPY/5JWkbgAxuzqqrFk5HA34XYXEmYWKiNYOchD8gLUWDJCvN2FhJnF6lL4VKKCDAQol4w4bJgg3+5CwsySCuU/l6wgCwEcloywrPcgYGZZldLfTFSQiQCWJSPret6Qrq8NMysqlf1usoJsBCiXjLTZMMG03YWEmVXVSr6dUEFGArTZMMG23YWEmQph7xZ5O7ENWQlgzPFVByn2sm13IaFKAK/7c1xkJoBZk1m91QJ4XKDkAgLw0k6AojgdPaRSCQTgpb0A8WNqlUAAXjoJEDuoWgkE4KWzAHGj6pVAAF5sAsRcVlEJBODFLkAxOBRpXU0lEIAXBwGiLayqBALw4iRAubLuhFCBEIAXRwGiLK2sBALw4ixAqcBxgQIhAC81BGDeW94GCMBLLQFYLxe0AQLwUlOA+N9uQwBeagsQ+/0WCMCLhwBxX3CEALx4CVC+4kx+wbANEIAXTwFKBeKEHCAAL94CxIo5QQBeAgSIE3SEALwECVAUB1vcUWcIwEugAPzZcgjAS7AA3NlyCMALgQC82XIIwAuJAJwrzyAAL0QC8K0XgAC8kAnAlS2HALwQClAUnzFkyyEAL6QCFMXZyXHiAiEAL8QCFMXfidcLQABeyAWgvn4DAXhhEID2/hUE4IVFAMoLeBCAFyYBiuL9D2gKhAC8sAlQFKfeoygQAvDCKEBRzP0jvEAIwAurABTZcgjAC7MA8woEZsshAC/sAhSDQ++EFAgBeOEXoEyVnvMvEALwEkOAoGw5BOAljgClAt/5FQgBeIklQJktf9unQAjASzwBSgU21i8QAvASUwCv9QIQgJe4ApQK1MyWQwBeYgtQ+3oKBOAlvgDleoH17gVCAF4kBKh1QQ0C8CIjQI0bihCAFykBiuJQl9N6AQjAi5wAjusFIAAvkgKU6wWs2XIIwIusAA7rBSAAL9ICFMXP0x3XC0AAXuQFsGTLIQAvKQjQMVsOAXhJQ4AOp+shAC+pCFAU91ZnyyEAL+kI0OZ0PQTgJSUBKk/XQwBe0hKgKM6sVAAC8JKaAEWxb/npegjAS3oCrDhdDwF4SVGAZafrIQAvaQqw5HQ9BOAlVQEWT9dDAF7SFWDhdD0E4CVlAeYVOAkBmElbgGLwn6czaygE4CbxhkIACJBVvRCAGAgAAbKqFwIQAwEgQFb1QgBiIAAEyKpeCEAMBODmyn+9LN20TuQlwJF/H5aepweOuWIZchLgktal0rP0JMbZck/yEWDH9PPScwyA/2y5J7kIsH36YekZBsJ9ttyTPATYNvWc9PwIsOSKZchBgG1TD0rPjgjOs+WepC/Alsn90nMjhOtmtTepC7Bl8gHpmRHzU1oKpC3A+MT90vNiYD/L2XJPUhZgfOIZ6Vkx8QnD2XJP0hVgfGyf9JwYOUt8s9qbVAUYHbtHekbMnElDgUQFGNkrPZ8IrMgVy5CkACMXSc8mEh8Sni1vjgAjd0rPJSJLcsUQ4DzDd0jPJDKLuWIIUI7/dul5kLO23/ZP/GczBGjs+OcbuqnPqsD5XLF6ATYPSc+KRwBjbhkYtCpwUrsAt9qblCcvuD1d4M3q3AVw+HckVxYa+oT1v2+DQ3u0CuDwf8l8WWzobVYF+gdOaBTg5r6bpIfEyZKG2v+Q632zOl8BNvY2evwrGmr/lMPzZnWuAtzYe4P0gLhZ0VD755zH+nZrEWBD88df0dCRu2y/xONmdY4CXNdzvfRwYlDR0JG7bb9otvfbpguwvvta6dHEoaqho2Mf235ZzZvVuQlwdfc10oOJRXVDxyfutf3Coz2vN1WAq7rXSY8lHu0aOj5xn+2X1rhZnZMAV3RdKT2UmLRvqMM7z843q/MR4PLWWumRxKVTQx1SD9zZ8sgCXN66THogsenc0C1TP9t+A95seVQB8g34B2BrqEPwlTNbHlGAvAP+3tgbum3qIdtvwpctjyZA/gF/T1wa6tCcnS2ebHkkAZoR8PfCraE7pnfafiOebHkUAZoT8PfAtaEOf0DiyJZHEKBZAf/auDfU4a9I9NlydgGaF/CvSZ2G7uqyfkiylThbzixAMwP+tajXUIePSWmz5awCNDfgX4O6Db3K/j0ZZbacUYBmB/ydqd/Q9XYF6LLlbAI0P+DviE9DH+mxvixBlS3nEkBFwN8Jv4ZusL8uRZMt5xFATcDfAd+GPmp/YZIiW84hgKqAvxX/hjq8Mh2eLacXQF3A30JIQ8/ZMzMLN6uTEaCRCe8gwhr6GHe2nFYAe/xNH6H/SWXOllMK0NCAfyDhf6h6nDNbTidAYwP+gVD8tWrPgO2neGfLqQRocMA/EJoPVuzrBTyz5TQCNDrgHwjVR6vDT9l+kle2nEKAhgf8A6H7cmX4advPOtZ3PL4AjQ/4B0L59erwGttPq50tDxVAQcA/ENoXLOwfstfMlocJoCLgHwj1K1b2r9lqZctDBFAS8A+E/CVLhy/aa2TL/QVQE/APhOE161H7qzbO2XJfARQF/ANhCVo4vGznmC33E0BVwD8QpqgVVbbcRwBlAf9A2MKWWyaftf1sh2x5fQHUBfwDYYxbO0RurNnyugIoDPgHwrpwwSF0Z8mW1xNAZcA/EOaVKw6x247Z8joCKA34B8K+dCksW+4ugNqAfyAR1q45/JvZNlvuKoDigH8gURYv+mfL3QRQHfAPJNLqVd9suYsAygP+gURbvuzw9/OKbLldAPUB/0Airl/3yZbbBEDAP5SoBxgcPqNfkS3vLAAC/uFEPsHi8C3dsmx5JwEQ8Kcg+hEmh+/pl2TL2wuAgD8NAmfYHN7UWcyWtxUAAX8iRA4xOryrt5AtbyMAAv5kCJ1idc2WVwqAgD8hYseYHd7XP/V9lQAI+JMieI5904A1sPXiqrMle/8r3bGGIShAqQAim9KICuCSLQe8CAuA3L404gK4ZMsBHwkIYMyTc9Jt0EsSAmB7lxyJCOCSLQccJCMAPuCTISEBXE7XA2qSEsDldD2gJTEBXE7XA0pSEwDveUUmPQGcTtcDKlIUoFTAmi0HNKQpAF73j0aqAjidrgfhpCsAEp9RSFkAY7bjzX9u0hbA4AsCbiCAciCAciCAciCAciCAciCAciCAciCAciCAciCAciCAciCAciCAciCAciCAciCAciCAciCAciCAciCAciCAciCAciCAciCAciCAciCAciCAciCAciCAciCAciCAciCAciCAciCAciCAciCAciCAciCAciCAciCAciCAciCAciCAciCAciCAciCAciCAciCAciCAciCAciCAciCAciCAciCAciCAciCAciCAciCAciCAciCAciCAciCAciCAciCAciCAciCAciCAciCAciCAciCAciCAciCAciCAciCAciCAciCAciCAciCAcv43Lj1jCCDLJ5OfSk8ZAshydmJUes4QQJYzySoAASKxb0J61BBAmA/HpIcNAYQ5/aP0uCGAMKd+kB44BBDm1PfSI4cAwsy9Kz10CCDM3EnpsUMAWQaH3pEePASQZXBoj/ToIYAs/QMnpIcPAWTpH/hOevwQQJZjfW9DAN0c69sNAXQz2/sWBNDNbO+bEEA363regAC6OdrzOgTQzSvdr0EA3RzufhUC6OZQ1xEIoJuLu16GALo52NoOAXTzTeslCKCbn6e/hgC6+Wr6AATQzedTX0AA3fwUQwEIkDL7p9iDxRAgbdiz5RAgdZiz5RAgfViz5RAgBxiz5RAgD9iy5RAgF5iy5RAgH1iy5RAgJxiy5RAgL8iz5RAgN4iz5RAgO2iz5RAgQyiz5RAgS+iy5RAgU6iy5RAgW2iy5RAgYyiy5RAga8Kz5RAgc0Kz5RAge8Ky5RCgAYRkyyFAI/DPlkOAhuCbLYcAjcEvWw4BGoRPthwCNIr62XII0DDqZsshQOOoly2HAA2kTrYcAjQS92w5BGgortlyCNBY3LLlEKDBuGTLIUCjsWfLIUDDsWXLIUDj6ZwthwAK6JQthwAqaJ8thwBKaJcthwBqqM6WQwBFVGXLIYAqVmfLIYAuVmXLIYA2VmTLIYA+lmXLIYBGlmTLIYBOFrPlEEArC9lyCKCX89lyCKCZ2d5vIYBu1l0qXUFd/g8MjLHSORMT9wAAAABJRU5ErkJggg==;" vertex="1" parent="1">
          <mxGeometry x="753" y="75" width="55" height="55" as="geometry" />
        </mxCell>
        <mxCell id="Oy8kM78HI0bEzsmMR2zc-4" value="Azure Devops" style="shape=image;verticalLabelPosition=bottom;labelBackgroundColor=default;verticalAlign=top;aspect=fixed;imageAspect=0;image=data:image/png,iVBORw0KGgoAAAANSUhEUgAAAgAAAAIACAMAAADDpiTIAAACbVBMVEUAAAAAAAAAAAAAAAAAAAAAAAAAAAAAAAAAAAAAAAAAAAAAAAAAAAAAAAAAAAAAAAAAAAAAAAAAAAAAAAAAAAAAAAAAAAAAAAAAAAAAAAAAAAAAAAAAAAAAAAAAAAAAAAAAAAAAAAAAAAAAAAAAAAAAAAAAAAAAAAAAAAAAAAAAAAAAAAAAAAAAAAAAAAAAAAAAAAAAAAAAAAAAAAAAAAAAAAAAAAAAAAAAAAAAAAAAAAAAAAAAAAAAAAAAAAAAAAAAAAAAAAAAAAAAAAAAAAAAAAAAAAAAAAAAAAAAAAAAAAAAAAAAAAAAAAAAAAAAAAAAAAAAAAAAAAAAAAAAAAAAAAAAAAAAAAAAAAAAAAAAAAAAAAAAAAAAAAAAAAAAAAAAAAAAAAAAAAAAAAAAAAAAAAAAAAAAAAAAAAAAAAAAAAAAAAAAAAAAAAAAAAAAAAAAAAAAAAAAAAAAAAAAAAAAAAAAAAAAAAAAAAAAAAAAAAAAAAAAAAAAAAAAAAAAAAAAAAAAAAAAAAAAAAAAAAAAAAAAAAAAAAAAAAAAAAAAAAAAAAAAAAAAAAAAAAAAAAAAAAAAAAAAAAAAAAAAAAAAAAAAAAAAAAAAAAAAAAAAAAAAAAAAAAAAAAAAAAAAAAAAAAAAAAAAAAAAAAAAAAAAAAAAAAAAAAAAAAAAAAAAAAAAAAAAAAAAAAAAAAAAAAAAAAAAAAAAAAAAAAAAAAAAAAAAAAAAAAAAAAAAAAAAAAAAAAAAAAAAAAAAAAAAAAAAAAAAAAAAAAAAAAAAAAAAAAAAAAAAAAAAAAAAAAAAAAAAAAAAAAAAAAAAAADWcgOBAAAAznRSTlMAF9iICN3cSbMe9YAGQ/6iFu9vA802/RPnXgHBK/qRDOQh9gfbRx30dwTQOhXuAss0+w7mvikLSh/ZRKrOOO1mwiwN5bwnSNE7zDWZwCrjVCDaRhzwzzkURY/xM1W9KMT5ErsKTSL4CdfzPDB5w/yyJeL3ENUR8hrqBdZqtZBQ4Xx+64mLS+wYjUzFxseTGSOVJJdWm1fSp52cWCafWS8yD94b4GtBLb9SmGmof5RlpnroYaR2uozIqXJAnm6wPoOEU68932KleKN0cLE/hVQDu4MAABBsSURBVHja7d35X1zVGcfxkwBmDHFIQKMgTBY0QGowCUoULKhxKVKNmlhrQIkEXGhFTUgiWquNdam2aqrVttpqtdp93/d9b8/f1BnCZZvt3nPPuc99zvN9/044c87n9XqGe3NnlAIAAAAAAAAAAAAAAAAAAAAAAAAAAAAAAAAAAAAAAAAAAAAAAAAAAAAAAEjAKuoFAK3VNbXUSwBKdfqMNdRrAEJ1WuvMmdSrADKFAPTa+nXU6wAicwFovfos6oUAjfkAdLZhPfVSgEIQgNYbGpuoFwPJWwxA67PPoV4NJG5pAHpjw7nU64GELQtA6/OaW6hXBIlaEYDW57dSLwmSVBSAbsttol4UJKc4AK03N1OvChJTKgCtM1uo1wUJKR2A3lrfTr0ySESZALS+4ELqpUESygaQnwPbqBcH7lUIQHd0dlEvD1yrFIDW2z9AvT5wrHIAOttwEfUKwakqAWi9o7Gbeo3gUNUAtL54J/UiwZ0QAehdud3UywRXwgSgdQ8uDvsqXABaX3Ip9UrBibAB6LZcL/VawYHQAWhdt4d6sWBfhAC0zlxGvVywLVIAeILEP9EC0PryPuoVg1VRA9C6H0+U+yR6AHiCxCsGAWh9xQeplw22GAWAJ0j8YRaA1gODeILEC6YBaH3lVdRrBwvMA9C7cldTrx5iixGA1ntxk5C9WAFofc211C8A4okZgN5aj4+ZYy1uAFpfcB31a4AY4geAj5ljzUYAugM3CdmyEoDW13+I+oWAGUsB4AkSrmwFgCdImLIXgNZDN1C/GojMZgB64zCeIOHGagD4mDl+LAeg9YdvpH5JEIX1APAxc7zYD0Drm/ZRvyoIzUUAWmdupn5dEJKbAPAxc2w4CkDrW26lfmkQhrMA8nNgP/WLg+ocBqAP4AmS9HMZgNa3fYT69UEVbgPQ2YbbqV8hVOQ4AK0HcJMwvdo/esdW1wHgCZK0WtXcf9D96RfgCZLUaRqpH8omc/pz8ARJmlw02rAjwcM/7c67qF82FHSPdI5tTPz0Cw7V4AkSanePDveQHP5pZ6yh3gDRWjvH2whPfw6eICFyeGL4JurDn4OPmSMwOZi5h/rgF60+i3o/RLm3r+Y+6iNfIduwnnpXpNgy2H8/9XGXgo+ZS0DXVM0Q9UGXd/Y51Pvjt1XN/Qeoz7gyfMycM0lf5DWFJ0hcuJ3iIq+p81upt8svdBd5TeEJEnvuHh3eS32eBjbjJqEFLR/7+APT1Edp6sGbE96tda37HqI+MZsO9+Uepj7EWJJ7gmRd62h9/9ARrUepD82adF3kNXXBha736ehIc03/zMIbJD8CSOFFXmOZba526djUYG585f979SCALYP9x6lPzaaOTusXh0/0NQ6PP1LytzEPIN0XeU1tt/YEyezkRGfDUEeF38U5gPWpv8hrysLHzLXPvcur/q6IawBcLvKaivEEybH8u7xMXdjLYCwDYHWR19TFO6Mffal3eVXwC6CV20VeU7ty4T9mrvAub8zoyRZeAWyaYHmR11RP9YvDp9/lrTX/HYwCmGyk/5+8Sbvk0rLbEfZdXhVMAmB/kddUW663aDOivcurgkMAflzkNVW3Z8nRG7zLqyLtAdT21TxKfQTUMpfFeZdXRaoD2PLYJxJ4Yj/lOsYe/2T8UV9WagNo8vIibzRtMw2NU4WnhxxOwHQG4O9F3rB2Fc5+4T8HiAqgaaRzLEu9/5Tmzn750+NyAjh3dPg86gMgNF04+8PF2yIkgNbO8V3UR0CnJ9M51VtmZwQE0DsxvJn6CMj0ZOon7q60O74HMNk4foj6EIgUzr76p0f6HMDhvtwT1KdAo3D268NtkscBPCnyIu/eBz+1J+TZex7AWTJu7S+xYSzXHPk5QG8D2P9I/FfAx8HC2Rs9BuxrAF1XUp9JUo4bn73XAdRQn0sS7i+cfczPCPc0gDW+vwFomxmOffYeB7D/JPUBObRwI88KLwPoeoD6kBxZfiMPAZTzFPVBOTB39vfa3ysfA9iTpT4tu8rdyEMApXn1BqBwUfeYy93yL4CuMepDs6Rw9u4/5c+/AD5NfXAWhLuRhwBKeTpLfXrxRLiRhwBK2PYM9Qma2zFeP/Fs0hvmWQCzTN8AHDC5kYcAij1HfZLRmd/IQwBFPpOlPs5IYt7IQwArMXoDYONGHgJYYfZ56mMNpW2mYbA1Nd/l4VMAd1AfbZizt30zBwEsSPcbgBJPZaWCPwGcOUB9xuVMO7qRZ4U3Acy+QH3OJdU5vJFnhTcB5KiPuojzG3lW+BLARJb6vFeePZOv6/IkgMsGqM986dnH/jTeBPkRwOxnqc89OPtV1AcalR8BfI767DeM1Uy8SH2WRrwIYB/l2dPdyLPChwBeovrUJ+IbeVZ4EEA7xWe+HU/LzZy4PAjg5YTPvsOXs5/DP4DRBM++cDNnJDU38qxgH8CphN4AOHgqKxW4B9B+dkJnn8IbeVZwD+Dzbs8+1TfyrGAewCsOD7+nP+U38qzgHcApFx9zr0N8vKI/WAdQe4Wbs2dyI88K1gEM2z97TjfyrOAcgMU3ACxv5FnBOICH7LwB2DCWG+V5I88KvgFYeAPA/EaeFXwDeDXW4ny4kWcF2wC+YLyu1DyVlQpcAzB7A3BoCGe/AtMADr9msqLX/bqRZwXTAL5otKIvUe92CvEM4MtmK0IAxVgG8MZxBGALxwBqtxuuCAEU4xjAm6YrQgDFGAbwFeMVIYBi/AK41vANAAIoiV0AvTPmK0IAxdgFEOcxMARQjF0AcR4DQADFEIBwCEA4BCAcAhAOAQiHAIRDAMIhAOEQgHAIQDgEIBwCEA4BCIcAhEMAwiEA4RCAcAhAOAQgHAIQDgEIhwCEQwDCIQDhEIBwCEA4BCAcAhAOAQiHAIRDAMIhAOEQgHAIQDgEIBwCEA4BCIcAhEMAwiEA4RCAcAhAOAQgHAIQDgEIhwCEQwDCIQDhEIBwCEA4BCAcAhAOAQiHAIRDAMIhAOEQgHAIQDgEIBwCEA4BCIcAhEMAwiEA4RCAcAhAOAQgHAIQDgEIhwCEQwDCIQDhEIBwCEA4BCAcAhAOAQiHAIRDAMIhAOEQgHAIQDgEIBwCEA4BCIcAhEMAwiEA4RCAcAhAOAQgHAIQDgEIhwCEQwDCIQDhEIBwCEA4BCAcAhAOAQiHAIRDAMIhAOEQgHAIQDgEIBwCEA4BCIcAhEMAwiEA4RCAcAhAOAQgHAIQDgEIhwCEQwDCsQvgq48iAJvYBaDUVP8uBGANwwCUerFzMwKwhGUASq0bHUcAVjANIO+t4bUIID6+ASj1duPXEEBcnANQqruvfxoBxMI7gLxTNQMIIAb2AShV27wdARjzIIC8kYY2BGDGjwCUerbzYQRgwpcAlGqaGM8igMj8CSDvrlwHAojIqwCU2j04gwAi8SwApVr6yt8rQgDFvAsg7536kwggLB8DUKp99HkEEI6fAeSNDG9FACF4G4BS6zvfRQBVeRxA4V5RJosAKvM6gLw3anYggEp8D0CpqwdfQwDl+R+AWvxvpAigmIgAgv9GigCKCQng9H8jRQDFxASQN/L1995/cZZ6FSkjKQDV9I38so70DGUacvWDE1Otx6gXlAKiAlD7n1m+xCM9M2P9ufrG5r7WE93Ui6MhKwD1zQrr3TEzlmmoaWyeGDkhaE4IC0B9K9zaT8+Jzub8nHibesluSQug9vrIryM/J8bzbxoaR6daT7RQr986aQGo1sgPlC11T/5NQ2a4fm5OdFG/FCvEBaC+be0FHqkbm58Tk+3Ur8qYvADUd1y82Pk5UfjjktecEBjA0Xfjv7ZqMSz8cdlE/WqrERiAmjL9hBGjGurm/7icmlxH/cJLkRiA+m6CASyLYfEi5FHqPQiIDKD7TqIClsVwek4U/rikvAgpMgD1zsn4L8+mHYt/XCZ9EVJmAGpPlvrMy1pyEXI3AnDme9TnHDIG5xchpQbQfhv14Ua1cBEy/8elxYuQUgNQD91PfaJx2PvjUmwA6vvUh2jL0ouQCCCCH1CfnAPRL0IKDuDtiJ8yyE6o/+EiOAB1TqhPlvLDkj8ul1+ElByA+iH1sdBYdhFSdABpuCRM7JDDfzv9AahVP6I+AJ8xCECtyVLvksc4BKAep94lj7EIoP0K6m3yF4sA1Knj1PvkLR4BqB9T75O3mASgfkK9Ub7iEsCmy6l3ylNcAlA7XV4NEYxNAOqn1FvlJz4BdP+Meq+8xCcAtf486s3yEaMA1IVZ6t3yEKcA1M+pd8tDrAKY/QX1dnnnl73UhxrJSwepN8wv052snpLPe4V6y7wycCv1eUbXQL1pHrl+kvo0DfSupt42bzAb/4G3cEnYCn7jP/Ar6q3zAsfxP6/lQerN8wDL8R+4qId6+9hjOv4Dv56m3kDe+I7/QA31FrLGePwHul6g3kTGWI//wOQB6m1ki/n4D4xS7yNT/Md/4DfUW8mSB+M/0Pso9WYy5MX4D1y1Nf6GCOPJ+A/8lno/mfFn/M9r+R31lrLi0fgPHHuCelMZ8Wr8B34/Tb2tbHg2/gN/iLYLf3yY+hyIeDf+A11jkfZBdU8Nd1AfBgEPx39g20CUjSj8xO7m8Sz1gSTMy/Ef+FOUnZj/mTM7ff/00WU8Hf+B4QhbsfBDgkaBt+M/EOVbZpf+nJBR4PH4D7SGvyS84icFjAKvx3/gsdDbUfSjvo8Cz8d/4M/GASivR4H34z9wLOy3zJb5eU9HgYDxH/jLdKwA/BwFIsZ/oD5mAMq/USBk/M8L+ZUCVf4Vj0aBmPEf2P+MhQD8GQWCxn/g6ayNAJQfo0DU+A+8bCkAxX8UyBr/gdrt1gLgPQrEjf/AjWvtBaD4jgKB4z8waDUAxXMUiBz/gdctB8BwFMgc/4Gjf7UdgOI1CsSO/0C1b5k1/Ge5jALB4z/wpJMAmIwC0eM/OKhr3ASgGIwC2eM/8M5JVwGodI8C8eM/UPFbZmP/66kdBRj/C3IuA1ApHQUY/4sqfcuspV+RulGA8b9UhW+ZtfY7UjUKMP5X+Jv7AFSKRgHGf5G/JxGASskowPgvtumWZAJIwyjA+C/lhjJfKeDid5GOAoz/Mv6RXACKcBRg/JdT5ltm3f0+klGA8V9e6W+Zdfkbkx8FGP+VXFfqNBz/zkRHAcZ/Fc8lH0CSowDjv5pS3zKbxO9NZhRg/FdX4ltmE/rN7kcBxn8YzVQBuB4FGP8h/ZMsAOVyFGD8h7Vp5bfMJvz73YwCjP/wRlZcEk58AQ5GAcZ/FP8iDkDZHgUY/9G0ZMgDUDZHAcZ/VMu/ZZZsGZZGAcZ/dO9tTEMAysoowPg38VRKAlBxRwHGv5ml3zJLvZY4owDj39TkwfQEoIxHAca/uVdSFYAyGgUY/3G8mbIAIo8CjP94eu9LWwAq0ijA+I/r/SPpC0CFHgUY//H9O5UBhBsFGP8WtPwnnQGoqqMA49+O2/emNQBVcRRg/Nvy3+n0BlB+FGD82/O/NAegSo8CjH+Lup5PdwCqaBRg/Nu1bSDtASwfBRj/tu1LfwBqcRRg/Nv3KvUCQiqMAox/Bw5TLyC07p0Y/wAAAAAAAAAAAAAAAAAAAAAAAAAAAAAAAAAAAAAAAAAAAAAAAAAAAAAAUMb/AQaFe0XEhH7tAAAAAElFTkSuQmCC;" vertex="1" parent="1">
          <mxGeometry x="753" y="149" width="56" height="56" as="geometry" />
        </mxCell>
      </root>
    </mxGraphModel>
  </diagram>
</mxfile>
